<svg width="598" height="89" viewBox="0 0 598 89" fill="none" xmlns="http://www.w3.org/2000/svg">
<mask id="path-1-outside-1_50_597" maskUnits="userSpaceOnUse" x="19" y="6" width="560" height="77" fill="black">
<rect fill="white" x="19" y="6" width="560" height="77"/>
<path d="M33.9983 67.3118C33.9983 70.8611 32.1442 72.6357 28.436 72.6357C26.6349 72.6357 25.2046 72.1854 24.1452 71.2849C23.0857 70.3843 22.5559 69.0599 22.5559 67.3118V35.8453C22.5559 28.5349 24.0392 23.317 27.0057 20.1915C29.9723 17.066 34.6075 15.5033 40.9114 15.5033C47.3742 15.5033 52.1419 17.0925 55.2144 20.271C58.2868 23.4494 59.8231 28.6408 59.8231 35.8453V67.3118C59.8231 70.8611 57.969 72.6357 54.2608 72.6357C52.4597 72.6357 51.0294 72.1854 49.9699 71.2849C48.9105 70.3843 48.3807 69.0599 48.3807 67.3118V48.1617C47.3742 49.0623 46.2618 49.8304 45.0434 50.4661C43.8779 51.1018 42.5006 51.4196 40.9114 51.4196C38.5805 51.4196 36.8324 51.8434 35.667 52.691C34.5545 53.5386 33.9983 55.0483 33.9983 57.2203V67.3118ZM33.5215 44.0298C34.3691 43.1822 35.3756 42.52 36.541 42.0432C37.7594 41.5665 39.2162 41.3281 40.9114 41.3281C42.9244 41.3281 44.4607 41.1692 45.5201 40.8513C46.6326 40.5335 47.4007 39.9243 47.8245 39.0237C48.2483 38.1232 48.4602 36.7988 48.4602 35.0507C48.4602 31.1306 47.904 28.4554 46.7915 27.0251C45.6791 25.5419 43.6925 24.8002 40.8319 24.8002C38.1832 24.8002 36.3556 25.5684 35.3491 27.1046C34.3956 28.5879 33.9188 31.3425 33.9188 35.3685C33.9188 37.4345 33.8924 39.1827 33.8394 40.613C33.7864 42.0432 33.6805 43.1822 33.5215 44.0298ZM77.983 72C76.9765 72 76.1289 71.6027 75.4403 70.8081C74.7516 70.0135 74.4073 69.007 74.4073 67.7886V32.0312C74.4073 30.283 74.6456 28.4554 75.1224 26.5484C75.6521 24.6413 76.6057 22.8667 77.983 21.2245C79.4133 19.5293 81.4263 18.152 84.022 17.0925C86.6177 16.0331 90.0081 15.5033 94.193 15.5033C99.7553 15.5033 104.073 16.8806 107.145 19.6353C110.218 22.3899 111.754 26.5219 111.754 32.0312C111.754 34.2561 111.33 36.2956 110.483 38.1497C109.688 40.0038 108.469 41.4076 106.827 42.3611C109.423 43.5265 111.277 45.1422 112.39 47.2082C113.555 49.2742 114.138 52.1348 114.138 55.79C114.138 61.0874 112.496 65.1134 109.211 67.868C105.98 70.6227 100.974 72 94.193 72H77.983ZM85.2934 40.9308C85.9821 40.0832 87.0945 39.421 88.6308 38.9443C90.22 38.4675 92.0741 38.2291 94.193 38.2291C96.6828 38.2291 98.378 37.7788 99.2785 36.8783C100.232 35.9248 100.709 34.3091 100.709 32.0312C100.709 29.3825 100.153 27.5019 99.0401 26.3895C97.9807 25.224 96.365 24.6413 94.193 24.6413C91.1205 24.6413 88.9486 25.1975 87.6772 26.31C86.4588 27.4224 85.8496 29.3295 85.8496 32.0312C85.8496 33.6734 85.8231 34.9977 85.7702 36.0042C85.7702 36.9578 85.7172 37.8053 85.6112 38.547C85.5583 39.2886 85.4523 40.0832 85.2934 40.9308ZM85.8496 62.7825H94.193C97.3715 62.7825 99.5699 62.2263 100.788 61.1139C102.06 60.0014 102.695 58.2268 102.695 55.79C102.695 52.3467 102.033 49.8834 100.709 48.4001C99.4374 46.9168 97.2655 46.1752 94.193 46.1752C92.0211 46.1752 90.3259 46.4666 89.1075 47.0493C87.8891 47.579 87.0415 48.5326 86.5648 49.9099C86.088 51.2872 85.8496 53.2472 85.8496 55.79V62.7825ZM146.75 72.6357C142.141 72.6357 138.221 71.7351 134.99 69.934C131.759 68.0799 129.295 65.0604 127.6 60.8755C125.958 56.6905 125.137 51.0223 125.137 43.8708C125.137 36.7194 125.958 31.0776 127.6 26.9457C129.295 22.8137 131.759 19.8737 134.99 18.1255C138.221 16.3774 142.141 15.5033 146.75 15.5033C151.412 15.5033 155.332 16.3774 158.51 18.1255C161.742 19.8737 164.179 22.8137 165.821 26.9457C167.516 31.0776 168.364 36.7194 168.364 43.8708C168.364 51.0223 167.516 56.6905 165.821 60.8755C164.179 65.0604 161.742 68.0799 158.51 69.934C155.332 71.7351 151.412 72.6357 146.75 72.6357ZM146.75 62.1469C148.869 62.1469 150.67 61.6436 152.154 60.6371C153.69 59.6306 154.855 57.803 155.65 55.1543C156.497 52.5056 156.921 48.7444 156.921 43.8708C156.921 38.9443 156.497 35.2096 155.65 32.6669C154.855 30.0711 153.69 28.323 152.154 27.4224C150.67 26.4689 148.869 25.9921 146.75 25.9921C144.684 25.9921 142.883 26.4689 141.347 27.4224C139.811 28.323 138.619 30.0711 137.771 32.6669C136.976 35.2096 136.579 38.9443 136.579 43.8708C136.579 48.7444 136.976 52.5056 137.771 55.1543C138.619 57.803 139.811 59.6306 141.347 60.6371C142.883 61.6436 144.684 62.1469 146.75 62.1469ZM201.153 72.6357C194.743 72.6357 189.843 71.0465 186.453 67.868C183.115 64.6366 181.447 59.7895 181.447 53.3267V21.7013C181.447 17.5693 183.354 15.5033 187.168 15.5033C190.982 15.5033 192.889 17.5693 192.889 21.7013V53.3267C192.889 56.6641 193.604 59.1009 195.034 60.6371C196.518 62.1733 198.557 62.9415 201.153 62.9415C207.51 62.9415 210.688 59.7365 210.688 53.3267V21.7013C210.688 17.5693 212.595 15.5033 216.409 15.5033C220.224 15.5033 222.131 17.5693 222.131 21.7013V53.3267C222.131 59.7365 220.356 64.5572 216.807 67.7886C213.257 71.02 208.04 72.6357 201.153 72.6357ZM252.47 72.6357C251.145 72.6357 249.795 72.3443 248.417 71.7616C247.093 71.1259 246.431 70.1194 246.431 68.7421V31.5544C246.431 29.8592 246.855 28.6938 247.702 28.0581C248.55 27.4224 249.238 27.0251 249.768 26.8662H234.432C233.161 26.8662 232.207 26.31 231.572 25.1975C230.989 24.0321 230.697 22.8402 230.697 21.6218C230.697 20.2975 231.015 19.1055 231.651 18.0461C232.287 16.9336 233.214 16.3774 234.432 16.3774H269.951C271.17 16.3774 272.097 16.9336 272.732 18.0461C273.368 19.1055 273.686 20.2975 273.686 21.6218C273.686 22.8402 273.368 24.0321 272.732 25.1975C272.15 26.31 271.223 26.8662 269.951 26.8662H257.873V68.7421C257.873 70.0665 257.317 71.0465 256.204 71.6822C255.145 72.3178 253.9 72.6357 252.47 72.6357ZM325.224 73.1919C325.224 75.1519 324.88 76.6617 324.191 77.7212C323.556 78.8336 322.629 79.3899 321.41 79.3899C318.814 79.3899 317.517 77.7212 317.517 74.3838V72.6357C315.557 72.5827 313.517 72.3973 311.398 72.0795C309.332 71.8146 307.663 71.4173 306.392 70.8875C304.167 69.987 303.055 68.4772 303.055 66.3583C303.055 64.822 303.505 63.6036 304.406 62.7031C305.359 61.7495 306.842 61.2728 308.855 61.2728C310.233 61.2728 311.901 61.4582 313.861 61.829C315.821 62.1998 317.543 62.3852 319.026 62.3852C322.311 62.3852 324.668 61.9614 326.098 61.1139C327.529 60.2663 328.244 58.5446 328.244 55.9489C328.244 54.4127 327.688 53.1148 326.575 52.0553C325.516 50.9958 323.37 49.9893 320.139 49.0358C314.259 47.2877 309.994 45.1157 307.346 42.52C304.75 39.9243 303.452 36.5604 303.452 32.4285C303.452 27.8727 304.723 24.191 307.266 21.3834C309.862 18.5228 313.279 16.6952 317.517 15.9006V15.7417C317.517 11.5038 318.814 9.38483 321.41 9.38483C323.953 9.38483 325.224 11.4508 325.224 15.5828C328.297 15.8476 330.892 16.4039 333.011 17.2515C335.236 18.099 336.349 19.6088 336.349 21.7807C336.349 23.317 335.872 24.5619 334.919 25.5154C334.018 26.4159 332.561 26.8662 330.548 26.8662C329.224 26.8662 327.794 26.7338 326.257 26.4689C324.721 26.1511 323.211 25.9921 321.728 25.9921C319.45 25.9921 317.728 26.3895 316.563 27.1841C315.398 27.9787 314.815 29.303 314.815 31.1571C314.815 32.8523 315.636 34.3885 317.278 35.7658C318.92 37.1432 321.94 38.494 326.337 39.8183C331.369 41.3016 334.839 43.3146 336.746 45.8574C338.653 48.3471 339.607 51.5256 339.607 55.3927C339.607 59.9484 338.362 63.6301 335.872 66.4377C333.382 69.2454 329.833 71.0994 325.224 72V73.1919ZM356.267 72C355.26 72 354.413 71.6027 353.724 70.8081C353.035 70.0135 352.691 69.007 352.691 67.7886V32.0312C352.691 30.283 352.929 28.4554 353.406 26.5484C353.936 24.6413 354.889 22.8667 356.267 21.2245C357.697 19.5293 359.71 18.152 362.306 17.0925C364.902 16.0331 368.292 15.5033 372.477 15.5033C378.039 15.5033 382.356 16.8806 385.429 19.6353C388.501 22.3899 390.038 26.5219 390.038 32.0312C390.038 34.2561 389.614 36.2956 388.766 38.1497C387.972 40.0038 386.753 41.4076 385.111 42.3611C387.707 43.5265 389.561 45.1422 390.673 47.2082C391.839 49.2742 392.421 52.1348 392.421 55.79C392.421 61.0874 390.779 65.1134 387.495 67.868C384.263 70.6227 379.257 72 372.477 72H356.267ZM363.577 40.9308C364.266 40.0832 365.378 39.421 366.915 38.9443C368.504 38.4675 370.358 38.2291 372.477 38.2291C374.967 38.2291 376.662 37.7788 377.562 36.8783C378.516 35.9248 378.993 34.3091 378.993 32.0312C378.993 29.3825 378.436 27.5019 377.324 26.3895C376.264 25.224 374.649 24.6413 372.477 24.6413C369.404 24.6413 367.232 25.1975 365.961 26.31C364.743 27.4224 364.133 29.3295 364.133 32.0312C364.133 33.6734 364.107 34.9977 364.054 36.0042C364.054 36.9578 364.001 37.8053 363.895 38.547C363.842 39.2886 363.736 40.0832 363.577 40.9308ZM364.133 62.7825H372.477C375.655 62.7825 377.854 62.2263 379.072 61.1139C380.343 60.0014 380.979 58.2268 380.979 55.79C380.979 52.3467 380.317 49.8834 378.993 48.4001C377.721 46.9168 375.549 46.1752 372.477 46.1752C370.305 46.1752 368.61 46.4666 367.391 47.0493C366.173 47.579 365.325 48.5326 364.849 49.9099C364.372 51.2872 364.133 53.2472 364.133 55.79V62.7825ZM410.81 72.4768C409.009 72.4768 407.579 72.0795 406.52 71.2849C405.46 70.4373 404.93 69.2454 404.93 67.7091V33.382C404.93 27.237 406.546 22.7343 409.777 19.8737C413.062 16.9601 418.174 15.5033 425.113 15.5033C430.782 15.5033 435.099 16.9336 438.066 19.7942C441.085 22.6018 442.595 26.6808 442.595 32.0312C442.595 33.8853 442.542 35.6864 442.436 37.4345C442.33 39.1297 442.171 40.3216 441.959 41.0103C441.165 43.9238 439.708 46.1487 437.589 47.685C440.449 50.0688 441.88 52.8234 441.88 55.9489V67.7091C441.88 70.9935 440.052 72.6357 436.397 72.6357C434.596 72.6357 433.165 72.2384 432.106 71.4438C431.046 70.5962 430.517 69.3513 430.517 67.7091V57.2203C430.517 54.3597 430.066 52.3467 429.166 51.1812C428.318 50.0158 426.57 49.4331 423.922 49.4331C421.061 49.4331 419.074 50.0688 417.962 51.3402C416.902 52.5586 416.373 54.8364 416.373 58.1738V67.7091C416.373 70.8875 414.519 72.4768 410.81 72.4768ZM415.737 42.9173C417.061 41.8049 418.227 41.0897 419.233 40.7719C420.293 40.4011 421.803 40.2156 423.763 40.2156C426.411 40.2156 428.345 40.0832 429.563 39.8183C430.835 39.5535 431.656 38.9972 432.027 38.1497C432.397 37.3021 432.583 35.9777 432.583 34.1766C432.583 30.5744 432.027 28.0846 430.914 26.7073C429.855 25.277 427.921 24.5619 425.113 24.5619C421.988 24.5619 419.763 25.277 418.439 26.7073C417.167 28.1376 416.532 30.6274 416.532 34.1766C416.532 35.9248 416.452 37.4875 416.293 38.8648C416.187 40.1892 416.002 41.54 415.737 42.9173ZM467.681 67.3118C467.681 70.8611 465.827 72.6357 462.119 72.6357C460.317 72.6357 458.887 72.1854 457.828 71.2849C456.768 70.3843 456.238 69.0599 456.238 67.3118V35.8453C456.238 28.5349 457.722 23.317 460.688 20.1915C463.655 17.066 468.29 15.5033 474.594 15.5033C481.057 15.5033 485.824 17.0925 488.897 20.271C491.969 23.4494 493.506 28.6408 493.506 35.8453V67.3118C493.506 70.8611 491.652 72.6357 487.943 72.6357C486.142 72.6357 484.712 72.1854 483.652 71.2849C482.593 70.3843 482.063 69.0599 482.063 67.3118V48.1617C481.057 49.0623 479.944 49.8304 478.726 50.4661C477.56 51.1018 476.183 51.4196 474.594 51.4196C472.263 51.4196 470.515 51.8434 469.35 52.691C468.237 53.5386 467.681 55.0483 467.681 57.2203V67.3118ZM467.204 44.0298C468.052 43.1822 469.058 42.52 470.224 42.0432C471.442 41.5665 472.899 41.3281 474.594 41.3281C476.607 41.3281 478.143 41.1692 479.203 40.8513C480.315 40.5335 481.083 39.9243 481.507 39.0237C481.931 38.1232 482.143 36.7988 482.143 35.0507C482.143 31.1306 481.587 28.4554 480.474 27.0251C479.362 25.5419 477.375 24.8002 474.514 24.8002C471.866 24.8002 470.038 25.5684 469.032 27.1046C468.078 28.5879 467.601 31.3425 467.601 35.3685C467.601 37.4345 467.575 39.1827 467.522 40.613C467.469 42.0432 467.363 43.1822 467.204 44.0298ZM514.134 72.6357C510.214 72.6357 508.254 70.8611 508.254 67.3118V20.8272C508.254 18.9731 508.705 17.6223 509.605 16.7747C510.506 15.9271 511.936 15.5033 513.896 15.5033C517.763 15.5033 519.697 17.2779 519.697 20.8272V67.3118C519.697 69.1129 519.246 70.4638 518.346 71.3643C517.498 72.2119 516.094 72.6357 514.134 72.6357ZM546.009 67.3118C546.009 70.8611 544.155 72.6357 540.447 72.6357C538.645 72.6357 537.215 72.1854 536.156 71.2849C535.096 70.3843 534.566 69.0599 534.566 67.3118V36.0837C534.566 31.1041 535.229 27.1311 536.553 24.1645C537.877 21.145 540.049 18.9466 543.069 17.5693C546.088 16.192 550.114 15.5033 555.147 15.5033C561.822 15.5033 566.854 17.066 570.244 20.1915C573.688 23.264 575.409 28.5614 575.409 36.0837V67.3118C575.409 70.8611 573.555 72.6357 569.847 72.6357C568.046 72.6357 566.616 72.1854 565.556 71.2849C564.497 70.3843 563.967 69.0599 563.967 67.3118V36.0837C563.967 32.1636 563.278 29.3825 561.901 27.7403C560.577 26.0451 558.325 25.1975 555.147 25.1975C552.657 25.1975 550.75 25.5684 549.426 26.31C548.101 27.0516 547.201 28.2171 546.724 29.8063C546.247 31.3955 546.009 33.488 546.009 36.0837V67.3118Z"/>
</mask>
<path d="M33.9983 67.3118C33.9983 70.8611 32.1442 72.6357 28.436 72.6357C26.6349 72.6357 25.2046 72.1854 24.1452 71.2849C23.0857 70.3843 22.5559 69.0599 22.5559 67.3118V35.8453C22.5559 28.5349 24.0392 23.317 27.0057 20.1915C29.9723 17.066 34.6075 15.5033 40.9114 15.5033C47.3742 15.5033 52.1419 17.0925 55.2144 20.271C58.2868 23.4494 59.8231 28.6408 59.8231 35.8453V67.3118C59.8231 70.8611 57.969 72.6357 54.2608 72.6357C52.4597 72.6357 51.0294 72.1854 49.9699 71.2849C48.9105 70.3843 48.3807 69.0599 48.3807 67.3118V48.1617C47.3742 49.0623 46.2618 49.8304 45.0434 50.4661C43.8779 51.1018 42.5006 51.4196 40.9114 51.4196C38.5805 51.4196 36.8324 51.8434 35.667 52.691C34.5545 53.5386 33.9983 55.0483 33.9983 57.2203V67.3118ZM33.5215 44.0298C34.3691 43.1822 35.3756 42.52 36.541 42.0432C37.7594 41.5665 39.2162 41.3281 40.9114 41.3281C42.9244 41.3281 44.4607 41.1692 45.5201 40.8513C46.6326 40.5335 47.4007 39.9243 47.8245 39.0237C48.2483 38.1232 48.4602 36.7988 48.4602 35.0507C48.4602 31.1306 47.904 28.4554 46.7915 27.0251C45.6791 25.5419 43.6925 24.8002 40.8319 24.8002C38.1832 24.8002 36.3556 25.5684 35.3491 27.1046C34.3956 28.5879 33.9188 31.3425 33.9188 35.3685C33.9188 37.4345 33.8924 39.1827 33.8394 40.613C33.7864 42.0432 33.6805 43.1822 33.5215 44.0298ZM77.983 72C76.9765 72 76.1289 71.6027 75.4403 70.8081C74.7516 70.0135 74.4073 69.007 74.4073 67.7886V32.0312C74.4073 30.283 74.6456 28.4554 75.1224 26.5484C75.6521 24.6413 76.6057 22.8667 77.983 21.2245C79.4133 19.5293 81.4263 18.152 84.022 17.0925C86.6177 16.0331 90.0081 15.5033 94.193 15.5033C99.7553 15.5033 104.073 16.8806 107.145 19.6353C110.218 22.3899 111.754 26.5219 111.754 32.0312C111.754 34.2561 111.33 36.2956 110.483 38.1497C109.688 40.0038 108.469 41.4076 106.827 42.3611C109.423 43.5265 111.277 45.1422 112.39 47.2082C113.555 49.2742 114.138 52.1348 114.138 55.79C114.138 61.0874 112.496 65.1134 109.211 67.868C105.98 70.6227 100.974 72 94.193 72H77.983ZM85.2934 40.9308C85.9821 40.0832 87.0945 39.421 88.6308 38.9443C90.22 38.4675 92.0741 38.2291 94.193 38.2291C96.6828 38.2291 98.378 37.7788 99.2785 36.8783C100.232 35.9248 100.709 34.3091 100.709 32.0312C100.709 29.3825 100.153 27.5019 99.0401 26.3895C97.9807 25.224 96.365 24.6413 94.193 24.6413C91.1205 24.6413 88.9486 25.1975 87.6772 26.31C86.4588 27.4224 85.8496 29.3295 85.8496 32.0312C85.8496 33.6734 85.8231 34.9977 85.7702 36.0042C85.7702 36.9578 85.7172 37.8053 85.6112 38.547C85.5583 39.2886 85.4523 40.0832 85.2934 40.9308ZM85.8496 62.7825H94.193C97.3715 62.7825 99.5699 62.2263 100.788 61.1139C102.06 60.0014 102.695 58.2268 102.695 55.79C102.695 52.3467 102.033 49.8834 100.709 48.4001C99.4374 46.9168 97.2655 46.1752 94.193 46.1752C92.0211 46.1752 90.3259 46.4666 89.1075 47.0493C87.8891 47.579 87.0415 48.5326 86.5648 49.9099C86.088 51.2872 85.8496 53.2472 85.8496 55.79V62.7825ZM146.75 72.6357C142.141 72.6357 138.221 71.7351 134.99 69.934C131.759 68.0799 129.295 65.0604 127.6 60.8755C125.958 56.6905 125.137 51.0223 125.137 43.8708C125.137 36.7194 125.958 31.0776 127.6 26.9457C129.295 22.8137 131.759 19.8737 134.99 18.1255C138.221 16.3774 142.141 15.5033 146.75 15.5033C151.412 15.5033 155.332 16.3774 158.51 18.1255C161.742 19.8737 164.179 22.8137 165.821 26.9457C167.516 31.0776 168.364 36.7194 168.364 43.8708C168.364 51.0223 167.516 56.6905 165.821 60.8755C164.179 65.0604 161.742 68.0799 158.51 69.934C155.332 71.7351 151.412 72.6357 146.75 72.6357ZM146.75 62.1469C148.869 62.1469 150.67 61.6436 152.154 60.6371C153.69 59.6306 154.855 57.803 155.65 55.1543C156.497 52.5056 156.921 48.7444 156.921 43.8708C156.921 38.9443 156.497 35.2096 155.65 32.6669C154.855 30.0711 153.69 28.323 152.154 27.4224C150.67 26.4689 148.869 25.9921 146.75 25.9921C144.684 25.9921 142.883 26.4689 141.347 27.4224C139.811 28.323 138.619 30.0711 137.771 32.6669C136.976 35.2096 136.579 38.9443 136.579 43.8708C136.579 48.7444 136.976 52.5056 137.771 55.1543C138.619 57.803 139.811 59.6306 141.347 60.6371C142.883 61.6436 144.684 62.1469 146.75 62.1469ZM201.153 72.6357C194.743 72.6357 189.843 71.0465 186.453 67.868C183.115 64.6366 181.447 59.7895 181.447 53.3267V21.7013C181.447 17.5693 183.354 15.5033 187.168 15.5033C190.982 15.5033 192.889 17.5693 192.889 21.7013V53.3267C192.889 56.6641 193.604 59.1009 195.034 60.6371C196.518 62.1733 198.557 62.9415 201.153 62.9415C207.51 62.9415 210.688 59.7365 210.688 53.3267V21.7013C210.688 17.5693 212.595 15.5033 216.409 15.5033C220.224 15.5033 222.131 17.5693 222.131 21.7013V53.3267C222.131 59.7365 220.356 64.5572 216.807 67.7886C213.257 71.02 208.04 72.6357 201.153 72.6357ZM252.47 72.6357C251.145 72.6357 249.795 72.3443 248.417 71.7616C247.093 71.1259 246.431 70.1194 246.431 68.7421V31.5544C246.431 29.8592 246.855 28.6938 247.702 28.0581C248.55 27.4224 249.238 27.0251 249.768 26.8662H234.432C233.161 26.8662 232.207 26.31 231.572 25.1975C230.989 24.0321 230.697 22.8402 230.697 21.6218C230.697 20.2975 231.015 19.1055 231.651 18.0461C232.287 16.9336 233.214 16.3774 234.432 16.3774H269.951C271.17 16.3774 272.097 16.9336 272.732 18.0461C273.368 19.1055 273.686 20.2975 273.686 21.6218C273.686 22.8402 273.368 24.0321 272.732 25.1975C272.15 26.31 271.223 26.8662 269.951 26.8662H257.873V68.7421C257.873 70.0665 257.317 71.0465 256.204 71.6822C255.145 72.3178 253.9 72.6357 252.47 72.6357ZM325.224 73.1919C325.224 75.1519 324.88 76.6617 324.191 77.7212C323.556 78.8336 322.629 79.3899 321.41 79.3899C318.814 79.3899 317.517 77.7212 317.517 74.3838V72.6357C315.557 72.5827 313.517 72.3973 311.398 72.0795C309.332 71.8146 307.663 71.4173 306.392 70.8875C304.167 69.987 303.055 68.4772 303.055 66.3583C303.055 64.822 303.505 63.6036 304.406 62.7031C305.359 61.7495 306.842 61.2728 308.855 61.2728C310.233 61.2728 311.901 61.4582 313.861 61.829C315.821 62.1998 317.543 62.3852 319.026 62.3852C322.311 62.3852 324.668 61.9614 326.098 61.1139C327.529 60.2663 328.244 58.5446 328.244 55.9489C328.244 54.4127 327.688 53.1148 326.575 52.0553C325.516 50.9958 323.37 49.9893 320.139 49.0358C314.259 47.2877 309.994 45.1157 307.346 42.52C304.75 39.9243 303.452 36.5604 303.452 32.4285C303.452 27.8727 304.723 24.191 307.266 21.3834C309.862 18.5228 313.279 16.6952 317.517 15.9006V15.7417C317.517 11.5038 318.814 9.38483 321.41 9.38483C323.953 9.38483 325.224 11.4508 325.224 15.5828C328.297 15.8476 330.892 16.4039 333.011 17.2515C335.236 18.099 336.349 19.6088 336.349 21.7807C336.349 23.317 335.872 24.5619 334.919 25.5154C334.018 26.4159 332.561 26.8662 330.548 26.8662C329.224 26.8662 327.794 26.7338 326.257 26.4689C324.721 26.1511 323.211 25.9921 321.728 25.9921C319.45 25.9921 317.728 26.3895 316.563 27.1841C315.398 27.9787 314.815 29.303 314.815 31.1571C314.815 32.8523 315.636 34.3885 317.278 35.7658C318.92 37.1432 321.94 38.494 326.337 39.8183C331.369 41.3016 334.839 43.3146 336.746 45.8574C338.653 48.3471 339.607 51.5256 339.607 55.3927C339.607 59.9484 338.362 63.6301 335.872 66.4377C333.382 69.2454 329.833 71.0994 325.224 72V73.1919ZM356.267 72C355.26 72 354.413 71.6027 353.724 70.8081C353.035 70.0135 352.691 69.007 352.691 67.7886V32.0312C352.691 30.283 352.929 28.4554 353.406 26.5484C353.936 24.6413 354.889 22.8667 356.267 21.2245C357.697 19.5293 359.71 18.152 362.306 17.0925C364.902 16.0331 368.292 15.5033 372.477 15.5033C378.039 15.5033 382.356 16.8806 385.429 19.6353C388.501 22.3899 390.038 26.5219 390.038 32.0312C390.038 34.2561 389.614 36.2956 388.766 38.1497C387.972 40.0038 386.753 41.4076 385.111 42.3611C387.707 43.5265 389.561 45.1422 390.673 47.2082C391.839 49.2742 392.421 52.1348 392.421 55.79C392.421 61.0874 390.779 65.1134 387.495 67.868C384.263 70.6227 379.257 72 372.477 72H356.267ZM363.577 40.9308C364.266 40.0832 365.378 39.421 366.915 38.9443C368.504 38.4675 370.358 38.2291 372.477 38.2291C374.967 38.2291 376.662 37.7788 377.562 36.8783C378.516 35.9248 378.993 34.3091 378.993 32.0312C378.993 29.3825 378.436 27.5019 377.324 26.3895C376.264 25.224 374.649 24.6413 372.477 24.6413C369.404 24.6413 367.232 25.1975 365.961 26.31C364.743 27.4224 364.133 29.3295 364.133 32.0312C364.133 33.6734 364.107 34.9977 364.054 36.0042C364.054 36.9578 364.001 37.8053 363.895 38.547C363.842 39.2886 363.736 40.0832 363.577 40.9308ZM364.133 62.7825H372.477C375.655 62.7825 377.854 62.2263 379.072 61.1139C380.343 60.0014 380.979 58.2268 380.979 55.79C380.979 52.3467 380.317 49.8834 378.993 48.4001C377.721 46.9168 375.549 46.1752 372.477 46.1752C370.305 46.1752 368.61 46.4666 367.391 47.0493C366.173 47.579 365.325 48.5326 364.849 49.9099C364.372 51.2872 364.133 53.2472 364.133 55.79V62.7825ZM410.81 72.4768C409.009 72.4768 407.579 72.0795 406.52 71.2849C405.46 70.4373 404.93 69.2454 404.93 67.7091V33.382C404.93 27.237 406.546 22.7343 409.777 19.8737C413.062 16.9601 418.174 15.5033 425.113 15.5033C430.782 15.5033 435.099 16.9336 438.066 19.7942C441.085 22.6018 442.595 26.6808 442.595 32.0312C442.595 33.8853 442.542 35.6864 442.436 37.4345C442.33 39.1297 442.171 40.3216 441.959 41.0103C441.165 43.9238 439.708 46.1487 437.589 47.685C440.449 50.0688 441.88 52.8234 441.88 55.9489V67.7091C441.88 70.9935 440.052 72.6357 436.397 72.6357C434.596 72.6357 433.165 72.2384 432.106 71.4438C431.046 70.5962 430.517 69.3513 430.517 67.7091V57.2203C430.517 54.3597 430.066 52.3467 429.166 51.1812C428.318 50.0158 426.57 49.4331 423.922 49.4331C421.061 49.4331 419.074 50.0688 417.962 51.3402C416.902 52.5586 416.373 54.8364 416.373 58.1738V67.7091C416.373 70.8875 414.519 72.4768 410.81 72.4768ZM415.737 42.9173C417.061 41.8049 418.227 41.0897 419.233 40.7719C420.293 40.4011 421.803 40.2156 423.763 40.2156C426.411 40.2156 428.345 40.0832 429.563 39.8183C430.835 39.5535 431.656 38.9972 432.027 38.1497C432.397 37.3021 432.583 35.9777 432.583 34.1766C432.583 30.5744 432.027 28.0846 430.914 26.7073C429.855 25.277 427.921 24.5619 425.113 24.5619C421.988 24.5619 419.763 25.277 418.439 26.7073C417.167 28.1376 416.532 30.6274 416.532 34.1766C416.532 35.9248 416.452 37.4875 416.293 38.8648C416.187 40.1892 416.002 41.54 415.737 42.9173ZM467.681 67.3118C467.681 70.8611 465.827 72.6357 462.119 72.6357C460.317 72.6357 458.887 72.1854 457.828 71.2849C456.768 70.3843 456.238 69.0599 456.238 67.3118V35.8453C456.238 28.5349 457.722 23.317 460.688 20.1915C463.655 17.066 468.29 15.5033 474.594 15.5033C481.057 15.5033 485.824 17.0925 488.897 20.271C491.969 23.4494 493.506 28.6408 493.506 35.8453V67.3118C493.506 70.8611 491.652 72.6357 487.943 72.6357C486.142 72.6357 484.712 72.1854 483.652 71.2849C482.593 70.3843 482.063 69.0599 482.063 67.3118V48.1617C481.057 49.0623 479.944 49.8304 478.726 50.4661C477.56 51.1018 476.183 51.4196 474.594 51.4196C472.263 51.4196 470.515 51.8434 469.35 52.691C468.237 53.5386 467.681 55.0483 467.681 57.2203V67.3118ZM467.204 44.0298C468.052 43.1822 469.058 42.52 470.224 42.0432C471.442 41.5665 472.899 41.3281 474.594 41.3281C476.607 41.3281 478.143 41.1692 479.203 40.8513C480.315 40.5335 481.083 39.9243 481.507 39.0237C481.931 38.1232 482.143 36.7988 482.143 35.0507C482.143 31.1306 481.587 28.4554 480.474 27.0251C479.362 25.5419 477.375 24.8002 474.514 24.8002C471.866 24.8002 470.038 25.5684 469.032 27.1046C468.078 28.5879 467.601 31.3425 467.601 35.3685C467.601 37.4345 467.575 39.1827 467.522 40.613C467.469 42.0432 467.363 43.1822 467.204 44.0298ZM514.134 72.6357C510.214 72.6357 508.254 70.8611 508.254 67.3118V20.8272C508.254 18.9731 508.705 17.6223 509.605 16.7747C510.506 15.9271 511.936 15.5033 513.896 15.5033C517.763 15.5033 519.697 17.2779 519.697 20.8272V67.3118C519.697 69.1129 519.246 70.4638 518.346 71.3643C517.498 72.2119 516.094 72.6357 514.134 72.6357ZM546.009 67.3118C546.009 70.8611 544.155 72.6357 540.447 72.6357C538.645 72.6357 537.215 72.1854 536.156 71.2849C535.096 70.3843 534.566 69.0599 534.566 67.3118V36.0837C534.566 31.1041 535.229 27.1311 536.553 24.1645C537.877 21.145 540.049 18.9466 543.069 17.5693C546.088 16.192 550.114 15.5033 555.147 15.5033C561.822 15.5033 566.854 17.066 570.244 20.1915C573.688 23.264 575.409 28.5614 575.409 36.0837V67.3118C575.409 70.8611 573.555 72.6357 569.847 72.6357C568.046 72.6357 566.616 72.1854 565.556 71.2849C564.497 70.3843 563.967 69.0599 563.967 67.3118V36.0837C563.967 32.1636 563.278 29.3825 561.901 27.7403C560.577 26.0451 558.325 25.1975 555.147 25.1975C552.657 25.1975 550.75 25.5684 549.426 26.31C548.101 27.0516 547.201 28.2171 546.724 29.8063C546.247 31.3955 546.009 33.488 546.009 36.0837V67.3118Z" fill="#8C5A52"/>
<path d="M24.1452 71.2849L26.0881 68.999L24.1452 71.2849ZM27.0057 20.1915L29.1817 22.2568L29.1817 22.2568L27.0057 20.1915ZM49.9699 71.2849L51.9129 68.999V68.999L49.9699 71.2849ZM48.3807 48.1617H51.3807V41.452L46.3803 45.926L48.3807 48.1617ZM45.0434 50.4661L43.6557 47.8063L43.6311 47.8192L43.6068 47.8324L45.0434 50.4661ZM35.667 52.691L33.9025 50.2648L33.8754 50.2845L33.8489 50.3047L35.667 52.691ZM33.5215 44.0298L30.5729 43.4769L28.7858 53.0081L35.6429 46.1511L33.5215 44.0298ZM36.541 42.0433L35.4479 39.2495L35.4264 39.2579L35.4052 39.2666L36.541 42.0433ZM45.5201 40.8513L44.696 37.9668L44.677 37.9722L44.6581 37.9779L45.5201 40.8513ZM47.8245 39.0237L50.5389 40.3011L50.539 40.3011L47.8245 39.0237ZM46.7915 27.0251L44.3915 28.8251L44.4073 28.8462L44.4234 28.867L46.7915 27.0251ZM35.3491 27.1046L32.8398 25.4605L32.8326 25.4714L32.8256 25.4823L35.3491 27.1046ZM33.8394 40.613L36.8373 40.724L33.8394 40.613ZM30.9983 67.3118C30.9983 68.5897 30.6713 69.0055 30.5334 69.1375C30.3709 69.293 29.8597 69.6357 28.436 69.6357V75.6357C30.7205 75.6357 32.9905 75.0911 34.6821 73.472C36.3983 71.8293 36.9983 69.5832 36.9983 67.3118H30.9983ZM28.436 69.6357C27.1325 69.6357 26.4617 69.3166 26.0881 68.999L22.2022 73.5707C23.9476 75.0543 26.1373 75.6357 28.436 75.6357V69.6357ZM26.0881 68.999C25.8658 68.8101 25.5559 68.4249 25.5559 67.3118H19.5559C19.5559 69.695 20.3055 71.9585 22.2022 73.5707L26.0881 68.999ZM25.5559 67.3118V35.8453H19.5559V67.3118H25.5559ZM25.5559 35.8453C25.5559 28.8051 27.009 24.5458 29.1817 22.2568L24.8298 18.1262C21.0694 22.0881 19.5559 28.2647 19.5559 35.8453H25.5559ZM29.1817 22.2568C31.3632 19.9584 35.0471 18.5033 40.9114 18.5033V12.5033C34.1679 12.5033 28.5814 14.1737 24.8298 18.1262L29.1817 22.2568ZM40.9114 18.5033C46.9379 18.5033 50.7673 19.987 53.0574 22.356L57.3713 18.1859C53.5164 14.1981 47.8105 12.5033 40.9114 12.5033V18.5033ZM53.0574 22.356C55.3347 24.7118 56.8231 28.9534 56.8231 35.8453H62.8231C62.8231 28.3283 61.239 22.187 57.3713 18.1859L53.0574 22.356ZM56.8231 35.8453V67.3118H62.8231V35.8453H56.8231ZM56.8231 67.3118C56.8231 68.5897 56.4961 69.0055 56.3582 69.1375C56.1957 69.293 55.6845 69.6357 54.2608 69.6357V75.6357C56.5453 75.6357 58.8153 75.0911 60.5069 73.472C62.2231 71.8293 62.8231 69.5832 62.8231 67.3118H56.8231ZM54.2608 69.6357C52.9573 69.6357 52.2864 69.3166 51.9129 68.999L48.027 73.5707C49.7724 75.0543 51.9621 75.6357 54.2608 75.6357V69.6357ZM51.9129 68.999C51.6906 68.8101 51.3807 68.4249 51.3807 67.3118H45.3807C45.3807 69.695 46.1303 71.9585 48.027 73.5707L51.9129 68.999ZM51.3807 67.3118V48.1617H45.3807V67.3118H51.3807ZM46.3803 45.926C45.5629 46.6574 44.6569 47.284 43.6557 47.8063L46.4311 53.1259C47.8666 52.3769 49.1855 51.4672 50.3811 50.3975L46.3803 45.926ZM43.6068 47.8324C42.9612 48.1846 42.0973 48.4196 40.9114 48.4196V54.4196C42.9039 54.4196 44.7947 54.019 46.4799 53.0998L43.6068 47.8324ZM40.9114 48.4196C38.3061 48.4196 35.8102 48.8774 33.9025 50.2648L37.4315 55.1172C37.8546 54.8095 38.855 54.4196 40.9114 54.4196V48.4196ZM33.8489 50.3047C31.6538 51.9771 30.9983 54.6396 30.9983 57.2203H36.9983C36.9983 55.4571 37.4552 55.1001 37.4851 55.0773L33.8489 50.3047ZM30.9983 57.2203V67.3118H36.9983V57.2203H30.9983ZM35.6429 46.1511C36.1946 45.5993 36.8613 45.1536 37.6769 44.8199L35.4052 39.2666C33.8899 39.8865 32.5436 40.765 31.4002 41.9084L35.6429 46.1511ZM37.6342 44.837C38.4181 44.5302 39.4851 44.3281 40.9114 44.3281V38.3281C38.9474 38.3281 37.1008 38.6027 35.4479 39.2495L37.6342 44.837ZM40.9114 44.3281C43.019 44.3281 44.9019 44.1689 46.3822 43.7248L44.6581 37.9779C44.0194 38.1695 42.8298 38.3281 40.9114 38.3281V44.3281ZM46.3443 43.7359C48.1398 43.2229 49.6851 42.1155 50.5389 40.3011L45.11 37.7463C45.092 37.7848 45.0824 37.7928 45.0664 37.8056C45.0409 37.8258 44.9409 37.8968 44.696 37.9668L46.3443 43.7359ZM50.539 40.3011C51.243 38.805 51.4602 36.9551 51.4602 35.0507H45.4602C45.4602 36.6426 45.2536 37.4413 45.11 37.7463L50.539 40.3011ZM51.4602 35.0507C51.4602 32.9659 51.3138 31.0979 50.9802 29.4935C50.6521 27.9154 50.1034 26.3968 49.1596 25.1833L44.4234 28.867C44.5921 29.0838 44.8777 29.6179 45.1058 30.715C45.3285 31.7858 45.4602 33.2154 45.4602 35.0507H51.4602ZM49.1915 25.2251C47.258 22.6471 44.1116 21.8002 40.8319 21.8002V27.8002C43.2734 27.8002 44.1001 28.4366 44.3915 28.8251L49.1915 25.2251ZM40.8319 21.8002C37.6543 21.8002 34.6213 22.7413 32.8398 25.4605L37.8585 28.7487C38.09 28.3954 38.7121 27.8002 40.8319 27.8002V21.8002ZM32.8256 25.4823C32.0421 26.7011 31.5917 28.2039 31.3204 29.7714C31.0431 31.3735 30.9188 33.2518 30.9188 35.3685H36.9188C36.9188 33.4592 37.033 31.9473 37.2325 30.7947C37.4379 29.6075 37.7026 28.9914 37.8727 28.7269L32.8256 25.4823ZM30.9188 35.3685C30.9188 37.4122 30.8926 39.1208 30.8414 40.5019L36.8373 40.724C36.8921 39.2445 36.9188 37.4569 36.9188 35.3685H30.9188ZM30.8414 40.5019C30.7909 41.8669 30.6926 42.8388 30.5729 43.4769L36.4702 44.5826C36.6684 43.5256 36.7819 42.2196 36.8373 40.724L30.8414 40.5019ZM75.4403 70.8081L77.7073 68.8433H77.7073L75.4403 70.8081ZM75.1224 26.5484L72.2319 25.7454L72.2214 25.783L72.212 25.8208L75.1224 26.5484ZM77.983 21.2245L75.6901 19.2899L75.6844 19.2967L77.983 21.2245ZM84.022 17.0925L82.8883 14.315V14.315L84.022 17.0925ZM107.145 19.6353L109.148 17.4016L107.145 19.6353ZM110.482 38.1497L107.754 36.9024L107.739 36.935L107.725 36.9679L110.482 38.1497ZM106.827 42.3611L105.321 39.7667L100.264 42.7029L105.599 45.0979L106.827 42.3611ZM112.39 47.2082L109.748 48.6305L109.762 48.6565L109.777 48.6822L112.39 47.2082ZM109.211 67.868L107.283 65.5695L107.274 65.5772L107.265 65.585L109.211 67.868ZM85.2934 40.9308L82.3448 40.3779L87.6217 42.8226L85.2934 40.9308ZM88.6308 38.9443L87.7687 36.0708L87.7551 36.0749L87.7416 36.0791L88.6308 38.9443ZM99.2785 36.8783L97.1572 34.757L99.2785 36.8783ZM99.0401 26.3895L96.8203 28.4075L96.8683 28.4603L96.9188 28.5108L99.0401 26.3895ZM87.6772 26.31L85.7017 24.0523L85.6778 24.0731L85.6544 24.0945L87.6772 26.31ZM85.7702 36.0042L82.7743 35.8465L82.7702 35.9253V36.0042H85.7702ZM85.6112 38.547L82.6414 38.1227L82.6264 38.2276L82.6189 38.3332L85.6112 38.547ZM85.8496 62.7825H82.8496V65.7825H85.8496V62.7825ZM100.788 61.1139L98.8128 58.8561L98.7889 58.877L98.7655 58.8984L100.788 61.1139ZM100.709 48.4001L98.431 50.3525L98.4508 50.3755L98.471 50.3982L100.709 48.4001ZM89.1075 47.0493L90.3037 49.8005L90.3532 49.779L90.4019 49.7557L89.1075 47.0493ZM86.5648 49.9099L83.7298 48.9285L86.5648 49.9099ZM77.983 69C77.9297 69 77.8994 68.9949 77.8865 68.9921C77.8743 68.9895 77.869 68.9872 77.8657 68.9856C77.8622 68.984 77.8491 68.9776 77.8255 68.9593C77.8012 68.9404 77.7608 68.905 77.7073 68.8433L73.1732 72.7729C74.4026 74.1914 76.063 75 77.983 75V69ZM77.7073 68.8433C77.5652 68.6793 77.4073 68.4066 77.4073 67.7886H71.4073C71.4073 69.6074 71.938 71.3476 73.1732 72.7729L77.7073 68.8433ZM77.4073 67.7886V32.0312H71.4073V67.7886H77.4073ZM77.4073 32.0312C77.4073 30.5565 77.6083 28.9741 78.0328 27.276L72.212 25.8208C71.683 27.9368 71.4073 30.0095 71.4073 32.0312H77.4073ZM78.013 27.3513C78.4187 25.8905 79.1565 24.4937 80.2816 23.1523L75.6844 19.2967C74.0548 21.2396 72.8856 23.3921 72.2319 25.7454L78.013 27.3513ZM80.2759 23.1591C81.3218 21.9195 82.8931 20.7936 85.1557 19.8701L82.8883 14.315C79.9595 15.5104 77.5048 17.1392 75.6901 19.2899L80.2759 23.1591ZM85.1557 19.8701C87.2597 19.0113 90.2232 18.5033 94.193 18.5033V12.5033C89.7929 12.5033 85.9758 13.0548 82.8883 14.315L85.1557 19.8701ZM94.193 18.5033C99.2765 18.5033 102.788 19.7576 105.143 21.869L109.148 17.4016C105.358 14.0036 100.234 12.5033 94.193 12.5033V18.5033ZM105.143 21.869C107.387 23.881 108.754 27.0742 108.754 32.0312H114.754C114.754 25.9696 113.049 20.8989 109.148 17.4016L105.143 21.869ZM108.754 32.0312C108.754 33.8654 108.407 35.4744 107.754 36.9024L113.211 39.3969C114.253 37.1168 114.754 34.6467 114.754 32.0312H108.754ZM107.725 36.9679C107.168 38.2681 106.369 39.1581 105.321 39.7667L108.334 44.9555C110.57 43.657 112.208 41.7394 113.24 39.3314L107.725 36.9679ZM105.599 45.0979C107.723 46.0518 109.011 47.2618 109.748 48.6305L115.031 45.7859C113.543 43.0226 111.123 41.0012 108.056 39.6243L105.599 45.0979ZM109.777 48.6822C110.587 50.1187 111.138 52.3958 111.138 55.79H117.138C117.138 51.8737 116.523 48.4297 115.002 45.7342L109.777 48.6822ZM111.138 55.79C111.138 60.4286 109.731 63.5168 107.283 65.5695L111.139 70.1666C115.26 66.7099 117.138 61.7461 117.138 55.79H111.138ZM107.265 65.585C104.819 67.6703 100.661 69 94.193 69V75C101.286 75 107.141 73.575 111.157 70.1511L107.265 65.585ZM94.193 69H77.983V75H94.193V69ZM87.6217 42.8226C87.7995 42.6037 88.2964 42.1892 89.52 41.8095L87.7416 36.0791C85.8926 36.6529 84.1646 37.5627 82.9651 39.039L87.6217 42.8226ZM89.4928 41.8178C90.7374 41.4444 92.2895 41.2291 94.193 41.2291V35.2291C91.8587 35.2291 89.7025 35.4907 87.7687 36.0708L89.4928 41.8178ZM94.193 41.2291C96.8116 41.2291 99.5958 40.8036 101.4 38.9996L97.1572 34.757C97.1959 34.7183 97.0824 34.8536 96.5616 34.992C96.0458 35.129 95.2771 35.2291 94.193 35.2291V41.2291ZM101.4 38.9996C103.198 37.2016 103.709 34.5893 103.709 32.0312H97.7088C97.7088 34.0289 97.2662 34.6479 97.1572 34.757L101.4 38.9996ZM103.709 32.0312C103.709 29.0988 103.117 26.2236 101.161 24.2681L96.9188 28.5108C97.1882 28.7802 97.7088 29.6661 97.7088 32.0312H103.709ZM101.26 24.3714C99.4415 22.3712 96.8783 21.6413 94.193 21.6413V27.6413C95.8516 27.6413 96.5198 28.0769 96.8203 28.4075L101.26 24.3714ZM94.193 21.6413C90.9246 21.6413 87.8183 22.2002 85.7017 24.0523L89.6527 28.5677C90.0789 28.1949 91.3165 27.6413 94.193 27.6413V21.6413ZM85.6544 24.0945C83.5125 26.0502 82.8496 29.0058 82.8496 32.0312H88.8496C88.8496 29.6532 89.4052 28.7947 89.7 28.5254L85.6544 24.0945ZM82.8496 32.0312C82.8496 33.649 82.8234 34.9147 82.7743 35.8465L88.766 36.1619C88.8229 35.0807 88.8496 33.6978 88.8496 32.0312H82.8496ZM82.7702 36.0042C82.7702 36.8521 82.7227 37.5534 82.6414 38.1227L88.5811 38.9712C88.7117 38.0572 88.7702 37.0634 88.7702 36.0042H82.7702ZM82.6189 38.3332C82.5752 38.9448 82.4859 39.6252 82.3448 40.3779L88.242 41.4837C88.4187 40.5412 88.5414 39.6324 88.6036 38.7607L82.6189 38.3332ZM85.8496 65.7825H94.193V59.7825H85.8496V65.7825ZM94.193 65.7825C97.5147 65.7825 100.715 65.2434 102.811 63.3293L98.7655 58.8984C98.4251 59.2092 97.2282 59.7825 94.193 59.7825V65.7825ZM102.764 63.3716C104.933 61.4739 105.695 58.6995 105.695 55.79H99.6953C99.6953 57.7541 99.1868 58.5289 98.8128 58.8561L102.764 63.3716ZM105.695 55.79C105.695 52.1029 105.013 48.7164 102.947 46.4021L98.471 50.3982C99.0534 51.0504 99.6953 52.5904 99.6953 55.79H105.695ZM102.987 46.4477C100.886 43.9968 97.643 43.1752 94.193 43.1752V49.1752C96.888 49.1752 97.9891 49.8369 98.431 50.3525L102.987 46.4477ZM94.193 43.1752C91.815 43.1752 89.6083 43.4843 87.8132 44.3429L90.4019 49.7557C91.0435 49.4488 92.2272 49.1752 94.193 49.1752V43.1752ZM87.9113 44.2981C85.8436 45.1971 84.4515 46.8438 83.7298 48.9285L89.3997 50.8912C89.6316 50.2213 89.9346 49.961 90.3037 49.8005L87.9113 44.2981ZM83.7298 48.9285C83.0915 50.7725 82.8496 53.1232 82.8496 55.79H88.8496C88.8496 53.3713 89.0845 51.8019 89.3997 50.8912L83.7298 48.9285ZM82.8496 55.79V62.7825H88.8496V55.79H82.8496ZM134.99 69.934L133.497 72.5361L133.513 72.5454L133.529 72.5545L134.99 69.934ZM127.6 60.8755L124.807 61.9713L124.813 61.9866L124.82 62.0018L127.6 60.8755ZM127.6 26.9457L124.825 25.807L124.818 25.8223L124.812 25.8377L127.6 26.9457ZM134.99 18.1255L133.563 15.4869L134.99 18.1255ZM158.51 18.1255L157.065 20.7542L157.074 20.7592L157.083 20.7642L158.51 18.1255ZM165.821 26.9457L163.033 28.0537L163.039 28.0691L163.045 28.0844L165.821 26.9457ZM165.821 60.8755L163.04 59.7492L163.034 59.7644L163.028 59.7796L165.821 60.8755ZM158.51 69.934L159.989 72.5441L159.996 72.5401L160.003 72.5361L158.51 69.934ZM152.154 60.6371L150.509 58.1277L150.489 58.141L150.469 58.1547L152.154 60.6371ZM155.65 55.1543L152.793 54.24L152.784 54.266L152.776 54.2923L155.65 55.1543ZM155.65 32.6669L152.781 33.545L152.792 33.5804L152.804 33.6155L155.65 32.6669ZM152.154 27.4224L150.531 29.946L150.583 29.9793L150.636 30.0105L152.154 27.4224ZM141.347 27.4224L142.864 30.0105L142.897 29.9914L142.929 29.9714L141.347 27.4224ZM137.771 32.6669L134.919 31.7357L134.913 31.7538L134.908 31.772L137.771 32.6669ZM137.771 55.1543L134.898 56.0163L134.905 56.0426L134.914 56.0686L137.771 55.1543ZM141.347 60.6371L139.703 63.1465L141.347 60.6371ZM146.75 69.6357C142.529 69.6357 139.138 68.8117 136.451 67.3136L133.529 72.5545C137.304 74.6586 141.754 75.6357 146.75 75.6357V69.6357ZM136.483 67.3319C133.949 65.8782 131.879 63.4479 130.381 59.7492L124.82 62.0018C126.712 66.6729 129.568 70.2817 133.497 72.5361L136.483 67.3319ZM130.393 59.7796C128.944 56.0885 128.137 50.8427 128.137 43.8708H122.137C122.137 51.2019 122.971 57.2926 124.807 61.9713L130.393 59.7796ZM128.137 43.8708C128.137 36.896 128.945 31.6839 130.388 28.0537L124.812 25.8377C122.971 30.4714 122.137 36.5428 122.137 43.8708H128.137ZM130.376 28.0844C131.867 24.4499 133.918 22.1161 136.417 20.7642L133.563 15.4869C129.599 17.6312 126.724 21.1775 124.825 25.807L130.376 28.0844ZM136.417 20.7642C139.113 19.3061 142.515 18.5033 146.75 18.5033V12.5033C141.767 12.5033 137.33 13.4487 133.563 15.4869L136.417 20.7642ZM146.75 18.5033C151.047 18.5033 154.438 19.3094 157.065 20.7542L159.956 15.4969C156.226 13.4453 151.777 12.5033 146.75 12.5033V18.5033ZM157.083 20.7642C159.572 22.1109 161.594 24.4327 163.033 28.0537L168.609 25.8377C166.763 21.1947 163.911 17.6365 159.938 15.4869L157.083 20.7642ZM163.045 28.0844C164.53 31.7031 165.364 36.9029 165.364 43.8708H171.364C171.364 36.5359 170.502 30.4522 168.596 25.807L163.045 28.0844ZM165.364 43.8708C165.364 50.8358 164.531 56.0694 163.04 59.7492L168.601 62.0018C170.501 57.3116 171.364 51.2089 171.364 43.8708H165.364ZM163.028 59.7796C161.582 63.4652 159.542 65.8836 157.017 67.3319L160.003 72.5361C163.942 70.2762 166.775 66.6556 168.613 61.9713L163.028 59.7796ZM157.031 67.324C154.412 68.8083 151.034 69.6357 146.75 69.6357V75.6357C151.79 75.6357 156.252 74.662 159.989 72.5441L157.031 67.324ZM146.75 65.1469C149.358 65.1469 151.773 64.521 153.838 63.1195L150.469 58.1547C149.568 58.7662 148.38 59.1469 146.75 59.1469V65.1469ZM153.798 63.1465C156.16 61.5988 157.624 59.0123 158.523 56.0163L152.776 54.2923C152.086 56.5937 151.22 57.6624 150.509 58.1277L153.798 63.1465ZM158.507 56.0686C159.495 52.9824 159.921 48.8586 159.921 43.8708H153.921C153.921 48.6303 153.5 52.0288 152.793 54.24L158.507 56.0686ZM159.921 43.8708C159.921 38.8444 159.498 34.7237 158.496 31.7182L152.804 33.6155C153.497 35.6955 153.921 39.0441 153.921 43.8708H159.921ZM158.518 31.7887C157.616 28.8395 156.124 26.2724 153.671 24.8344L150.636 30.0105C151.256 30.3736 152.095 31.3027 152.781 33.545L158.518 31.7887ZM153.776 24.8989C151.719 23.5765 149.327 22.9921 146.75 22.9921V28.9921C148.411 28.9921 149.622 29.3614 150.531 29.946L153.776 24.8989ZM146.75 22.9921C144.207 22.9921 141.841 23.5849 139.765 24.8735L142.929 29.9714C143.925 29.3529 145.162 28.9921 146.75 28.9921V22.9921ZM139.83 24.8344C137.398 26.2597 135.878 28.8008 134.919 31.7357L140.623 33.5981C141.36 31.3414 142.223 30.3863 142.864 30.0105L139.83 24.8344ZM134.908 31.772C133.976 34.7538 133.579 38.8521 133.579 43.8708H139.579C139.579 39.0365 139.977 35.6654 140.635 33.5617L134.908 31.772ZM133.579 43.8708C133.579 48.8502 133.979 52.9529 134.898 56.0163L140.645 54.2922C139.974 52.0583 139.579 48.6387 139.579 43.8708H133.579ZM134.914 56.0686C135.868 59.0504 137.361 61.6121 139.703 63.1465L142.991 58.1277C142.26 57.6491 141.369 56.5556 140.628 54.24L134.914 56.0686ZM139.703 63.1465C141.787 64.512 144.175 65.1469 146.75 65.1469V59.1469C145.193 59.1469 143.979 58.7752 142.991 58.1277L139.703 63.1465ZM186.453 67.868L184.366 70.0233L184.383 70.0401L184.401 70.0566L186.453 67.868ZM195.034 60.6371L192.839 62.6814L192.857 62.7013L192.876 62.7209L195.034 60.6371ZM216.807 67.7886L214.787 65.5703L216.807 67.7886ZM201.153 69.6357C195.213 69.6357 191.157 68.1662 188.505 65.6794L184.401 70.0566C188.529 73.9267 194.273 75.6357 201.153 75.6357V69.6357ZM188.54 65.7128C185.984 63.2384 184.447 59.302 184.447 53.3267H178.447C178.447 60.277 180.247 66.0348 184.366 70.0233L188.54 65.7128ZM184.447 53.3267V21.7013H178.447V53.3267H184.447ZM184.447 21.7013C184.447 20.0408 184.835 19.3547 185.081 19.0876C185.286 18.866 185.788 18.5033 187.168 18.5033V12.5033C184.734 12.5033 182.375 13.1737 180.673 15.018C179.012 16.8169 178.447 19.2298 178.447 21.7013H184.447ZM187.168 18.5033C188.548 18.5033 189.05 18.866 189.254 19.0876C189.501 19.3547 189.889 20.0408 189.889 21.7013H195.889C195.889 19.2298 195.324 16.8169 193.663 15.018C191.961 13.1737 189.602 12.5033 187.168 12.5033V18.5033ZM189.889 21.7013V53.3267H195.889V21.7013H189.889ZM189.889 53.3267C189.889 56.9953 190.66 60.341 192.839 62.6814L197.23 58.5928C196.549 57.8607 195.889 56.3328 195.889 53.3267H189.889ZM192.876 62.7209C195.043 64.9654 197.931 65.9415 201.153 65.9415V59.9415C199.183 59.9415 197.992 59.3813 197.193 58.5533L192.876 62.7209ZM201.153 65.9415C204.8 65.9415 208.085 65.0192 210.435 62.6503C212.779 60.2859 213.688 56.9878 213.688 53.3267H207.688C207.688 56.0754 207.008 57.5847 206.174 58.4253C205.345 59.2613 203.863 59.9415 201.153 59.9415V65.9415ZM213.688 53.3267V21.7013H207.688V53.3267H213.688ZM213.688 21.7013C213.688 20.0408 214.076 19.3547 214.323 19.0876C214.528 18.866 215.029 18.5033 216.409 18.5033V12.5033C213.976 12.5033 211.617 13.1737 209.914 15.018C208.254 16.8169 207.688 19.2298 207.688 21.7013H213.688ZM216.409 18.5033C217.79 18.5033 218.291 18.866 218.496 19.0876C218.742 19.3547 219.131 20.0408 219.131 21.7013H225.131C225.131 19.2298 224.565 16.8169 222.905 15.018C221.202 13.1737 218.843 12.5033 216.409 12.5033V18.5033ZM219.131 21.7013V53.3267H225.131V21.7013H219.131ZM219.131 53.3267C219.131 59.189 217.522 63.0805 214.787 65.5703L218.826 70.0069C223.19 66.0339 225.131 60.2841 225.131 53.3267H219.131ZM214.787 65.5703C211.989 68.1174 207.615 69.6357 201.153 69.6357V75.6357C208.465 75.6357 214.526 73.9226 218.826 70.0069L214.787 65.5703ZM248.417 71.7616L247.119 74.4662L247.183 74.4969L247.248 74.5245L248.417 71.7616ZM247.702 28.0581L245.902 25.6581V25.6581L247.702 28.0581ZM249.768 26.8662L250.63 29.7397L249.768 23.8662V26.8662ZM231.572 25.1975L228.888 26.5392L228.926 26.6137L228.967 26.686L231.572 25.1975ZM231.651 18.0461L234.224 19.5896L234.24 19.5622L234.256 19.5345L231.651 18.0461ZM272.732 18.0461L270.128 19.5345L270.143 19.5622L270.16 19.5895L272.732 18.0461ZM272.732 25.1975L270.099 23.761L270.087 23.7831L270.075 23.8055L272.732 25.1975ZM257.873 26.8662V23.8662H254.873V26.8662H257.873ZM256.204 71.6822L254.716 69.0774L254.688 69.0933L254.661 69.1097L256.204 71.6822ZM252.47 69.6357C251.596 69.6357 250.641 69.4451 249.586 68.9987L247.248 74.5245C248.948 75.2435 250.695 75.6357 252.47 75.6357V69.6357ZM249.715 69.057C249.437 68.9232 249.406 68.839 249.434 68.8811C249.444 68.8968 249.447 68.9085 249.445 68.9026C249.443 68.8938 249.431 68.8454 249.431 68.7421H243.431C243.431 69.9305 243.724 71.1185 244.421 72.1788C245.111 73.2275 246.074 73.9643 247.119 74.4662L249.715 69.057ZM249.431 68.7421V31.5544H243.431V68.7421H249.431ZM249.431 31.5544C249.431 30.937 249.511 30.5922 249.568 30.4342C249.615 30.3037 249.619 30.3702 249.502 30.4581L245.902 25.6581C243.936 27.1326 243.431 29.4865 243.431 31.5544H249.431ZM249.502 30.4581C249.859 30.1903 250.141 30.0045 250.353 29.8819C250.576 29.7535 250.661 29.7305 250.63 29.7397L248.906 23.9927C247.855 24.308 246.822 24.968 245.902 25.6581L249.502 30.4581ZM249.768 23.8662H234.432V29.8662H249.768V23.8662ZM234.432 23.8662C234.333 23.8662 234.282 23.8555 234.266 23.8515C234.252 23.8481 234.259 23.8484 234.275 23.8577C234.291 23.8669 234.293 23.8718 234.28 23.8586C234.266 23.8437 234.228 23.8001 234.176 23.7091L228.967 26.686C230.131 28.7241 232.074 29.8662 234.432 29.8662V23.8662ZM234.255 23.8559C233.866 23.0774 233.697 22.3425 233.697 21.6218H227.697C227.697 23.3379 228.112 24.9868 228.888 26.5392L234.255 23.8559ZM233.697 21.6218C233.697 20.8006 233.888 20.1492 234.224 19.5896L229.079 16.5026C228.143 18.0619 227.697 19.7943 227.697 21.6218H233.697ZM234.256 19.5345C234.312 19.4353 234.354 19.3856 234.372 19.3667C234.388 19.3495 234.387 19.355 234.367 19.367C234.358 19.3724 234.348 19.3771 234.34 19.3807C234.331 19.3844 234.326 19.3857 234.326 19.3857C234.326 19.3856 234.334 19.3836 234.35 19.3816C234.367 19.3796 234.394 19.3774 234.432 19.3774V13.3774C232.071 13.3774 230.182 14.5698 229.046 16.5576L234.256 19.5345ZM234.432 19.3774H269.951V13.3774H234.432V19.3774ZM269.951 19.3774C269.989 19.3774 270.016 19.3796 270.033 19.3816C270.05 19.3836 270.057 19.3856 270.057 19.3857C270.058 19.3857 270.052 19.3844 270.044 19.3807C270.035 19.3771 270.026 19.3724 270.017 19.367C269.997 19.355 269.995 19.3495 270.011 19.3667C270.029 19.3856 270.071 19.4353 270.128 19.5345L275.337 16.5576C274.201 14.5698 272.313 13.3774 269.951 13.3774V19.3774ZM270.16 19.5895C270.496 20.1492 270.686 20.8006 270.686 21.6218H276.686C276.686 19.7943 276.24 18.0619 275.305 16.5026L270.16 19.5895ZM270.686 21.6218C270.686 22.2941 270.516 22.9958 270.099 23.761L275.366 26.6341C276.22 25.0685 276.686 23.3863 276.686 21.6218H270.686ZM270.075 23.8055C270.033 23.8849 270.007 23.9144 270.006 23.9148C270.006 23.9153 270.01 23.9103 270.02 23.9023C270.03 23.8942 270.042 23.8852 270.057 23.8766C270.088 23.8576 270.109 23.8524 270.104 23.8536C270.097 23.8554 270.05 23.8662 269.951 23.8662V29.8662C271.034 29.8662 272.137 29.6253 273.143 29.0215C274.152 28.4165 274.885 27.554 275.39 26.5896L270.075 23.8055ZM269.951 23.8662H257.873V29.8662H269.951V23.8662ZM254.873 26.8662V68.7421H260.873V26.8662H254.873ZM254.873 68.7421C254.873 68.8634 254.86 68.9344 254.853 68.9669C254.845 68.997 254.841 69.0003 254.847 68.9896C254.853 68.9785 254.857 68.9763 254.848 68.9856C254.836 68.9964 254.799 69.0301 254.716 69.0774L257.693 74.2869C259.778 73.0952 260.873 71.0983 260.873 68.7421H254.873ZM254.661 69.1097C254.137 69.424 253.443 69.6357 252.47 69.6357V75.6357C254.357 75.6357 256.153 75.2117 257.748 74.2546L254.661 69.1097ZM324.191 77.7212L321.676 76.0862L321.629 76.1582L321.587 76.2328L324.191 77.7212ZM317.517 72.6357H320.517V69.7157L317.598 69.6368L317.517 72.6357ZM311.398 72.0795L311.843 69.1127L311.811 69.1079L311.78 69.1038L311.398 72.0795ZM306.392 70.8876L307.546 68.1183L307.532 68.1124L307.518 68.1067L306.392 70.8876ZM304.406 62.7031L306.527 64.8244L304.406 62.7031ZM313.861 61.829L314.419 58.8813L313.861 61.829ZM326.098 61.1139L327.628 63.6947L326.098 61.1139ZM326.575 52.0553L324.454 54.1766L324.48 54.2025L324.506 54.2277L326.575 52.0553ZM320.139 49.0358L319.284 51.9114L319.29 51.9132L320.139 49.0358ZM307.346 42.52L305.224 44.6413L305.235 44.652L305.246 44.6627L307.346 42.52ZM307.266 21.3834L305.044 19.3674L305.043 19.3696L307.266 21.3834ZM317.517 15.9006L318.069 18.8492L320.517 18.3904V15.9006H317.517ZM325.224 15.5828H322.224V18.3353L324.967 18.5717L325.224 15.5828ZM333.011 17.2515L331.897 20.0369L331.92 20.0461L331.943 20.0549L333.011 17.2515ZM334.919 25.5154L337.04 27.6367V27.6367L334.919 25.5154ZM326.257 26.4689L325.649 29.4067L325.698 29.4168L325.748 29.4253L326.257 26.4689ZM316.563 27.1841L318.253 29.6627V29.6627L316.563 27.1841ZM317.278 35.7658L319.206 33.4673L317.278 35.7658ZM326.337 39.8183L325.472 42.6909L325.48 42.6934L325.489 42.696L326.337 39.8183ZM336.746 45.8574L334.346 47.6574L334.355 47.6695L334.364 47.6816L336.746 45.8574ZM335.872 66.4377L338.117 68.4282L335.872 66.4377ZM325.224 72L324.649 69.0557L322.224 69.5295V72H325.224ZM322.224 73.1919C322.224 74.867 321.919 75.7128 321.676 76.0862L326.707 79.3561C327.841 77.6106 328.224 75.4369 328.224 73.1919H322.224ZM321.587 76.2328C321.53 76.332 321.488 76.3817 321.47 76.4006C321.454 76.4177 321.456 76.4123 321.476 76.4002C321.485 76.3949 321.494 76.3902 321.503 76.3865C321.511 76.3829 321.517 76.3816 321.516 76.3816C321.516 76.3816 321.509 76.3836 321.492 76.3857C321.475 76.3877 321.448 76.3899 321.41 76.3899V82.3899C323.772 82.3899 325.66 81.1974 326.796 79.2096L321.587 76.2328ZM321.41 76.3899C321.078 76.3899 320.928 76.3363 320.888 76.3195C320.867 76.3105 320.87 76.3122 320.858 76.2965C320.796 76.2163 320.517 75.7464 320.517 74.3838H314.517C314.517 76.3586 314.886 78.3917 316.122 79.9802C317.469 81.7119 319.42 82.3899 321.41 82.3899V76.3899ZM320.517 74.3838V72.6357H314.517V74.3838H320.517ZM317.598 69.6368C315.77 69.5874 313.852 69.4141 311.843 69.1127L310.953 75.0463C313.182 75.3806 315.343 75.578 317.436 75.6346L317.598 69.6368ZM311.78 69.1038C309.858 68.8575 308.478 68.5069 307.546 68.1183L305.238 73.6568C306.848 74.3277 308.806 74.7717 311.017 75.0551L311.78 69.1038ZM307.518 68.1067C306.777 67.8071 306.451 67.4996 306.304 67.3002C306.176 67.1268 306.055 66.8643 306.055 66.3583H300.055C300.055 67.9712 300.489 69.5231 301.474 70.8594C302.439 72.1698 303.782 73.0674 305.266 73.6684L307.518 68.1067ZM306.055 66.3583C306.055 65.4423 306.302 65.0494 306.527 64.8244L302.284 60.5818C300.708 62.1578 300.055 64.2017 300.055 66.3583H306.055ZM306.527 64.8244C306.693 64.6587 307.25 64.2728 308.855 64.2728V58.2728C306.435 58.2728 304.026 58.8404 302.284 60.5818L306.527 64.8244ZM308.855 64.2728C309.983 64.2728 311.454 64.4267 313.304 64.7767L314.419 58.8813C312.349 58.4897 310.482 58.2728 308.855 58.2728V64.2728ZM313.304 64.7767C315.389 65.1713 317.305 65.3852 319.026 65.3852V59.3852C317.781 59.3852 316.254 59.2284 314.419 58.8813L313.304 64.7767ZM319.026 65.3852C322.417 65.3852 325.467 64.9749 327.628 63.6947L324.569 58.533C323.869 58.948 322.204 59.3852 319.026 59.3852V65.3852ZM327.628 63.6947C330.407 62.0479 331.244 58.9716 331.244 55.9489H325.244C325.244 58.1177 324.65 58.4847 324.569 58.533L327.628 63.6947ZM331.244 55.9489C331.244 53.5916 330.351 51.5086 328.644 49.8829L324.506 54.2277C325.024 54.721 325.244 55.2337 325.244 55.9489H331.244ZM328.696 49.934C327.053 48.2905 324.24 47.1183 320.988 46.1585L319.29 51.9132C322.5 52.8604 323.978 53.7011 324.454 54.1766L328.696 49.934ZM320.994 46.1602C315.311 44.4708 311.587 42.4767 309.445 40.3774L305.246 44.6627C308.401 47.7548 313.206 50.1045 319.284 51.9114L320.994 46.1602ZM309.467 40.3987C307.506 38.4383 306.452 35.8739 306.452 32.4285H300.452C300.452 37.247 301.993 41.4103 305.224 44.6413L309.467 40.3987ZM306.452 32.4285C306.452 28.4581 307.544 25.5457 309.49 23.3973L305.043 19.3696C301.903 22.8364 300.452 27.2874 300.452 32.4285H306.452ZM309.488 23.3994C311.593 21.0795 314.396 19.538 318.069 18.8492L316.964 12.952C312.161 13.8524 308.131 15.9662 305.044 19.3675L309.488 23.3994ZM320.517 15.9006V15.7417H314.517V15.9006H320.517ZM320.517 15.7417C320.517 13.8314 320.827 12.9029 321.048 12.541C321.132 12.4042 321.17 12.4013 321.141 12.4172C321.118 12.4298 321.176 12.3848 321.41 12.3848V6.38483C319.125 6.38483 317.155 7.41006 315.932 9.40711C314.855 11.1642 314.517 13.4141 314.517 15.7417H320.517ZM321.41 12.3848C321.633 12.3848 321.682 12.4274 321.65 12.4101C321.612 12.3893 321.64 12.3836 321.716 12.5066C321.921 12.8405 322.224 13.727 322.224 15.5828H328.224C328.224 13.3066 327.892 11.0941 326.826 9.36202C325.613 7.39108 323.662 6.38483 321.41 6.38483V12.3848ZM324.967 18.5717C327.841 18.8195 330.129 19.3297 331.897 20.0369L334.126 14.466C331.656 13.4781 328.752 12.8758 325.482 12.5939L324.967 18.5717ZM331.943 20.0549C332.662 20.3286 332.966 20.6178 333.099 20.7991C333.218 20.9597 333.349 21.2301 333.349 21.7807H339.349C339.349 20.1594 338.924 18.5889 337.93 17.2399C336.951 15.9113 335.586 15.0219 334.079 14.448L331.943 20.0549ZM333.349 21.7807C333.349 22.6418 333.108 23.083 332.797 23.3941L337.04 27.6367C338.636 26.0407 339.349 23.9921 339.349 21.7807H333.349ZM332.797 23.3941C332.711 23.4798 332.212 23.8662 330.548 23.8662V29.8662C332.91 29.8662 335.324 29.3521 337.04 27.6367L332.797 23.3941ZM330.548 23.8662C329.421 23.8662 328.164 23.7533 326.767 23.5125L325.748 29.4253C327.423 29.7143 329.026 29.8662 330.548 29.8662V23.8662ZM326.865 23.5311C325.14 23.1743 323.427 22.9921 321.728 22.9921V28.9921C322.996 28.9921 324.302 29.1279 325.649 29.4067L326.865 23.5311ZM321.728 22.9921C319.186 22.9921 316.757 23.4206 314.873 24.7054L318.253 29.6627C318.699 29.3584 319.715 28.9921 321.728 28.9921V22.9921ZM314.873 24.7054C312.638 26.229 311.815 28.657 311.815 31.1571H317.815C317.815 29.949 318.157 29.7284 318.253 29.6627L314.873 24.7054ZM311.815 31.1571C311.815 33.9653 313.223 36.2803 315.35 38.0644L319.206 33.4673C318.049 32.4967 317.815 31.7392 317.815 31.1571H311.815ZM315.35 38.0644C317.495 39.8631 321.029 41.3529 325.472 42.6909L327.202 36.9458C322.85 35.6351 320.346 34.4232 319.206 33.4673L315.35 38.0644ZM325.489 42.696C330.27 44.1051 333.007 45.8717 334.346 47.6574L339.146 44.0574C336.671 40.7575 332.469 38.4981 327.185 36.9407L325.489 42.696ZM334.364 47.6816C335.784 49.5354 336.607 52.028 336.607 55.3927H342.607C342.607 51.0232 341.522 47.1588 339.128 44.0331L334.364 47.6816ZM336.607 55.3927C336.607 59.3794 335.531 62.3002 333.627 64.4473L338.117 68.4282C341.192 64.9601 342.607 60.5175 342.607 55.3927H336.607ZM333.627 64.4473C331.674 66.6498 328.777 68.2491 324.649 69.0557L325.8 74.9443C330.889 73.9498 335.09 71.8409 338.117 68.4282L333.627 64.4473ZM322.224 72V73.1919H328.224V72H322.224ZM353.724 70.8081L355.991 68.8433L353.724 70.8081ZM353.406 26.5484L350.516 25.7454L350.505 25.783L350.496 25.8208L353.406 26.5484ZM356.267 21.2245L353.974 19.2899L353.968 19.2967L356.267 21.2245ZM362.306 17.0925L361.172 14.315V14.315L362.306 17.0925ZM385.429 19.6353L387.432 17.4016L385.429 19.6353ZM388.766 38.1497L386.038 36.9024L386.023 36.935L386.009 36.9679L388.766 38.1497ZM385.111 42.3611L383.605 39.7667L378.548 42.7029L383.882 45.0979L385.111 42.3611ZM390.673 47.2082L388.032 48.6305L388.046 48.6565L388.06 48.6822L390.673 47.2082ZM387.495 67.868L385.567 65.5695L385.558 65.5772L385.549 65.585L387.495 67.868ZM363.577 40.9308L360.629 40.3779L365.906 42.8226L363.577 40.9308ZM366.915 38.9443L366.052 36.0708L366.039 36.0749L366.025 36.0791L366.915 38.9443ZM377.562 36.8783L375.441 34.757L377.562 36.8783ZM377.324 26.3895L375.104 28.4075L375.152 28.4603L375.203 28.5108L377.324 26.3895ZM365.961 26.31L363.986 24.0523L363.962 24.0731L363.938 24.0945L365.961 26.31ZM364.054 36.0042L361.058 35.8465L361.054 35.9253V36.0042H364.054ZM363.895 38.547L360.925 38.1227L360.91 38.2276L360.903 38.3332L363.895 38.547ZM364.133 62.7825H361.133V65.7825H364.133V62.7825ZM379.072 61.1139L377.097 58.8561L377.073 58.877L377.049 58.8984L379.072 61.1139ZM378.993 48.4001L376.715 50.3525L376.735 50.3755L376.755 50.3982L378.993 48.4001ZM367.391 47.0493L368.587 49.8005L368.637 49.779L368.686 49.7557L367.391 47.0493ZM364.849 49.9099L362.014 48.9285L364.849 49.9099ZM356.267 69C356.214 69 356.183 68.9949 356.17 68.9921C356.158 68.9895 356.153 68.9872 356.15 68.9856C356.146 68.984 356.133 68.9776 356.109 68.9593C356.085 68.9404 356.045 68.905 355.991 68.8433L351.457 72.7729C352.686 74.1914 354.347 75 356.267 75V69ZM355.991 68.8433C355.849 68.6793 355.691 68.4066 355.691 67.7886H349.691C349.691 69.6074 350.222 71.3476 351.457 72.7729L355.991 68.8433ZM355.691 67.7886V32.0312H349.691V67.7886H355.691ZM355.691 32.0312C355.691 30.5565 355.892 28.9741 356.317 27.276L350.496 25.8208C349.967 27.9368 349.691 30.0095 349.691 32.0312H355.691ZM356.297 27.3513C356.703 25.8905 357.44 24.4937 358.565 23.1523L353.968 19.2967C352.339 21.2396 351.169 23.3921 350.516 25.7454L356.297 27.3513ZM358.56 23.1591C359.606 21.9195 361.177 20.7936 363.439 19.8701L361.172 14.315C358.243 15.5104 355.789 17.1392 353.974 19.2899L358.56 23.1591ZM363.439 19.8701C365.543 19.0113 368.507 18.5033 372.477 18.5033V12.5033C368.077 12.5033 364.26 13.0548 361.172 14.315L363.439 19.8701ZM372.477 18.5033C377.56 18.5033 381.071 19.7576 383.426 21.869L387.432 17.4016C383.642 14.0036 378.518 12.5033 372.477 12.5033V18.5033ZM383.426 21.869C385.67 23.881 387.038 27.0742 387.038 32.0312H393.038C393.038 25.9696 391.332 20.8989 387.432 17.4016L383.426 21.869ZM387.038 32.0312C387.038 33.8654 386.691 35.4744 386.038 36.9024L391.495 39.3969C392.537 37.1168 393.038 34.6467 393.038 32.0312H387.038ZM386.009 36.9679C385.452 38.2681 384.653 39.1581 383.605 39.7667L386.617 44.9555C388.854 43.657 390.492 41.7394 391.524 39.3314L386.009 36.9679ZM383.882 45.0979C386.007 46.0518 387.295 47.2618 388.032 48.6305L393.315 45.7859C391.827 43.0226 389.407 41.0012 386.34 39.6243L383.882 45.0979ZM388.06 48.6822C388.871 50.1187 389.421 52.3958 389.421 55.79H395.421C395.421 51.8737 394.807 48.4297 393.286 45.7342L388.06 48.6822ZM389.421 55.79C389.421 60.4286 388.014 63.5168 385.567 65.5695L389.423 70.1666C393.544 66.7099 395.421 61.7461 395.421 55.79H389.421ZM385.549 65.585C383.102 67.6703 378.945 69 372.477 69V75C379.57 75 385.425 73.575 389.441 70.1511L385.549 65.585ZM372.477 69H356.267V75H372.477V69ZM365.906 42.8226C366.083 42.6037 366.58 42.1892 367.804 41.8095L366.025 36.0791C364.176 36.6529 362.448 37.5627 361.249 39.039L365.906 42.8226ZM367.777 41.8178C369.021 41.4444 370.573 41.2291 372.477 41.2291V35.2291C370.142 35.2291 367.986 35.4907 366.052 36.0708L367.777 41.8178ZM372.477 41.2291C375.095 41.2291 377.88 40.8036 379.684 38.9996L375.441 34.757C375.48 34.7183 375.366 34.8536 374.845 34.992C374.33 35.129 373.561 35.2291 372.477 35.2291V41.2291ZM379.684 38.9996C381.482 37.2016 381.993 34.5893 381.993 32.0312H375.993C375.993 34.0289 375.55 34.6479 375.441 34.757L379.684 38.9996ZM381.993 32.0312C381.993 29.0988 381.401 26.2236 379.445 24.2681L375.203 28.5108C375.472 28.7802 375.993 29.6661 375.993 32.0312H381.993ZM379.544 24.3714C377.725 22.3712 375.162 21.6413 372.477 21.6413V27.6413C374.135 27.6413 374.804 28.0769 375.104 28.4075L379.544 24.3714ZM372.477 21.6413C369.208 21.6413 366.102 22.2002 363.986 24.0523L367.937 28.5677C368.363 28.1949 369.6 27.6413 372.477 27.6413V21.6413ZM363.938 24.0945C361.796 26.0502 361.133 29.0058 361.133 32.0312H367.133C367.133 29.6532 367.689 28.7947 367.984 28.5254L363.938 24.0945ZM361.133 32.0312C361.133 33.649 361.107 34.9147 361.058 35.8465L367.05 36.1619C367.107 35.0807 367.133 33.6978 367.133 32.0312H361.133ZM361.054 36.0042C361.054 36.8521 361.007 37.5534 360.925 38.1227L366.865 38.9712C366.995 38.0572 367.054 37.0634 367.054 36.0042H361.054ZM360.903 38.3332C360.859 38.9448 360.77 39.6252 360.629 40.3779L366.526 41.4837C366.703 40.5412 366.825 39.6324 366.887 38.7607L360.903 38.3332ZM364.133 65.7825H372.477V59.7825H364.133V65.7825ZM372.477 65.7825C375.798 65.7825 378.998 65.2434 381.095 63.3293L377.049 58.8984C376.709 59.2092 375.512 59.7825 372.477 59.7825V65.7825ZM381.048 63.3716C383.216 61.4739 383.979 58.6995 383.979 55.79H377.979C377.979 57.7541 377.471 58.5289 377.097 58.8561L381.048 63.3716ZM383.979 55.79C383.979 52.1029 383.297 48.7164 381.23 46.4021L376.755 50.3982C377.337 51.0504 377.979 52.5904 377.979 55.79H383.979ZM381.27 46.4477C379.17 43.9968 375.927 43.1752 372.477 43.1752V49.1752C375.172 49.1752 376.273 49.8369 376.715 50.3525L381.27 46.4477ZM372.477 43.1752C370.099 43.1752 367.892 43.4843 366.097 44.3429L368.686 49.7557C369.327 49.4488 370.511 49.1752 372.477 49.1752V43.1752ZM366.195 44.2981C364.127 45.1971 362.735 46.8438 362.014 48.9285L367.684 50.8912C367.915 50.2213 368.218 49.961 368.587 49.8005L366.195 44.2981ZM362.014 48.9285C361.375 50.7725 361.133 53.1232 361.133 55.79H367.133C367.133 53.3713 367.368 51.8019 367.684 50.8912L362.014 48.9285ZM361.133 55.79V62.7825H367.133V55.79H361.133ZM406.52 71.2849L404.645 73.6275L404.682 73.6567L404.72 73.6849L406.52 71.2849ZM409.777 19.8737L411.766 22.12L411.768 22.1179L409.777 19.8737ZM438.066 19.7942L435.983 21.9537L436.003 21.9727L436.023 21.9912L438.066 19.7942ZM442.436 37.4345L445.43 37.6217L445.43 37.616L442.436 37.4345ZM441.959 41.0103L439.092 40.128L439.078 40.1742L439.065 40.2209L441.959 41.0103ZM437.589 47.685L435.828 45.2561L432.705 47.5202L435.668 49.9896L437.589 47.685ZM432.106 71.4438L430.232 73.7864L430.268 73.8157L430.306 73.8438L432.106 71.4438ZM429.166 51.1812L426.74 52.9458L426.765 52.9811L426.792 53.0156L429.166 51.1812ZM417.962 51.3402L415.704 49.3646L415.698 49.3716L417.962 51.3402ZM415.737 42.9173L412.791 42.3508L411.195 50.6507L417.667 45.2144L415.737 42.9173ZM419.233 40.7719L420.137 43.6326L420.181 43.6187L420.224 43.6035L419.233 40.7719ZM429.563 39.8183L428.951 36.8814L428.939 36.8841L428.926 36.8868L429.563 39.8183ZM430.914 26.7073L428.503 28.493L428.541 28.5434L428.58 28.5923L430.914 26.7073ZM418.439 26.7073L416.237 24.6691L416.217 24.6914L416.196 24.7142L418.439 26.7073ZM416.293 38.8648L413.313 38.5209L413.307 38.5732L413.303 38.6256L416.293 38.8648ZM410.81 69.4768C409.428 69.4768 408.702 69.1713 408.32 68.8848L404.72 73.6849C406.457 74.9876 408.591 75.4768 410.81 75.4768V69.4768ZM408.394 68.9422C408.146 68.744 407.93 68.4704 407.93 67.7091H401.93C401.93 70.0204 402.774 72.1305 404.645 73.6275L408.394 68.9422ZM407.93 67.7091V33.382H401.93V67.7091H407.93ZM407.93 33.382C407.93 27.7216 409.413 24.2028 411.766 22.12L407.789 17.6274C403.679 21.2657 401.93 26.7524 401.93 33.382H407.93ZM411.768 22.1179C414.262 19.9057 418.503 18.5033 425.113 18.5033V12.5033C417.845 12.5033 411.862 14.0145 407.787 17.6294L411.768 22.1179ZM425.113 18.5033C430.301 18.5033 433.758 19.8079 435.983 21.9537L440.148 17.6347C436.44 14.0593 431.262 12.5033 425.113 12.5033V18.5033ZM436.023 21.9912C438.263 24.0747 439.595 27.2525 439.595 32.0312H445.595C445.595 26.1091 443.907 21.129 440.108 17.5972L436.023 21.9912ZM439.595 32.0312C439.595 33.8282 439.543 35.5687 439.441 37.253L445.43 37.616C445.54 35.804 445.595 33.9423 445.595 32.0312H439.595ZM439.442 37.2474C439.336 38.9381 439.189 39.8124 439.092 40.128L444.826 41.8925C445.153 40.8308 445.324 39.3213 445.43 37.6217L439.442 37.2474ZM439.065 40.2209C438.421 42.5814 437.31 44.1816 435.828 45.2561L439.35 50.1138C442.105 48.1158 443.908 45.2663 444.853 41.7996L439.065 40.2209ZM435.668 49.9896C437.99 51.9241 438.88 53.8864 438.88 55.9489H444.88C444.88 51.7604 442.909 48.2135 439.509 45.3803L435.668 49.9896ZM438.88 55.9489V67.7091H444.88V55.9489H438.88ZM438.88 67.7091C438.88 68.801 438.591 69.0946 438.504 69.1726C438.356 69.3053 437.837 69.6357 436.397 69.6357V75.6357C438.612 75.6357 440.834 75.1449 442.514 73.6355C444.255 72.0713 444.88 69.9016 444.88 67.7091H438.88ZM436.397 69.6357C435.014 69.6357 434.288 69.3302 433.906 69.0438L430.306 73.8438C432.043 75.1465 434.177 75.6357 436.397 75.6357V69.6357ZM433.98 69.1012C433.783 68.9436 433.517 68.6524 433.517 67.7091H427.517C427.517 70.0502 428.31 72.2488 430.232 73.7864L433.98 69.1012ZM433.517 67.7091V57.2203H427.517V67.7091H433.517ZM433.517 57.2203C433.517 54.2284 433.082 51.3431 431.54 49.3469L426.792 53.0156C427.051 53.3503 427.517 54.4909 427.517 57.2203H433.517ZM431.592 49.4167C429.845 47.0145 426.765 46.4331 423.922 46.4331V52.4331C425.052 52.4331 425.804 52.5608 426.27 52.7162C426.717 52.865 426.775 52.9936 426.74 52.9458L431.592 49.4167ZM423.922 46.4331C420.771 46.4331 417.679 47.1079 415.704 49.3647L420.22 53.3157C420.47 53.0297 421.351 52.4331 423.922 52.4331V46.4331ZM415.698 49.3716C413.865 51.4797 413.373 54.7594 413.373 58.1738H419.373C419.373 54.9135 419.94 53.6374 420.226 53.3087L415.698 49.3716ZM413.373 58.1738V67.7091H419.373V58.1738H413.373ZM413.373 67.7091C413.373 68.7048 413.104 68.9435 413.03 69.0071C412.867 69.1465 412.306 69.4768 410.81 69.4768V75.4768C413.023 75.4768 415.243 75.0124 416.935 73.5626C418.714 72.037 419.373 69.8919 419.373 67.7091H413.373ZM417.667 45.2144C418.858 44.214 419.67 43.7799 420.137 43.6326L418.33 37.9111C416.783 38.3996 415.265 39.3957 413.807 40.6202L417.667 45.2144ZM420.224 43.6035C420.813 43.3975 421.927 43.2156 423.763 43.2156V37.2156C421.678 37.2156 419.773 37.4046 418.242 37.9403L420.224 43.6035ZM423.763 43.2156C426.442 43.2156 428.648 43.0873 430.201 42.7499L428.926 36.8868C428.041 37.0791 426.38 37.2156 423.763 37.2156V43.2156ZM430.175 42.7553C431.985 42.3782 433.872 41.416 434.775 39.3521L429.278 36.9472C429.302 36.8928 429.336 36.8373 429.377 36.789C429.417 36.742 429.447 36.7205 429.45 36.7188C429.451 36.7183 429.418 36.7402 429.336 36.7724C429.254 36.8048 429.129 36.8444 428.951 36.8814L430.175 42.7553ZM434.775 39.3521C435.404 37.9146 435.583 36.0736 435.583 34.1766H429.583C429.583 35.8819 429.391 36.6896 429.278 36.9472L434.775 39.3521ZM435.583 34.1766C435.583 30.4821 435.056 27.061 433.248 24.8223L428.58 28.5923C428.997 29.1082 429.583 30.6667 429.583 34.1766H435.583ZM433.325 24.9216C431.434 22.369 428.313 21.5619 425.113 21.5619V27.5619C427.529 27.5619 428.275 28.185 428.503 28.493L433.325 24.9216ZM425.113 21.5619C421.643 21.5619 418.394 22.3402 416.237 24.6691L420.64 28.7455C421.132 28.2138 422.333 27.5619 425.113 27.5619V21.5619ZM416.196 24.7142C414.163 27.0014 413.532 30.4488 413.532 34.1766H419.532C419.532 30.8059 420.171 29.2738 420.681 28.7004L416.196 24.7142ZM413.532 34.1766C413.532 35.838 413.456 37.2827 413.313 38.5209L419.273 39.2087C419.448 37.6923 419.532 36.0116 419.532 34.1766H413.532ZM413.303 38.6256C413.206 39.8342 413.036 41.0757 412.791 42.3508L418.683 43.4839C418.968 42.0043 419.168 40.5441 419.284 39.104L413.303 38.6256ZM457.828 71.2849L459.771 68.999L457.828 71.2849ZM460.688 20.1915L462.864 22.2568V22.2568L460.688 20.1915ZM483.652 71.2849L485.595 68.999V68.999L483.652 71.2849ZM482.063 48.1617H485.063V41.452L480.063 45.926L482.063 48.1617ZM478.726 50.4661L477.338 47.8063L477.314 47.8192L477.289 47.8324L478.726 50.4661ZM469.35 52.691L467.585 50.2648L467.558 50.2845L467.531 50.3047L469.35 52.691ZM467.204 44.0298L464.255 43.4769L462.468 53.0081L469.325 46.1511L467.204 44.0298ZM470.224 42.0433L469.13 39.2495L469.109 39.2579L469.088 39.2666L470.224 42.0433ZM479.203 40.8513L478.379 37.9668L478.36 37.9722L478.341 37.9779L479.203 40.8513ZM481.507 39.0237L484.221 40.3011V40.3011L481.507 39.0237ZM480.474 27.0251L478.074 28.8251L478.09 28.8462L478.106 28.867L480.474 27.0251ZM469.032 27.1046L466.522 25.4605L466.515 25.4714L466.508 25.4823L469.032 27.1046ZM467.522 40.613L470.52 40.724L467.522 40.613ZM464.681 67.3118C464.681 68.5897 464.354 69.0055 464.216 69.1375C464.053 69.293 463.542 69.6357 462.119 69.6357V75.6357C464.403 75.6357 466.673 75.0911 468.365 73.472C470.081 71.8293 470.681 69.5832 470.681 67.3118H464.681ZM462.119 69.6357C460.815 69.6357 460.144 69.3166 459.771 68.999L455.885 73.5707C457.63 75.0543 459.82 75.6357 462.119 75.6357V69.6357ZM459.771 68.999C459.548 68.8101 459.238 68.4249 459.238 67.3118H453.238C453.238 69.695 453.988 71.9585 455.885 73.5707L459.771 68.999ZM459.238 67.3118V35.8453H453.238V67.3118H459.238ZM459.238 35.8453C459.238 28.8051 460.692 24.5458 462.864 22.2568L458.512 18.1262C454.752 22.0881 453.238 28.2647 453.238 35.8453H459.238ZM462.864 22.2568C465.046 19.9584 468.73 18.5033 474.594 18.5033V12.5033C467.85 12.5033 462.264 14.1737 458.512 18.1262L462.864 22.2568ZM474.594 18.5033C480.621 18.5033 484.45 19.987 486.74 22.356L491.054 18.1859C487.199 14.1981 481.493 12.5033 474.594 12.5033V18.5033ZM486.74 22.356C489.017 24.7118 490.506 28.9534 490.506 35.8453H496.506C496.506 28.3283 494.922 22.187 491.054 18.1859L486.74 22.356ZM490.506 35.8453V67.3118H496.506V35.8453H490.506ZM490.506 67.3118C490.506 68.5897 490.179 69.0055 490.041 69.1375C489.878 69.293 489.367 69.6357 487.943 69.6357V75.6357C490.228 75.6357 492.498 75.0911 494.189 73.472C495.906 71.8293 496.506 69.5832 496.506 67.3118H490.506ZM487.943 69.6357C486.64 69.6357 485.969 69.3166 485.595 68.999L481.71 73.5707C483.455 75.0543 485.645 75.6357 487.943 75.6357V69.6357ZM485.595 68.999C485.373 68.8101 485.063 68.4249 485.063 67.3118H479.063C479.063 69.695 479.813 71.9585 481.71 73.5707L485.595 68.999ZM485.063 67.3118V48.1617H479.063V67.3118H485.063ZM480.063 45.926C479.245 46.6574 478.339 47.284 477.338 47.8063L480.114 53.1259C481.549 52.3769 482.868 51.4672 484.064 50.3975L480.063 45.926ZM477.289 47.8324C476.644 48.1846 475.78 48.4196 474.594 48.4196V54.4196C476.586 54.4196 478.477 54.019 480.162 53.0998L477.289 47.8324ZM474.594 48.4196C471.989 48.4196 469.493 48.8774 467.585 50.2648L471.114 55.1172C471.537 54.8095 472.538 54.4196 474.594 54.4196V48.4196ZM467.531 50.3047C465.336 51.9771 464.681 54.6396 464.681 57.2203H470.681C470.681 55.4571 471.138 55.1001 471.168 55.0773L467.531 50.3047ZM464.681 57.2203V67.3118H470.681V57.2203H464.681ZM469.325 46.1511C469.877 45.5993 470.544 45.1536 471.359 44.8199L469.088 39.2666C467.572 39.8865 466.226 40.765 465.083 41.9084L469.325 46.1511ZM471.317 44.837C472.101 44.5302 473.168 44.3281 474.594 44.3281V38.3281C472.63 38.3281 470.783 38.6027 469.13 39.2495L471.317 44.837ZM474.594 44.3281C476.702 44.3281 478.584 44.1689 480.065 43.7248L478.341 37.9779C477.702 38.1695 476.512 38.3281 474.594 38.3281V44.3281ZM480.027 43.7359C481.822 43.2229 483.368 42.1155 484.221 40.3011L478.793 37.7463C478.775 37.7848 478.765 37.7928 478.749 37.8056C478.723 37.8258 478.623 37.8968 478.379 37.9668L480.027 43.7359ZM484.221 40.3011C484.926 38.805 485.143 36.9551 485.143 35.0507H479.143C479.143 36.6426 478.936 37.4413 478.793 37.7463L484.221 40.3011ZM485.143 35.0507C485.143 32.9659 484.996 31.0979 484.663 29.4935C484.335 27.9154 483.786 26.3968 482.842 25.1833L478.106 28.867C478.275 29.0838 478.56 29.6179 478.788 30.715C479.011 31.7858 479.143 33.2154 479.143 35.0507H485.143ZM482.874 25.2251C480.941 22.6471 477.794 21.8002 474.514 21.8002V27.8002C476.956 27.8002 477.783 28.4366 478.074 28.8251L482.874 25.2251ZM474.514 21.8002C471.337 21.8002 468.304 22.7413 466.522 25.4605L471.541 28.7487C471.773 28.3954 472.395 27.8002 474.514 27.8002V21.8002ZM466.508 25.4823C465.725 26.7011 465.274 28.2039 465.003 29.7714C464.726 31.3735 464.601 33.2518 464.601 35.3685H470.601C470.601 33.4592 470.716 31.9473 470.915 30.7947C471.12 29.6075 471.385 28.9914 471.555 28.7269L466.508 25.4823ZM464.601 35.3685C464.601 37.4122 464.575 39.1208 464.524 40.5019L470.52 40.724C470.575 39.2445 470.601 37.4569 470.601 35.3685H464.601ZM464.524 40.5019C464.473 41.8669 464.375 42.8388 464.255 43.4769L470.153 44.5826C470.351 43.5256 470.464 42.2196 470.52 40.724L464.524 40.5019ZM509.605 16.7747L507.549 14.5901V14.5901L509.605 16.7747ZM518.346 71.3643L520.467 73.4856H520.467L518.346 71.3643ZM514.134 69.6357C512.567 69.6357 511.952 69.2745 511.738 69.0808C511.581 68.9384 511.254 68.5429 511.254 67.3118H505.254C505.254 69.63 505.908 71.8964 507.711 73.5286C509.457 75.1095 511.782 75.6357 514.134 75.6357V69.6357ZM511.254 67.3118V20.8272H505.254V67.3118H511.254ZM511.254 20.8272C511.254 19.3883 511.609 19.0087 511.661 18.9593L507.549 14.5901C505.801 16.2358 505.254 18.558 505.254 20.8272H511.254ZM511.661 18.9593C511.757 18.8693 512.272 18.5033 513.896 18.5033V12.5033C511.6 12.5033 509.255 12.9849 507.549 14.5901L511.661 18.9593ZM513.896 18.5033C515.428 18.5033 516.017 18.8602 516.218 19.0445C516.37 19.1841 516.697 19.5843 516.697 20.8272H522.697C522.697 18.5208 522.057 16.2591 520.275 14.6241C518.542 13.0337 516.231 12.5033 513.896 12.5033V18.5033ZM516.697 20.8272V67.3118H522.697V20.8272H516.697ZM516.697 67.3118C516.697 68.6505 516.364 69.1035 516.225 69.243L520.467 73.4856C522.129 71.824 522.697 69.5754 522.697 67.3118H516.697ZM516.225 69.243C516.207 69.2604 515.781 69.6357 514.134 69.6357V75.6357C516.408 75.6357 518.789 75.1634 520.467 73.4856L516.225 69.243ZM536.156 71.2849L538.099 68.999L536.156 71.2849ZM536.553 24.1645L539.292 25.3875L539.296 25.3785L539.3 25.3695L536.553 24.1645ZM543.069 17.5693L541.824 14.8398V14.8398L543.069 17.5693ZM570.244 20.1915L568.211 22.3972L568.229 22.4137L568.247 22.4299L570.244 20.1915ZM565.556 71.2849L567.499 68.999L565.556 71.2849ZM561.901 27.7403L559.537 29.5872L559.569 29.6282L559.602 29.6681L561.901 27.7403ZM549.426 26.31L547.96 23.6925L549.426 26.31ZM546.724 29.8063L549.597 30.6683V30.6683L546.724 29.8063ZM543.009 67.3118C543.009 68.5897 542.682 69.0055 542.544 69.1375C542.381 69.293 541.87 69.6357 540.447 69.6357V75.6357C542.731 75.6357 545.001 75.0911 546.693 73.472C548.409 71.8293 549.009 69.5832 549.009 67.3118H543.009ZM540.447 69.6357C539.143 69.6357 538.472 69.3166 538.099 68.999L534.213 73.5707C535.958 75.0543 538.148 75.6357 540.447 75.6357V69.6357ZM538.099 68.999C537.876 68.8101 537.566 68.4249 537.566 67.3118H531.566C531.566 69.695 532.316 71.9585 534.213 73.5707L538.099 68.999ZM537.566 67.3118V36.0837H531.566V67.3118H537.566ZM537.566 36.0837C537.566 31.3232 538.207 27.8196 539.292 25.3875L533.814 22.9416C532.251 26.4426 531.566 30.8851 531.566 36.0837H537.566ZM539.3 25.3695C540.326 23.0305 541.961 21.3721 544.314 20.2988L541.824 14.8398C538.138 16.5211 535.428 19.2596 533.806 22.9596L539.3 25.3695ZM544.314 20.2988C546.794 19.1676 550.343 18.5033 555.147 18.5033V12.5033C549.886 12.5033 545.383 13.2163 541.824 14.8398L544.314 20.2988ZM555.147 18.5033C561.402 18.5033 565.579 19.9709 568.211 22.3972L572.278 17.9858C568.129 14.1612 562.241 12.5033 555.147 12.5033V18.5033ZM568.247 22.4299C570.745 24.6591 572.409 28.8928 572.409 36.0837H578.409C578.409 28.2299 576.63 21.8689 572.242 17.9531L568.247 22.4299ZM572.409 36.0837V67.3118H578.409V36.0837H572.409ZM572.409 67.3118C572.409 68.5897 572.082 69.0055 571.944 69.1375C571.782 69.293 571.271 69.6357 569.847 69.6357V75.6357C572.132 75.6357 574.401 75.0911 576.093 73.472C577.809 71.8293 578.409 69.5832 578.409 67.3118H572.409ZM569.847 69.6357C568.544 69.6357 567.873 69.3166 567.499 68.999L563.613 73.5707C565.359 75.0543 567.548 75.6357 569.847 75.6357V69.6357ZM567.499 68.999C567.277 68.8101 566.967 68.4249 566.967 67.3118H560.967C560.967 69.695 561.717 71.9585 563.613 73.5707L567.499 68.999ZM566.967 67.3118V36.0837H560.967V67.3118H566.967ZM566.967 36.0837C566.967 31.9757 566.278 28.2901 564.2 25.8125L559.602 29.6681C560.279 30.4749 560.967 32.3515 560.967 36.0837H566.967ZM564.265 25.8934C562.14 23.1738 558.792 22.1975 555.147 22.1975V28.1975C557.858 28.1975 559.013 28.9165 559.537 29.5872L564.265 25.8934ZM555.147 22.1975C552.436 22.1975 549.932 22.5879 547.96 23.6925L550.891 28.9275C551.568 28.5488 552.878 28.1975 555.147 28.1975V22.1975ZM547.96 23.6925C545.89 24.8516 544.528 26.6854 543.85 28.9442L549.597 30.6683C549.873 29.7487 550.312 29.2517 550.891 28.9275L547.96 23.6925ZM543.85 28.9442C543.256 30.9244 543.009 33.3409 543.009 36.0837H549.009C549.009 33.635 549.238 31.8666 549.597 30.6683L543.85 28.9442ZM543.009 36.0837V67.3118H549.009V36.0837H543.009Z" fill="black" mask="url(#path-1-outside-1_50_597)"/>
</svg>
