<svg width="571" height="118" viewBox="0 0 571 118" fill="none" xmlns="http://www.w3.org/2000/svg">
<mask id="path-1-outside-1_266_6853" maskUnits="userSpaceOnUse" x="20.5" y="20.5" width="531" height="77" fill="black">
<rect fill="white" x="20.5" y="20.5" width="531" height="77"/>
<path d="M35.4826 81.8118C35.4826 85.3611 33.6285 87.1357 29.9203 87.1357C28.1192 87.1357 26.6889 86.6854 25.6294 85.7849C24.5699 84.8843 24.0402 83.5599 24.0402 81.8118V50.3453C24.0402 43.0349 25.5235 37.817 28.49 34.6915C31.4565 31.566 36.0918 30.0033 42.3957 30.0033C48.8585 30.0033 53.6261 31.5925 56.6986 34.771C59.7711 37.9494 61.3073 43.1408 61.3073 50.3453V81.8118C61.3073 85.3611 59.4533 87.1357 55.7451 87.1357C53.944 87.1357 52.5137 86.6854 51.4542 85.7849C50.3947 84.8843 49.865 83.5599 49.865 81.8118V62.6617C48.8585 63.5623 47.746 64.3304 46.5276 64.9661C45.3622 65.6018 43.9849 65.9196 42.3957 65.9196C40.0648 65.9196 38.3167 66.3434 37.1512 67.191C36.0388 68.0386 35.4826 69.5483 35.4826 71.7203V81.8118ZM35.0058 58.5298C35.8534 57.6822 36.8599 57.02 38.0253 56.5432C39.2437 56.0665 40.7005 55.8281 42.3957 55.8281C44.4087 55.8281 45.9449 55.6692 47.0044 55.3513C48.1168 55.0335 48.885 54.4243 49.3087 53.5237C49.7325 52.6232 49.9444 51.2988 49.9444 49.5507C49.9444 45.6306 49.3882 42.9554 48.2758 41.5251C47.1633 40.0419 45.1768 39.3002 42.3162 39.3002C39.6675 39.3002 37.8399 40.0684 36.8334 41.6046C35.8799 43.0879 35.4031 45.8425 35.4031 49.8685C35.4031 51.9345 35.3766 53.6827 35.3236 55.113C35.2707 56.5432 35.1647 57.6822 35.0058 58.5298ZM79.4673 86.5C78.4607 86.5 77.6132 86.1027 76.9245 85.3081C76.2358 84.5135 75.8915 83.507 75.8915 82.2886V46.5312C75.8915 44.783 76.1299 42.9554 76.6067 41.0484C77.1364 39.1413 78.0899 37.3667 79.4673 35.7245C80.8975 34.0293 82.9106 32.652 85.5063 31.5925C88.102 30.5331 91.4923 30.0033 95.6773 30.0033C101.24 30.0033 105.557 31.3806 108.629 34.1353C111.702 36.8899 113.238 41.0219 113.238 46.5312C113.238 48.7561 112.814 50.7956 111.967 52.6497C111.172 54.5038 109.954 55.9076 108.312 56.8611C110.907 58.0265 112.761 59.6422 113.874 61.7082C115.039 63.7742 115.622 66.6348 115.622 70.29C115.622 75.5874 113.98 79.6134 110.695 82.368C107.464 85.1227 102.458 86.5 95.6773 86.5H79.4673ZM86.7777 55.4308C87.4663 54.5832 88.5788 53.921 90.115 53.4443C91.7042 52.9675 93.5583 52.7291 95.6773 52.7291C98.167 52.7291 99.8622 52.2788 100.763 51.3783C101.716 50.4248 102.193 48.8091 102.193 46.5312C102.193 43.8825 101.637 42.0019 100.524 40.8895C99.4649 39.724 97.8492 39.1413 95.6773 39.1413C92.6048 39.1413 90.4329 39.6975 89.1615 40.81C87.9431 41.9224 87.3339 43.8295 87.3339 46.5312C87.3339 48.1734 87.3074 49.4977 87.2544 50.5042C87.2544 51.4578 87.2014 52.3053 87.0955 53.047C87.0425 53.7886 86.9366 54.5832 86.7777 55.4308ZM87.3339 77.2825H95.6773C98.8557 77.2825 101.054 76.7263 102.273 75.6139C103.544 74.5014 104.18 72.7268 104.18 70.29C104.18 66.8467 103.517 64.3834 102.193 62.9001C100.922 61.4168 98.7498 60.6752 95.6773 60.6752C93.5053 60.6752 91.8102 60.9666 90.5918 61.5493C89.3734 62.079 88.5258 63.0326 88.049 64.4099C87.5723 65.7872 87.3339 67.7472 87.3339 70.29V77.2825ZM148.234 87.1357C143.626 87.1357 139.706 86.2351 136.474 84.434C133.243 82.5799 130.78 79.5604 129.084 75.3755C127.442 71.1905 126.621 65.5223 126.621 58.3708C126.621 51.2194 127.442 45.5776 129.084 41.4457C130.78 37.3137 133.243 34.3737 136.474 32.6255C139.706 30.8774 143.626 30.0033 148.234 30.0033C152.896 30.0033 156.816 30.8774 159.995 32.6255C163.226 34.3737 165.663 37.3137 167.305 41.4457C169 45.5776 169.848 51.2194 169.848 58.3708C169.848 65.5223 169 71.1905 167.305 75.3755C165.663 79.5604 163.226 82.5799 159.995 84.434C156.816 86.2351 152.896 87.1357 148.234 87.1357ZM148.234 76.6469C150.353 76.6469 152.155 76.1436 153.638 75.1371C155.174 74.1306 156.339 72.303 157.134 69.6543C157.982 67.0056 158.405 63.2444 158.405 58.3708C158.405 53.4443 157.982 49.7096 157.134 47.1669C156.339 44.5711 155.174 42.823 153.638 41.9224C152.155 40.9689 150.353 40.4921 148.234 40.4921C146.168 40.4921 144.367 40.9689 142.831 41.9224C141.295 42.823 140.103 44.5711 139.255 47.1669C138.461 49.7096 138.063 53.4443 138.063 58.3708C138.063 63.2444 138.461 67.0056 139.255 69.6543C140.103 72.303 141.295 74.1306 142.831 75.1371C144.367 76.1436 146.168 76.6469 148.234 76.6469ZM202.637 87.1357C196.227 87.1357 191.327 85.5465 187.937 82.368C184.6 79.1366 182.931 74.2895 182.931 67.8267V36.2013C182.931 32.0693 184.838 30.0033 188.652 30.0033C192.466 30.0033 194.373 32.0693 194.373 36.2013V67.8267C194.373 71.1641 195.088 73.6009 196.519 75.1371C198.002 76.6733 200.041 77.4415 202.637 77.4415C208.994 77.4415 212.173 74.2365 212.173 67.8267V36.2013C212.173 32.0693 214.08 30.0033 217.894 30.0033C221.708 30.0033 223.615 32.0693 223.615 36.2013V67.8267C223.615 74.2365 221.84 79.0572 218.291 82.2886C214.742 85.52 209.524 87.1357 202.637 87.1357ZM253.954 87.1357C252.63 87.1357 251.279 86.8443 249.902 86.2616C248.577 85.6259 247.915 84.6194 247.915 83.2421V46.0544C247.915 44.3592 248.339 43.1938 249.186 42.5581C250.034 41.9224 250.723 41.5251 251.252 41.3662H235.916C234.645 41.3662 233.692 40.81 233.056 39.6975C232.473 38.5321 232.182 37.3402 232.182 36.1218C232.182 34.7975 232.5 33.6055 233.135 32.5461C233.771 31.4336 234.698 30.8774 235.916 30.8774H271.435C272.654 30.8774 273.581 31.4336 274.217 32.5461C274.852 33.6055 275.17 34.7975 275.17 36.1218C275.17 37.3402 274.852 38.5321 274.217 39.6975C273.634 40.81 272.707 41.3662 271.435 41.3662H259.357V83.2421C259.357 84.5665 258.801 85.5465 257.689 86.1822C256.629 86.8178 255.384 87.1357 253.954 87.1357ZM326.709 87.6919C326.709 89.6519 326.364 91.1617 325.676 92.2212C325.04 93.3336 324.113 93.8899 322.894 93.8899C320.299 93.8899 319.001 92.2212 319.001 88.8838V87.1357C317.041 87.0827 315.001 86.8973 312.882 86.5795C310.816 86.3146 309.148 85.9173 307.876 85.3875C305.651 84.487 304.539 82.9772 304.539 80.8583C304.539 79.322 304.989 78.1036 305.89 77.2031C306.843 76.2495 308.327 75.7728 310.34 75.7728C311.717 75.7728 313.386 75.9582 315.346 76.329C317.306 76.6998 319.027 76.8852 320.511 76.8852C323.795 76.8852 326.152 76.4614 327.583 75.6139C329.013 74.7663 329.728 73.0446 329.728 70.4489C329.728 68.9127 329.172 67.6148 328.059 66.5553C327 65.4958 324.854 64.4893 321.623 63.5358C315.743 61.7877 311.479 59.6157 308.83 57.02C306.234 54.4243 304.936 51.0604 304.936 46.9285C304.936 42.3727 306.208 38.691 308.75 35.8834C311.346 33.0228 314.763 31.1952 319.001 30.4006V30.2417C319.001 26.0038 320.299 23.8848 322.894 23.8848C325.437 23.8848 326.709 25.9508 326.709 30.0828C329.781 30.3476 332.377 30.9039 334.496 31.7515C336.721 32.599 337.833 34.1088 337.833 36.2807C337.833 37.817 337.356 39.0619 336.403 40.0154C335.502 40.9159 334.045 41.3662 332.032 41.3662C330.708 41.3662 329.278 41.2338 327.742 40.9689C326.205 40.6511 324.696 40.4921 323.212 40.4921C320.934 40.4921 319.213 40.8895 318.047 41.6841C316.882 42.4787 316.299 43.803 316.299 45.6571C316.299 47.3523 317.12 48.8885 318.762 50.2658C320.405 51.6432 323.424 52.994 327.821 54.3183C332.854 55.8016 336.323 57.8146 338.23 60.3574C340.137 62.8471 341.091 66.0256 341.091 69.8927C341.091 74.4484 339.846 78.1301 337.356 80.9377C334.867 83.7454 331.317 85.5994 326.709 86.5V87.6919ZM360.453 87.1357C356.533 87.1357 354.573 85.3611 354.573 81.8118V35.3272C354.573 33.4731 355.023 32.1223 355.923 31.2747C356.824 30.4271 358.254 30.0033 360.214 30.0033C364.081 30.0033 366.015 31.7779 366.015 35.3272V43.2733C366.015 49.842 365.83 53.7621 365.459 55.0335C366.836 53.6562 368.319 52.7026 369.909 52.1729C371.498 51.6432 373.59 51.3783 376.186 51.3783H383.973V35.3272C383.973 33.4731 384.423 32.1223 385.324 31.2747C386.225 30.4271 387.655 30.0033 389.615 30.0033C393.482 30.0033 395.415 31.7779 395.415 35.3272V81.8118C395.415 83.6129 394.965 84.9638 394.065 85.8643C393.217 86.7119 391.813 87.1357 389.853 87.1357C385.933 87.1357 383.973 85.3611 383.973 81.8118V58.2914C383.655 59.2449 382.622 60.0395 380.874 60.6752C379.126 61.2579 377.087 61.5493 374.756 61.5493C371.418 61.5493 369.114 62.2379 367.843 63.6153C366.624 64.9396 366.015 67.4029 366.015 71.0051V81.8118C366.015 83.6129 365.565 84.9638 364.664 85.8643C363.817 86.7119 362.413 87.1357 360.453 87.1357ZM413.957 86.5C412.951 86.5 412.103 86.1027 411.414 85.3081C410.726 84.5135 410.381 83.507 410.381 82.2886V45.1009C410.381 40.1213 411.918 36.5191 414.99 34.2942C418.063 32.0163 423.016 30.8774 429.849 30.8774H439.782C441.53 30.8774 442.881 31.3541 443.834 32.3077C444.841 33.2082 445.344 34.5061 445.344 36.2013C445.344 37.8435 444.841 39.1148 443.834 40.0154C442.881 40.9159 441.53 41.3662 439.782 41.3662H429.293C426.644 41.3662 424.737 41.896 423.572 42.9554C422.407 44.0149 421.824 45.7366 421.824 48.1204C421.824 48.968 421.771 50.0275 421.665 51.2988C421.559 52.5172 421.4 53.921 421.188 55.5103C422.089 54.7686 423.228 54.1859 424.605 53.7621C425.982 53.2854 427.333 53.047 428.657 53.047H436.524C438.007 53.047 439.146 53.4972 439.941 54.3978C440.788 55.2984 441.212 56.5432 441.212 58.1325C441.212 59.7217 440.788 60.9931 439.941 61.9466C439.093 62.9001 437.954 63.3769 436.524 63.3769H428.022C425.585 63.3769 423.943 63.8801 423.095 64.8866C422.248 65.8402 421.824 67.8002 421.824 70.7667V76.0112H439.782C441.742 76.0112 443.146 76.435 443.993 77.2825C444.894 78.1301 445.344 79.5074 445.344 81.4145C445.344 83.2156 444.92 84.5135 444.073 85.3081C443.225 86.1027 441.795 86.5 439.782 86.5H413.957ZM468.312 81.8118C468.312 85.3611 466.457 87.1357 462.749 87.1357C460.948 87.1357 459.518 86.6854 458.458 85.7849C457.399 84.8843 456.869 83.5599 456.869 81.8118V50.3453C456.869 43.0349 458.352 37.817 461.319 34.6915C464.286 31.566 468.921 30.0033 475.225 30.0033C481.687 30.0033 486.455 31.5925 489.528 34.771C492.6 37.9494 494.136 43.1408 494.136 50.3453V81.8118C494.136 85.3611 492.282 87.1357 488.574 87.1357C486.773 87.1357 485.343 86.6854 484.283 85.7849C483.224 84.8843 482.694 83.5599 482.694 81.8118V62.6617C481.687 63.5623 480.575 64.3304 479.357 64.9661C478.191 65.6018 476.814 65.9196 475.225 65.9196C472.894 65.9196 471.146 66.3434 469.98 67.191C468.868 68.0386 468.312 69.5483 468.312 71.7203V81.8118ZM467.835 58.5298C468.682 57.6822 469.689 57.02 470.854 56.5432C472.073 56.0665 473.529 55.8281 475.225 55.8281C477.238 55.8281 478.774 55.6692 479.833 55.3513C480.946 55.0335 481.714 54.4243 482.138 53.5237C482.562 52.6232 482.773 51.2988 482.773 49.5507C482.773 45.6306 482.217 42.9554 481.105 41.5251C479.992 40.0419 478.006 39.3002 475.145 39.3002C472.496 39.3002 470.669 40.0684 469.662 41.6046C468.709 43.0879 468.232 45.8425 468.232 49.8685C468.232 51.9345 468.206 53.6827 468.153 55.113C468.1 56.5432 467.994 57.6822 467.835 58.5298ZM512.376 86.5C511.369 86.5 510.495 86.1292 509.753 85.3875C509.065 84.5929 508.72 83.6129 508.72 82.4475V47.0079C508.72 41.4987 510.204 37.2872 513.17 34.3737C516.19 31.4601 520.534 30.0033 526.202 30.0033C541.035 30.0033 548.451 39.6181 548.451 58.8476C548.451 68.224 546.597 75.1901 542.889 79.7458C539.18 84.2486 533.486 86.5 525.805 86.5H512.376ZM520.163 77.1236H525.805C529.725 77.1236 532.559 75.6139 534.307 72.5943C536.108 69.5219 537.009 64.5953 537.009 57.8146C537.009 51.3518 536.187 46.7696 534.545 44.0679C532.956 41.3132 530.228 39.9359 526.361 39.9359C522.229 39.9359 520.163 41.4457 520.163 44.4652V77.1236Z"/>
</mask>
<path d="M35.4826 81.8118C35.4826 85.3611 33.6285 87.1357 29.9203 87.1357C28.1192 87.1357 26.6889 86.6854 25.6294 85.7849C24.5699 84.8843 24.0402 83.5599 24.0402 81.8118V50.3453C24.0402 43.0349 25.5235 37.817 28.49 34.6915C31.4565 31.566 36.0918 30.0033 42.3957 30.0033C48.8585 30.0033 53.6261 31.5925 56.6986 34.771C59.7711 37.9494 61.3073 43.1408 61.3073 50.3453V81.8118C61.3073 85.3611 59.4533 87.1357 55.7451 87.1357C53.944 87.1357 52.5137 86.6854 51.4542 85.7849C50.3947 84.8843 49.865 83.5599 49.865 81.8118V62.6617C48.8585 63.5623 47.746 64.3304 46.5276 64.9661C45.3622 65.6018 43.9849 65.9196 42.3957 65.9196C40.0648 65.9196 38.3167 66.3434 37.1512 67.191C36.0388 68.0386 35.4826 69.5483 35.4826 71.7203V81.8118ZM35.0058 58.5298C35.8534 57.6822 36.8599 57.02 38.0253 56.5432C39.2437 56.0665 40.7005 55.8281 42.3957 55.8281C44.4087 55.8281 45.9449 55.6692 47.0044 55.3513C48.1168 55.0335 48.885 54.4243 49.3087 53.5237C49.7325 52.6232 49.9444 51.2988 49.9444 49.5507C49.9444 45.6306 49.3882 42.9554 48.2758 41.5251C47.1633 40.0419 45.1768 39.3002 42.3162 39.3002C39.6675 39.3002 37.8399 40.0684 36.8334 41.6046C35.8799 43.0879 35.4031 45.8425 35.4031 49.8685C35.4031 51.9345 35.3766 53.6827 35.3236 55.113C35.2707 56.5432 35.1647 57.6822 35.0058 58.5298ZM79.4673 86.5C78.4607 86.5 77.6132 86.1027 76.9245 85.3081C76.2358 84.5135 75.8915 83.507 75.8915 82.2886V46.5312C75.8915 44.783 76.1299 42.9554 76.6067 41.0484C77.1364 39.1413 78.0899 37.3667 79.4673 35.7245C80.8975 34.0293 82.9106 32.652 85.5063 31.5925C88.102 30.5331 91.4923 30.0033 95.6773 30.0033C101.24 30.0033 105.557 31.3806 108.629 34.1353C111.702 36.8899 113.238 41.0219 113.238 46.5312C113.238 48.7561 112.814 50.7956 111.967 52.6497C111.172 54.5038 109.954 55.9076 108.312 56.8611C110.907 58.0265 112.761 59.6422 113.874 61.7082C115.039 63.7742 115.622 66.6348 115.622 70.29C115.622 75.5874 113.98 79.6134 110.695 82.368C107.464 85.1227 102.458 86.5 95.6773 86.5H79.4673ZM86.7777 55.4308C87.4663 54.5832 88.5788 53.921 90.115 53.4443C91.7042 52.9675 93.5583 52.7291 95.6773 52.7291C98.167 52.7291 99.8622 52.2788 100.763 51.3783C101.716 50.4248 102.193 48.8091 102.193 46.5312C102.193 43.8825 101.637 42.0019 100.524 40.8895C99.4649 39.724 97.8492 39.1413 95.6773 39.1413C92.6048 39.1413 90.4329 39.6975 89.1615 40.81C87.9431 41.9224 87.3339 43.8295 87.3339 46.5312C87.3339 48.1734 87.3074 49.4977 87.2544 50.5042C87.2544 51.4578 87.2014 52.3053 87.0955 53.047C87.0425 53.7886 86.9366 54.5832 86.7777 55.4308ZM87.3339 77.2825H95.6773C98.8557 77.2825 101.054 76.7263 102.273 75.6139C103.544 74.5014 104.18 72.7268 104.18 70.29C104.18 66.8467 103.517 64.3834 102.193 62.9001C100.922 61.4168 98.7498 60.6752 95.6773 60.6752C93.5053 60.6752 91.8102 60.9666 90.5918 61.5493C89.3734 62.079 88.5258 63.0326 88.049 64.4099C87.5723 65.7872 87.3339 67.7472 87.3339 70.29V77.2825ZM148.234 87.1357C143.626 87.1357 139.706 86.2351 136.474 84.434C133.243 82.5799 130.78 79.5604 129.084 75.3755C127.442 71.1905 126.621 65.5223 126.621 58.3708C126.621 51.2194 127.442 45.5776 129.084 41.4457C130.78 37.3137 133.243 34.3737 136.474 32.6255C139.706 30.8774 143.626 30.0033 148.234 30.0033C152.896 30.0033 156.816 30.8774 159.995 32.6255C163.226 34.3737 165.663 37.3137 167.305 41.4457C169 45.5776 169.848 51.2194 169.848 58.3708C169.848 65.5223 169 71.1905 167.305 75.3755C165.663 79.5604 163.226 82.5799 159.995 84.434C156.816 86.2351 152.896 87.1357 148.234 87.1357ZM148.234 76.6469C150.353 76.6469 152.155 76.1436 153.638 75.1371C155.174 74.1306 156.339 72.303 157.134 69.6543C157.982 67.0056 158.405 63.2444 158.405 58.3708C158.405 53.4443 157.982 49.7096 157.134 47.1669C156.339 44.5711 155.174 42.823 153.638 41.9224C152.155 40.9689 150.353 40.4921 148.234 40.4921C146.168 40.4921 144.367 40.9689 142.831 41.9224C141.295 42.823 140.103 44.5711 139.255 47.1669C138.461 49.7096 138.063 53.4443 138.063 58.3708C138.063 63.2444 138.461 67.0056 139.255 69.6543C140.103 72.303 141.295 74.1306 142.831 75.1371C144.367 76.1436 146.168 76.6469 148.234 76.6469ZM202.637 87.1357C196.227 87.1357 191.327 85.5465 187.937 82.368C184.6 79.1366 182.931 74.2895 182.931 67.8267V36.2013C182.931 32.0693 184.838 30.0033 188.652 30.0033C192.466 30.0033 194.373 32.0693 194.373 36.2013V67.8267C194.373 71.1641 195.088 73.6009 196.519 75.1371C198.002 76.6733 200.041 77.4415 202.637 77.4415C208.994 77.4415 212.173 74.2365 212.173 67.8267V36.2013C212.173 32.0693 214.08 30.0033 217.894 30.0033C221.708 30.0033 223.615 32.0693 223.615 36.2013V67.8267C223.615 74.2365 221.84 79.0572 218.291 82.2886C214.742 85.52 209.524 87.1357 202.637 87.1357ZM253.954 87.1357C252.63 87.1357 251.279 86.8443 249.902 86.2616C248.577 85.6259 247.915 84.6194 247.915 83.2421V46.0544C247.915 44.3592 248.339 43.1938 249.186 42.5581C250.034 41.9224 250.723 41.5251 251.252 41.3662H235.916C234.645 41.3662 233.692 40.81 233.056 39.6975C232.473 38.5321 232.182 37.3402 232.182 36.1218C232.182 34.7975 232.5 33.6055 233.135 32.5461C233.771 31.4336 234.698 30.8774 235.916 30.8774H271.435C272.654 30.8774 273.581 31.4336 274.217 32.5461C274.852 33.6055 275.17 34.7975 275.17 36.1218C275.17 37.3402 274.852 38.5321 274.217 39.6975C273.634 40.81 272.707 41.3662 271.435 41.3662H259.357V83.2421C259.357 84.5665 258.801 85.5465 257.689 86.1822C256.629 86.8178 255.384 87.1357 253.954 87.1357ZM326.709 87.6919C326.709 89.6519 326.364 91.1617 325.676 92.2212C325.04 93.3336 324.113 93.8899 322.894 93.8899C320.299 93.8899 319.001 92.2212 319.001 88.8838V87.1357C317.041 87.0827 315.001 86.8973 312.882 86.5795C310.816 86.3146 309.148 85.9173 307.876 85.3875C305.651 84.487 304.539 82.9772 304.539 80.8583C304.539 79.322 304.989 78.1036 305.89 77.2031C306.843 76.2495 308.327 75.7728 310.34 75.7728C311.717 75.7728 313.386 75.9582 315.346 76.329C317.306 76.6998 319.027 76.8852 320.511 76.8852C323.795 76.8852 326.152 76.4614 327.583 75.6139C329.013 74.7663 329.728 73.0446 329.728 70.4489C329.728 68.9127 329.172 67.6148 328.059 66.5553C327 65.4958 324.854 64.4893 321.623 63.5358C315.743 61.7877 311.479 59.6157 308.83 57.02C306.234 54.4243 304.936 51.0604 304.936 46.9285C304.936 42.3727 306.208 38.691 308.75 35.8834C311.346 33.0228 314.763 31.1952 319.001 30.4006V30.2417C319.001 26.0038 320.299 23.8848 322.894 23.8848C325.437 23.8848 326.709 25.9508 326.709 30.0828C329.781 30.3476 332.377 30.9039 334.496 31.7515C336.721 32.599 337.833 34.1088 337.833 36.2807C337.833 37.817 337.356 39.0619 336.403 40.0154C335.502 40.9159 334.045 41.3662 332.032 41.3662C330.708 41.3662 329.278 41.2338 327.742 40.9689C326.205 40.6511 324.696 40.4921 323.212 40.4921C320.934 40.4921 319.213 40.8895 318.047 41.6841C316.882 42.4787 316.299 43.803 316.299 45.6571C316.299 47.3523 317.12 48.8885 318.762 50.2658C320.405 51.6432 323.424 52.994 327.821 54.3183C332.854 55.8016 336.323 57.8146 338.23 60.3574C340.137 62.8471 341.091 66.0256 341.091 69.8927C341.091 74.4484 339.846 78.1301 337.356 80.9377C334.867 83.7454 331.317 85.5994 326.709 86.5V87.6919ZM360.453 87.1357C356.533 87.1357 354.573 85.3611 354.573 81.8118V35.3272C354.573 33.4731 355.023 32.1223 355.923 31.2747C356.824 30.4271 358.254 30.0033 360.214 30.0033C364.081 30.0033 366.015 31.7779 366.015 35.3272V43.2733C366.015 49.842 365.83 53.7621 365.459 55.0335C366.836 53.6562 368.319 52.7026 369.909 52.1729C371.498 51.6432 373.59 51.3783 376.186 51.3783H383.973V35.3272C383.973 33.4731 384.423 32.1223 385.324 31.2747C386.225 30.4271 387.655 30.0033 389.615 30.0033C393.482 30.0033 395.415 31.7779 395.415 35.3272V81.8118C395.415 83.6129 394.965 84.9638 394.065 85.8643C393.217 86.7119 391.813 87.1357 389.853 87.1357C385.933 87.1357 383.973 85.3611 383.973 81.8118V58.2914C383.655 59.2449 382.622 60.0395 380.874 60.6752C379.126 61.2579 377.087 61.5493 374.756 61.5493C371.418 61.5493 369.114 62.2379 367.843 63.6153C366.624 64.9396 366.015 67.4029 366.015 71.0051V81.8118C366.015 83.6129 365.565 84.9638 364.664 85.8643C363.817 86.7119 362.413 87.1357 360.453 87.1357ZM413.957 86.5C412.951 86.5 412.103 86.1027 411.414 85.3081C410.726 84.5135 410.381 83.507 410.381 82.2886V45.1009C410.381 40.1213 411.918 36.5191 414.99 34.2942C418.063 32.0163 423.016 30.8774 429.849 30.8774H439.782C441.53 30.8774 442.881 31.3541 443.834 32.3077C444.841 33.2082 445.344 34.5061 445.344 36.2013C445.344 37.8435 444.841 39.1148 443.834 40.0154C442.881 40.9159 441.53 41.3662 439.782 41.3662H429.293C426.644 41.3662 424.737 41.896 423.572 42.9554C422.407 44.0149 421.824 45.7366 421.824 48.1204C421.824 48.968 421.771 50.0275 421.665 51.2988C421.559 52.5172 421.4 53.921 421.188 55.5103C422.089 54.7686 423.228 54.1859 424.605 53.7621C425.982 53.2854 427.333 53.047 428.657 53.047H436.524C438.007 53.047 439.146 53.4972 439.941 54.3978C440.788 55.2984 441.212 56.5432 441.212 58.1325C441.212 59.7217 440.788 60.9931 439.941 61.9466C439.093 62.9001 437.954 63.3769 436.524 63.3769H428.022C425.585 63.3769 423.943 63.8801 423.095 64.8866C422.248 65.8402 421.824 67.8002 421.824 70.7667V76.0112H439.782C441.742 76.0112 443.146 76.435 443.993 77.2825C444.894 78.1301 445.344 79.5074 445.344 81.4145C445.344 83.2156 444.92 84.5135 444.073 85.3081C443.225 86.1027 441.795 86.5 439.782 86.5H413.957ZM468.312 81.8118C468.312 85.3611 466.457 87.1357 462.749 87.1357C460.948 87.1357 459.518 86.6854 458.458 85.7849C457.399 84.8843 456.869 83.5599 456.869 81.8118V50.3453C456.869 43.0349 458.352 37.817 461.319 34.6915C464.286 31.566 468.921 30.0033 475.225 30.0033C481.687 30.0033 486.455 31.5925 489.528 34.771C492.6 37.9494 494.136 43.1408 494.136 50.3453V81.8118C494.136 85.3611 492.282 87.1357 488.574 87.1357C486.773 87.1357 485.343 86.6854 484.283 85.7849C483.224 84.8843 482.694 83.5599 482.694 81.8118V62.6617C481.687 63.5623 480.575 64.3304 479.357 64.9661C478.191 65.6018 476.814 65.9196 475.225 65.9196C472.894 65.9196 471.146 66.3434 469.98 67.191C468.868 68.0386 468.312 69.5483 468.312 71.7203V81.8118ZM467.835 58.5298C468.682 57.6822 469.689 57.02 470.854 56.5432C472.073 56.0665 473.529 55.8281 475.225 55.8281C477.238 55.8281 478.774 55.6692 479.833 55.3513C480.946 55.0335 481.714 54.4243 482.138 53.5237C482.562 52.6232 482.773 51.2988 482.773 49.5507C482.773 45.6306 482.217 42.9554 481.105 41.5251C479.992 40.0419 478.006 39.3002 475.145 39.3002C472.496 39.3002 470.669 40.0684 469.662 41.6046C468.709 43.0879 468.232 45.8425 468.232 49.8685C468.232 51.9345 468.206 53.6827 468.153 55.113C468.1 56.5432 467.994 57.6822 467.835 58.5298ZM512.376 86.5C511.369 86.5 510.495 86.1292 509.753 85.3875C509.065 84.5929 508.72 83.6129 508.72 82.4475V47.0079C508.72 41.4987 510.204 37.2872 513.17 34.3737C516.19 31.4601 520.534 30.0033 526.202 30.0033C541.035 30.0033 548.451 39.6181 548.451 58.8476C548.451 68.224 546.597 75.1901 542.889 79.7458C539.18 84.2486 533.486 86.5 525.805 86.5H512.376ZM520.163 77.1236H525.805C529.725 77.1236 532.559 75.6139 534.307 72.5943C536.108 69.5219 537.009 64.5953 537.009 57.8146C537.009 51.3518 536.187 46.7696 534.545 44.0679C532.956 41.3132 530.228 39.9359 526.361 39.9359C522.229 39.9359 520.163 41.4457 520.163 44.4652V77.1236Z" fill="#8C5A52"/>
<path d="M25.6294 85.7849L27.5724 83.499L27.5724 83.499L25.6294 85.7849ZM28.49 34.6915L30.6659 36.7568L30.6659 36.7568L28.49 34.6915ZM51.4542 85.7849L53.3971 83.499L53.3971 83.499L51.4542 85.7849ZM49.865 62.6617H52.865V55.952L47.8646 60.426L49.865 62.6617ZM46.5276 64.9661L45.1399 62.3063L45.1154 62.3192L45.0911 62.3324L46.5276 64.9661ZM37.1512 67.191L35.3867 64.7648L35.3597 64.7845L35.3331 64.8047L37.1512 67.191ZM35.0058 58.5298L32.0572 57.9769L30.2701 67.5081L37.1271 60.6511L35.0058 58.5298ZM38.0253 56.5432L36.9321 53.7495L36.9107 53.7579L36.8894 53.7666L38.0253 56.5432ZM47.0044 55.3513L46.1802 52.4668L46.1612 52.4722L46.1423 52.4779L47.0044 55.3513ZM49.3087 53.5237L52.0232 54.8011L52.0232 54.8011L49.3087 53.5237ZM48.2758 41.5251L45.8758 43.3251L45.8915 43.3462L45.9077 43.367L48.2758 41.5251ZM36.8334 41.6046L34.324 39.9605L34.3169 39.9714L34.3099 39.9823L36.8334 41.6046ZM35.3236 55.113L38.3216 55.224L38.3216 55.224L35.3236 55.113ZM32.4826 81.8118C32.4826 83.0897 32.1555 83.5055 32.0176 83.6375C31.8552 83.793 31.344 84.1357 29.9203 84.1357V90.1357C32.2048 90.1357 34.4747 89.5911 36.1664 87.972C37.8825 86.3293 38.4826 84.0832 38.4826 81.8118H32.4826ZM29.9203 84.1357C28.6168 84.1357 27.9459 83.8166 27.5724 83.499L23.6865 88.0707C25.4319 89.5543 27.6216 90.1357 29.9203 90.1357V84.1357ZM27.5724 83.499C27.3501 83.3101 27.0402 82.9249 27.0402 81.8118H21.0402C21.0402 84.195 21.7898 86.4585 23.6865 88.0707L27.5724 83.499ZM27.0402 81.8118V50.3453H21.0402V81.8118H27.0402ZM27.0402 50.3453C27.0402 43.3051 28.4933 39.0458 30.6659 36.7568L26.3141 32.6262C22.5536 36.5881 21.0402 42.7647 21.0402 50.3453H27.0402ZM30.6659 36.7568C32.8475 34.4584 36.5313 33.0033 42.3957 33.0033V27.0033C35.6522 27.0033 30.0656 28.6737 26.3141 32.6262L30.6659 36.7568ZM42.3957 33.0033C48.4222 33.0033 52.2516 34.487 54.5416 36.856L58.8556 32.6859C55.0007 28.6981 49.2947 27.0033 42.3957 27.0033V33.0033ZM54.5416 36.856C56.8189 39.2118 58.3073 43.4534 58.3073 50.3453H64.3073C64.3073 42.8283 62.7233 36.687 58.8556 32.6859L54.5416 36.856ZM58.3073 50.3453V81.8118H64.3073V50.3453H58.3073ZM58.3073 81.8118C58.3073 83.0897 57.9803 83.5055 57.8424 83.6375C57.68 83.793 57.1688 84.1357 55.7451 84.1357V90.1357C58.0296 90.1357 60.2995 89.5911 61.9911 87.972C63.7073 86.3293 64.3073 84.0832 64.3073 81.8118H58.3073ZM55.7451 84.1357C54.4416 84.1357 53.7707 83.8166 53.3971 83.499L49.5112 88.0707C51.2566 89.5543 53.4463 90.1357 55.7451 90.1357V84.1357ZM53.3971 83.499C53.1749 83.3101 52.865 82.9249 52.865 81.8118H46.865C46.865 84.195 47.6145 86.4585 49.5112 88.0707L53.3971 83.499ZM52.865 81.8118V62.6617H46.865V81.8118H52.865ZM47.8646 60.426C47.0472 61.1574 46.1412 61.784 45.1399 62.3063L47.9153 67.6259C49.3509 66.8769 50.6698 65.9672 51.8654 64.8975L47.8646 60.426ZM45.0911 62.3324C44.4455 62.6846 43.5816 62.9196 42.3957 62.9196V68.9196C44.3882 68.9196 46.2789 68.519 47.9642 67.5998L45.0911 62.3324ZM42.3957 62.9196C39.7904 62.9196 37.2944 63.3774 35.3867 64.7648L38.9157 69.6172C39.3389 69.3095 40.3392 68.9196 42.3957 68.9196V62.9196ZM35.3331 64.8047C33.1381 66.4771 32.4826 69.1396 32.4826 71.7203H38.4826C38.4826 69.9571 38.9395 69.6001 38.9694 69.5773L35.3331 64.8047ZM32.4826 71.7203V81.8118H38.4826V71.7203H32.4826ZM37.1271 60.6511C37.6789 60.0993 38.3456 59.6536 39.1612 59.3199L36.8894 53.7666C35.3742 54.3865 34.0279 55.265 32.8845 56.4084L37.1271 60.6511ZM39.1185 59.337C39.9024 59.0302 40.9693 58.8281 42.3957 58.8281V52.8281C40.4317 52.8281 38.585 53.1027 36.9321 53.7495L39.1185 59.337ZM42.3957 58.8281C44.5032 58.8281 46.3862 58.6689 47.8664 58.2248L46.1423 52.4779C45.5036 52.6695 44.3141 52.8281 42.3957 52.8281V58.8281ZM47.8285 58.2359C49.624 57.7229 51.1694 56.6155 52.0232 54.8011L46.5943 52.2463C46.5762 52.2848 46.5667 52.2928 46.5506 52.3056C46.5251 52.3258 46.4251 52.3968 46.1802 52.4668L47.8285 58.2359ZM52.0232 54.8011C52.7272 53.305 52.9444 51.4551 52.9444 49.5507H46.9444C46.9444 51.1426 46.7378 51.9413 46.5943 52.2463L52.0232 54.8011ZM52.9444 49.5507C52.9444 47.4659 52.798 45.5979 52.4644 43.9935C52.1363 42.4154 51.5876 40.8968 50.6438 39.6833L45.9077 43.367C46.0763 43.5838 46.362 44.1179 46.5901 45.215C46.8127 46.2858 46.9444 47.7154 46.9444 49.5507H52.9444ZM50.6758 39.7251C48.7423 37.1471 45.5959 36.3002 42.3162 36.3002V42.3002C44.7577 42.3002 45.5844 42.9366 45.8758 43.3251L50.6758 39.7251ZM42.3162 36.3002C39.1386 36.3002 36.1056 37.2413 34.324 39.9605L39.3428 43.2487C39.5742 42.8954 40.1964 42.3002 42.3162 42.3002V36.3002ZM34.3099 39.9823C33.5264 41.2011 33.0759 42.7039 32.8046 44.2714C32.5273 45.8735 32.4031 47.7518 32.4031 49.8685H38.4031C38.4031 47.9592 38.5172 46.4473 38.7167 45.2947C38.9222 44.1075 39.1869 43.4914 39.3569 43.2269L34.3099 39.9823ZM32.4031 49.8685C32.4031 51.9122 32.3768 53.6208 32.3257 55.0019L38.3216 55.224C38.3764 53.7445 38.4031 51.9569 38.4031 49.8685H32.4031ZM32.3257 55.0019C32.2751 56.3669 32.1768 57.3388 32.0572 57.9769L37.9544 59.0826C38.1526 58.0256 38.2662 56.7196 38.3216 55.224L32.3257 55.0019ZM76.9245 85.3081L79.1916 83.3433L79.1916 83.3433L76.9245 85.3081ZM76.6067 41.0484L73.7161 40.2454L73.7057 40.283L73.6962 40.3208L76.6067 41.0484ZM79.4673 35.7245L77.1744 33.7899L77.1687 33.7967L79.4673 35.7245ZM85.5063 31.5925L84.3726 28.815L84.3726 28.815L85.5063 31.5925ZM108.629 34.1353L110.632 31.9016L110.632 31.9016L108.629 34.1353ZM111.967 52.6497L109.238 51.4024L109.223 51.435L109.209 51.4679L111.967 52.6497ZM108.312 56.8611L106.805 54.2667L101.748 57.2029L107.083 59.5979L108.312 56.8611ZM113.874 61.7082L111.232 63.1305L111.246 63.1565L111.261 63.1822L113.874 61.7082ZM110.695 82.368L108.768 80.0695L108.758 80.0772L108.749 80.085L110.695 82.368ZM86.7777 55.4308L83.829 54.8779L89.106 57.3226L86.7777 55.4308ZM90.115 53.4443L89.253 50.5708L89.2394 50.5749L89.2258 50.5791L90.115 53.4443ZM100.763 51.3783L98.6415 49.257L98.6414 49.257L100.763 51.3783ZM100.524 40.8895L98.3046 42.9075L98.3526 42.9603L98.4031 43.0108L100.524 40.8895ZM89.1615 40.81L87.186 38.5523L87.1621 38.5731L87.1387 38.5945L89.1615 40.81ZM87.2544 50.5042L84.2586 50.3465L84.2544 50.4253V50.5042H87.2544ZM87.0955 53.047L84.1256 52.6227L84.1107 52.7276L84.1031 52.8332L87.0955 53.047ZM87.3339 77.2825H84.3339V80.2825H87.3339V77.2825ZM102.273 75.6139L100.297 73.3561L100.273 73.377L100.25 73.3984L102.273 75.6139ZM102.193 62.9001L99.9153 64.8525L99.935 64.8755L99.9553 64.8982L102.193 62.9001ZM90.5918 61.5493L91.788 64.3005L91.8375 64.279L91.8861 64.2557L90.5918 61.5493ZM88.049 64.4099L85.2141 63.4285L85.2141 63.4285L88.049 64.4099ZM79.4673 83.5C79.414 83.5 79.3837 83.4949 79.3708 83.4921C79.3586 83.4895 79.3533 83.4872 79.35 83.4856C79.3465 83.484 79.3334 83.4776 79.3098 83.4593C79.2855 83.4404 79.2451 83.405 79.1916 83.3433L74.6574 87.2729C75.8869 88.6914 77.5473 89.5 79.4673 89.5V83.5ZM79.1916 83.3433C79.0495 83.1793 78.8915 82.9066 78.8915 82.2886H72.8915C72.8915 84.1074 73.4222 85.8476 74.6574 87.2729L79.1916 83.3433ZM78.8915 82.2886V46.5312H72.8915V82.2886H78.8915ZM78.8915 46.5312C78.8915 45.0565 79.0926 43.4741 79.5171 41.776L73.6962 40.3208C73.1672 42.4368 72.8915 44.5095 72.8915 46.5312H78.8915ZM79.4972 41.8513C79.903 40.3905 80.6408 38.9937 81.7658 37.6523L77.1687 33.7967C75.5391 35.7396 74.3698 37.8921 73.7161 40.2454L79.4972 41.8513ZM81.7601 37.6591C82.8061 36.4195 84.3773 35.2936 86.64 34.3701L84.3726 28.815C81.4438 30.0104 78.989 31.6392 77.1744 33.7899L81.7601 37.6591ZM86.64 34.3701C88.744 33.5113 91.7075 33.0033 95.6773 33.0033V27.0033C91.2772 27.0033 87.46 27.5548 84.3726 28.815L86.64 34.3701ZM95.6773 33.0033C100.761 33.0033 104.272 34.2576 106.627 36.369L110.632 31.9016C106.842 28.5036 101.718 27.0033 95.6773 27.0033V33.0033ZM106.627 36.369C108.871 38.381 110.238 41.5742 110.238 46.5312H116.238C116.238 40.4696 114.533 35.3989 110.632 31.9016L106.627 36.369ZM110.238 46.5312C110.238 48.3654 109.891 49.9744 109.238 51.4024L114.695 53.8969C115.738 51.6168 116.238 49.1467 116.238 46.5312H110.238ZM109.209 51.4679C108.652 52.7681 107.853 53.6581 106.805 54.2667L109.818 59.4555C112.054 58.157 113.692 56.2394 114.724 53.8314L109.209 51.4679ZM107.083 59.5979C109.207 60.5518 110.495 61.7618 111.232 63.1305L116.515 60.2859C115.027 57.5226 112.607 55.5012 109.54 54.1243L107.083 59.5979ZM111.261 63.1822C112.071 64.6187 112.622 66.8958 112.622 70.29H118.622C118.622 66.3737 118.007 62.9297 116.487 60.2342L111.261 63.1822ZM112.622 70.29C112.622 74.9286 111.215 78.0168 108.768 80.0695L112.623 84.6666C116.745 81.2099 118.622 76.2461 118.622 70.29H112.622ZM108.749 80.085C106.303 82.1703 102.146 83.5 95.6773 83.5V89.5C102.77 89.5 108.625 88.075 112.642 84.6511L108.749 80.085ZM95.6773 83.5H79.4673V89.5H95.6773V83.5ZM89.106 57.3226C89.2838 57.1037 89.7806 56.6892 91.0042 56.3095L89.2258 50.5791C87.3769 51.1529 85.6488 52.0627 84.4493 53.539L89.106 57.3226ZM90.9771 56.3178C92.2217 55.9444 93.7737 55.7291 95.6773 55.7291V49.7291C93.3429 49.7291 91.1868 49.9906 89.253 50.5708L90.9771 56.3178ZM95.6773 55.7291C98.2959 55.7291 101.08 55.3036 102.884 53.4996L98.6414 49.257C98.6801 49.2183 98.5666 49.3536 98.0458 49.492C97.5301 49.629 96.7614 49.7291 95.6773 49.7291V55.7291ZM102.884 53.4996C104.682 51.7016 105.193 49.0893 105.193 46.5312H99.1931C99.1931 48.5289 98.7505 49.1479 98.6415 49.257L102.884 53.4996ZM105.193 46.5312C105.193 43.5988 104.601 40.7236 102.646 38.7681L98.4031 43.0108C98.6725 43.2802 99.1931 44.1661 99.1931 46.5312H105.193ZM102.744 38.8714C100.926 36.8712 98.3625 36.1413 95.6773 36.1413V42.1413C97.3359 42.1413 98.004 42.5769 98.3046 42.9075L102.744 38.8714ZM95.6773 36.1413C92.4088 36.1413 89.3026 36.7002 87.186 38.5523L91.137 43.0677C91.5631 42.6949 92.8007 42.1413 95.6773 42.1413V36.1413ZM87.1387 38.5945C84.9967 40.5502 84.3339 43.5058 84.3339 46.5312H90.3339C90.3339 44.1532 90.8894 43.2947 91.1843 43.0254L87.1387 38.5945ZM84.3339 46.5312C84.3339 48.149 84.3076 49.4147 84.2586 50.3465L90.2503 50.6619C90.3072 49.5807 90.3339 48.1978 90.3339 46.5312H84.3339ZM84.2544 50.5042C84.2544 51.3521 84.207 52.0534 84.1256 52.6227L90.0653 53.4712C90.1959 52.5572 90.2544 51.5635 90.2544 50.5042H84.2544ZM84.1031 52.8332C84.0594 53.4448 83.9702 54.1252 83.829 54.8779L89.7263 55.9837C89.903 55.0412 90.0256 54.1324 90.0879 53.2607L84.1031 52.8332ZM87.3339 80.2825H95.6773V74.2825H87.3339V80.2825ZM95.6773 80.2825C98.9989 80.2825 102.199 79.7434 104.295 77.8293L100.25 73.3984C99.9093 73.7092 98.7125 74.2825 95.6773 74.2825V80.2825ZM104.248 77.8716C106.417 75.9739 107.18 73.1995 107.18 70.29H101.18C101.18 72.2541 100.671 73.0289 100.297 73.3561L104.248 77.8716ZM107.18 70.29C107.18 66.6029 106.497 63.2164 104.431 60.9021L99.9553 64.8982C100.538 65.5504 101.18 67.0904 101.18 70.29H107.18ZM104.471 60.9477C102.37 58.4968 99.1273 57.6752 95.6773 57.6752V63.6752C98.3722 63.6752 99.4733 64.3369 99.9153 64.8525L104.471 60.9477ZM95.6773 57.6752C93.2992 57.6752 91.0926 57.9843 89.2974 58.8429L91.8861 64.2557C92.5278 63.9488 93.7114 63.6752 95.6773 63.6752V57.6752ZM89.3956 58.7981C87.3279 59.6971 85.9357 61.3438 85.2141 63.4285L90.884 65.3912C91.1159 64.7213 91.4189 64.461 91.788 64.3005L89.3956 58.7981ZM85.2141 63.4285C84.5758 65.2725 84.3339 67.6232 84.3339 70.29H90.3339C90.3339 67.8713 90.5688 66.3019 90.884 65.3912L85.2141 63.4285ZM84.3339 70.29V77.2825H90.3339V70.29H84.3339ZM136.474 84.434L134.981 87.0361L134.997 87.0454L135.014 87.0545L136.474 84.434ZM129.084 75.3755L126.292 76.4713L126.298 76.4866L126.304 76.5018L129.084 75.3755ZM129.084 41.4457L126.309 40.307L126.303 40.3223L126.296 40.3377L129.084 41.4457ZM136.474 32.6255L135.047 29.9869L135.047 29.9869L136.474 32.6255ZM159.995 32.6255L158.549 35.2542L158.558 35.2592L158.567 35.2642L159.995 32.6255ZM167.305 41.4457L164.517 42.5537L164.523 42.5691L164.53 42.5843L167.305 41.4457ZM167.305 75.3755L164.524 74.2492L164.518 74.2644L164.512 74.2796L167.305 75.3755ZM159.995 84.434L161.474 87.0441L161.481 87.0401L161.488 87.0361L159.995 84.434ZM153.638 75.1371L151.994 72.6277L151.973 72.641L151.953 72.6547L153.638 75.1371ZM157.134 69.6543L154.277 68.74L154.268 68.766L154.261 68.7923L157.134 69.6543ZM157.134 47.1669L154.265 48.045L154.276 48.0804L154.288 48.1155L157.134 47.1669ZM153.638 41.9224L152.016 44.446L152.067 44.4793L152.121 44.5105L153.638 41.9224ZM142.831 41.9224L144.348 44.5105L144.381 44.4914L144.413 44.4714L142.831 41.9224ZM139.255 47.1669L136.404 46.2357L136.398 46.2538L136.392 46.272L139.255 47.1669ZM139.255 69.6543L136.382 70.5163L136.39 70.5426L136.398 70.5686L139.255 69.6543ZM142.831 75.1371L141.187 77.6465L141.187 77.6465L142.831 75.1371ZM148.234 84.1357C144.013 84.1357 140.623 83.3117 137.935 81.8136L135.014 87.0545C138.789 89.1586 143.238 90.1357 148.234 90.1357V84.1357ZM137.967 81.8319C135.434 80.3782 133.363 77.9479 131.865 74.2492L126.304 76.5018C128.196 81.1729 131.052 84.7817 134.981 87.0361L137.967 81.8319ZM131.877 74.2796C130.429 70.5885 129.621 65.3427 129.621 58.3708H123.621C123.621 65.7019 124.456 71.7926 126.292 76.4713L131.877 74.2796ZM129.621 58.3708C129.621 51.396 130.429 46.1839 131.872 42.5537L126.296 40.3377C124.455 44.9714 123.621 51.0428 123.621 58.3708H129.621ZM131.86 42.5843C133.351 38.9499 135.403 36.6161 137.902 35.2642L135.047 29.9869C131.083 32.1312 128.208 35.6775 126.309 40.307L131.86 42.5843ZM137.902 35.2642C140.597 33.8061 144 33.0033 148.234 33.0033V27.0033C143.252 27.0033 138.814 27.9487 135.047 29.9869L137.902 35.2642ZM148.234 33.0033C152.531 33.0033 155.922 33.8094 158.549 35.2542L161.44 29.9969C157.71 27.9453 153.261 27.0033 148.234 27.0033V33.0033ZM158.567 35.2642C161.057 36.6109 163.078 38.9327 164.517 42.5537L170.093 40.3377C168.248 35.6947 165.396 32.1365 161.422 29.9869L158.567 35.2642ZM164.53 42.5843C166.014 46.2031 166.848 51.4029 166.848 58.3708H172.848C172.848 51.0359 171.986 44.9522 170.081 40.307L164.53 42.5843ZM166.848 58.3708C166.848 65.3358 166.015 70.5694 164.524 74.2492L170.086 76.5018C171.985 71.8116 172.848 65.7089 172.848 58.3708H166.848ZM164.512 74.2796C163.066 77.9652 161.026 80.3836 158.502 81.8319L161.488 87.0361C165.426 84.7762 168.26 81.1556 170.098 76.4713L164.512 74.2796ZM158.516 81.824C155.896 83.3083 152.518 84.1357 148.234 84.1357V90.1357C153.274 90.1357 157.736 89.162 161.474 87.0441L158.516 81.824ZM148.234 79.6469C150.842 79.6469 153.257 79.021 155.322 77.6195L151.953 72.6547C151.052 73.2662 149.864 73.6469 148.234 73.6469V79.6469ZM155.282 77.6465C157.644 76.0988 159.109 73.5123 160.008 70.5163L154.261 68.7923C153.57 71.0937 152.704 72.1624 151.994 72.6277L155.282 77.6465ZM159.991 70.5686C160.979 67.4824 161.405 63.3586 161.405 58.3708H155.405C155.405 63.1303 154.984 66.5288 154.277 68.74L159.991 70.5686ZM161.405 58.3708C161.405 53.3444 160.982 49.2237 159.98 46.2182L154.288 48.1155C154.981 50.1955 155.405 53.5441 155.405 58.3708H161.405ZM160.003 46.2887C159.1 43.3395 157.608 40.7724 155.155 39.3344L152.121 44.5105C152.74 44.8736 153.579 45.8027 154.265 48.045L160.003 46.2887ZM155.26 39.3989C153.203 38.0765 150.811 37.4921 148.234 37.4921V43.4921C149.895 43.4921 151.106 43.8614 152.016 44.446L155.26 39.3989ZM148.234 37.4921C145.691 37.4921 143.325 38.0849 141.249 39.3735L144.413 44.4714C145.41 43.8529 146.646 43.4921 148.234 43.4921V37.4921ZM141.314 39.3344C138.882 40.7597 137.362 43.3008 136.404 46.2357L142.107 48.0981C142.844 45.8414 143.707 44.8863 144.348 44.5105L141.314 39.3344ZM136.392 46.272C135.46 49.2538 135.063 53.3521 135.063 58.3708H141.063C141.063 53.5365 141.461 50.1654 142.119 48.0617L136.392 46.272ZM135.063 58.3708C135.063 63.3502 135.463 67.4529 136.382 70.5163L142.129 68.7922C141.459 66.5583 141.063 63.1387 141.063 58.3708H135.063ZM136.398 70.5686C137.352 73.5504 138.845 76.1121 141.187 77.6465L144.475 72.6277C143.745 72.149 142.854 71.0556 142.113 68.74L136.398 70.5686ZM141.187 77.6465C143.271 79.012 145.66 79.6469 148.234 79.6469V73.6469C146.677 73.6469 145.463 73.2752 144.475 72.6277L141.187 77.6465ZM187.937 82.368L185.85 84.5233L185.867 84.5401L185.885 84.5566L187.937 82.368ZM196.519 75.1371L194.323 77.1813L194.342 77.2013L194.361 77.2209L196.519 75.1371ZM218.291 82.2886L216.271 80.0703L216.271 80.0703L218.291 82.2886ZM202.637 84.1357C196.697 84.1357 192.641 82.6662 189.989 80.1794L185.885 84.5566C190.013 88.4267 195.757 90.1357 202.637 90.1357V84.1357ZM190.024 80.2128C187.468 77.7384 185.931 73.802 185.931 67.8267H179.931C179.931 74.777 181.731 80.5348 185.85 84.5233L190.024 80.2128ZM185.931 67.8267V36.2013H179.931V67.8267H185.931ZM185.931 36.2013C185.931 34.5408 186.319 33.8547 186.566 33.5876C186.77 33.366 187.272 33.0033 188.652 33.0033V27.0033C186.218 27.0033 183.859 27.6737 182.157 29.518C180.496 31.3169 179.931 33.7298 179.931 36.2013H185.931ZM188.652 33.0033C190.032 33.0033 190.534 33.366 190.739 33.5876C190.985 33.8547 191.373 34.5408 191.373 36.2013H197.373C197.373 33.7298 196.808 31.3169 195.147 29.518C193.445 27.6737 191.086 27.0033 188.652 27.0033V33.0033ZM191.373 36.2013V67.8267H197.373V36.2013H191.373ZM191.373 67.8267C191.373 71.4953 192.144 74.841 194.323 77.1813L198.714 73.0928C198.033 72.3607 197.373 70.8328 197.373 67.8267H191.373ZM194.361 77.2209C196.528 79.4654 199.416 80.4415 202.637 80.4415V74.4415C200.667 74.4415 199.476 73.8813 198.677 73.0533L194.361 77.2209ZM202.637 80.4415C206.284 80.4415 209.569 79.5192 211.919 77.1503C214.264 74.7859 215.173 71.4878 215.173 67.8267H209.173C209.173 70.5754 208.492 72.0847 207.659 72.9253C206.829 73.7613 205.347 74.4415 202.637 74.4415V80.4415ZM215.173 67.8267V36.2013H209.173V67.8267H215.173ZM215.173 36.2013C215.173 34.5408 215.561 33.8547 215.807 33.5876C216.012 33.366 216.513 33.0033 217.894 33.0033V27.0033C215.46 27.0033 213.101 27.6737 211.398 29.518C209.738 31.3169 209.173 33.7298 209.173 36.2013H215.173ZM217.894 33.0033C219.274 33.0033 219.776 33.366 219.98 33.5876C220.227 33.8547 220.615 34.5408 220.615 36.2013H226.615C226.615 33.7298 226.05 31.3169 224.389 29.518C222.687 27.6737 220.328 27.0033 217.894 27.0033V33.0033ZM220.615 36.2013V67.8267H226.615V36.2013H220.615ZM220.615 67.8267C220.615 73.689 219.006 77.5805 216.271 80.0703L220.311 84.5069C224.674 80.5339 226.615 74.7841 226.615 67.8267H220.615ZM216.271 80.0703C213.474 82.6174 209.099 84.1357 202.637 84.1357V90.1357C209.949 90.1357 216.01 88.4226 220.311 84.5069L216.271 80.0703ZM249.902 86.2616L248.603 88.9662L248.667 88.9969L248.733 89.0245L249.902 86.2616ZM249.186 42.5581L247.386 40.1581L247.386 40.1581L249.186 42.5581ZM251.252 41.3662L252.114 44.2397L251.252 38.3662V41.3662ZM233.056 39.6975L230.373 41.0392L230.41 41.1137L230.451 41.186L233.056 39.6975ZM233.135 32.5461L235.708 34.0896L235.724 34.0622L235.74 34.0345L233.135 32.5461ZM274.217 32.5461L271.612 34.0345L271.628 34.0622L271.644 34.0895L274.217 32.5461ZM274.217 39.6975L271.583 38.261L271.571 38.2832L271.559 38.3055L274.217 39.6975ZM259.357 41.3662V38.3662H256.357V41.3662H259.357ZM257.689 86.1822L256.2 83.5774L256.173 83.5933L256.145 83.6097L257.689 86.1822ZM253.954 84.1357C253.08 84.1357 252.126 83.9451 251.07 83.4987L248.733 89.0245C250.432 89.7435 252.179 90.1357 253.954 90.1357V84.1357ZM251.2 83.557C250.921 83.4232 250.89 83.339 250.918 83.3811C250.928 83.3968 250.931 83.4085 250.93 83.4026C250.927 83.3938 250.915 83.3454 250.915 83.2421H244.915C244.915 84.4305 245.208 85.6185 245.905 86.6788C246.595 87.7275 247.558 88.4643 248.603 88.9662L251.2 83.557ZM250.915 83.2421V46.0544H244.915V83.2421H250.915ZM250.915 46.0544C250.915 45.437 250.995 45.0922 251.052 44.9342C251.1 44.8037 251.104 44.8702 250.986 44.9581L247.386 40.1581C245.42 41.6326 244.915 43.9865 244.915 46.0544H250.915ZM250.986 44.9581C251.343 44.6903 251.625 44.5045 251.838 44.3819C252.06 44.2534 252.145 44.2305 252.114 44.2397L250.39 38.4927C249.34 38.808 248.307 39.468 247.386 40.1581L250.986 44.9581ZM251.252 38.3662H235.916V44.3662H251.252V38.3662ZM235.916 38.3662C235.818 38.3662 235.766 38.3555 235.75 38.3515C235.736 38.3481 235.743 38.3484 235.759 38.3577C235.775 38.3669 235.777 38.3718 235.765 38.3586C235.75 38.3437 235.713 38.3001 235.661 38.2091L230.451 41.186C231.616 43.2241 233.558 44.3662 235.916 44.3662V38.3662ZM235.739 38.3559C235.35 37.5774 235.182 36.8425 235.182 36.1218H229.182C229.182 37.8379 229.596 39.4868 230.373 41.0392L235.739 38.3559ZM235.182 36.1218C235.182 35.3006 235.372 34.6492 235.708 34.0896L230.563 31.0026C229.627 32.5619 229.182 34.2943 229.182 36.1218H235.182ZM235.74 34.0345C235.797 33.9353 235.839 33.8856 235.856 33.8667C235.872 33.8495 235.871 33.855 235.851 33.867C235.842 33.8724 235.833 33.8771 235.824 33.8807C235.815 33.8844 235.81 33.8857 235.81 33.8857C235.81 33.8856 235.818 33.8836 235.835 33.8816C235.851 33.8796 235.878 33.8774 235.916 33.8774V27.8774C233.555 27.8774 231.666 29.0698 230.531 31.0576L235.74 34.0345ZM235.916 33.8774H271.435V27.8774H235.916V33.8774ZM271.435 33.8774C271.474 33.8774 271.5 33.8796 271.517 33.8816C271.534 33.8836 271.541 33.8856 271.542 33.8857C271.542 33.8857 271.537 33.8844 271.528 33.8807C271.519 33.8771 271.51 33.8724 271.501 33.867C271.481 33.855 271.479 33.8495 271.495 33.8667C271.513 33.8856 271.555 33.9353 271.612 34.0345L276.821 31.0576C275.685 29.0698 273.797 27.8774 271.435 27.8774V33.8774ZM271.644 34.0895C271.98 34.6492 272.17 35.3006 272.17 36.1218H278.17C278.17 34.2943 277.725 32.5619 276.789 31.0026L271.644 34.0895ZM272.17 36.1218C272.17 36.7941 272 37.4958 271.583 38.261L276.85 41.1341C277.704 39.5685 278.17 37.8863 278.17 36.1218H272.17ZM271.559 38.3055C271.517 38.3849 271.491 38.4144 271.49 38.4148C271.49 38.4153 271.494 38.4103 271.504 38.4023C271.514 38.3942 271.526 38.3852 271.541 38.3766C271.572 38.3576 271.593 38.3524 271.589 38.3536C271.581 38.3554 271.535 38.3662 271.435 38.3662V44.3662C272.518 44.3662 273.621 44.1253 274.628 43.5215C275.636 42.9165 276.369 42.054 276.874 41.0896L271.559 38.3055ZM271.435 38.3662H259.357V44.3662H271.435V38.3662ZM256.357 41.3662V83.2421H262.357V41.3662H256.357ZM256.357 83.2421C256.357 83.3634 256.345 83.4344 256.337 83.4669C256.33 83.497 256.325 83.5002 256.331 83.4896C256.337 83.4785 256.342 83.4763 256.332 83.4856C256.321 83.4964 256.283 83.5301 256.2 83.5774L259.177 88.7869C261.262 87.5952 262.357 85.5983 262.357 83.2421H256.357ZM256.145 83.6097C255.621 83.924 254.928 84.1357 253.954 84.1357V90.1357C255.841 90.1357 257.637 89.7117 259.232 88.7546L256.145 83.6097ZM325.676 92.2212L323.16 90.5862L323.113 90.6582L323.071 90.7328L325.676 92.2212ZM319.001 87.1357H322.001V84.2157L319.082 84.1368L319.001 87.1357ZM312.882 86.5795L313.327 83.6127L313.296 83.6079L313.264 83.6038L312.882 86.5795ZM307.876 85.3875L309.03 82.6183L309.016 82.6124L309.002 82.6067L307.876 85.3875ZM305.89 77.2031L308.011 79.3244L305.89 77.2031ZM315.346 76.329L315.903 73.3813L315.903 73.3813L315.346 76.329ZM327.583 75.6139L329.112 78.1947L329.112 78.1947L327.583 75.6139ZM328.059 66.5553L325.938 68.6766L325.964 68.7025L325.99 68.7277L328.059 66.5553ZM321.623 63.5358L320.768 66.4114L320.774 66.4132L321.623 63.5358ZM308.83 57.02L306.709 59.1413L306.719 59.152L306.73 59.1627L308.83 57.02ZM308.75 35.8834L306.529 33.8674L306.527 33.8696L308.75 35.8834ZM319.001 30.4006L319.554 33.3492L322.001 32.8904V30.4006H319.001ZM326.709 30.0828H323.709V32.8353L326.451 33.0717L326.709 30.0828ZM334.496 31.7515L333.382 34.5369L333.405 34.5461L333.428 34.5549L334.496 31.7515ZM336.403 40.0154L338.524 42.1367L338.524 42.1367L336.403 40.0154ZM327.742 40.9689L327.134 43.9067L327.183 43.9168L327.232 43.9253L327.742 40.9689ZM318.047 41.6841L319.737 44.1627L319.737 44.1627L318.047 41.6841ZM318.762 50.2658L320.69 47.9673L320.69 47.9673L318.762 50.2658ZM327.821 54.3183L326.956 57.1909L326.964 57.1934L326.973 57.196L327.821 54.3183ZM338.23 60.3574L335.83 62.1574L335.839 62.1695L335.849 62.1816L338.23 60.3574ZM337.356 80.9377L339.601 82.9282L339.601 82.9282L337.356 80.9377ZM326.709 86.5L326.133 83.5557L323.709 84.0295V86.5H326.709ZM323.709 87.6919C323.709 89.367 323.403 90.2128 323.16 90.5862L328.191 93.8561C329.325 92.1106 329.709 89.9369 329.709 87.6919H323.709ZM323.071 90.7328C323.014 90.832 322.972 90.8817 322.954 90.9006C322.938 90.9177 322.94 90.9123 322.96 90.9002C322.969 90.8949 322.978 90.8902 322.987 90.8865C322.996 90.8829 323.001 90.8816 323.001 90.8816C323 90.8816 322.993 90.8836 322.976 90.8856C322.959 90.8877 322.933 90.8899 322.894 90.8899V96.8899C325.256 96.8899 327.144 95.6974 328.28 93.7096L323.071 90.7328ZM322.894 90.8899C322.563 90.8899 322.412 90.8363 322.373 90.8195C322.352 90.8105 322.355 90.8123 322.342 90.7965C322.28 90.7163 322.001 90.2464 322.001 88.8838H316.001C316.001 90.8586 316.371 92.8917 317.606 94.4802C318.953 96.2119 320.905 96.8899 322.894 96.8899V90.8899ZM322.001 88.8838V87.1357H316.001V88.8838H322.001ZM319.082 84.1368C317.254 84.0874 315.337 83.9141 313.327 83.6127L312.437 89.5463C314.666 89.8806 316.827 90.078 318.92 90.1346L319.082 84.1368ZM313.264 83.6038C311.342 83.3575 309.963 83.0069 309.03 82.6183L306.722 88.1568C308.333 88.8277 310.29 89.2717 312.501 89.5551L313.264 83.6038ZM309.002 82.6067C308.262 82.3071 307.935 81.9996 307.788 81.8002C307.661 81.6268 307.539 81.3643 307.539 80.8583H301.539C301.539 82.4712 301.973 84.0231 302.958 85.3594C303.924 86.6698 305.266 87.5674 306.751 88.1684L309.002 82.6067ZM307.539 80.8583C307.539 79.9423 307.786 79.5494 308.011 79.3244L303.768 75.0818C302.192 76.6578 301.539 78.7017 301.539 80.8583H307.539ZM308.011 79.3244C308.177 79.1587 308.734 78.7728 310.34 78.7728V72.7728C307.919 72.7728 305.51 73.3404 303.768 75.0818L308.011 79.3244ZM310.34 78.7728C311.467 78.7728 312.938 78.9267 314.788 79.2767L315.903 73.3813C313.833 72.9897 311.967 72.7728 310.34 72.7728V78.7728ZM314.788 79.2767C316.873 79.6713 318.789 79.8852 320.511 79.8852V73.8852C319.266 73.8852 317.738 73.7284 315.903 73.3813L314.788 79.2767ZM320.511 79.8852C323.901 79.8852 326.952 79.4749 329.112 78.1947L326.053 73.033C325.353 73.448 323.689 73.8852 320.511 73.8852V79.8852ZM329.112 78.1947C331.891 76.5479 332.728 73.4716 332.728 70.4489H326.728C326.728 72.6177 326.135 72.9847 326.053 73.033L329.112 78.1947ZM332.728 70.4489C332.728 68.0916 331.835 66.0086 330.128 64.3829L325.99 68.7277C326.508 69.221 326.728 69.7337 326.728 70.4489H332.728ZM330.181 64.434C328.537 62.7905 325.725 61.6183 322.472 60.6585L320.774 66.4132C323.984 67.3604 325.463 68.2011 325.938 68.6766L330.181 64.434ZM322.478 60.6602C316.796 58.9708 313.072 56.9767 310.93 54.8774L306.73 59.1627C309.885 62.2548 314.69 64.6045 320.768 66.4114L322.478 60.6602ZM310.951 54.8987C308.991 52.9383 307.936 50.3739 307.936 46.9285H301.936C301.936 51.747 303.477 55.9103 306.709 59.1413L310.951 54.8987ZM307.936 46.9285C307.936 42.9581 309.028 40.0457 310.974 37.8973L306.527 33.8696C303.387 37.3364 301.936 41.7874 301.936 46.9285H307.936ZM310.972 37.8994C313.077 35.5795 315.88 34.038 319.554 33.3492L318.448 27.452C313.646 28.3524 309.615 30.4662 306.529 33.8675L310.972 37.8994ZM322.001 30.4006V30.2417H316.001V30.4006H322.001ZM322.001 30.2417C322.001 28.3314 322.311 27.4029 322.532 27.041C322.616 26.9042 322.654 26.9013 322.625 26.9172C322.602 26.9298 322.66 26.8848 322.894 26.8848V20.8848C320.609 20.8848 318.639 21.9101 317.416 23.9071C316.34 25.6642 316.001 27.9141 316.001 30.2417H322.001ZM322.894 26.8848C323.117 26.8848 323.166 26.9274 323.134 26.9101C323.096 26.8893 323.124 26.8836 323.2 27.0066C323.406 27.3405 323.709 28.227 323.709 30.0828H329.709C329.709 27.8066 329.376 25.5941 328.31 23.862C327.097 21.8911 325.147 20.8848 322.894 20.8848V26.8848ZM326.451 33.0717C329.325 33.3195 331.613 33.8297 333.382 34.5369L335.61 28.966C333.14 27.9781 330.237 27.3758 326.966 27.0939L326.451 33.0717ZM333.428 34.5549C334.146 34.8286 334.45 35.1178 334.584 35.2991C334.702 35.4597 334.833 35.7301 334.833 36.2807H340.833C340.833 34.6594 340.408 33.0889 339.414 31.7399C338.435 30.4113 337.07 29.5219 335.564 28.948L333.428 34.5549ZM334.833 36.2807C334.833 37.1418 334.593 37.583 334.281 37.8941L338.524 42.1367C340.12 40.5407 340.833 38.4921 340.833 36.2807H334.833ZM334.281 37.8941C334.196 37.9798 333.697 38.3662 332.032 38.3662V44.3662C334.394 44.3662 336.809 43.8521 338.524 42.1367L334.281 37.8941ZM332.032 38.3662C330.906 38.3662 329.648 38.2533 328.251 38.0125L327.232 43.9253C328.908 44.2143 330.51 44.3662 332.032 44.3662V38.3662ZM328.349 38.0311C326.625 37.6743 324.911 37.4921 323.212 37.4921V43.4921C324.48 43.4921 325.786 43.6279 327.134 43.9067L328.349 38.0311ZM323.212 37.4921C320.67 37.4921 318.242 37.9206 316.357 39.2054L319.737 44.1627C320.184 43.8584 321.199 43.4921 323.212 43.4921V37.4921ZM316.357 39.2054C314.123 40.729 313.299 43.157 313.299 45.6571H319.299C319.299 44.449 319.641 44.2284 319.737 44.1627L316.357 39.2054ZM313.299 45.6571C313.299 48.4653 314.707 50.7803 316.835 52.5644L320.69 47.9673C319.533 46.9967 319.299 46.2392 319.299 45.6571H313.299ZM316.835 52.5644C318.979 54.3631 322.514 55.8529 326.956 57.1909L328.686 51.4458C324.335 50.1351 321.83 48.9232 320.69 47.9673L316.835 52.5644ZM326.973 57.196C331.754 58.6051 334.491 60.3717 335.83 62.1574L340.63 58.5574C338.155 55.2575 333.953 52.9981 328.669 51.4407L326.973 57.196ZM335.849 62.1816C337.269 64.0354 338.091 66.528 338.091 69.8927H344.091C344.091 65.5232 343.006 61.6588 340.612 58.5331L335.849 62.1816ZM338.091 69.8927C338.091 73.8794 337.016 76.8002 335.112 78.9473L339.601 82.9282C342.676 79.4601 344.091 75.0175 344.091 69.8927H338.091ZM335.112 78.9473C333.159 81.1499 330.261 82.7491 326.133 83.5557L327.284 89.4443C332.373 88.4498 336.575 86.3409 339.601 82.9282L335.112 78.9473ZM323.709 86.5V87.6919H329.709V86.5H323.709ZM355.923 31.2747L353.867 29.0901L353.867 29.0901L355.923 31.2747ZM365.459 55.0335L362.579 54.1935L367.58 57.1548L365.459 55.0335ZM369.909 52.1729L370.857 55.019L370.857 55.0189L369.909 52.1729ZM383.973 51.3783V54.3783H386.973V51.3783H383.973ZM385.324 31.2747L383.268 29.0901L383.268 29.0901L385.324 31.2747ZM394.065 85.8643L391.943 83.743L391.943 83.743L394.065 85.8643ZM383.973 58.2914H386.973L381.127 57.3427L383.973 58.2914ZM380.874 60.6752L381.823 63.5213L381.861 63.5084L381.899 63.4946L380.874 60.6752ZM367.843 63.6153L365.638 61.5804L365.635 61.5841L367.843 63.6153ZM364.664 85.8643L366.785 87.9856L366.785 87.9856L364.664 85.8643ZM360.453 84.1357C358.885 84.1357 358.27 83.7745 358.056 83.5808C357.899 83.4384 357.573 83.0429 357.573 81.8118H351.573C351.573 84.13 352.226 86.3964 354.029 88.0286C355.775 89.6095 358.1 90.1357 360.453 90.1357V84.1357ZM357.573 81.8118V35.3272H351.573V81.8118H357.573ZM357.573 35.3272C357.573 33.8883 357.927 33.5087 357.98 33.4593L353.867 29.0901C352.119 30.7358 351.573 33.058 351.573 35.3272H357.573ZM357.98 33.4593C358.075 33.3693 358.59 33.0033 360.214 33.0033V27.0033C357.918 27.0033 355.573 27.4849 353.867 29.0901L357.98 33.4593ZM360.214 33.0033C361.746 33.0033 362.335 33.3602 362.536 33.5445C362.688 33.6841 363.015 34.0843 363.015 35.3272H369.015C369.015 33.0208 368.375 30.7591 366.593 29.1241C364.861 27.5337 362.55 27.0033 360.214 27.0033V33.0033ZM363.015 35.3272V43.2733H369.015V35.3272H363.015ZM363.015 43.2733C363.015 46.5372 362.969 49.1062 362.879 50.9982C362.834 51.9451 362.78 52.6953 362.719 53.2637C362.689 53.547 362.659 53.7686 362.63 53.9361C362.617 54.0189 362.604 54.0821 362.594 54.128C362.584 54.175 362.578 54.195 362.579 54.1935L368.339 55.8735C368.64 54.8395 368.783 53.1833 368.873 51.2816C368.968 49.2536 369.015 46.5781 369.015 43.2733H363.015ZM367.58 57.1548C368.682 56.0533 369.776 55.3792 370.857 55.019L368.96 49.3269C366.862 50.0261 364.99 51.2591 363.337 52.9122L367.58 57.1548ZM370.857 55.0189C372.021 54.6311 373.756 54.3783 376.186 54.3783V48.3783C373.425 48.3783 370.975 48.6552 368.96 49.3269L370.857 55.0189ZM376.186 54.3783H383.973V48.3783H376.186V54.3783ZM386.973 51.3783V35.3272H380.973V51.3783H386.973ZM386.973 35.3272C386.973 33.8883 387.327 33.5087 387.38 33.4593L383.268 29.0901C381.519 30.7358 380.973 33.058 380.973 35.3272H386.973ZM387.38 33.4593C387.476 33.3693 387.991 33.0033 389.615 33.0033V27.0033C387.319 27.0033 384.973 27.4849 383.268 29.0901L387.38 33.4593ZM389.615 33.0033C391.147 33.0033 391.736 33.3602 391.937 33.5445C392.089 33.6841 392.415 34.0843 392.415 35.3272H398.415C398.415 33.0208 397.775 30.7591 395.994 29.1241C394.261 27.5337 391.95 27.0033 389.615 27.0033V33.0033ZM392.415 35.3272V81.8118H398.415V35.3272H392.415ZM392.415 81.8118C392.415 83.1505 392.083 83.6035 391.943 83.743L396.186 87.9856C397.848 86.324 398.415 84.0754 398.415 81.8118H392.415ZM391.943 83.743C391.926 83.7604 391.499 84.1357 389.853 84.1357V90.1357C392.127 90.1357 394.508 89.6634 396.186 87.9856L391.943 83.743ZM389.853 84.1357C388.286 84.1357 387.671 83.7745 387.457 83.5808C387.299 83.4384 386.973 83.0429 386.973 81.8118H380.973C380.973 84.13 381.627 86.3964 383.43 88.0286C385.176 89.6095 387.5 90.1357 389.853 90.1357V84.1357ZM386.973 81.8118V58.2914H380.973V81.8118H386.973ZM381.127 57.3427C381.206 57.106 381.313 57.0847 381.131 57.2246C380.938 57.3732 380.547 57.6021 379.849 57.8558L381.899 63.4946C383.824 62.7948 386.041 61.5746 386.819 59.2401L381.127 57.3427ZM379.925 57.8292C378.552 58.287 376.845 58.5493 374.756 58.5493V64.5493C377.328 64.5493 379.7 64.2288 381.823 63.5213L379.925 57.8292ZM374.756 58.5493C371.188 58.5493 367.788 59.2512 365.638 61.5804L370.047 65.6501C370.44 65.2247 371.648 64.5493 374.756 64.5493V58.5493ZM365.635 61.5841C363.594 63.8023 363.015 67.2967 363.015 71.0051H369.015C369.015 67.5091 369.654 66.077 370.05 65.6464L365.635 61.5841ZM363.015 71.0051V81.8118H369.015V71.0051H363.015ZM363.015 81.8118C363.015 83.1505 362.682 83.6035 362.543 83.743L366.785 87.9856C368.447 86.324 369.015 84.0754 369.015 81.8118H363.015ZM362.543 83.743C362.525 83.7604 362.099 84.1357 360.453 84.1357V90.1357C362.727 90.1357 365.108 89.6634 366.785 87.9856L362.543 83.743ZM411.414 85.3081L409.147 87.2729L409.147 87.2729L411.414 85.3081ZM414.99 34.2942L416.75 36.724L416.763 36.7142L416.777 36.7041L414.99 34.2942ZM443.834 32.3077L441.713 34.429L441.772 34.4879L441.834 34.5434L443.834 32.3077ZM443.834 40.0154L441.834 37.7797L441.804 37.8066L441.775 37.8343L443.834 40.0154ZM423.572 42.9554L421.554 40.7356L421.554 40.7356L423.572 42.9554ZM421.665 51.2988L424.654 51.5587L424.655 51.548L421.665 51.2988ZM421.188 55.5103L418.214 55.1138L417.206 62.6759L423.095 57.826L421.188 55.5103ZM424.605 53.7621L425.487 56.6295L425.537 56.6141L425.586 56.5971L424.605 53.7621ZM439.941 54.3978L437.691 56.3827L437.723 56.4188L437.756 56.4539L439.941 54.3978ZM439.941 61.9466L442.183 63.9397L442.183 63.9397L439.941 61.9466ZM423.095 64.8866L425.337 66.8797L425.364 66.8497L425.39 66.819L423.095 64.8866ZM421.824 76.0112H418.824V79.0112H421.824V76.0112ZM443.993 77.2825L441.872 79.4039L441.904 79.436L441.937 79.4671L443.993 77.2825ZM413.957 83.5C413.904 83.5 413.874 83.4949 413.861 83.4921C413.849 83.4895 413.843 83.4872 413.84 83.4856C413.836 83.484 413.823 83.4776 413.8 83.4593C413.775 83.4404 413.735 83.405 413.682 83.3433L409.147 87.2729C410.377 88.6914 412.037 89.5 413.957 89.5V83.5ZM413.682 83.3433C413.539 83.1793 413.381 82.9066 413.381 82.2886H407.381C407.381 84.1074 407.912 85.8476 409.147 87.2729L413.682 83.3433ZM413.381 82.2886V45.1009H407.381V82.2886H413.381ZM413.381 45.1009C413.381 40.7532 414.69 38.2156 416.75 36.724L413.231 31.8644C409.145 34.8226 407.381 39.4895 407.381 45.1009H413.381ZM416.777 36.7041C419.063 35.0095 423.213 33.8774 429.849 33.8774V27.8774C422.818 27.8774 417.063 29.0231 413.204 31.8843L416.777 36.7041ZM429.849 33.8774H439.782V27.8774H429.849V33.8774ZM439.782 33.8774C440.98 33.8774 441.475 34.191 441.713 34.429L445.956 30.1864C444.287 28.5173 442.08 27.8774 439.782 27.8774V33.8774ZM441.834 34.5434C442.049 34.7356 442.344 35.1257 442.344 36.2013H448.344C448.344 33.8865 447.633 31.6809 445.835 30.072L441.834 34.5434ZM442.344 36.2013C442.344 37.1899 442.069 37.5692 441.834 37.7797L445.835 42.2511C447.613 40.6605 448.344 38.497 448.344 36.2013H442.344ZM441.775 37.8343C441.543 38.0535 441.025 38.3662 439.782 38.3662V44.3662C442.035 44.3662 444.219 43.7784 445.894 42.1964L441.775 37.8343ZM439.782 38.3662H429.293V44.3662H439.782V38.3662ZM429.293 38.3662C426.371 38.3662 423.543 38.9278 421.554 40.7356L425.59 45.1753C425.932 44.8642 426.918 44.3662 429.293 44.3662V38.3662ZM421.554 40.7356C419.501 42.6015 418.824 45.3252 418.824 48.1204H424.824C424.824 46.148 425.312 45.4283 425.59 45.1753L421.554 40.7356ZM418.824 48.1204C418.824 48.8546 418.777 49.8243 418.675 51.0497L424.655 51.548C424.764 50.2306 424.824 49.0813 424.824 48.1204H418.824ZM418.676 51.0389C418.575 52.2002 418.422 53.5569 418.214 55.1138L424.162 55.9067C424.378 54.2852 424.543 52.8342 424.654 51.5587L418.676 51.0389ZM423.095 57.826C423.631 57.3845 424.399 56.9643 425.487 56.6295L423.723 50.8948C422.056 51.4075 420.546 52.1528 419.281 53.1945L423.095 57.826ZM425.586 56.5971C426.68 56.2186 427.699 56.047 428.657 56.047V50.047C426.967 50.047 425.285 50.3521 423.624 50.9272L425.586 56.5971ZM428.657 56.047H436.524V50.047H428.657V56.047ZM436.524 56.047C437.366 56.047 437.597 56.2753 437.691 56.3827L442.19 52.4129C440.696 50.7192 438.649 50.047 436.524 50.047V56.047ZM437.756 56.4539C437.943 56.6528 438.212 57.0816 438.212 58.1325H444.212C444.212 56.0049 443.633 53.9439 442.126 52.3417L437.756 56.4539ZM438.212 58.1325C438.212 59.1745 437.946 59.6748 437.699 59.9535L442.183 63.9397C443.631 62.3113 444.212 60.2689 444.212 58.1325H438.212ZM437.699 59.9535C437.493 60.185 437.213 60.3769 436.524 60.3769V66.3769C438.696 66.3769 440.694 65.6153 442.183 63.9397L437.699 59.9535ZM436.524 60.3769H428.022V66.3769H436.524V60.3769ZM428.022 60.3769C425.398 60.3769 422.551 60.8754 420.8 62.9542L425.39 66.819C425.344 66.8738 425.407 66.7559 425.842 66.6227C426.286 66.4864 426.987 66.3769 428.022 66.3769V60.3769ZM420.853 62.8935C419.944 63.9166 419.474 65.2148 419.209 66.4378C418.937 67.6995 418.824 69.1615 418.824 70.7667H424.824C424.824 69.4055 424.923 68.4041 425.074 67.7058C425.233 66.9688 425.399 66.8102 425.337 66.8797L420.853 62.8935ZM418.824 70.7667V76.0112H424.824V70.7667H418.824ZM421.824 79.0112H439.782V73.0112H421.824V79.0112ZM439.782 79.0112C441.428 79.0112 441.855 79.3865 441.872 79.4039L446.115 75.1612C444.437 73.4834 442.056 73.0112 439.782 73.0112V79.0112ZM441.937 79.4671C441.975 79.503 442.344 79.8923 442.344 81.4145H448.344C448.344 79.1226 447.813 76.7573 446.05 75.0979L441.937 79.4671ZM442.344 81.4145C442.344 82.0936 442.263 82.5378 442.175 82.8075C442.132 82.9375 442.092 83.0166 442.065 83.06C442.04 83.1015 442.024 83.1166 442.021 83.1195L446.125 87.4967C447.841 85.8873 448.344 83.5954 448.344 81.4145H442.344ZM442.021 83.1195C442.035 83.1061 441.936 83.2075 441.562 83.3115C441.182 83.4169 440.607 83.5 439.782 83.5V89.5C442.043 89.5 444.434 89.0813 446.125 87.4967L442.021 83.1195ZM439.782 83.5H413.957V89.5H439.782V83.5ZM458.458 85.7849L460.401 83.499L460.401 83.499L458.458 85.7849ZM461.319 34.6915L463.495 36.7568L463.495 36.7568L461.319 34.6915ZM484.283 85.7849L486.226 83.499L486.226 83.499L484.283 85.7849ZM482.694 62.6617H485.694V55.952L480.694 60.426L482.694 62.6617ZM479.357 64.9661L477.969 62.3063L477.944 62.3192L477.92 62.3324L479.357 64.9661ZM469.98 67.191L468.216 64.7648L468.189 64.7845L468.162 64.8047L469.98 67.191ZM467.835 58.5298L464.886 57.9769L463.099 67.5081L469.956 60.6511L467.835 58.5298ZM470.854 56.5432L469.761 53.7495L469.74 53.7579L469.718 53.7666L470.854 56.5432ZM479.833 55.3513L479.009 52.4668L478.99 52.4722L478.971 52.4779L479.833 55.3513ZM482.138 53.5237L484.852 54.8011L484.852 54.8011L482.138 53.5237ZM481.105 41.5251L478.705 43.3251L478.721 43.3462L478.737 43.367L481.105 41.5251ZM469.662 41.6046L467.153 39.9605L467.146 39.9714L467.139 39.9823L469.662 41.6046ZM468.153 55.113L471.151 55.224L471.151 55.224L468.153 55.113ZM465.312 81.8118C465.312 83.0897 464.985 83.5055 464.847 83.6375C464.684 83.793 464.173 84.1357 462.749 84.1357V90.1357C465.034 90.1357 467.304 89.5911 468.995 87.972C470.712 86.3293 471.312 84.0832 471.312 81.8118H465.312ZM462.749 84.1357C461.446 84.1357 460.775 83.8166 460.401 83.499L456.515 88.0707C458.261 89.5543 460.451 90.1357 462.749 90.1357V84.1357ZM460.401 83.499C460.179 83.3101 459.869 82.9249 459.869 81.8118H453.869C453.869 84.195 454.619 86.4585 456.515 88.0707L460.401 83.499ZM459.869 81.8118V50.3453H453.869V81.8118H459.869ZM459.869 50.3453C459.869 43.3051 461.322 39.0458 463.495 36.7568L459.143 32.6262C455.383 36.5881 453.869 42.7647 453.869 50.3453H459.869ZM463.495 36.7568C465.676 34.4584 469.36 33.0033 475.225 33.0033V27.0033C468.481 27.0033 462.895 28.6737 459.143 32.6262L463.495 36.7568ZM475.225 33.0033C481.251 33.0033 485.081 34.487 487.371 36.856L491.685 32.6859C487.83 28.6981 482.124 27.0033 475.225 27.0033V33.0033ZM487.371 36.856C489.648 39.2118 491.136 43.4534 491.136 50.3453H497.136C497.136 42.8283 495.552 36.687 491.685 32.6859L487.371 36.856ZM491.136 50.3453V81.8118H497.136V50.3453H491.136ZM491.136 81.8118C491.136 83.0897 490.809 83.5055 490.671 83.6375C490.509 83.793 489.998 84.1357 488.574 84.1357V90.1357C490.859 90.1357 493.128 89.5911 494.82 87.972C496.536 86.3293 497.136 84.0832 497.136 81.8118H491.136ZM488.574 84.1357C487.271 84.1357 486.6 83.8166 486.226 83.499L482.34 88.0707C484.086 89.5543 486.275 90.1357 488.574 90.1357V84.1357ZM486.226 83.499C486.004 83.3101 485.694 82.9249 485.694 81.8118H479.694C479.694 84.195 480.444 86.4585 482.34 88.0707L486.226 83.499ZM485.694 81.8118V62.6617H479.694V81.8118H485.694ZM480.694 60.426C479.876 61.1574 478.97 61.784 477.969 62.3063L480.744 67.6259C482.18 66.8769 483.499 65.9672 484.694 64.8975L480.694 60.426ZM477.92 62.3324C477.274 62.6846 476.411 62.9196 475.225 62.9196V68.9196C477.217 68.9196 479.108 68.519 480.793 67.5998L477.92 62.3324ZM475.225 62.9196C472.619 62.9196 470.123 63.3774 468.216 64.7648L471.745 69.6172C472.168 69.3095 473.168 68.9196 475.225 68.9196V62.9196ZM468.162 64.8047C465.967 66.4771 465.312 69.1396 465.312 71.7203H471.312C471.312 69.9571 471.768 69.6001 471.798 69.5773L468.162 64.8047ZM465.312 71.7203V81.8118H471.312V71.7203H465.312ZM469.956 60.6511C470.508 60.0993 471.175 59.6536 471.99 59.3199L469.718 53.7666C468.203 54.3865 466.857 55.265 465.713 56.4084L469.956 60.6511ZM471.947 59.337C472.731 59.0302 473.798 58.8281 475.225 58.8281V52.8281C473.261 52.8281 471.414 53.1027 469.761 53.7495L471.947 59.337ZM475.225 58.8281C477.332 58.8281 479.215 58.6689 480.695 58.2248L478.971 52.4779C478.333 52.6695 477.143 52.8281 475.225 52.8281V58.8281ZM480.658 58.2359C482.453 57.7229 483.998 56.6155 484.852 54.8011L479.423 52.2463C479.405 52.2848 479.396 52.2928 479.38 52.3056C479.354 52.3258 479.254 52.3968 479.009 52.4668L480.658 58.2359ZM484.852 54.8011C485.556 53.305 485.773 51.4551 485.773 49.5507H479.773C479.773 51.1426 479.567 51.9413 479.423 52.2463L484.852 54.8011ZM485.773 49.5507C485.773 47.4659 485.627 45.5979 485.293 43.9935C484.965 42.4154 484.417 40.8968 483.473 39.6833L478.737 43.367C478.905 43.5838 479.191 44.1179 479.419 45.215C479.642 46.2858 479.773 47.7154 479.773 49.5507H485.773ZM483.505 39.7251C481.571 37.1471 478.425 36.3002 475.145 36.3002V42.3002C477.587 42.3002 478.413 42.9366 478.705 43.3251L483.505 39.7251ZM475.145 36.3002C471.968 36.3002 468.935 37.2413 467.153 39.9605L472.172 43.2487C472.403 42.8954 473.025 42.3002 475.145 42.3002V36.3002ZM467.139 39.9823C466.355 41.2011 465.905 42.7039 465.634 44.2714C465.356 45.8735 465.232 47.7518 465.232 49.8685H471.232C471.232 47.9592 471.346 46.4473 471.546 45.2947C471.751 44.1075 472.016 43.4914 472.186 43.2269L467.139 39.9823ZM465.232 49.8685C465.232 51.9122 465.206 53.6208 465.155 55.0019L471.151 55.224C471.205 53.7445 471.232 51.9569 471.232 49.8685H465.232ZM465.155 55.0019C465.104 56.3669 465.006 57.3388 464.886 57.9769L470.783 59.0826C470.982 58.0256 471.095 56.7196 471.151 55.224L465.155 55.0019ZM509.753 85.3875L507.486 87.3523L507.556 87.4332L507.632 87.5089L509.753 85.3875ZM513.17 34.3737L511.087 32.2148L511.078 32.224L511.068 32.2333L513.17 34.3737ZM542.889 79.7458L545.204 81.6529L545.21 81.6463L545.215 81.6396L542.889 79.7458ZM520.163 77.1236H517.163V80.1236H520.163V77.1236ZM534.307 72.5943L531.719 71.0772L531.715 71.0842L531.711 71.0912L534.307 72.5943ZM534.545 44.0679L531.947 45.5671L531.964 45.5968L531.982 45.6261L534.545 44.0679ZM512.376 83.5C512.201 83.5 512.08 83.4716 511.875 83.2662L507.632 87.5089C508.91 88.7867 510.537 89.5 512.376 89.5V83.5ZM512.021 83.4228C511.857 83.2338 511.72 82.9751 511.72 82.4475H505.72C505.72 84.2508 506.273 85.952 507.486 87.3523L512.021 83.4228ZM511.72 82.4475V47.0079H505.72V82.4475H511.72ZM511.72 47.0079C511.72 42.032 513.049 38.698 515.272 36.514L511.068 32.2333C507.359 35.8765 505.72 40.9653 505.72 47.0079H511.72ZM515.253 36.5325C517.541 34.3253 521.032 33.0033 526.202 33.0033V27.0033C520.035 27.0033 514.839 28.5949 511.087 32.2148L515.253 36.5325ZM526.202 33.0033C532.917 33.0033 537.5 35.1399 540.513 39.0467C543.641 43.1012 545.451 49.5348 545.451 58.8476H551.451C551.451 48.9309 549.553 40.9424 545.264 35.3821C540.861 29.6741 534.319 27.0033 526.202 27.0033V33.0033ZM545.451 58.8476C545.451 67.9192 543.642 74.0685 540.562 77.852L545.215 81.6396C549.552 76.3116 551.451 68.5288 551.451 58.8476H545.451ZM540.573 77.8387C537.603 81.4446 532.894 83.5 525.805 83.5V89.5C534.078 89.5 540.758 87.0526 545.204 81.6529L540.573 77.8387ZM525.805 83.5H512.376V89.5H525.805V83.5ZM520.163 80.1236H525.805V74.1236H520.163V80.1236ZM525.805 80.1236C530.636 80.1236 534.543 78.1735 536.903 74.0975L531.711 71.0912C530.574 73.0542 528.813 74.1236 525.805 74.1236V80.1236ZM536.895 74.1115C539.115 70.3246 540.009 64.7254 540.009 57.8146H534.009C534.009 64.4652 533.101 68.7191 531.719 71.0772L536.895 74.1115ZM540.009 57.8146C540.009 51.2674 539.208 45.9623 537.109 42.5096L531.982 45.6261C533.167 47.5768 534.009 51.4362 534.009 57.8146H540.009ZM537.144 42.5687C534.895 38.6715 531.028 36.9359 526.361 36.9359V42.9359C529.428 42.9359 531.017 43.955 531.947 45.5671L537.144 42.5687ZM526.361 36.9359C524.018 36.9359 521.719 37.348 519.942 38.6461C517.991 40.0721 517.163 42.1938 517.163 44.4652H523.163C523.163 44.0502 523.234 43.8298 523.28 43.7287C523.318 43.6442 523.369 43.5731 523.482 43.4904C523.772 43.2787 524.571 42.9359 526.361 42.9359V36.9359ZM517.163 44.4652V77.1236H523.163V44.4652H517.163Z" fill="black" mask="url(#path-1-outside-1_266_6853)"/>
</svg>
