<svg width="600" height="201" viewBox="0 0 600 201" fill="none" xmlns="http://www.w3.org/2000/svg">
<mask id="path-1-outside-1_44_595" maskUnits="userSpaceOnUse" x="5.17798" y="14.1057" width="564.071" height="172.984" fill="black">
<rect fill="white" x="5.17798" y="14.1057" width="564.071" height="172.984"/>
<path d="M62.0458 165.996C62.1 170.253 61.3938 173.542 59.9272 175.862C58.5771 178.296 56.5787 179.53 53.932 179.562C48.2933 179.633 45.4278 176.043 45.3355 168.793L45.2871 164.996C41.0279 164.934 36.5924 164.586 31.9806 163.953C27.4854 163.434 23.8495 162.616 21.0731 161.499C16.2151 159.603 13.7567 156.354 13.6981 151.751C13.6555 148.414 14.5999 145.755 16.5313 143.774C18.5762 141.677 21.7851 140.601 26.1579 140.547C29.1499 140.51 32.7798 140.867 37.0478 141.62C41.3159 142.372 45.0609 142.728 48.283 142.688C55.4176 142.599 60.5267 141.615 63.6102 139.735C66.6938 137.855 68.1996 134.096 68.1278 128.457C68.0852 125.12 66.841 122.316 64.3951 120.045C62.0643 117.772 57.376 115.643 50.33 113.66C37.5084 110.021 28.1848 105.418 22.3593 99.8515C16.6488 94.2831 13.7364 87.011 13.622 78.0352C13.4959 68.1389 16.1558 60.1069 21.6016 53.9392C27.1611 47.655 34.5328 43.5925 43.7167 41.7518L43.7123 41.4066C43.595 32.2006 46.3557 27.5626 51.9943 27.4924C57.5179 27.4236 60.3369 31.8771 60.4512 40.8528C67.1329 41.3451 72.7869 42.4832 77.4133 44.267C82.2699 46.048 84.7283 49.2975 84.7884 54.0156C84.8309 57.3527 83.8297 60.0698 81.7848 62.167C79.8534 64.1476 76.7013 65.1651 72.3285 65.2196C69.4517 65.2554 66.341 65.0064 62.9965 64.4726C59.6506 63.8237 56.3665 63.5193 53.1445 63.5594C48.1963 63.621 44.4673 64.5307 41.9577 66.2883C39.4481 68.0459 38.2189 70.9385 38.2702 74.9661C38.3171 78.6485 40.1433 81.9634 43.7487 84.9109C47.3542 87.8584 53.9508 90.7111 63.5386 93.469C74.5117 96.555 82.1048 100.834 86.3179 106.306C90.5294 111.663 92.6888 118.541 92.7958 126.942C92.9219 136.838 90.3195 144.869 84.9888 151.036C79.658 157.202 71.9993 161.326 62.0128 163.406L62.0458 165.996ZM120.815 162.674C118.629 162.702 116.777 161.861 115.259 160.154C113.741 158.446 112.965 156.269 112.931 153.623L111.941 75.9478C111.893 72.1504 112.36 68.1739 113.343 64.0183C114.441 59.8613 116.463 55.9806 119.41 52.376C122.47 48.655 126.805 45.6086 132.414 43.2369C138.023 40.8652 145.373 39.6228 154.464 39.5096C166.547 39.3591 175.964 42.2343 182.714 48.135C189.465 54.0357 192.916 62.9699 193.069 74.9376C193.13 79.7707 192.266 84.2125 190.476 88.263C188.802 92.3121 186.194 95.3945 182.653 97.5103C188.324 99.9717 192.396 103.431 194.87 107.889C197.459 112.345 198.804 118.544 198.905 126.484C199.051 137.991 195.596 146.781 188.537 152.854C181.594 158.925 170.758 162.052 156.028 162.236L120.815 162.674ZM135.836 94.9857C137.308 93.1259 139.706 91.6574 143.03 90.5802C146.469 89.5016 150.49 88.9336 155.093 88.8763C160.502 88.8089 164.172 87.7849 166.103 85.8043C168.148 83.7072 169.139 80.1845 169.076 75.2364C169.003 69.4827 167.742 65.4126 165.295 63.0261C162.961 60.5232 159.435 59.3011 154.717 59.3598C148.043 59.4429 143.34 60.7099 140.609 63.1609C137.993 65.6104 136.723 69.7695 136.798 75.6383C136.843 79.2056 136.822 82.0831 136.735 84.271C136.761 86.3423 136.67 88.1849 136.46 89.7988C136.366 91.4113 136.157 93.1403 135.836 94.9857ZM137.649 142.439L155.773 142.213C162.677 142.127 167.438 140.859 170.053 138.41C172.784 135.959 174.116 132.087 174.049 126.793C173.953 119.313 172.447 113.98 169.529 110.794C166.726 107.607 161.988 106.054 155.313 106.137C150.595 106.196 146.921 106.875 144.29 108.174C141.658 109.357 139.843 111.452 138.846 114.456C137.848 117.461 137.385 121.725 137.455 127.249L137.649 142.439ZM230.682 162.342C226.77 162.391 223.652 161.566 221.328 159.869C219.003 158.056 217.819 155.482 217.777 152.144L216.827 77.5766C216.657 64.2281 220.042 54.4031 226.982 48.1017C234.036 41.6838 245.101 38.381 260.175 38.1933C272.488 38.04 281.906 41.0302 288.43 47.1639C295.067 53.1812 298.459 62.001 298.607 73.6235C298.659 77.6511 298.593 81.565 298.412 85.3653C298.228 89.0505 297.916 91.644 297.475 93.1457C295.829 99.4962 292.726 104.369 288.166 107.763C294.446 112.864 297.629 118.809 297.716 125.599L298.041 151.145C298.132 158.28 294.208 161.896 286.267 161.995C282.355 162.044 279.237 161.22 276.913 159.522C274.588 157.71 273.403 155.02 273.358 151.452L273.068 128.668C272.988 122.454 271.954 118.093 269.966 115.586C268.093 113.077 264.279 111.859 258.525 111.93C252.311 112.008 248.014 113.442 245.632 116.234C243.364 118.91 242.277 123.872 242.369 131.122L242.633 151.835C242.721 158.739 238.737 162.242 230.682 162.342ZM240.566 97.9976C243.412 95.5452 245.924 93.9602 248.101 93.2426C250.393 92.4084 253.667 91.9648 257.925 91.9118C263.679 91.8401 267.875 91.5001 270.515 90.8918C273.269 90.2821 275.037 89.0516 275.819 87.2004C276.601 85.3491 276.967 82.4673 276.918 78.5548C276.818 70.7298 275.541 65.3363 273.086 62.3745C270.745 59.2962 266.525 57.795 260.426 57.8709C253.637 57.9555 248.823 59.5691 245.986 62.7119C243.264 65.8533 241.952 71.279 242.05 78.9889C242.098 82.7864 241.969 86.1832 241.662 89.1794C241.469 92.0591 241.103 94.9985 240.566 97.9976ZM345.447 149.692C345.545 157.402 341.567 161.307 333.512 161.407C329.599 161.456 326.48 160.516 324.153 158.589C321.827 156.661 320.64 153.799 320.591 150.001L319.72 81.6472C319.518 65.767 322.595 54.3921 328.953 47.5225C335.311 40.6529 345.337 37.1329 359.03 36.9624C373.069 36.7875 383.47 40.1108 390.232 46.9321C396.995 53.7535 400.476 64.9891 400.675 80.6392L401.546 148.993C401.644 156.703 397.666 160.608 389.61 160.708C385.698 160.757 382.578 159.818 380.252 157.89C377.926 155.963 376.738 153.1 376.69 149.303L376.16 107.703C373.998 109.687 371.603 111.385 368.974 112.799C366.46 114.212 363.477 114.939 360.024 114.982C354.961 115.045 351.175 116.013 348.667 117.886C346.274 119.757 345.108 123.052 345.168 127.77L345.447 149.692ZM343.767 99.1295C345.585 97.2654 347.753 95.7998 350.271 94.7326C352.905 93.664 356.063 93.1067 359.745 93.0609C364.118 93.0064 367.451 92.6196 369.743 91.9005C372.151 91.18 373.803 89.8359 374.699 87.8682C375.594 85.9004 376.018 83.0179 375.969 79.2204C375.861 70.705 374.579 64.9088 372.123 61.8319C369.665 58.6399 365.329 57.0826 359.115 57.16C353.361 57.2316 349.413 58.9496 347.269 62.314C345.238 65.5618 344.279 71.5586 344.39 80.3042C344.448 84.7921 344.438 88.5902 344.363 91.6987C344.287 94.8071 344.089 97.284 343.767 99.1295ZM437.874 160.107C429.359 160.213 425.052 156.412 424.954 148.702L423.667 47.7243C423.616 43.6967 424.556 40.7501 426.489 38.8846C428.422 37.019 431.517 36.0598 435.775 36.0067C444.175 35.9021 448.425 39.7048 448.523 47.4148L449.81 148.392C449.859 152.305 448.919 155.251 446.987 157.232C445.17 159.096 442.132 160.054 437.874 160.107ZM498.336 147.788C498.435 155.498 494.456 159.403 486.401 159.503C482.488 159.552 479.369 158.612 477.042 156.685C474.716 154.757 473.529 151.895 473.48 148.097L472.616 80.2613C472.478 69.4444 473.807 60.7959 476.601 54.3159C479.395 47.7209 484.052 42.8866 490.573 39.813C497.094 36.7394 505.821 35.1346 516.753 34.9984C531.252 34.8179 542.227 38.0764 549.679 44.7741C557.243 51.3552 561.13 62.8161 561.338 79.1565L562.203 146.993C562.301 154.703 558.322 158.608 550.267 158.708C546.355 158.757 543.235 157.817 540.909 155.89C538.582 153.962 537.395 151.1 537.347 147.302L536.482 79.466C536.374 70.9506 534.801 64.9278 531.763 61.3978C528.84 57.7513 523.925 55.971 517.021 56.0569C511.612 56.1243 507.48 56.9814 504.624 58.6282C501.767 60.2751 499.843 62.8311 498.852 66.2962C497.86 69.7613 497.4 74.3132 497.472 79.9518L498.336 147.788Z"/>
</mask>
<path d="M62.0458 165.996C62.1 170.253 61.3938 173.542 59.9272 175.862C58.5771 178.296 56.5787 179.53 53.932 179.562C48.2933 179.633 45.4278 176.043 45.3355 168.793L45.2871 164.996C41.0279 164.934 36.5924 164.586 31.9806 163.953C27.4854 163.434 23.8495 162.616 21.0731 161.499C16.2151 159.603 13.7567 156.354 13.6981 151.751C13.6555 148.414 14.5999 145.755 16.5313 143.774C18.5762 141.677 21.7851 140.601 26.1579 140.547C29.1499 140.51 32.7798 140.867 37.0478 141.62C41.3159 142.372 45.0609 142.728 48.283 142.688C55.4176 142.599 60.5267 141.615 63.6102 139.735C66.6938 137.855 68.1996 134.096 68.1278 128.457C68.0852 125.12 66.841 122.316 64.3951 120.045C62.0643 117.772 57.376 115.643 50.33 113.66C37.5084 110.021 28.1848 105.418 22.3593 99.8515C16.6488 94.2831 13.7364 87.011 13.622 78.0352C13.4959 68.1389 16.1558 60.1069 21.6016 53.9392C27.1611 47.655 34.5328 43.5925 43.7167 41.7518L43.7123 41.4066C43.595 32.2006 46.3557 27.5626 51.9943 27.4924C57.5179 27.4236 60.3369 31.8771 60.4512 40.8528C67.1329 41.3451 72.7869 42.4832 77.4133 44.267C82.2699 46.048 84.7283 49.2975 84.7884 54.0156C84.8309 57.3527 83.8297 60.0698 81.7848 62.167C79.8534 64.1476 76.7013 65.1651 72.3285 65.2196C69.4517 65.2554 66.341 65.0064 62.9965 64.4726C59.6506 63.8237 56.3665 63.5193 53.1445 63.5594C48.1963 63.621 44.4673 64.5307 41.9577 66.2883C39.4481 68.0459 38.2189 70.9385 38.2702 74.9661C38.3171 78.6485 40.1433 81.9634 43.7487 84.9109C47.3542 87.8584 53.9508 90.7111 63.5386 93.469C74.5117 96.555 82.1048 100.834 86.3179 106.306C90.5294 111.663 92.6888 118.541 92.7958 126.942C92.9219 136.838 90.3195 144.869 84.9888 151.036C79.658 157.202 71.9993 161.326 62.0128 163.406L62.0458 165.996ZM120.815 162.674C118.629 162.702 116.777 161.861 115.259 160.154C113.741 158.446 112.965 156.269 112.931 153.623L111.941 75.9478C111.893 72.1504 112.36 68.1739 113.343 64.0183C114.441 59.8613 116.463 55.9806 119.41 52.376C122.47 48.655 126.805 45.6086 132.414 43.2369C138.023 40.8652 145.373 39.6228 154.464 39.5096C166.547 39.3591 175.964 42.2343 182.714 48.135C189.465 54.0357 192.916 62.9699 193.069 74.9376C193.13 79.7707 192.266 84.2125 190.476 88.263C188.802 92.3121 186.194 95.3945 182.653 97.5103C188.324 99.9717 192.396 103.431 194.87 107.889C197.459 112.345 198.804 118.544 198.905 126.484C199.051 137.991 195.596 146.781 188.537 152.854C181.594 158.925 170.758 162.052 156.028 162.236L120.815 162.674ZM135.836 94.9857C137.308 93.1259 139.706 91.6574 143.03 90.5802C146.469 89.5016 150.49 88.9336 155.093 88.8763C160.502 88.8089 164.172 87.7849 166.103 85.8043C168.148 83.7072 169.139 80.1845 169.076 75.2364C169.003 69.4827 167.742 65.4126 165.295 63.0261C162.961 60.5232 159.435 59.3011 154.717 59.3598C148.043 59.4429 143.34 60.7099 140.609 63.1609C137.993 65.6104 136.723 69.7695 136.798 75.6383C136.843 79.2056 136.822 82.0831 136.735 84.271C136.761 86.3423 136.67 88.1849 136.46 89.7988C136.366 91.4113 136.157 93.1403 135.836 94.9857ZM137.649 142.439L155.773 142.213C162.677 142.127 167.438 140.859 170.053 138.41C172.784 135.959 174.116 132.087 174.049 126.793C173.953 119.313 172.447 113.98 169.529 110.794C166.726 107.607 161.988 106.054 155.313 106.137C150.595 106.196 146.921 106.875 144.29 108.174C141.658 109.357 139.843 111.452 138.846 114.456C137.848 117.461 137.385 121.725 137.455 127.249L137.649 142.439ZM230.682 162.342C226.77 162.391 223.652 161.566 221.328 159.869C219.003 158.056 217.819 155.482 217.777 152.144L216.827 77.5766C216.657 64.2281 220.042 54.4031 226.982 48.1017C234.036 41.6838 245.101 38.381 260.175 38.1933C272.488 38.04 281.906 41.0302 288.43 47.1639C295.067 53.1812 298.459 62.001 298.607 73.6235C298.659 77.6511 298.593 81.565 298.412 85.3653C298.228 89.0505 297.916 91.644 297.475 93.1457C295.829 99.4962 292.726 104.369 288.166 107.763C294.446 112.864 297.629 118.809 297.716 125.599L298.041 151.145C298.132 158.28 294.208 161.896 286.267 161.995C282.355 162.044 279.237 161.22 276.913 159.522C274.588 157.71 273.403 155.02 273.358 151.452L273.068 128.668C272.988 122.454 271.954 118.093 269.966 115.586C268.093 113.077 264.279 111.859 258.525 111.93C252.311 112.008 248.014 113.442 245.632 116.234C243.364 118.91 242.277 123.872 242.369 131.122L242.633 151.835C242.721 158.739 238.737 162.242 230.682 162.342ZM240.566 97.9976C243.412 95.5452 245.924 93.9602 248.101 93.2426C250.393 92.4084 253.667 91.9648 257.925 91.9118C263.679 91.8401 267.875 91.5001 270.515 90.8918C273.269 90.2821 275.037 89.0516 275.819 87.2004C276.601 85.3491 276.967 82.4673 276.918 78.5548C276.818 70.7298 275.541 65.3363 273.086 62.3745C270.745 59.2962 266.525 57.795 260.426 57.8709C253.637 57.9555 248.823 59.5691 245.986 62.7119C243.264 65.8533 241.952 71.279 242.05 78.9889C242.098 82.7864 241.969 86.1832 241.662 89.1794C241.469 92.0591 241.103 94.9985 240.566 97.9976ZM345.447 149.692C345.545 157.402 341.567 161.307 333.512 161.407C329.599 161.456 326.48 160.516 324.153 158.589C321.827 156.661 320.64 153.799 320.591 150.001L319.72 81.6472C319.518 65.767 322.595 54.3921 328.953 47.5225C335.311 40.6529 345.337 37.1329 359.03 36.9624C373.069 36.7875 383.47 40.1108 390.232 46.9321C396.995 53.7535 400.476 64.9891 400.675 80.6392L401.546 148.993C401.644 156.703 397.666 160.608 389.61 160.708C385.698 160.757 382.578 159.818 380.252 157.89C377.926 155.963 376.738 153.1 376.69 149.303L376.16 107.703C373.998 109.687 371.603 111.385 368.974 112.799C366.46 114.212 363.477 114.939 360.024 114.982C354.961 115.045 351.175 116.013 348.667 117.886C346.274 119.757 345.108 123.052 345.168 127.77L345.447 149.692ZM343.767 99.1295C345.585 97.2654 347.753 95.7998 350.271 94.7326C352.905 93.664 356.063 93.1067 359.745 93.0609C364.118 93.0064 367.451 92.6196 369.743 91.9005C372.151 91.18 373.803 89.8359 374.699 87.8682C375.594 85.9004 376.018 83.0179 375.969 79.2204C375.861 70.705 374.579 64.9088 372.123 61.8319C369.665 58.6399 365.329 57.0826 359.115 57.16C353.361 57.2316 349.413 58.9496 347.269 62.314C345.238 65.5618 344.279 71.5586 344.39 80.3042C344.448 84.7921 344.438 88.5902 344.363 91.6987C344.287 94.8071 344.089 97.284 343.767 99.1295ZM437.874 160.107C429.359 160.213 425.052 156.412 424.954 148.702L423.667 47.7243C423.616 43.6967 424.556 40.7501 426.489 38.8846C428.422 37.019 431.517 36.0598 435.775 36.0067C444.175 35.9021 448.425 39.7048 448.523 47.4148L449.81 148.392C449.859 152.305 448.919 155.251 446.987 157.232C445.17 159.096 442.132 160.054 437.874 160.107ZM498.336 147.788C498.435 155.498 494.456 159.403 486.401 159.503C482.488 159.552 479.369 158.612 477.042 156.685C474.716 154.757 473.529 151.895 473.48 148.097L472.616 80.2613C472.478 69.4444 473.807 60.7959 476.601 54.3159C479.395 47.7209 484.052 42.8866 490.573 39.813C497.094 36.7394 505.821 35.1346 516.753 34.9984C531.252 34.8179 542.227 38.0764 549.679 44.7741C557.243 51.3552 561.13 62.8161 561.338 79.1565L562.203 146.993C562.301 154.703 558.322 158.608 550.267 158.708C546.355 158.757 543.235 157.817 540.909 155.89C538.582 153.962 537.395 151.1 537.347 147.302L536.482 79.466C536.374 70.9506 534.801 64.9278 531.763 61.3978C528.84 57.7513 523.925 55.971 517.021 56.0569C511.612 56.1243 507.48 56.9814 504.624 58.6282C501.767 60.2751 499.843 62.8311 498.852 66.2962C497.86 69.7613 497.4 74.3132 497.472 79.9518L498.336 147.788Z" fill="#8D5B4F"/>
<path d="M59.9272 175.862L54.3744 172.351L54.274 172.51L54.1828 172.675L59.9272 175.862ZM45.2871 164.996L51.8554 164.914L51.7739 158.521L45.3809 158.428L45.2871 164.996ZM31.9806 163.953L32.8722 157.445L32.8026 157.436L32.7329 157.428L31.9806 163.953ZM21.0731 161.499L23.5221 155.405L23.4911 155.392L23.4599 155.38L21.0731 161.499ZM37.0478 141.62L38.1866 135.151L38.1866 135.151L37.0478 141.62ZM63.6102 139.735L67.0308 145.344L67.0308 145.344L63.6102 139.735ZM64.3951 120.045L59.8098 124.747L59.8672 124.803L59.9259 124.857L64.3951 120.045ZM50.33 113.66L48.5385 119.979L48.5514 119.982L50.33 113.66ZM22.3593 99.8515L17.7739 104.554L17.7977 104.577L17.8217 104.6L22.3593 99.8515ZM21.6016 53.9392L16.6811 49.5859L16.677 49.5906L21.6016 53.9392ZM43.7167 41.7518L45.0095 48.1925L50.3545 47.1212L50.2851 41.67L43.7167 41.7518ZM60.4512 40.8528L53.8829 40.9346L53.9597 46.9611L59.9705 47.4039L60.4512 40.8528ZM77.4133 44.267L75.0516 50.3959L75.1023 50.4155L75.1533 50.4342L77.4133 44.267ZM81.7848 62.167L86.4884 66.7536L86.4885 66.7536L81.7848 62.167ZM62.9965 64.4726L61.7477 70.9212L61.855 70.942L61.963 70.9593L62.9965 64.4726ZM41.9577 66.2883L45.727 71.6691L45.727 71.6691L41.9577 66.2883ZM43.7487 84.9109L47.9055 79.8258L47.9055 79.8258L43.7487 84.9109ZM63.5386 93.469L61.7244 99.7818L61.7432 99.7872L61.7619 99.7925L63.5386 93.469ZM86.3179 106.306L81.1134 110.312L81.1337 110.339L81.1543 110.365L86.3179 106.306ZM84.9888 151.036L89.9586 155.333L89.9586 155.333L84.9888 151.036ZM62.0128 163.406L60.671 156.976L55.3755 158.079L55.4445 163.488L62.0128 163.406ZM55.4775 166.077C55.5238 169.711 54.8838 171.545 54.3744 172.351L65.48 179.373C67.9038 175.539 68.6763 170.796 68.6141 165.914L55.4775 166.077ZM54.1828 172.675C54.0641 172.889 53.9765 172.994 53.9416 173.033C53.9102 173.067 53.9171 173.052 53.9647 173.023C54.0136 172.992 54.0553 172.978 54.066 172.975C54.0722 172.973 54.0084 172.992 53.8483 172.994L54.0157 186.131C59.1654 186.067 63.2507 183.414 65.6716 179.05L54.1828 172.675ZM53.8483 172.994C53.1328 173.003 52.8113 172.892 52.7334 172.859C52.6953 172.844 52.7088 172.853 52.6872 172.826C52.5598 172.666 51.9414 171.666 51.9038 168.712L38.7671 168.875C38.8219 173.17 39.6825 177.59 42.4205 181.02C45.4065 184.761 49.6814 186.185 54.0157 186.131L53.8483 172.994ZM51.9038 168.712L51.8554 164.914L38.7188 165.078L38.7671 168.875L51.9038 168.712ZM45.3809 158.428C41.4118 158.37 37.2435 158.045 32.8722 157.445L31.089 170.461C35.9412 171.127 40.644 171.498 45.1933 171.564L45.3809 158.428ZM32.7329 157.428C28.5548 156.945 25.5529 156.221 23.5221 155.405L18.6241 167.594C22.1462 169.01 26.416 169.922 31.2284 170.478L32.7329 157.428ZM23.4599 155.38C21.8502 154.752 21.1415 154.098 20.824 153.678C20.5491 153.315 20.2803 152.759 20.2664 151.669L7.12973 151.833C7.17449 155.346 8.16418 158.716 10.3476 161.602C12.4885 164.432 15.438 166.351 18.6863 167.618L23.4599 155.38ZM20.2664 151.669C20.2412 149.69 20.7638 148.844 21.235 148.361L11.8276 139.187C8.43607 142.666 7.0699 147.137 7.12973 151.833L20.2664 151.669ZM21.235 148.361C21.577 148.01 22.7609 147.158 26.2416 147.115L26.0742 133.978C20.8093 134.044 15.5754 135.344 11.8276 139.187L21.235 148.361ZM26.2416 147.115C28.6867 147.085 31.8822 147.379 35.9091 148.089L38.1866 135.151C33.6774 134.356 29.613 133.934 26.0742 133.978L26.2416 147.115ZM35.9091 148.089C40.4524 148.89 44.6225 149.303 48.3667 149.257L48.1993 136.12C45.4993 136.154 42.1794 135.855 38.1866 135.151L35.9091 148.089ZM48.3667 149.257C55.7341 149.165 62.3609 148.191 67.0308 145.344L60.1897 134.126C58.6924 135.039 55.1011 136.034 48.1993 136.12L48.3667 149.257ZM67.0308 145.344C73.045 141.678 74.7798 134.949 74.6961 128.376L61.5594 128.539C61.6194 133.243 60.3425 134.033 60.1897 134.126L67.0308 145.344ZM74.6961 128.376C74.6307 123.241 72.6278 118.727 68.8644 115.232L59.9259 124.857C61.0542 125.905 61.5398 127 61.5594 128.539L74.6961 128.376ZM68.9805 115.342C65.3548 111.807 59.2013 109.334 52.1087 107.337L48.5514 119.982C55.5506 121.953 58.7739 123.737 59.8098 124.747L68.9805 115.342ZM52.1216 107.34C39.7345 103.825 31.5995 99.5969 26.8968 95.1031L17.8217 104.6C24.7702 111.24 35.2823 116.217 48.5385 119.979L52.1216 107.34ZM26.9446 95.1492C22.6428 90.9544 20.2855 85.426 20.1903 77.9535L7.05366 78.117C7.18718 88.596 10.6548 97.6118 17.7739 104.554L26.9446 95.1492ZM20.1903 77.9535C20.0805 69.3387 22.3691 62.9959 26.5263 58.2877L16.677 49.5906C9.94238 57.2179 6.91123 66.9391 7.05366 78.117L20.1903 77.9535ZM26.5221 58.2924C31.0225 53.2053 37.0583 49.7861 45.0095 48.1925L42.424 35.311C32.0073 37.3989 23.2996 42.1046 16.6811 49.5859L26.5221 58.2924ZM50.2851 41.67L50.2807 41.3248L37.144 41.4883L37.1484 41.8336L50.2851 41.67ZM50.2807 41.3248C50.2278 37.1787 50.8755 35.1645 51.3397 34.3845C51.5139 34.0919 51.5899 34.0915 51.5183 34.1317C51.4595 34.1646 51.5769 34.0669 52.078 34.0607L51.9107 20.9241C46.9296 20.9861 42.6615 23.2752 40.05 27.6626C37.7536 31.5207 37.0795 36.4285 37.144 41.4883L50.2807 41.3248ZM52.078 34.0607C52.5553 34.0547 52.654 34.1446 52.5751 34.1031C52.4822 34.0543 52.5376 34.0346 52.7011 34.293C53.1492 35.0009 53.8316 36.907 53.8829 40.9346L67.0196 40.7711C66.9565 35.8229 66.1722 31.0144 63.8014 27.2688C61.102 23.0042 56.8199 20.8629 51.9107 20.9241L52.078 34.0607ZM59.9705 47.4039C66.2181 47.8642 71.1974 48.9098 75.0516 50.3959L79.7751 38.1381C74.3764 36.0565 68.0477 34.826 60.932 34.3018L59.9705 47.4039ZM75.1533 50.4342C76.7148 51.0068 77.3736 51.6218 77.6613 52.0021C77.9153 52.3378 78.2049 52.9104 78.2201 54.0974L91.3567 53.9338C91.3117 50.4027 90.3421 46.9915 88.1378 44.0778C85.9671 41.2086 82.9685 39.3083 79.6734 38.0999L75.1533 50.4342ZM78.2201 54.0974C78.2437 55.9562 77.7374 56.9073 77.0811 57.5803L86.4885 66.7536C89.922 63.2324 91.4181 58.7492 91.3567 53.9338L78.2201 54.0974ZM77.0811 57.5803C76.9109 57.7548 75.8539 58.6063 72.2448 58.6513L72.4122 71.7879C77.5488 71.7239 82.7959 70.5404 86.4884 66.7536L77.0811 57.5803ZM72.2448 58.6513C69.8007 58.6817 67.068 58.4708 64.03 57.9859L61.963 70.9593C65.614 71.542 69.1026 71.8291 72.4122 71.7879L72.2448 58.6513ZM64.2453 58.0239C60.4856 57.2948 56.7548 56.9451 53.0608 56.9911L53.2282 70.1277C55.9783 70.0935 58.8155 70.3526 61.7477 70.9212L64.2453 58.0239ZM53.0608 56.9911C47.5334 57.0599 42.2585 58.0569 38.1884 60.9075L45.727 71.6691C46.6762 71.0044 48.8591 70.1821 53.2282 70.1277L53.0608 56.9911ZM38.1884 60.9075C33.3582 64.2903 31.6326 69.606 31.7019 75.0479L44.8386 74.8843C44.8053 72.2711 45.538 71.8016 45.727 71.6691L38.1884 60.9075ZM31.7019 75.0479C31.7799 81.1672 34.9133 86.1712 39.592 89.996L47.9055 79.8258C45.3733 77.7557 44.8544 76.1298 44.8386 74.8843L31.7019 75.0479ZM39.592 89.996C44.3092 93.8524 52.0371 96.9953 61.7244 99.7818L65.3528 87.1562C55.8645 84.427 50.3992 81.8644 47.9055 79.8258L39.592 89.996ZM61.7619 99.7925C72.1823 102.723 78.1647 106.482 81.1134 110.312L91.5223 102.299C86.0449 95.1854 76.8411 90.387 65.3153 87.1456L61.7619 99.7925ZM81.1543 110.365C84.2817 114.343 86.1344 119.723 86.2275 127.024L99.3641 126.86C99.2431 117.36 96.7772 108.983 91.4814 102.247L81.1543 110.365ZM86.2275 127.024C86.3377 135.674 84.0857 142.035 80.0189 146.739L89.9586 155.333C96.5534 147.704 99.5061 138.002 99.3641 126.86L86.2275 127.024ZM80.0189 146.739C75.846 151.566 69.6074 155.114 60.671 156.976L63.3546 169.837C74.3913 167.537 83.47 162.838 89.9586 155.333L80.0189 146.739ZM55.4445 163.488L55.4775 166.077L68.6141 165.914L68.5811 163.325L55.4445 163.488ZM115.259 160.154L120.168 155.79L120.168 155.79L115.259 160.154ZM113.343 64.0183L106.992 62.3391L106.97 62.4216L106.951 62.5046L113.343 64.0183ZM119.41 52.376L114.336 48.2028L114.33 48.2103L114.324 48.2178L119.41 52.376ZM132.414 43.2369L129.854 37.1866L129.854 37.1866L132.414 43.2369ZM182.714 48.135L187.037 43.1898L187.037 43.1898L182.714 48.135ZM190.476 88.263L184.468 85.6066L184.436 85.6783L184.406 85.7508L190.476 88.263ZM182.653 97.5103L179.282 91.8711L168.293 98.4375L180.039 103.536L182.653 97.5103ZM194.87 107.889L189.126 111.075L189.158 111.132L189.19 111.187L194.87 107.889ZM188.537 152.854L184.252 147.874L184.232 147.891L184.212 147.908L188.537 152.854ZM135.836 94.9857L129.364 93.8557L140.986 99.0642L135.836 94.9857ZM143.03 90.5802L141.063 84.3124L141.033 84.3217L141.004 84.3313L143.03 90.5802ZM166.103 85.8043L161.399 81.2176L161.399 81.2177L166.103 85.8043ZM165.295 63.0261L160.491 67.505L160.598 67.6193L160.71 67.7285L165.295 63.0261ZM140.609 63.1609L136.221 58.2716L136.169 58.318L136.119 58.3654L140.609 63.1609ZM136.735 84.271L130.171 84.0074L130.164 84.18L130.167 84.3528L136.735 84.271ZM136.46 89.7988L129.946 88.9509L129.916 89.1809L129.902 89.4124L136.46 89.7988ZM137.649 142.439L131.08 142.52L131.164 149.089L137.732 149.007L137.649 142.439ZM170.053 138.41L165.665 133.52L165.614 133.567L165.563 133.614L170.053 138.41ZM169.529 110.794L164.596 115.131L164.64 115.181L164.685 115.23L169.529 110.794ZM144.29 108.174L146.986 114.165L147.094 114.116L147.2 114.064L144.29 108.174ZM138.846 114.456L132.612 112.385L132.612 112.385L138.846 114.456ZM120.732 156.106C120.619 156.107 120.557 156.097 120.533 156.092C120.51 156.088 120.502 156.084 120.498 156.083C120.494 156.081 120.469 156.069 120.42 156.032C120.37 155.994 120.283 155.921 120.168 155.79L110.35 164.518C113.069 167.576 116.713 169.295 120.899 169.243L120.732 156.106ZM120.168 155.79C119.864 155.449 119.517 154.873 119.5 153.541L106.363 153.704C106.413 157.666 107.618 161.444 110.35 164.518L120.168 155.79ZM119.5 153.541L118.51 75.866L105.373 76.0296L106.363 153.704L119.5 153.541ZM118.51 75.866C118.469 72.6674 118.861 69.2287 119.736 65.532L106.951 62.5046C105.859 67.119 105.317 71.6333 105.373 76.0296L118.51 75.866ZM119.694 65.6975C120.533 62.521 122.094 59.4733 124.496 56.5342L114.324 48.2178C110.833 52.4878 108.349 57.2017 106.992 62.3391L119.694 65.6975ZM124.484 56.5492C126.715 53.836 130.09 51.3522 134.974 49.2872L129.854 37.1866C123.52 39.865 118.225 43.4739 114.336 48.2028L124.484 56.5492ZM134.974 49.2872C139.512 47.3684 145.928 46.1852 154.548 46.0779L154.381 32.9413C144.819 33.0603 136.535 34.362 129.854 37.1866L134.974 49.2872ZM154.548 46.0779C165.583 45.9405 173.23 48.5683 178.392 53.0801L187.037 43.1898C178.697 35.9002 167.512 32.7778 154.381 32.9413L154.548 46.0779ZM178.392 53.0801C183.308 57.3775 186.363 64.2609 186.501 75.0194L199.637 74.8558C199.469 61.679 195.621 50.6939 187.037 43.1898L178.392 53.0801ZM186.501 75.0194C186.551 78.9972 185.843 82.4943 184.468 85.6066L196.485 90.9195C198.689 85.9307 199.71 80.5442 199.637 74.8558L186.501 75.0194ZM184.406 85.7508C183.236 88.5808 181.532 90.5267 179.282 91.8711L186.023 103.149C190.855 100.262 194.368 96.0434 196.547 90.7752L184.406 85.7508ZM180.039 103.536C184.673 105.547 187.494 108.134 189.126 111.075L200.613 104.703C197.298 98.7288 191.975 94.3963 185.267 91.4847L180.039 103.536ZM189.19 111.187C190.984 114.275 192.243 119.197 192.336 126.566L205.473 126.402C205.365 117.89 203.933 110.416 200.55 104.591L189.19 111.187ZM192.336 126.566C192.465 136.631 189.498 143.361 184.252 147.874L192.822 157.834C201.694 150.201 205.638 139.352 205.473 126.402L192.336 126.566ZM184.212 147.908C178.97 152.493 169.99 155.493 155.944 155.668L156.112 168.804C171.525 168.612 184.218 165.357 192.862 157.799L184.212 147.908ZM155.944 155.668L120.732 156.106L120.899 169.243L156.112 168.804L155.944 155.668ZM140.986 99.0642C141.358 98.5949 142.415 97.6854 145.057 96.8291L141.004 84.3313C136.998 85.6295 133.259 87.6569 130.685 90.9073L140.986 99.0642ZM144.998 96.848C147.685 96.0051 151.046 95.496 155.177 95.4446L155.01 82.308C149.935 82.3711 145.253 82.998 141.063 84.3124L144.998 96.848ZM155.177 95.4446C160.867 95.3737 166.923 94.3743 170.807 90.391L161.399 81.2177C161.491 81.124 161.257 81.4175 160.135 81.7306C159.024 82.0405 157.362 82.2787 155.01 82.308L155.177 95.4446ZM170.807 90.391C174.677 86.4219 175.715 80.7162 175.644 75.1546L162.508 75.3182C162.563 79.6528 161.619 80.9925 161.399 81.2176L170.807 90.391ZM175.644 75.1546C175.563 68.7799 174.197 62.5331 169.88 58.3238L160.71 67.7285C161.288 68.2921 162.442 70.1855 162.508 75.3182L175.644 75.1546ZM170.099 58.5473C166.08 54.2372 160.475 52.7188 154.634 52.7915L154.801 65.9281C158.395 65.8834 159.842 66.8091 160.491 67.505L170.099 58.5473ZM154.634 52.7915C147.53 52.88 140.782 54.1783 136.221 58.2716L144.998 68.0502C145.899 67.2416 148.556 66.0059 154.801 65.9281L154.634 52.7915ZM136.119 58.3654C131.504 62.6863 130.145 69.1427 130.229 75.7201L143.366 75.5565C143.3 70.3964 144.482 68.5345 145.1 67.9563L136.119 58.3654ZM130.229 75.7201C130.274 79.234 130.252 81.9832 130.171 84.0074L143.299 84.5345C143.392 82.1831 143.412 79.1772 143.366 75.5565L130.229 75.7201ZM130.167 84.3528C130.19 86.1927 130.106 87.715 129.946 88.9509L142.974 90.6468C143.233 88.6548 143.333 86.4919 143.303 84.1892L130.167 84.3528ZM129.902 89.4124C129.825 90.7399 129.65 92.2184 129.364 93.8557L142.307 96.1158C142.665 94.0621 142.906 92.0826 143.018 90.1852L129.902 89.4124ZM137.732 149.007L155.857 148.781L155.689 135.645L137.565 135.87L137.732 149.007ZM155.857 148.781C163.075 148.691 170.028 147.434 174.544 143.205L165.563 133.614C164.847 134.285 162.28 135.563 155.689 135.645L155.857 148.781ZM174.442 143.299C179.116 139.105 180.698 133.04 180.617 126.711L167.48 126.875C167.535 131.133 166.453 132.813 165.665 133.52L174.442 143.299ZM180.617 126.711C180.515 118.698 178.938 111.344 174.373 106.359L164.685 115.23C165.955 116.617 167.392 119.929 167.48 126.875L180.617 126.711ZM174.462 106.457C169.816 101.174 162.73 99.4756 155.23 99.569L155.397 112.706C161.245 112.633 163.636 114.039 164.596 115.131L174.462 106.457ZM155.23 99.569C150.06 99.6334 145.267 100.365 141.381 102.283L147.2 114.064C148.575 113.385 151.13 112.759 155.397 112.706L155.23 99.569ZM141.595 102.183C137.113 104.198 134.126 107.825 132.612 112.385L145.08 116.528C145.561 115.078 146.203 114.517 146.986 114.165L141.595 102.183ZM132.612 112.385C131.273 116.416 130.813 121.536 130.887 127.331L144.023 127.167C143.957 121.915 144.423 118.506 145.08 116.528L132.612 112.385ZM130.887 127.331L131.08 142.52L144.217 142.357L144.023 127.167L130.887 127.331ZM221.328 159.869L217.29 165.049L217.371 165.112L217.454 165.173L221.328 159.869ZM226.982 48.1017L231.399 52.9656L231.404 52.961L226.982 48.1017ZM288.43 47.1639L283.931 51.9489L283.974 51.9897L284.018 52.0298L288.43 47.1639ZM298.412 85.3653L304.972 85.6934L304.973 85.681L298.412 85.3653ZM297.475 93.1457L291.172 91.2922L291.143 91.3938L291.116 91.4963L297.475 93.1457ZM288.166 107.763L284.243 102.493L277.469 107.536L284.025 112.861L288.166 107.763ZM276.913 159.522L272.876 164.702L272.957 164.765L273.039 164.826L276.913 159.522ZM269.966 115.586L264.703 119.515L264.76 119.592L264.82 119.667L269.966 115.586ZM245.632 116.234L240.634 111.97L240.627 111.978L240.621 111.986L245.632 116.234ZM240.566 97.9976L234.1 96.8375L230.837 115.053L244.855 102.974L240.566 97.9976ZM248.101 93.2426L250.159 99.4814L250.255 99.4497L250.35 99.4151L248.101 93.2426ZM270.515 90.8918L269.093 84.4783L269.065 84.4844L269.037 84.4908L270.515 90.8918ZM273.086 62.3745L267.858 66.3499L267.941 66.4593L268.029 66.5652L273.086 62.3745ZM245.986 62.7119L241.11 58.3094L241.065 58.3589L241.021 58.4093L245.986 62.7119ZM241.662 89.1794L235.127 88.5078L235.116 88.6223L235.108 88.7372L241.662 89.1794ZM230.598 155.774C227.603 155.811 226.028 155.169 225.202 154.565L217.454 165.173C221.275 167.964 225.937 168.971 230.766 168.91L230.598 155.774ZM225.366 154.689C224.836 154.276 224.366 153.703 224.345 152.063L211.209 152.226C211.273 157.26 213.17 161.837 217.29 165.049L225.366 154.689ZM224.345 152.063L223.395 77.4948L210.259 77.6584L211.209 152.226L224.345 152.063ZM223.395 77.4948C223.239 65.2073 226.36 57.5402 231.399 52.9656L222.566 43.2378C213.724 51.266 210.075 63.2488 210.259 77.6584L223.395 77.4948ZM231.404 52.961C236.746 48.1003 245.904 44.9403 260.259 44.7616L260.092 31.625C244.297 31.8216 231.326 35.2673 222.561 43.2424L231.404 52.961ZM260.259 44.7616C271.52 44.6214 279.05 47.3598 283.931 51.9489L292.929 42.379C284.763 34.7006 273.457 31.4586 260.092 31.625L260.259 44.7616ZM284.018 52.0298C288.93 56.4828 291.907 63.3346 292.039 73.7053L305.176 73.5417C305.012 60.6674 301.203 49.8795 292.841 42.298L284.018 52.0298ZM292.039 73.7053C292.089 77.608 292.025 81.3891 291.85 85.0496L304.973 85.681C305.161 81.7409 305.228 77.6941 305.176 73.5417L292.039 73.7053ZM291.851 85.0372C291.668 88.7126 291.373 90.6104 291.172 91.2922L303.777 94.9991C304.459 92.6776 304.789 89.3884 304.972 85.6934L291.851 85.0372ZM291.116 91.4963C289.785 96.6318 287.422 100.127 284.243 102.493L292.089 113.033C298.031 108.61 301.873 102.361 303.834 94.795L291.116 91.4963ZM284.025 112.861C289.112 116.993 291.091 121.218 291.147 125.68L304.284 125.517C304.168 116.4 299.78 108.735 292.307 102.665L284.025 112.861ZM291.147 125.68L291.473 151.227L304.61 151.063L304.284 125.517L291.147 125.68ZM291.473 151.227C291.503 153.589 290.886 154.219 290.714 154.377C290.409 154.658 289.304 155.388 286.184 155.427L286.351 168.564C291.171 168.504 295.998 167.376 299.618 164.04C303.371 160.582 304.67 155.835 304.61 151.063L291.473 151.227ZM286.184 155.427C283.188 155.464 281.613 154.822 280.787 154.218L273.039 164.826C276.86 167.617 281.522 168.624 286.351 168.564L286.184 155.427ZM280.951 154.342C280.534 154.017 279.952 153.408 279.926 151.371L266.79 151.534C266.854 156.632 268.643 161.403 272.876 164.702L280.951 154.342ZM279.926 151.371L279.636 128.586L266.499 128.75L266.79 151.534L279.926 151.371ZM279.636 128.586C279.553 122.085 278.529 115.814 275.112 111.505L264.82 119.667C265.38 120.373 266.424 122.823 266.499 128.75L279.636 128.586ZM275.229 111.656C271.351 106.464 264.621 105.285 258.442 105.362L258.609 118.499C261.061 118.468 262.693 118.725 263.703 119.048C264.67 119.356 264.788 119.629 264.703 119.515L275.229 111.656ZM258.442 105.362C251.592 105.447 244.876 106.998 240.634 111.97L250.63 120.498C251.152 119.887 253.03 118.568 258.609 118.499L258.442 105.362ZM240.621 111.986C236.684 116.63 235.706 123.785 235.801 131.203L248.937 131.04C248.847 123.959 250.045 121.189 250.644 120.482L240.621 111.986ZM235.801 131.203L236.065 151.917L249.201 151.753L248.937 131.04L235.801 131.203ZM236.065 151.917C236.092 154.069 235.518 154.579 235.373 154.706C235.037 155.002 233.84 155.733 230.598 155.774L230.766 168.91C235.579 168.85 240.402 167.78 244.049 164.574C247.888 161.199 249.262 156.505 249.201 151.753L236.065 151.917ZM244.855 102.974C247.412 100.771 249.16 99.8108 250.159 99.4814L246.044 87.0038C242.688 88.1096 239.412 90.3196 236.277 93.0208L244.855 102.974ZM250.35 99.4151C251.614 98.9548 254.024 98.5297 258.009 98.4801L257.841 85.3435C253.31 85.3999 249.171 85.8619 245.853 87.07L250.35 99.4151ZM258.009 98.4801C263.83 98.4076 268.623 98.0692 271.992 97.2928L269.037 84.4908C267.127 84.9311 263.527 85.2727 257.841 85.3435L258.009 98.4801ZM271.936 97.3054C275.866 96.4353 279.957 94.2869 281.87 89.7581L269.768 84.6426C269.82 84.5192 269.896 84.3933 269.987 84.2835C270.075 84.1763 270.144 84.1258 270.153 84.1195C270.158 84.116 270.092 84.1627 269.918 84.2336C269.743 84.305 269.475 84.3936 269.093 84.4783L271.936 97.3054ZM281.87 89.7581C283.201 86.6082 283.538 82.5954 283.486 78.473L270.349 78.6366C270.396 82.3392 270.002 84.0901 269.768 84.6426L281.87 89.7581ZM283.486 78.473C283.384 70.4458 282.145 63.0127 278.143 58.1838L268.029 66.5652C268.936 67.66 270.252 71.0137 270.349 78.6366L283.486 78.473ZM278.314 58.3991C274.122 52.8862 267.3 51.216 260.342 51.3026L260.51 64.4392C265.75 64.374 267.368 65.7061 267.858 66.3499L278.314 58.3991ZM260.342 51.3026C252.797 51.3966 245.743 53.1765 241.11 58.3094L250.862 67.1145C251.903 65.9618 254.476 64.5144 260.51 64.4392L260.342 51.3026ZM241.021 58.4093C236.655 63.4476 235.379 70.9699 235.482 79.0707L248.618 78.9072C248.525 71.5881 249.872 68.259 250.951 67.0146L241.021 58.4093ZM235.482 79.0707C235.528 82.6781 235.403 85.8164 235.127 88.5078L248.197 89.8511C248.535 86.55 248.669 82.8946 248.618 78.9072L235.482 79.0707ZM235.108 88.7372C234.931 91.3633 234.597 94.0628 234.1 96.8375L247.032 99.1577C247.609 95.9342 248.006 92.755 248.216 89.6217L235.108 88.7372ZM324.153 158.589L328.344 153.531L328.344 153.531L324.153 158.589ZM328.953 47.5225L333.775 51.985L333.775 51.985L328.953 47.5225ZM380.252 157.89L384.442 152.832L384.442 152.832L380.252 157.89ZM376.16 107.703L382.728 107.622L382.541 92.931L371.718 102.863L376.16 107.703ZM368.974 112.799L365.861 107.014L365.808 107.043L365.755 107.072L368.974 112.799ZM348.667 117.886L344.736 112.622L344.678 112.666L344.62 112.711L348.667 117.886ZM343.767 99.1295L337.296 97.9994L333.649 118.916L348.471 103.716L343.767 99.1295ZM350.271 94.7326L347.8 88.6457L347.753 88.6646L347.707 88.6843L350.271 94.7326ZM369.743 91.9005L367.858 85.6074L367.817 85.6198L367.776 85.6327L369.743 91.9005ZM374.699 87.8682L380.677 90.5909L380.677 90.5909L374.699 87.8682ZM372.123 61.8319L366.918 65.8383L366.953 65.8839L366.989 65.929L372.123 61.8319ZM347.269 62.314L341.729 58.7828L341.713 58.8068L341.698 58.8309L347.269 62.314ZM344.363 91.6987L350.93 91.86L350.93 91.86L344.363 91.6987ZM338.879 149.773C338.914 152.541 338.217 153.437 337.935 153.714C337.599 154.044 336.513 154.8 333.428 154.839L333.595 167.975C338.565 167.913 343.496 166.667 347.139 163.091C350.835 159.464 352.078 154.552 352.015 149.61L338.879 149.773ZM333.428 154.839C330.605 154.874 329.152 154.201 328.344 153.531L319.963 163.646C323.808 166.832 328.593 168.038 333.595 167.975L333.428 154.839ZM328.344 153.531C327.87 153.139 327.19 152.326 327.159 149.919L314.023 150.083C314.089 155.271 315.784 160.183 319.963 163.646L328.344 153.531ZM327.159 149.919L326.288 81.5654L313.152 81.729L314.023 150.083L327.159 149.919ZM326.288 81.5654C326.094 66.2768 329.132 57.0016 333.775 51.985L324.131 43.0601C316.059 51.7826 312.942 65.2573 313.152 81.729L326.288 81.5654ZM333.775 51.985C338.437 46.9476 346.383 43.6892 359.114 43.5307L358.947 30.3941C344.29 30.5765 332.185 34.3583 324.131 43.0601L333.775 51.985ZM359.114 43.5307C372.198 43.3677 380.541 46.4855 385.568 51.556L394.897 42.3082C386.399 33.7361 373.941 30.2073 358.947 30.3941L359.114 43.5307ZM385.568 51.556C390.566 56.5979 393.916 65.7553 394.107 80.721L407.243 80.5574C407.035 64.2229 403.423 50.909 394.897 42.3082L385.568 51.556ZM394.107 80.721L394.978 149.075L408.114 148.911L407.243 80.5574L394.107 80.721ZM394.978 149.075C395.013 151.842 394.316 152.739 394.034 153.016C393.698 153.345 392.612 154.102 389.527 154.14L389.694 167.277C394.664 167.215 399.595 165.969 403.238 162.393C406.934 158.765 408.177 153.854 408.114 148.911L394.978 149.075ZM389.527 154.14C386.704 154.175 385.251 153.502 384.442 152.832L376.062 162.948C379.906 166.133 384.692 167.339 389.694 167.277L389.527 154.14ZM384.442 152.832C383.969 152.44 383.289 151.628 383.258 149.221L370.121 149.384C370.188 154.572 371.883 159.485 376.062 162.948L384.442 152.832ZM383.258 149.221L382.728 107.622L369.591 107.785L370.121 149.384L383.258 149.221ZM371.718 102.863C369.965 104.471 368.018 105.854 365.861 107.014L372.086 118.585C375.188 116.917 378.031 114.903 380.602 112.544L371.718 102.863ZM365.755 107.072C364.371 107.85 362.51 108.382 359.941 108.414L360.108 121.551C364.443 121.497 368.548 120.574 372.193 118.526L365.755 107.072ZM359.941 108.414C354.277 108.485 348.855 109.547 344.736 112.622L352.598 123.15C353.496 122.479 355.646 121.606 360.108 121.551L359.941 108.414ZM344.62 112.711C339.88 116.418 338.528 122.239 338.6 127.852L351.736 127.688C351.687 123.865 352.669 123.097 352.715 123.061L344.62 112.711ZM338.6 127.852L338.879 149.773L352.015 149.61L351.736 127.688L338.6 127.852ZM348.471 103.716C349.649 102.508 351.079 101.525 352.836 100.781L347.707 88.6843C344.427 90.0743 341.521 92.023 339.063 94.5429L348.471 103.716ZM352.743 100.819C354.43 100.135 356.735 99.6677 359.829 99.6292L359.661 86.4926C355.391 86.5457 351.38 87.193 347.8 88.6457L352.743 100.819ZM359.829 99.6292C364.409 99.5721 368.501 99.1753 371.711 98.1683L367.776 85.6327C366.401 86.064 363.827 86.4407 359.661 86.4926L359.829 99.6292ZM371.628 98.1936C375.526 97.0272 378.866 94.5712 380.677 90.5909L368.72 85.1454C368.696 85.1975 368.681 85.2177 368.678 85.2212C368.675 85.2244 368.667 85.2353 368.641 85.2566C368.592 85.2963 368.383 85.4504 367.858 85.6074L371.628 98.1936ZM380.677 90.5909C382.17 87.3117 382.591 83.2782 382.538 79.1386L369.401 79.3022C369.445 82.7575 369.018 84.4892 368.72 85.1454L380.677 90.5909ZM382.538 79.1386C382.48 74.6077 382.11 70.5501 381.34 67.0695C380.583 63.646 379.346 60.3537 377.256 57.7348L366.989 65.929C367.355 66.387 367.988 67.5311 368.513 69.9038C369.025 72.2195 369.35 75.3176 369.401 79.3022L382.538 79.1386ZM377.327 57.8255C373.041 52.259 366.163 50.5029 359.031 50.5917L359.199 63.7283C364.495 63.6623 366.289 65.0208 366.918 65.8383L377.327 57.8255ZM359.031 50.5917C352.12 50.6777 345.536 52.8072 341.729 58.7828L352.809 65.8452C353.289 65.092 354.603 63.7855 359.199 63.7283L359.031 50.5917ZM341.698 58.8309C340.025 61.5079 339.086 64.7922 338.54 68.2079C337.981 71.6993 337.763 75.7862 337.822 80.386L350.959 80.2224C350.906 76.0766 351.112 72.7923 351.513 70.287C351.926 67.7059 352.482 66.3679 352.839 65.7971L341.698 58.8309ZM337.822 80.386C337.879 84.8249 337.869 88.5366 337.796 91.5373L350.93 91.86C351.008 88.6438 351.017 84.7592 350.959 80.2224L337.822 80.386ZM337.796 91.5373C337.724 94.5027 337.537 96.6137 337.296 97.9994L350.238 100.26C350.64 97.9544 350.851 95.1114 350.93 91.86L337.796 91.5373ZM426.489 38.8846L421.927 34.1576L421.927 34.1576L426.489 38.8846ZM446.987 157.232L451.691 161.818L451.691 161.818L446.987 157.232ZM437.79 153.539C434.393 153.581 433.061 152.815 432.604 152.412C432.272 152.119 431.556 151.285 431.522 148.62L418.385 148.783C418.45 153.828 419.936 158.75 423.911 162.259C427.761 165.658 432.84 166.739 437.958 166.676L437.79 153.539ZM431.522 148.62L430.235 47.6425L417.099 47.8061L418.385 148.783L431.522 148.62ZM430.235 47.6425C430.196 44.5238 430.953 43.7065 431.052 43.6116L421.927 34.1576C418.159 37.7937 417.036 42.8695 417.099 47.8061L430.235 47.6425ZM431.052 43.6116C431.243 43.4267 432.337 42.6189 435.859 42.5751L435.691 29.4384C430.698 29.5006 425.601 30.6114 421.927 34.1576L431.052 43.6116ZM435.859 42.5751C439.179 42.5337 440.455 43.2918 440.883 43.6747C441.203 43.9611 441.92 44.8058 441.955 47.4966L455.091 47.333C455.027 42.3138 453.571 37.4022 449.642 33.8859C445.821 30.4661 440.771 29.3752 435.691 29.4384L435.859 42.5751ZM441.955 47.4966L443.241 148.474L456.378 148.31L455.091 47.333L441.955 47.4966ZM443.241 148.474C443.278 151.374 442.57 152.351 442.284 152.645L451.691 161.818C455.267 158.151 456.441 153.235 456.378 148.31L443.241 148.474ZM442.284 152.645C442.26 152.669 441.361 153.495 437.79 153.539L437.958 166.676C442.903 166.614 448.079 165.523 451.691 161.818L442.284 152.645ZM477.042 156.685L481.233 151.627L481.233 151.627L477.042 156.685ZM476.601 54.3159L482.633 56.9188L482.642 56.8991L482.65 56.8793L476.601 54.3159ZM490.573 39.813L487.771 33.871L487.771 33.871L490.573 39.813ZM549.679 44.7741L545.288 49.6588L545.328 49.6945L545.368 49.7294L549.679 44.7741ZM540.909 155.89L545.099 150.832L545.099 150.832L540.909 155.89ZM531.763 61.3978L526.639 65.506L526.71 65.5949L526.785 65.6813L531.763 61.3978ZM504.624 58.6282L501.341 52.9373L501.341 52.9373L504.624 58.6282ZM498.852 66.2962L505.167 68.1053L505.167 68.1052L498.852 66.2962ZM491.768 147.87C491.803 150.637 491.107 151.533 490.824 151.811C490.488 152.14 489.402 152.896 486.317 152.935L486.485 166.072C491.454 166.01 496.385 164.763 500.028 161.188C503.724 157.56 504.968 152.649 504.905 147.706L491.768 147.87ZM486.317 152.935C483.494 152.97 482.041 152.297 481.233 151.627L472.852 161.743C476.697 164.928 481.483 166.134 486.485 166.072L486.317 152.935ZM481.233 151.627C480.759 151.235 480.079 150.423 480.049 148.016L466.912 148.179C466.978 153.367 468.673 158.28 472.852 161.743L481.233 151.627ZM480.049 148.016L479.184 80.1795L466.048 80.3431L466.912 148.179L480.049 148.016ZM479.184 80.1795C479.053 69.8422 480.346 62.2221 482.633 56.9188L470.569 51.7131C467.267 59.3697 465.904 69.0465 466.048 80.3431L479.184 80.1795ZM482.65 56.8793C484.809 51.7822 488.304 48.145 493.375 45.755L487.771 33.871C479.799 37.6282 473.98 43.6596 470.553 51.7526L482.65 56.8793ZM493.375 45.755C498.721 43.2352 506.405 41.6966 516.836 41.5667L516.669 28.4301C505.237 28.5725 495.467 30.2436 487.771 33.871L493.375 45.755ZM516.836 41.5667C530.417 41.3976 539.517 44.4712 545.288 49.6588L554.069 39.8894C544.938 31.6816 532.087 28.2381 516.669 28.4301L516.836 41.5667ZM545.368 49.7294C550.84 54.4899 554.571 63.6236 554.77 79.2383L567.907 79.0748C567.689 62.0086 563.647 48.2206 553.989 39.8188L545.368 49.7294ZM554.77 79.2383L555.634 147.074L568.771 146.911L567.907 79.0748L554.77 79.2383ZM555.634 147.074C555.669 149.842 554.973 150.738 554.69 151.015C554.355 151.345 553.269 152.101 550.183 152.14L550.351 165.276C555.321 165.214 560.252 163.968 563.895 160.392C567.59 156.765 568.834 151.853 568.771 146.911L555.634 147.074ZM550.183 152.14C547.36 152.175 545.907 151.502 545.099 150.832L536.719 160.947C540.563 164.133 545.349 165.339 550.351 165.276L550.183 152.14ZM545.099 150.832C544.625 150.44 543.946 149.627 543.915 147.22L530.778 147.384C530.844 152.572 532.539 157.484 536.719 160.947L545.099 150.832ZM543.915 147.22L543.05 79.3843L529.914 79.5478L530.778 147.384L543.915 147.22ZM543.05 79.3843C542.937 70.4574 541.337 62.4544 536.742 57.1143L526.785 65.6813C528.264 67.4013 529.811 71.4437 529.914 79.5478L543.05 79.3843ZM536.888 57.2896C532.183 51.422 524.864 49.3899 516.937 49.4886L517.105 62.6252C522.987 62.552 525.496 64.0805 526.639 65.506L536.888 57.2896ZM516.937 49.4886C511.046 49.562 505.606 50.4783 501.341 52.9373L507.906 64.3192C509.354 63.4845 512.179 62.6866 517.105 62.6252L516.937 49.4886ZM501.341 52.9373C496.865 55.5185 493.949 59.5505 492.536 64.4872L505.167 68.1052C505.738 66.1117 506.67 65.0317 507.906 64.3192L501.341 52.9373ZM492.536 64.4871C491.299 68.8114 490.828 74.0729 490.904 80.0336L504.04 79.87C503.973 74.5534 504.421 70.7112 505.167 68.1053L492.536 64.4871ZM490.904 80.0336L491.768 147.87L504.905 147.706L504.04 79.87L490.904 80.0336Z" fill="black" mask="url(#path-1-outside-1_44_595)"/>
</svg>
