<svg width="570" height="201" viewBox="0 0 570 201" fill="none" xmlns="http://www.w3.org/2000/svg">
<mask id="path-1-outside-1_266_6974" maskUnits="userSpaceOnUse" x="28.9088" y="14.9975" width="512.196" height="172.004" fill="black">
<rect fill="white" x="28.9088" y="14.9975" width="512.196" height="172.004"/>
<path d="M86.3232 165.938C86.3804 170.196 85.6765 173.484 84.2115 175.803C82.8631 178.236 80.8655 179.468 78.2188 179.499C72.5801 179.566 69.712 175.974 69.6146 168.725L69.5635 164.927C65.3042 164.862 60.8684 164.512 56.2561 163.876C51.7604 163.353 48.124 162.533 45.3467 161.415C40.4872 159.516 38.0266 156.265 37.9647 151.662C37.9198 148.325 38.8624 145.667 40.7924 143.687C42.8359 141.592 46.0441 140.518 50.4169 140.466C53.4089 140.431 57.0392 140.791 61.3078 141.546C65.5764 142.301 69.3217 142.66 72.5438 142.622C79.6785 142.538 84.787 141.557 87.8692 139.679C90.9515 137.801 92.4548 134.043 92.379 128.404C92.3341 125.067 91.0879 122.262 88.6404 119.989C86.308 117.715 81.618 115.584 74.5706 113.595C61.7462 109.948 52.4192 105.34 46.5897 99.7691C40.8752 94.1971 37.9576 86.9233 37.8369 77.9476C37.7039 68.0513 40.3582 60.0212 45.7998 53.8571C51.355 47.5767 58.724 43.519 67.9068 41.6843L67.9021 41.3391C67.7784 32.1333 70.5358 27.4971 76.1745 27.4305C81.6981 27.3653 84.5203 31.8206 84.6409 40.7963C91.323 41.2928 96.9779 42.4346 101.606 44.2214C106.464 46.0055 108.924 49.2566 108.988 53.9746C109.033 57.3117 108.033 60.0281 105.99 62.1239C104.06 64.1032 100.908 65.1187 96.5355 65.1703C93.6586 65.2042 90.5477 64.9532 87.2028 64.4172C83.8563 63.7662 80.572 63.4597 77.3499 63.4977C72.4017 63.5561 68.6734 64.4633 66.1649 66.2193C63.6565 67.9752 62.4293 70.867 62.4834 74.8945C62.5329 78.5769 64.3615 81.8929 67.969 84.8427C71.5766 87.7925 78.1753 90.6494 87.7652 93.4135C98.7407 96.5066 106.337 100.79 110.554 106.265C114.769 111.624 116.933 118.504 117.046 126.905C117.179 136.801 114.583 144.83 109.256 150.993C103.93 157.156 96.2736 161.274 86.2884 163.349L86.3232 165.938ZM150.979 163.966C142.463 164.067 138.154 160.262 138.05 152.552L136.693 51.5759C136.638 47.5484 137.577 44.6025 139.509 42.7382C141.44 40.874 144.535 39.9167 148.793 39.8665C157.193 39.7673 161.445 43.5727 161.549 51.2826L161.781 68.5435C161.973 82.8125 161.684 91.3327 160.916 94.1039C163.868 91.0767 167.062 88.9674 170.499 87.7759C173.935 86.5844 178.473 85.9554 184.112 85.8889L201.028 85.6892L200.559 50.8222C200.505 46.7946 201.444 43.8487 203.375 41.9845C205.307 40.1202 208.401 39.163 212.659 39.1127C221.06 39.0136 225.312 42.8189 225.415 50.5288L226.773 151.505C226.825 155.418 225.887 158.364 223.957 160.343C222.14 162.206 219.103 163.162 214.845 163.213C206.33 163.313 202.02 159.508 201.917 151.799L201.23 100.706C200.567 102.786 198.346 104.538 194.568 105.964C190.787 107.275 186.365 107.96 181.302 108.02C174.052 108.105 169.066 109.66 166.345 112.685C163.737 115.593 162.485 120.959 162.591 128.784L162.906 152.259C162.959 156.171 162.02 159.117 160.09 161.097C158.274 162.96 155.237 163.916 150.979 163.966ZM258.557 161.316C256.371 161.341 254.518 160.5 252.999 158.792C251.48 157.083 250.702 154.906 250.667 152.259L249.581 71.4779C249.435 60.6611 252.667 52.7967 259.277 47.8849C265.885 42.858 276.611 40.257 291.456 40.0818L313.032 39.8271C316.83 39.7823 319.778 40.7833 321.877 42.8302C324.09 44.7606 325.221 47.567 325.271 51.2493C325.318 54.8166 324.262 57.5912 322.102 59.5733C320.057 61.5539 317.136 62.5667 313.338 62.6115L290.554 62.8804C284.8 62.9483 280.673 64.148 278.172 66.4793C275.671 68.8106 274.456 72.5654 274.525 77.7437C274.55 79.5849 274.466 81.8877 274.273 84.6522C274.078 87.3015 273.774 90.355 273.36 93.8127C275.295 92.1786 277.752 90.8836 280.731 89.9277C283.709 88.8567 286.637 88.3042 289.514 88.2703L306.602 88.0686C309.825 88.0306 312.312 88.9795 314.064 90.9154C315.932 92.8499 316.889 95.5432 316.935 98.9954C316.981 102.448 316.098 105.22 314.285 107.313C312.471 109.406 310.011 110.471 306.904 110.508L288.434 110.726C283.141 110.788 279.588 111.924 277.777 114.132C275.963 116.225 275.1 120.493 275.187 126.937L275.34 138.33L314.35 137.869C318.608 137.819 321.67 138.703 323.536 140.523C325.517 142.341 326.535 145.321 326.591 149.464C326.643 153.376 325.761 156.207 323.943 157.954C322.125 159.702 319.029 160.602 314.656 160.654L258.557 161.316ZM367.864 149.84C367.967 157.55 363.991 161.452 355.936 161.547C352.024 161.594 348.903 160.652 346.576 158.723C344.248 156.794 343.058 153.931 343.007 150.133L342.088 81.7801C341.875 65.9001 344.945 54.5274 351.298 47.662C357.651 40.7967 367.674 37.2832 381.368 37.1216C395.407 36.9559 405.81 40.2858 412.578 47.1114C419.345 53.937 422.833 65.1748 423.044 80.8247L423.963 149.178C424.066 156.888 420.091 160.79 412.035 160.885C408.123 160.932 405.003 159.99 402.675 158.061C400.347 156.132 399.158 153.269 399.107 149.471L398.547 107.872C396.387 109.855 393.993 111.552 391.365 112.964C388.852 114.374 385.869 115.1 382.417 115.141C377.354 115.201 373.568 116.166 371.062 118.037C368.67 119.907 367.505 123.201 367.569 127.919L367.864 149.84ZM366.148 99.2777C367.964 97.4148 370.132 95.9506 372.649 94.8851C375.282 93.8182 378.44 93.263 382.122 93.2196C386.495 93.168 389.828 92.7834 392.12 92.0658C394.527 91.3468 396.178 90.0038 397.072 88.0367C397.966 86.0696 398.388 83.1873 398.337 79.3899C398.223 70.8745 396.936 65.0776 394.478 61.9992C392.018 58.8056 387.681 57.2456 381.467 57.3189C375.713 57.3868 371.765 59.1022 369.624 62.4651C367.596 65.7116 366.641 71.7076 366.758 80.4532C366.819 84.941 366.812 88.7391 366.739 91.8474C366.665 94.9557 366.469 97.4325 366.148 99.2777ZM455.09 158.996C452.904 159.022 450.994 158.239 449.362 156.647C447.842 154.938 447.066 152.818 447.032 150.287L445.997 73.3031C445.836 61.3355 448.935 52.1492 455.294 45.7441C461.769 39.3377 471.162 36.0618 483.475 35.9165C515.696 35.5362 532.088 56.2318 532.649 98.0032C532.923 118.371 529.099 133.551 521.176 143.542C513.253 153.418 500.948 158.455 484.262 158.652L455.09 158.996ZM471.733 138.429L483.988 138.284C492.504 138.183 498.616 134.831 502.325 128.227C506.148 121.507 507.961 110.782 507.763 96.0526C507.574 82.0138 505.656 72.081 502.01 66.2544C498.478 60.3114 492.511 57.3894 484.11 57.4886C475.135 57.5945 470.691 60.927 470.779 67.4862L471.733 138.429Z"/>
</mask>
<path d="M86.3232 165.938C86.3804 170.196 85.6765 173.484 84.2115 175.803C82.8631 178.236 80.8655 179.468 78.2188 179.499C72.5801 179.566 69.712 175.974 69.6146 168.725L69.5635 164.927C65.3042 164.862 60.8684 164.512 56.2561 163.876C51.7604 163.353 48.124 162.533 45.3467 161.415C40.4872 159.516 38.0266 156.265 37.9647 151.662C37.9198 148.325 38.8624 145.667 40.7924 143.687C42.8359 141.592 46.0441 140.518 50.4169 140.466C53.4089 140.431 57.0392 140.791 61.3078 141.546C65.5764 142.301 69.3217 142.66 72.5438 142.622C79.6785 142.538 84.787 141.557 87.8692 139.679C90.9515 137.801 92.4548 134.043 92.379 128.404C92.3341 125.067 91.0879 122.262 88.6404 119.989C86.308 117.715 81.618 115.584 74.5706 113.595C61.7462 109.948 52.4192 105.34 46.5897 99.7691C40.8752 94.1971 37.9576 86.9233 37.8369 77.9476C37.7039 68.0513 40.3582 60.0212 45.7998 53.8571C51.355 47.5767 58.724 43.519 67.9068 41.6843L67.9021 41.3391C67.7784 32.1333 70.5358 27.4971 76.1745 27.4305C81.6981 27.3653 84.5203 31.8206 84.6409 40.7963C91.323 41.2928 96.9779 42.4346 101.606 44.2214C106.464 46.0055 108.924 49.2566 108.988 53.9746C109.033 57.3117 108.033 60.0281 105.99 62.1239C104.06 64.1032 100.908 65.1187 96.5355 65.1703C93.6586 65.2042 90.5477 64.9532 87.2028 64.4172C83.8563 63.7662 80.572 63.4597 77.3499 63.4977C72.4017 63.5561 68.6734 64.4633 66.1649 66.2193C63.6565 67.9752 62.4293 70.867 62.4834 74.8945C62.5329 78.5769 64.3615 81.8929 67.969 84.8427C71.5766 87.7925 78.1753 90.6494 87.7652 93.4135C98.7407 96.5066 106.337 100.79 110.554 106.265C114.769 111.624 116.933 118.504 117.046 126.905C117.179 136.801 114.583 144.83 109.256 150.993C103.93 157.156 96.2736 161.274 86.2884 163.349L86.3232 165.938ZM150.979 163.966C142.463 164.067 138.154 160.262 138.05 152.552L136.693 51.5759C136.638 47.5484 137.577 44.6025 139.509 42.7382C141.44 40.874 144.535 39.9167 148.793 39.8665C157.193 39.7673 161.445 43.5727 161.549 51.2826L161.781 68.5435C161.973 82.8125 161.684 91.3327 160.916 94.1039C163.868 91.0767 167.062 88.9674 170.499 87.7759C173.935 86.5844 178.473 85.9554 184.112 85.8889L201.028 85.6892L200.559 50.8222C200.505 46.7946 201.444 43.8487 203.375 41.9845C205.307 40.1202 208.401 39.163 212.659 39.1127C221.06 39.0136 225.312 42.8189 225.415 50.5288L226.773 151.505C226.825 155.418 225.887 158.364 223.957 160.343C222.14 162.206 219.103 163.162 214.845 163.213C206.33 163.313 202.02 159.508 201.917 151.799L201.23 100.706C200.567 102.786 198.346 104.538 194.568 105.964C190.787 107.275 186.365 107.96 181.302 108.02C174.052 108.105 169.066 109.66 166.345 112.685C163.737 115.593 162.485 120.959 162.591 128.784L162.906 152.259C162.959 156.171 162.02 159.117 160.09 161.097C158.274 162.96 155.237 163.916 150.979 163.966ZM258.557 161.316C256.371 161.341 254.518 160.5 252.999 158.792C251.48 157.083 250.702 154.906 250.667 152.259L249.581 71.4779C249.435 60.6611 252.667 52.7967 259.277 47.8849C265.885 42.858 276.611 40.257 291.456 40.0818L313.032 39.8271C316.83 39.7823 319.778 40.7833 321.877 42.8302C324.09 44.7606 325.221 47.567 325.271 51.2493C325.318 54.8166 324.262 57.5912 322.102 59.5733C320.057 61.5539 317.136 62.5667 313.338 62.6115L290.554 62.8804C284.8 62.9483 280.673 64.148 278.172 66.4793C275.671 68.8106 274.456 72.5654 274.525 77.7437C274.55 79.5849 274.466 81.8877 274.273 84.6522C274.078 87.3015 273.774 90.355 273.36 93.8127C275.295 92.1786 277.752 90.8836 280.731 89.9277C283.709 88.8567 286.637 88.3042 289.514 88.2703L306.602 88.0686C309.825 88.0306 312.312 88.9795 314.064 90.9154C315.932 92.8499 316.889 95.5432 316.935 98.9954C316.981 102.448 316.098 105.22 314.285 107.313C312.471 109.406 310.011 110.471 306.904 110.508L288.434 110.726C283.141 110.788 279.588 111.924 277.777 114.132C275.963 116.225 275.1 120.493 275.187 126.937L275.34 138.33L314.35 137.869C318.608 137.819 321.67 138.703 323.536 140.523C325.517 142.341 326.535 145.321 326.591 149.464C326.643 153.376 325.761 156.207 323.943 157.954C322.125 159.702 319.029 160.602 314.656 160.654L258.557 161.316ZM367.864 149.84C367.967 157.55 363.991 161.452 355.936 161.547C352.024 161.594 348.903 160.652 346.576 158.723C344.248 156.794 343.058 153.931 343.007 150.133L342.088 81.7801C341.875 65.9001 344.945 54.5274 351.298 47.662C357.651 40.7967 367.674 37.2832 381.368 37.1216C395.407 36.9559 405.81 40.2858 412.578 47.1114C419.345 53.937 422.833 65.1748 423.044 80.8247L423.963 149.178C424.066 156.888 420.091 160.79 412.035 160.885C408.123 160.932 405.003 159.99 402.675 158.061C400.347 156.132 399.158 153.269 399.107 149.471L398.547 107.872C396.387 109.855 393.993 111.552 391.365 112.964C388.852 114.374 385.869 115.1 382.417 115.141C377.354 115.201 373.568 116.166 371.062 118.037C368.67 119.907 367.505 123.201 367.569 127.919L367.864 149.84ZM366.148 99.2777C367.964 97.4148 370.132 95.9506 372.649 94.8851C375.282 93.8182 378.44 93.263 382.122 93.2196C386.495 93.168 389.828 92.7834 392.12 92.0658C394.527 91.3468 396.178 90.0038 397.072 88.0367C397.966 86.0696 398.388 83.1873 398.337 79.3899C398.223 70.8745 396.936 65.0776 394.478 61.9992C392.018 58.8056 387.681 57.2456 381.467 57.3189C375.713 57.3868 371.765 59.1022 369.624 62.4651C367.596 65.7116 366.641 71.7076 366.758 80.4532C366.819 84.941 366.812 88.7391 366.739 91.8474C366.665 94.9557 366.469 97.4325 366.148 99.2777ZM455.09 158.996C452.904 159.022 450.994 158.239 449.362 156.647C447.842 154.938 447.066 152.818 447.032 150.287L445.997 73.3031C445.836 61.3355 448.935 52.1492 455.294 45.7441C461.769 39.3377 471.162 36.0618 483.475 35.9165C515.696 35.5362 532.088 56.2318 532.649 98.0032C532.923 118.371 529.099 133.551 521.176 143.542C513.253 153.418 500.948 158.455 484.262 158.652L455.09 158.996ZM471.733 138.429L483.988 138.284C492.504 138.183 498.616 134.831 502.325 128.227C506.148 121.507 507.961 110.782 507.763 96.0526C507.574 82.0138 505.656 72.081 502.01 66.2544C498.478 60.3114 492.511 57.3894 484.11 57.4886C475.135 57.5945 470.691 60.927 470.779 67.4862L471.733 138.429Z" fill="#8D5B4F"/>
<path d="M84.2115 175.803L78.6562 172.289L78.5558 172.447L78.4647 172.612L84.2115 175.803ZM69.5635 164.927L76.1319 164.85L76.046 158.457L69.6527 158.359L69.5635 164.927ZM56.2561 163.876L57.1431 157.369L57.0736 157.359L57.0038 157.351L56.2561 163.876ZM45.3467 161.415L47.7915 155.322L47.7604 155.31L47.7292 155.298L45.3467 161.415ZM61.3078 141.546L62.442 135.078L62.442 135.078L61.3078 141.546ZM87.8692 139.679L91.2938 145.29L91.2938 145.29L87.8692 139.679ZM88.6404 119.989L84.0583 124.689L84.1157 124.744L84.1744 124.799L88.6404 119.989ZM74.5706 113.595L72.7834 119.913L72.7963 119.917L74.5706 113.595ZM46.5897 99.7691L42.0075 104.468L42.0313 104.492L42.0553 104.515L46.5897 99.7691ZM45.7998 53.8571L40.8762 49.5008L40.872 49.5055L45.7998 53.8571ZM67.9068 41.6843L69.204 48.1258L74.5484 47.0579L74.4751 41.6068L67.9068 41.6843ZM84.6409 40.7963L78.0725 40.8738L78.1536 46.9002L84.1647 47.3469L84.6409 40.7963ZM101.606 44.2214L99.2482 50.3487L99.2989 50.3682L99.3499 50.387L101.606 44.2214ZM105.99 62.1239L110.697 66.7135L110.697 66.7135L105.99 62.1239ZM87.2028 64.4172L85.9584 70.865L86.0658 70.8858L86.1738 70.9032L87.2028 64.4172ZM66.1649 66.2193L69.9381 71.6025L69.9381 71.6024L66.1649 66.2193ZM67.969 84.8427L72.1223 79.7604L72.1223 79.7604L67.969 84.8427ZM87.7652 93.4135L85.9554 99.725L85.9742 99.7305L85.9929 99.7357L87.7652 93.4135ZM110.554 106.265L105.352 110.268L105.372 110.294L105.393 110.321L110.554 106.265ZM109.256 150.993L114.229 155.293L114.229 155.293L109.256 150.993ZM86.2884 163.349L84.9421 156.917L79.6473 158.017L79.72 163.426L86.2884 163.349ZM79.7548 166.015C79.8037 169.649 79.165 171.483 78.6562 172.289L89.7668 179.318C92.1881 175.485 92.9572 170.742 92.8916 165.86L79.7548 166.015ZM78.4647 172.612C78.3462 172.826 78.2587 172.931 78.2239 172.969C78.1925 173.004 78.1993 172.989 78.2469 172.959C78.2958 172.929 78.3375 172.915 78.3482 172.912C78.3544 172.91 78.2906 172.929 78.1305 172.931L78.3071 186.067C83.4568 186.007 87.5404 183.357 89.9583 178.995L78.4647 172.612ZM78.1305 172.931C77.415 172.939 77.0934 172.828 77.0155 172.796C76.9774 172.78 76.9908 172.789 76.9693 172.762C76.8417 172.602 76.2227 171.602 76.1829 168.647L63.0462 168.802C63.1039 173.097 63.9677 177.517 66.7082 180.949C69.6968 184.692 73.9728 186.119 78.3071 186.067L78.1305 172.931ZM76.1829 168.647L76.1319 164.85L62.9951 165.005L63.0462 168.802L76.1829 168.647ZM69.6527 158.359C65.6835 158.299 61.515 157.972 57.1431 157.369L55.3691 170.383C60.2218 171.052 64.9249 171.426 69.4743 171.495L69.6527 158.359ZM57.0038 157.351C52.8253 156.866 49.8229 156.14 47.7915 155.322L42.9019 167.508C46.4251 168.926 50.6956 169.841 55.5084 170.401L57.0038 157.351ZM47.7292 155.298C46.119 154.668 45.4099 154.014 45.0921 153.594C44.8169 153.23 44.5477 152.674 44.5331 151.584L31.3963 151.739C31.4435 155.253 32.4356 158.624 34.6211 161.511C36.764 164.342 39.7149 166.263 42.9641 167.533L47.7292 155.298ZM44.5331 151.584C44.5065 149.605 45.0285 148.76 45.4993 148.277L36.0854 139.098C32.6962 142.573 31.3332 147.044 31.3963 151.739L44.5331 151.584ZM45.4993 148.277C45.8412 147.926 47.0244 147.076 50.5052 147.034L50.3286 133.898C45.0637 133.96 39.8306 135.257 36.0854 139.098L45.4993 148.277ZM50.5052 147.034C52.9503 147.006 56.1461 147.302 60.1735 148.014L62.442 135.078C57.9322 134.28 53.8674 133.856 50.3286 133.898L50.5052 147.034ZM60.1735 148.014C64.7174 148.818 68.888 149.234 72.6321 149.19L72.4555 136.054C69.7555 136.086 66.4353 135.785 62.442 135.078L60.1735 148.014ZM72.6321 149.19C79.9996 149.103 86.6259 148.134 91.2938 145.29L84.4447 134.068C82.9481 134.98 79.3574 135.972 72.4555 136.054L72.6321 149.19ZM91.2938 145.29C97.3056 141.627 99.0357 134.9 98.9473 128.327L85.8106 128.482C85.8738 133.186 84.5974 133.975 84.4447 134.068L91.2938 145.29ZM98.9473 128.327C98.8783 123.192 96.8723 118.677 93.1064 115.179L84.1744 124.799C85.3035 125.848 85.7899 126.942 85.8106 128.482L98.9473 128.327ZM93.2225 115.29C89.5943 111.752 83.439 109.275 76.3449 107.273L72.7963 119.917C79.797 121.892 83.0216 123.678 84.0583 124.689L93.2225 115.29ZM76.3577 107.277C63.968 103.754 55.8298 99.5206 51.124 95.0238L42.0553 104.515C49.0086 111.159 59.5244 116.143 72.7834 119.913L76.3577 107.277ZM51.1718 95.0699C46.867 90.8724 44.5058 85.3425 44.4053 77.8701L31.2686 78.0251C31.4094 88.504 34.8834 97.5219 42.0075 104.468L51.1718 95.0699ZM44.4053 77.8701C44.2895 69.2554 46.5737 62.9142 50.7276 58.2088L40.872 49.5055C34.1427 57.1282 31.1183 66.8473 31.2686 78.0251L44.4053 77.8701ZM50.7234 58.2135C55.2204 53.1294 61.2539 49.7142 69.204 48.1258L66.6095 35.2428C56.194 37.3239 47.4896 42.0239 40.8762 49.5008L50.7234 58.2135ZM74.4751 41.6068L74.4705 41.2616L61.3337 41.4166L61.3384 41.7618L74.4751 41.6068ZM74.4705 41.2616C74.4148 37.1155 75.061 35.1018 75.5247 34.3221C75.6987 34.0296 75.7747 34.0293 75.7031 34.0694C75.6444 34.1023 75.7617 34.0047 76.2628 33.9988L76.0862 20.8623C71.1051 20.9211 66.8385 23.2074 64.2301 27.593C61.9363 31.4495 61.2657 36.3568 61.3337 41.4166L74.4705 41.2616ZM76.2628 33.9988C76.7401 33.9931 76.8389 34.0831 76.7599 34.0415C76.6669 33.9926 76.7223 33.973 76.8861 34.2315C77.3347 34.9397 78.0184 36.8462 78.0725 40.8738L91.2093 40.7187C91.1428 35.7706 90.3551 30.9617 87.9816 27.2146C85.2791 22.9484 80.9955 20.8043 76.0862 20.8623L76.2628 33.9988ZM84.1647 47.3469C90.4128 47.8112 95.3929 48.8601 99.2482 50.3487L103.963 38.0942C98.563 36.0091 92.2333 34.7745 85.1171 34.2456L84.1647 47.3469ZM99.3499 50.387C100.912 50.9606 101.571 51.576 101.859 51.9565C102.113 52.2924 102.403 52.8652 102.419 54.0521L115.556 53.897C115.509 50.366 114.537 46.9542 112.33 44.0391C110.157 41.1685 107.157 39.2664 103.861 38.0559L99.3499 50.387ZM102.419 54.0521C102.444 55.911 101.939 56.8616 101.283 57.5342L110.697 66.7135C114.128 63.1946 115.621 58.7124 115.556 53.897L102.419 54.0521ZM101.283 57.5342C101.113 57.7086 100.056 58.5594 96.4472 58.602L96.6238 71.7385C101.76 71.6779 107.007 70.4978 110.697 66.7135L101.283 57.5342ZM96.4472 58.602C94.003 58.6309 91.2701 58.4182 88.2318 57.9313L86.1738 70.9032C89.8253 71.4883 93.3141 71.7776 96.6238 71.7385L96.4472 58.602ZM88.4471 57.9695C84.6868 57.2379 80.9557 56.8859 77.2616 56.9295L77.4382 70.0659C80.1884 70.0335 83.0259 70.2944 85.9584 70.865L88.4471 57.9695ZM77.2616 56.9295C71.7342 56.9947 66.46 57.9882 62.3917 60.8361L69.9381 71.6024C70.8868 70.9384 73.0691 70.1175 77.4382 70.0659L77.2616 56.9295ZM62.3917 60.8361C57.5638 64.2157 55.8419 69.5302 55.9151 74.9721L69.0518 74.817C69.0167 72.2038 69.7491 71.7348 69.9381 71.6025L62.3917 60.8361ZM55.9151 74.9721C55.9973 81.0913 59.1343 86.0972 63.8158 89.9251L72.1223 79.7604C69.5886 77.6886 69.0686 76.0625 69.0518 74.817L55.9151 74.9721ZM63.8158 89.9251C68.5357 93.7845 76.266 96.9323 85.9554 99.725L89.575 87.102C80.0846 84.3666 74.6174 81.8006 72.1223 79.7604L63.8158 89.9251ZM85.9929 99.7357C96.4155 102.673 102.401 106.436 105.352 110.268L115.756 102.262C110.273 95.1445 101.066 90.3402 89.5375 87.0913L85.9929 99.7357ZM105.393 110.321C108.523 114.3 110.38 119.682 110.478 126.982L123.615 126.827C123.487 117.327 121.015 108.949 115.715 102.209L105.393 110.321ZM110.478 126.982C110.594 135.633 108.347 141.992 104.283 146.693L114.229 155.293C120.819 147.669 123.765 137.969 123.615 126.827L110.478 126.982ZM104.283 146.693C100.114 151.517 93.8773 155.061 84.9421 156.917L87.6347 169.78C98.67 167.488 107.746 162.794 114.229 155.293L104.283 146.693ZM79.72 163.426L79.7548 166.015L92.8916 165.86L92.8568 163.271L79.72 163.426ZM139.509 42.7382L134.943 38.0084L134.943 38.0084L139.509 42.7382ZM160.916 94.1039L154.586 92.3392L165.623 98.6936L160.916 94.1039ZM170.499 87.7759L172.66 93.9826L172.66 93.9826L170.499 87.7759ZM201.028 85.6892L201.116 92.2575L207.685 92.18L207.596 85.6117L201.028 85.6892ZM203.375 41.9845L198.809 37.2546L198.809 37.2546L203.375 41.9845ZM223.957 160.343L219.25 155.753L219.25 155.753L223.957 160.343ZM201.23 100.706L207.798 100.629L194.971 98.7027L201.23 100.706ZM194.568 105.964L196.728 112.171L196.812 112.142L196.895 112.11L194.568 105.964ZM166.345 112.685L161.459 108.286L161.451 108.295L166.345 112.685ZM160.09 161.097L164.797 165.686L164.797 165.686L160.09 161.097ZM150.89 157.398C147.493 157.438 146.16 156.671 145.703 156.267C145.371 155.974 144.654 155.14 144.618 152.475L131.482 152.63C131.549 157.675 133.039 162.597 137.017 166.109C140.869 169.51 145.949 170.595 151.067 170.535L150.89 157.398ZM144.618 152.475L143.261 51.4984L130.124 51.6535L131.482 152.63L144.618 152.475ZM143.261 51.4984C143.219 48.3798 143.976 47.563 144.075 47.4681L134.943 38.0084C131.178 41.642 130.058 46.717 130.124 51.6535L143.261 51.4984ZM144.075 47.4681C144.266 47.2833 145.359 46.4763 148.881 46.4347L148.704 33.2982C143.71 33.3572 138.614 34.4647 134.943 38.0084L144.075 47.4681ZM148.881 46.4347C152.202 46.3955 153.477 47.1544 153.906 47.5376C154.226 47.8242 154.944 48.6694 154.98 51.3601L168.117 51.2051C168.05 46.1859 166.59 41.2734 162.658 37.7547C158.834 34.3325 153.784 33.2383 148.704 33.2982L148.881 46.4347ZM154.98 51.3601L155.212 68.621L168.349 68.466L168.117 51.2051L154.98 51.3601ZM155.212 68.621C155.308 75.7108 155.282 81.2914 155.143 85.4025C155.074 87.46 154.977 89.0901 154.862 90.3249C154.804 90.9404 154.745 91.4215 154.689 91.7847C154.661 91.9643 154.637 92.101 154.617 92.2002C154.596 92.3015 154.584 92.3439 154.586 92.3392L167.246 95.8686C167.873 93.6079 168.134 90.0004 168.274 85.8683C168.423 81.4592 168.446 75.6452 168.349 68.466L155.212 68.621ZM165.623 98.6936C167.979 96.2772 170.331 94.7898 172.66 93.9826L168.338 81.5692C163.793 83.145 159.756 85.8762 156.209 89.5143L165.623 98.6936ZM172.66 93.9826C175.168 93.1129 178.924 92.5194 184.2 92.4571L184.024 79.3206C178.022 79.3915 172.703 80.056 168.338 81.5693L172.66 93.9826ZM184.2 92.4571L201.116 92.2575L200.94 79.121L184.024 79.3206L184.2 92.4571ZM207.596 85.6117L207.128 50.7447L193.991 50.8997L194.46 85.7668L207.596 85.6117ZM207.128 50.7447C207.086 47.626 207.843 46.8093 207.941 46.7143L198.809 37.2546C195.045 40.8882 193.924 45.9632 193.991 50.8997L207.128 50.7447ZM207.941 46.7143C208.133 46.5296 209.226 45.7225 212.748 45.681L212.571 32.5445C207.577 32.6034 202.481 33.7109 198.809 37.2546L207.941 46.7143ZM212.748 45.681C216.068 45.6418 217.344 46.4007 217.772 46.7839C218.093 47.0705 218.811 47.9156 218.847 50.6063L231.984 50.4513C231.916 45.4321 230.457 40.5197 226.525 37.0009C222.701 33.5787 217.651 32.4845 212.571 32.5445L212.748 45.681ZM218.847 50.6063L220.205 151.583L233.341 151.428L231.984 50.4513L218.847 50.6063ZM220.205 151.583C220.244 154.483 219.536 155.46 219.25 155.753L228.664 164.933C232.238 161.267 233.407 156.353 233.341 151.428L220.205 151.583ZM219.25 155.753C219.227 155.777 218.328 156.602 214.757 156.644L214.934 169.781C219.879 169.723 225.054 168.635 228.664 164.933L219.25 155.753ZM214.757 156.644C211.359 156.684 210.027 155.917 209.57 155.513C209.238 155.221 208.521 154.386 208.485 151.721L195.348 151.876C195.416 156.921 196.906 161.844 200.884 165.356C204.736 168.757 209.816 169.841 214.934 169.781L214.757 156.644ZM208.485 151.721L207.798 100.629L194.661 100.784L195.348 151.876L208.485 151.721ZM194.971 98.7027C195.139 98.1741 195.378 98.1172 194.993 98.4214C194.583 98.7447 193.745 99.2498 192.24 99.8177L196.895 112.11C201.058 110.54 205.859 107.825 207.489 102.71L194.971 98.7027ZM192.407 99.7573C189.443 100.785 185.749 101.398 181.214 101.451L181.39 114.588C186.981 114.522 192.131 113.764 196.728 112.171L192.407 99.7573ZM181.214 101.451C173.46 101.543 166.076 103.155 161.459 108.286L171.231 117.083C172.057 116.165 174.644 114.667 181.39 114.588L181.214 101.451ZM161.451 108.295C157.069 113.181 155.914 120.804 156.022 128.862L169.159 128.707C169.057 121.114 170.405 118.005 171.239 117.075L161.451 108.295ZM156.022 128.862L156.338 152.336L169.475 152.181L169.159 128.707L156.022 128.862ZM156.338 152.336C156.377 155.237 155.669 156.214 155.383 156.507L164.797 165.686C168.371 162.021 169.541 157.106 169.475 152.181L156.338 152.336ZM155.383 156.507C155.36 156.531 154.461 157.356 150.89 157.398L151.067 170.535C156.012 170.476 161.187 169.388 164.797 165.686L155.383 156.507ZM252.999 158.792L248.093 163.152L248.093 163.152L252.999 158.792ZM259.277 47.8849L263.201 53.1593L263.23 53.1374L263.26 53.1151L259.277 47.8849ZM321.877 42.8302L317.295 47.5294L317.426 47.6568L317.563 47.7768L321.877 42.8302ZM322.102 59.5733L317.657 54.73L317.592 54.7898L317.528 54.8513L322.102 59.5733ZM278.172 66.4793L273.688 61.6713L273.688 61.6713L278.172 66.4793ZM274.273 84.6522L280.824 85.1439L280.825 85.1321L280.826 85.1204L274.273 84.6522ZM273.36 93.8127L266.838 93.0214L264.853 109.604L277.604 98.8336L273.36 93.8127ZM280.731 89.9277L282.747 96.1826L282.856 96.1478L282.963 96.1092L280.731 89.9277ZM314.064 90.9154L309.197 95.3192L309.268 95.3975L309.342 95.4734L314.064 90.9154ZM314.285 107.313L319.253 111.619L319.253 111.619L314.285 107.313ZM277.777 114.132L282.745 118.437L282.802 118.371L282.858 118.303L277.777 114.132ZM275.34 138.33L268.771 138.407L268.86 144.975L275.428 144.898L275.34 138.33ZM323.536 140.523L318.954 145.222L319.025 145.292L319.098 145.359L323.536 140.523ZM258.469 154.747C258.357 154.749 258.294 154.739 258.27 154.734C258.247 154.729 258.239 154.725 258.236 154.724C258.232 154.722 258.206 154.71 258.157 154.673C258.107 154.635 258.021 154.562 257.905 154.431L248.093 163.152C250.815 166.213 254.459 167.933 258.646 167.884L258.469 154.747ZM257.905 154.431C257.601 154.09 257.253 153.514 257.235 152.181L244.098 152.337C244.152 156.298 245.359 160.077 248.093 163.152L257.905 154.431ZM257.235 152.181L256.149 71.4004L243.012 71.5554L244.098 152.337L257.235 152.181ZM256.149 71.4004C256.022 61.967 258.787 56.4394 263.201 53.1593L255.353 42.6105C246.548 49.1541 242.848 59.3552 243.012 71.5554L256.149 71.4004ZM263.26 53.1151C268.162 49.3856 277.131 46.8201 291.544 46.65L291.367 33.5135C276.091 33.6938 263.607 36.3304 255.294 42.6547L263.26 53.1151ZM291.544 46.65L313.12 46.3953L312.944 33.2589L291.367 33.5135L291.544 46.65ZM313.12 46.3953C315.715 46.3647 316.783 47.0306 317.295 47.5294L326.459 38.1309C322.772 34.536 317.945 33.1998 312.944 33.2589L313.12 46.3953ZM317.563 47.7768C318.022 48.1768 318.671 49.0011 318.702 51.3268L331.839 51.1718C331.771 46.1328 330.158 41.3445 326.191 37.8836L317.563 47.7768ZM318.702 51.3268C318.731 53.4633 318.148 54.2788 317.657 54.73L326.548 64.4165C330.376 60.9036 331.906 56.1699 331.839 51.1718L318.702 51.3268ZM317.528 54.8513C317.043 55.3214 315.942 56.0115 313.25 56.0433L313.427 69.1798C318.33 69.1219 323.072 67.7865 326.676 64.2952L317.528 54.8513ZM313.25 56.0433L290.465 56.3122L290.642 69.4487L313.427 69.1798L313.25 56.0433ZM290.465 56.3122C284.112 56.3872 277.969 57.6802 273.688 61.6713L282.656 71.2873C283.376 70.6157 285.487 69.5095 290.642 69.4487L290.465 56.3122ZM273.688 61.6713C269.269 65.7911 267.875 71.7422 267.957 77.8212L281.094 77.6662C281.036 73.3887 282.073 71.8301 282.656 71.2872L273.688 61.6713ZM267.957 77.8212C267.978 79.4142 267.906 81.5204 267.72 84.1839L280.826 85.1204C281.026 82.255 281.122 79.7555 281.094 77.6662L267.957 77.8212ZM267.721 84.1604C267.536 86.6846 267.243 89.6348 266.838 93.0214L279.883 94.6039C280.305 91.0753 280.62 87.9185 280.824 85.1439L267.721 84.1604ZM277.604 98.8336C278.749 97.8659 280.398 96.9364 282.747 96.1826L278.715 83.6727C275.106 84.8307 271.84 86.4912 269.116 88.7917L277.604 98.8336ZM282.963 96.1092C285.322 95.2608 287.526 94.863 289.602 94.8385L289.425 81.702C285.747 81.7454 282.096 82.4525 278.499 83.7461L282.963 96.1092ZM289.602 94.8385L306.691 94.6368L306.514 81.5003L289.425 81.702L289.602 94.8385ZM306.691 94.6368C308.508 94.6154 309.001 95.1019 309.197 95.3192L318.931 86.5115C315.623 82.8571 311.141 81.4457 306.514 81.5003L306.691 94.6368ZM309.342 95.4734C309.743 95.8888 310.336 96.7993 310.367 99.0729L323.503 98.9179C323.441 94.2871 322.121 89.811 318.787 86.3573L309.342 95.4734ZM310.367 99.0729C310.397 101.327 309.837 102.407 309.317 103.007L319.253 111.619C322.359 108.033 323.566 103.568 323.503 98.9179L310.367 99.0729ZM309.317 103.007C308.887 103.503 308.3 103.922 306.816 103.94L306.992 117.076C311.722 117.02 316.055 115.31 319.253 111.619L309.317 103.007ZM306.816 103.94L288.346 104.158L288.523 117.294L306.992 117.076L306.816 103.94ZM288.346 104.158C282.642 104.225 276.453 105.381 272.695 109.96L282.858 118.303C282.751 118.433 282.875 118.18 283.809 117.881C284.764 117.576 286.279 117.32 288.523 117.294L288.346 104.158ZM272.809 109.826C270.855 112.081 269.87 114.923 269.33 117.591C268.774 120.343 268.571 123.526 268.618 127.015L281.755 126.86C281.715 123.905 281.901 121.731 282.208 120.215C282.532 118.614 282.885 118.275 282.745 118.437L272.809 109.826ZM268.618 127.015L268.771 138.407L281.908 138.252L281.755 126.86L268.618 127.015ZM275.428 144.898L314.438 144.437L314.262 131.301L275.251 131.761L275.428 144.898ZM314.438 144.437C318.009 144.395 318.93 145.199 318.954 145.222L328.118 135.824C324.41 132.208 319.207 131.243 314.262 131.301L314.438 144.437ZM319.098 145.359C319.167 145.422 319.978 146.242 320.022 149.541L333.159 149.386C333.092 144.401 331.867 139.26 327.973 135.687L319.098 145.359ZM320.022 149.541C320.042 151.013 319.878 151.974 319.697 152.556C319.61 152.836 319.525 153.005 319.472 153.096C319.42 153.183 319.389 153.213 319.386 153.216L328.5 162.693C332.196 159.139 333.223 154.13 333.159 149.386L320.022 149.541ZM319.386 153.216C319.424 153.179 319.219 153.398 318.415 153.632C317.599 153.869 316.356 154.064 314.568 154.085L314.745 167.222C319.661 167.164 324.86 166.192 328.5 162.693L319.386 153.216ZM314.568 154.085L258.469 154.747L258.646 167.884L314.745 167.222L314.568 154.085ZM346.576 158.723L350.762 153.668L350.762 153.668L346.576 158.723ZM351.298 47.662L356.123 52.1276L356.123 52.1276L351.298 47.662ZM402.675 158.061L406.862 153.006L406.862 153.006L402.675 158.061ZM398.547 107.872L405.116 107.795L404.918 93.1045L394.102 103.029L398.547 107.872ZM391.365 112.964L388.248 107.176L388.195 107.205L388.142 107.235L391.365 112.964ZM371.062 118.037L367.127 112.771L367.068 112.815L367.011 112.86L371.062 118.037ZM366.148 99.2777L359.676 98.1435L356.044 119.057L370.855 103.867L366.148 99.2777ZM372.649 94.8851L370.174 88.7967L370.127 88.8156L370.081 88.8352L372.649 94.8851ZM392.12 92.0658L390.23 85.7715L390.189 85.7839L390.148 85.7968L392.12 92.0658ZM397.072 88.0367L403.053 90.7633L403.053 90.7633L397.072 88.0367ZM394.478 61.9992L389.276 66.0021L389.311 66.0478L389.347 66.0929L394.478 61.9992ZM369.624 62.4651L364.081 58.9304L364.066 58.9544L364.051 58.9785L369.624 62.4651ZM366.739 91.8474L373.306 92.013L373.306 92.013L366.739 91.8474ZM361.295 149.918C361.332 152.685 360.636 153.581 360.354 153.858C360.019 154.187 358.933 154.943 355.848 154.979L356.024 168.116C360.994 168.057 365.925 166.814 369.565 163.241C373.258 159.615 374.498 154.705 374.432 149.762L361.295 149.918ZM355.848 154.979C353.025 155.013 351.571 154.339 350.762 153.668L342.389 163.778C346.236 166.966 351.022 168.175 356.024 168.116L355.848 154.979ZM350.762 153.668C350.289 153.276 349.608 152.463 349.576 150.056L336.439 150.211C336.509 155.399 338.207 160.312 342.389 163.778L350.762 153.668ZM349.576 150.056L348.657 81.7026L335.52 81.8577L336.439 150.211L349.576 150.056ZM348.657 81.7026C348.451 66.4141 351.483 57.1411 356.123 52.1276L346.473 43.1965C338.406 51.9137 335.299 65.3861 335.52 81.8577L348.657 81.7026ZM356.123 52.1276C360.781 47.0933 368.725 43.8401 381.456 43.6898L381.28 30.5533C366.623 30.7263 354.52 34.5001 346.473 43.1965L356.123 52.1276ZM381.456 43.6898C394.54 43.5354 402.886 46.6585 407.916 51.7323L417.239 42.4906C408.735 33.9132 396.274 30.3764 381.28 30.5533L381.456 43.6898ZM407.916 51.7323C412.918 56.7773 416.274 65.9367 416.475 80.9022L429.612 80.7472C429.393 64.4129 425.771 51.0968 417.239 42.4906L407.916 51.7323ZM416.475 80.9022L417.394 149.255L430.531 149.1L429.612 80.7472L416.475 80.9022ZM417.394 149.255C417.432 152.023 416.735 152.919 416.453 153.196C416.118 153.525 415.032 154.281 411.947 154.317L412.124 167.454C417.094 167.395 422.024 166.152 425.664 162.579C429.358 158.953 430.598 154.043 430.531 149.1L417.394 149.255ZM411.947 154.317C409.124 154.35 407.67 153.676 406.862 153.006L398.488 163.116C402.335 166.304 407.122 167.513 412.124 167.454L411.947 154.317ZM406.862 153.006C406.388 152.614 405.707 151.801 405.675 149.394L392.538 149.549C392.608 154.736 394.306 159.65 398.488 163.116L406.862 153.006ZM405.675 149.394L405.116 107.795L391.979 107.95L392.538 149.549L405.675 149.394ZM394.102 103.029C392.351 104.636 390.404 106.018 388.248 107.176L394.481 118.751C397.582 117.085 400.424 115.073 402.993 112.716L394.102 103.029ZM388.142 107.235C386.759 108.011 384.898 108.542 382.329 108.573L382.505 121.709C386.84 121.658 390.945 120.738 394.588 118.693L388.142 107.235ZM382.329 108.573C376.664 108.64 371.243 109.699 367.127 112.771L374.996 123.304C375.894 122.634 378.043 121.762 382.505 121.709L382.329 108.573ZM367.011 112.86C362.273 116.563 360.925 122.383 361.001 127.996L374.137 127.841C374.086 124.018 375.067 123.251 375.112 123.215L367.011 112.86ZM361.001 127.996L361.295 149.918L374.432 149.762L374.137 127.841L361.001 127.996ZM370.855 103.867C372.033 102.66 373.462 101.678 375.218 100.935L370.081 88.8352C366.801 90.2231 363.896 92.1699 361.441 94.6881L370.855 103.867ZM375.125 100.973C376.812 100.29 379.117 99.8243 382.21 99.7878L382.034 86.6513C377.763 86.7017 373.753 87.3463 370.174 88.7967L375.125 100.973ZM382.21 99.7878C386.79 99.7338 390.882 99.3396 394.092 98.3347L390.148 85.7968C388.773 86.2272 386.2 86.6022 382.034 86.6513L382.21 99.7878ZM394.009 98.36C397.906 97.1961 401.244 94.7423 403.053 90.7633L391.091 85.3101C391.068 85.3622 391.052 85.3823 391.049 85.3858C391.047 85.389 391.039 85.3999 391.013 85.4212C390.964 85.4609 390.755 85.6148 390.23 85.7715L394.009 98.36ZM403.053 90.7633C404.543 87.4851 404.961 83.4519 404.905 79.3124L391.769 79.4674C391.815 82.9227 391.39 84.6541 391.091 85.3101L403.053 90.7633ZM404.905 79.3124C404.845 74.7815 404.472 70.7237 403.699 67.2427C402.939 63.8188 401.701 60.5257 399.608 57.9055L389.347 66.0929C389.713 66.5511 390.347 67.6957 390.874 70.0687C391.387 72.3846 391.715 75.4829 391.769 79.4674L404.905 79.3124ZM399.68 57.9962C395.39 52.4271 388.51 50.6665 381.379 50.7507L381.555 63.8871C386.852 63.8246 388.646 65.1842 389.276 66.0021L399.68 57.9962ZM381.379 50.7507C374.467 50.8322 367.885 52.9574 364.081 58.9304L375.166 65.9999C375.646 65.247 376.959 63.9414 381.555 63.8871L381.379 50.7507ZM364.051 58.9785C362.379 61.6544 361.443 64.938 360.899 68.3532C360.343 71.8443 360.128 75.9309 360.19 80.5307L373.327 80.3756C373.271 76.2299 373.475 72.9457 373.874 70.4408C374.285 67.86 374.84 66.5224 375.197 65.9518L364.051 58.9785ZM360.19 80.5307C360.249 84.9696 360.242 88.6812 360.172 91.6818L373.306 92.013C373.382 88.7969 373.388 84.9124 373.327 80.3756L360.19 80.5307ZM360.172 91.6818C360.102 94.6471 359.917 96.7579 359.676 98.1435L372.62 100.412C373.021 98.1071 373.229 95.2643 373.306 92.013L360.172 91.6818ZM449.362 156.647L444.456 161.007L444.612 161.182L444.78 161.346L449.362 156.647ZM455.294 45.7441L450.67 41.0713L450.649 41.0917L450.629 41.1123L455.294 45.7441ZM521.176 143.542L526.303 147.658L526.315 147.643L526.326 147.628L521.176 143.542ZM471.733 138.429L465.164 138.506L465.253 145.074L471.821 144.997L471.733 138.429ZM502.325 128.227L496.614 124.972L496.605 124.988L496.597 125.003L502.325 128.227ZM502.01 66.2544L496.365 69.6039L496.403 69.6685L496.443 69.7323L502.01 66.2544ZM455.002 152.428C454.638 152.432 454.387 152.379 453.944 151.948L444.78 161.346C447.602 164.098 451.17 165.612 455.179 165.564L455.002 152.428ZM454.268 152.286C453.915 151.891 453.615 151.344 453.6 150.209L440.463 150.364C440.516 154.292 441.77 157.986 444.456 161.007L454.268 152.286ZM453.6 150.209L452.565 73.2255L439.429 73.3806L440.463 150.364L453.6 150.209ZM452.565 73.2255C452.42 62.4257 455.206 55.1644 459.96 50.3759L450.629 41.1123C442.665 49.1339 439.252 60.2452 439.429 73.3806L452.565 73.2255ZM459.919 50.4169C464.811 45.5759 472.341 42.6172 483.564 42.4847L483.387 29.3482C469.983 29.5064 458.726 33.0995 450.67 41.0713L459.919 50.4169ZM483.564 42.4847C498.139 42.3127 508.139 46.832 514.787 55.226C521.689 63.9404 525.809 77.8562 526.081 98.0807L539.217 97.9257C538.928 76.3788 534.571 59.0611 525.081 47.0799C515.338 34.7784 501.032 29.14 483.387 29.3482L483.564 42.4847ZM526.081 98.0807C526.346 117.781 522.595 131.172 516.027 139.456L526.326 147.628C535.602 135.93 539.5 118.961 539.217 97.9257L526.081 98.0807ZM516.05 139.426C509.717 147.32 499.563 151.902 484.174 152.084L484.35 165.22C502.333 165.008 516.788 159.517 526.303 147.658L516.05 139.426ZM484.174 152.084L455.002 152.428L455.179 165.564L484.35 165.22L484.174 152.084ZM471.821 144.997L484.076 144.852L483.9 131.716L471.644 131.86L471.821 144.997ZM484.076 144.852C494.587 144.728 503.037 140.384 508.054 131.451L496.597 125.003C494.196 129.278 490.42 131.639 483.9 131.716L484.076 144.852ZM508.037 131.482C512.755 123.187 514.533 110.989 514.331 95.9751L501.194 96.1302C501.388 110.575 499.541 119.827 496.614 124.972L508.037 131.482ZM514.331 95.9751C514.14 81.7515 512.245 70.2356 507.577 62.7765L496.443 69.7323C499.068 73.9265 501.008 82.276 501.194 96.1302L514.331 95.9751ZM507.656 62.905C502.646 54.4773 494.174 50.8005 484.022 50.9203L484.199 64.0568C490.848 63.9783 494.309 66.1454 496.365 69.6039L507.656 62.905ZM484.022 50.9203C478.929 50.9804 473.932 51.9353 470.099 54.81C465.886 57.9696 464.144 62.6165 464.211 67.5637L477.347 67.4087C477.335 66.5129 477.482 66.04 477.575 65.8271C477.653 65.6509 477.756 65.5022 477.992 65.3248C478.603 64.867 480.316 64.1026 484.199 64.0568L484.022 50.9203ZM464.211 67.5637L465.164 138.506L478.301 138.351L477.347 67.4087L464.211 67.5637Z" fill="black" mask="url(#path-1-outside-1_266_6974)"/>
</svg>
