<svg width="168" height="52" viewBox="0 0 168 52" fill="none" xmlns="http://www.w3.org/2000/svg">
<mask id="path-1-outside-1_50_596" maskUnits="userSpaceOnUse" x="10.2292" y="3.01246" width="146.555" height="46.8353" fill="black">
<rect fill="white" x="10.2292" y="3.01246" width="146.555" height="46.8353"/>
<path d="M25.4895 43.3298C25.5033 44.4275 25.3211 45.2755 24.9429 45.8737C24.5947 46.5013 24.0794 46.8193 23.397 46.8279C21.9433 46.8462 21.2046 45.9208 21.1811 44.0517L21.1687 43.0726C20.0706 43.0568 18.9271 42.9673 17.7381 42.8043C16.5792 42.6705 15.6418 42.4598 14.926 42.172C13.6736 41.6834 13.0399 40.8457 13.0249 39.6589C13.0141 38.7985 13.2577 38.113 13.7557 37.6022C14.283 37.0615 15.1104 36.784 16.2378 36.7698C17.0092 36.7601 17.945 36.8522 19.0454 37.046C20.1457 37.2399 21.1113 37.3316 21.942 37.3211C23.7814 37.2979 25.0987 37.0439 25.8938 36.5592C26.6889 36.0744 27.0772 35.1051 27.0589 33.6513C27.0481 32.7909 26.7274 32.068 26.0969 31.4825C25.4961 30.8966 24.2874 30.348 22.4709 29.8368C19.1653 28.8992 16.7617 27.7128 15.2599 26.2778C13.7878 24.8423 13.0372 22.9675 13.0081 20.6534C12.976 18.1019 13.662 16.0309 15.0663 14.4405C16.4999 12.8201 18.4006 11.7725 20.7685 11.2975L20.7674 11.2085C20.7375 8.83504 21.4494 7.63914 22.9032 7.62082C24.3273 7.60289 25.0539 8.75099 25.0831 11.0651C26.8057 11.1918 28.2634 11.485 29.4561 11.9448C30.7082 12.4038 31.3419 13.2415 31.3572 14.4579C31.368 15.3183 31.1098 16.0189 30.5825 16.5596C30.0845 17.0703 29.2718 17.3328 28.1443 17.347C27.4026 17.3563 26.6006 17.2923 25.7384 17.1548C24.8758 16.9876 24.0291 16.9092 23.1984 16.9197C21.9226 16.9358 20.9612 17.1704 20.3141 17.6237C19.667 18.0769 19.35 18.8228 19.363 19.8612C19.375 20.8106 19.8457 21.6651 20.7751 22.4249C21.7046 23.1847 23.4052 23.92 25.8771 24.6307C28.706 25.4259 30.6635 26.5288 31.7496 27.9395C32.8352 29.3205 33.3916 31.0938 33.4189 33.2597C33.4511 35.8112 32.7798 37.8819 31.4052 39.4719C30.0306 41.0619 28.0559 42.1253 25.481 42.6622L25.4895 43.3298ZM40.6416 42.4713C40.0779 42.4784 39.6004 42.2618 39.2091 41.8217C38.8178 41.3815 38.6178 40.8202 38.6093 40.1378L38.357 20.1115C38.3447 19.1325 38.4653 18.1072 38.7189 17.0358C39.0021 15.964 39.5236 14.9633 40.2834 14.0339C41.0725 13.0744 42.1902 12.2888 43.6365 11.6771C45.0828 11.0655 46.9778 10.7449 49.3216 10.7153C52.4368 10.6761 54.8646 11.417 56.6048 12.9381C58.345 14.4592 59.2345 16.7625 59.2734 19.8481C59.2891 21.0941 59.0661 22.2394 58.6045 23.2837C58.1725 24.3278 57.5001 25.1226 56.5871 25.6682C58.0491 26.3026 59.0989 27.1944 59.7365 28.3436C60.4038 29.4925 60.7503 31.0905 60.7761 33.1376C60.8134 36.1045 59.9221 38.3709 58.1021 39.9368C56.3117 41.5024 53.5178 42.3091 49.7202 42.3569L40.6416 42.4713ZM44.5167 25.019C44.8964 24.5395 45.5148 24.1608 46.3718 23.8829C47.2585 23.6047 48.2952 23.4581 49.482 23.4432C50.8764 23.4256 51.8226 23.1615 52.3206 22.6507C52.8479 22.11 53.1035 21.2017 53.0875 19.926C53.0688 18.4425 52.744 17.3932 52.1131 16.778C51.5115 16.1328 50.6025 15.8178 49.3861 15.8332C47.6653 15.8548 46.4528 16.1817 45.7486 16.8137C45.0741 17.4453 44.7464 18.5177 44.7654 20.0308C44.777 20.9505 44.7715 21.6924 44.749 22.2565C44.7557 22.7905 44.732 23.2656 44.6779 23.6817C44.6534 24.0975 44.5997 24.5432 44.5167 25.019ZM44.9824 37.2534L49.6552 37.1946C51.4353 37.1722 52.6626 36.8451 53.3371 36.2135C54.0413 35.5815 54.3848 34.5831 54.3677 33.2183C54.3434 31.2899 53.9551 29.915 53.2029 29.0936C52.4804 28.2718 51.2588 27.8718 49.538 27.8935C48.3216 27.9088 47.3743 28.0839 46.696 28.4189C46.0174 28.7241 45.5494 29.2642 45.2921 30.0389C45.0348 30.8137 44.9151 31.9131 44.933 33.3372L44.9824 37.2534ZM68.9676 42.3815C67.9589 42.3942 67.155 42.1818 66.556 41.7443C65.9567 41.277 65.6516 40.6132 65.6407 39.7528L65.3986 20.5276C65.3552 17.086 66.2284 14.5528 68.018 12.9279C69.8369 11.2729 72.6896 10.421 76.5762 10.372C79.7507 10.332 82.1788 11.1026 83.8605 12.6838C85.5714 14.235 86.4457 16.5088 86.4834 19.5053C86.4965 20.5437 86.4796 21.5528 86.4326 22.5326C86.3852 23.4828 86.3046 24.1514 86.1908 24.5386C85.7663 26.176 84.9661 27.4324 83.7902 28.3077C85.4091 29.6226 86.2296 31.1553 86.2516 32.9057L86.3346 39.4922C86.3578 41.3316 85.3458 42.2643 83.2987 42.29C82.2899 42.3027 81.4861 42.0903 80.8871 41.6528C80.2877 41.1855 79.9823 40.4921 79.9707 39.5723L79.8967 33.698C79.8765 32.0958 79.6101 30.9716 79.0975 30.3253C78.6146 29.6785 77.6314 29.3645 76.148 29.3832C74.5459 29.4034 73.4378 29.7734 72.8238 30.4933C72.239 31.1832 71.9584 32.4626 71.9819 34.3318L72.0492 39.6721C72.0716 41.4522 71.0444 42.3554 68.9676 42.3815ZM71.5183 25.7917C72.2521 25.1593 72.8998 24.7506 73.4612 24.5654C74.052 24.3503 74.8962 24.2358 75.994 24.222C77.4774 24.2033 78.5594 24.1155 79.2399 23.9585C79.9501 23.8012 80.406 23.4839 80.6077 23.0066C80.8094 22.5293 80.9039 21.7863 80.8912 20.7775C80.8658 18.7601 80.5367 17.3696 79.904 16.606C79.3005 15.8124 78.2125 15.4256 76.6401 15.4454C74.8897 15.4674 73.6486 15.8836 72.917 16.694C72.215 17.5041 71.8766 18.903 71.9016 20.8908C71.914 21.8698 71.8805 22.7456 71.8012 23.5181C71.7512 24.2606 71.6569 25.0184 71.5183 25.7917ZM98.5569 39.1157C98.5819 41.1035 97.5561 42.1105 95.4793 42.1366C94.4705 42.1493 93.6663 41.9072 93.0666 41.4103C92.4668 40.9134 92.1608 40.1755 92.1485 39.1964L91.9265 21.5732C91.8749 17.479 92.6688 14.5461 94.3082 12.7748C95.9476 11.0034 98.5326 10.0955 102.063 10.051C105.683 10.0054 108.364 10.8618 110.107 12.6203C111.851 14.3787 112.748 17.2754 112.798 21.3103L113.02 38.9335C113.045 40.9213 112.02 41.9283 109.943 41.9544C108.934 41.9671 108.13 41.725 107.53 41.2282C106.93 40.7313 106.624 39.9933 106.612 39.0142L106.477 28.289C105.919 28.8005 105.302 29.2385 104.624 29.6031C103.976 29.9674 103.207 30.1551 102.317 30.1663C101.011 30.1828 100.035 30.4324 99.3883 30.9154C98.7713 31.3979 98.4704 32.2474 98.4857 33.4638L98.5569 39.1157ZM98.1256 26.0797C98.5944 25.599 99.1534 25.221 99.8027 24.9458C100.482 24.6702 101.296 24.5264 102.245 24.5145C103.373 24.5003 104.232 24.4004 104.823 24.2149C105.444 24.0291 105.87 23.6825 106.101 23.1751C106.332 22.6677 106.441 21.9245 106.429 20.9455C106.401 18.75 106.071 17.2556 105.438 16.4624C104.804 15.6396 103.686 15.2382 102.084 15.2584C100.601 15.2771 99.5827 15.7202 99.0298 16.5877C98.5062 17.4251 98.2587 18.9712 98.2871 21.2261C98.3016 22.3831 98.2991 23.3624 98.2795 24.1638C98.26 24.9652 98.2087 25.6039 98.1256 26.0797ZM122.386 41.7977C120.191 41.8254 119.08 40.8453 119.055 38.8575L118.727 12.8233C118.714 11.7849 118.957 11.0251 119.455 10.5441C119.954 10.063 120.752 9.8156 121.85 9.80177C124.015 9.77449 125.111 10.7547 125.136 12.7425L125.464 38.7768C125.476 39.7855 125.234 40.5452 124.736 41.0559C124.267 41.5366 123.484 41.7839 122.386 41.7977ZM137.975 38.6192C138 40.607 136.974 41.6139 134.897 41.6401C133.889 41.6528 133.084 41.4107 132.485 40.9138C131.885 40.4169 131.579 39.679 131.567 38.6999L131.346 21.2102C131.311 18.4214 131.654 16.1916 132.375 14.5208C133.095 12.8203 134.296 11.5738 135.977 10.7811C137.659 9.98839 139.909 9.5743 142.727 9.5388C146.466 9.49171 149.295 10.3314 151.216 12.058C153.166 13.7545 154.168 16.7092 154.221 20.9221L154.441 38.4118C154.466 40.3996 153.44 41.4065 151.363 41.4327C150.355 41.4454 149.55 41.2033 148.951 40.7064C148.351 40.2095 148.045 39.4715 148.033 38.4925L147.812 21.0028C147.785 18.8074 147.379 17.2546 146.596 16.3446C145.843 15.4045 144.576 14.9457 142.796 14.9682C141.401 14.9857 140.336 15.2069 139.599 15.6316C138.863 16.0563 138.367 16.7153 138.111 17.6087C137.855 18.5022 137.736 19.6758 137.755 21.1295L137.975 38.6192Z"/>
</mask>
<path d="M25.4895 43.3298C25.5033 44.4275 25.3211 45.2755 24.9429 45.8737C24.5947 46.5013 24.0794 46.8193 23.397 46.8279C21.9433 46.8462 21.2046 45.9208 21.1811 44.0517L21.1687 43.0726C20.0706 43.0568 18.9271 42.9673 17.7381 42.8043C16.5792 42.6705 15.6418 42.4598 14.926 42.172C13.6736 41.6834 13.0399 40.8457 13.0249 39.6589C13.0141 38.7985 13.2577 38.113 13.7557 37.6022C14.283 37.0615 15.1104 36.784 16.2378 36.7698C17.0092 36.7601 17.945 36.8522 19.0454 37.046C20.1457 37.2399 21.1113 37.3316 21.942 37.3211C23.7814 37.2979 25.0987 37.0439 25.8938 36.5592C26.6889 36.0744 27.0772 35.1051 27.0589 33.6513C27.0481 32.7909 26.7274 32.068 26.0969 31.4825C25.4961 30.8966 24.2874 30.348 22.4709 29.8368C19.1653 28.8992 16.7617 27.7128 15.2599 26.2778C13.7878 24.8423 13.0372 22.9675 13.0081 20.6534C12.976 18.1019 13.662 16.0309 15.0663 14.4405C16.4999 12.8201 18.4006 11.7725 20.7685 11.2975L20.7674 11.2085C20.7375 8.83504 21.4494 7.63914 22.9032 7.62082C24.3273 7.60289 25.0539 8.75099 25.0831 11.0651C26.8057 11.1918 28.2634 11.485 29.4561 11.9448C30.7082 12.4038 31.3419 13.2415 31.3572 14.4579C31.368 15.3183 31.1098 16.0189 30.5825 16.5596C30.0845 17.0703 29.2718 17.3328 28.1443 17.347C27.4026 17.3563 26.6006 17.2923 25.7384 17.1548C24.8758 16.9876 24.0291 16.9092 23.1984 16.9197C21.9226 16.9358 20.9612 17.1704 20.3141 17.6237C19.667 18.0769 19.35 18.8228 19.363 19.8612C19.375 20.8106 19.8457 21.6651 20.7751 22.4249C21.7046 23.1847 23.4052 23.92 25.8771 24.6307C28.706 25.4259 30.6635 26.5288 31.7496 27.9395C32.8352 29.3205 33.3916 31.0938 33.4189 33.2597C33.4511 35.8112 32.7798 37.8819 31.4052 39.4719C30.0306 41.0619 28.0559 42.1253 25.481 42.6622L25.4895 43.3298ZM40.6416 42.4713C40.0779 42.4784 39.6004 42.2618 39.2091 41.8217C38.8178 41.3815 38.6178 40.8202 38.6093 40.1378L38.357 20.1115C38.3447 19.1325 38.4653 18.1072 38.7189 17.0358C39.0021 15.964 39.5236 14.9633 40.2834 14.0339C41.0725 13.0744 42.1902 12.2888 43.6365 11.6771C45.0828 11.0655 46.9778 10.7449 49.3216 10.7153C52.4368 10.6761 54.8646 11.417 56.6048 12.9381C58.345 14.4592 59.2345 16.7625 59.2734 19.8481C59.2891 21.0941 59.0661 22.2394 58.6045 23.2837C58.1725 24.3278 57.5001 25.1226 56.5871 25.6682C58.0491 26.3026 59.0989 27.1944 59.7365 28.3436C60.4038 29.4925 60.7503 31.0905 60.7761 33.1376C60.8134 36.1045 59.9221 38.3709 58.1021 39.9368C56.3117 41.5024 53.5178 42.3091 49.7202 42.3569L40.6416 42.4713ZM44.5167 25.019C44.8964 24.5395 45.5148 24.1608 46.3718 23.8829C47.2585 23.6047 48.2952 23.4581 49.482 23.4432C50.8764 23.4256 51.8226 23.1615 52.3206 22.6507C52.8479 22.11 53.1035 21.2017 53.0875 19.926C53.0688 18.4425 52.744 17.3932 52.1131 16.778C51.5115 16.1328 50.6025 15.8178 49.3861 15.8332C47.6653 15.8548 46.4528 16.1817 45.7486 16.8137C45.0741 17.4453 44.7464 18.5177 44.7654 20.0308C44.777 20.9505 44.7715 21.6924 44.749 22.2565C44.7557 22.7905 44.732 23.2656 44.6779 23.6817C44.6534 24.0975 44.5997 24.5432 44.5167 25.019ZM44.9824 37.2534L49.6552 37.1946C51.4353 37.1722 52.6626 36.8451 53.3371 36.2135C54.0413 35.5815 54.3848 34.5831 54.3677 33.2183C54.3434 31.2899 53.9551 29.915 53.2029 29.0936C52.4804 28.2718 51.2588 27.8718 49.538 27.8935C48.3216 27.9088 47.3743 28.0839 46.696 28.4189C46.0174 28.7241 45.5494 29.2642 45.2921 30.0389C45.0348 30.8137 44.9151 31.9131 44.933 33.3372L44.9824 37.2534ZM68.9676 42.3815C67.9589 42.3942 67.155 42.1818 66.556 41.7443C65.9567 41.277 65.6516 40.6132 65.6407 39.7528L65.3986 20.5276C65.3552 17.086 66.2284 14.5528 68.018 12.9279C69.8369 11.2729 72.6896 10.421 76.5762 10.372C79.7507 10.332 82.1788 11.1026 83.8605 12.6838C85.5714 14.235 86.4457 16.5088 86.4834 19.5053C86.4965 20.5437 86.4796 21.5528 86.4326 22.5326C86.3852 23.4828 86.3046 24.1514 86.1908 24.5386C85.7663 26.176 84.9661 27.4324 83.7902 28.3077C85.4091 29.6226 86.2296 31.1553 86.2516 32.9057L86.3346 39.4922C86.3578 41.3316 85.3458 42.2643 83.2987 42.29C82.2899 42.3027 81.4861 42.0903 80.8871 41.6528C80.2877 41.1855 79.9823 40.4921 79.9707 39.5723L79.8967 33.698C79.8765 32.0958 79.6101 30.9716 79.0975 30.3253C78.6146 29.6785 77.6314 29.3645 76.148 29.3832C74.5459 29.4034 73.4378 29.7734 72.8238 30.4933C72.239 31.1832 71.9584 32.4626 71.9819 34.3318L72.0492 39.6721C72.0716 41.4522 71.0444 42.3554 68.9676 42.3815ZM71.5183 25.7917C72.2521 25.1593 72.8998 24.7506 73.4612 24.5654C74.052 24.3503 74.8962 24.2358 75.994 24.222C77.4774 24.2033 78.5594 24.1155 79.2399 23.9585C79.9501 23.8012 80.406 23.4839 80.6077 23.0066C80.8094 22.5293 80.9039 21.7863 80.8912 20.7775C80.8658 18.7601 80.5367 17.3696 79.904 16.606C79.3005 15.8124 78.2125 15.4256 76.6401 15.4454C74.8897 15.4674 73.6486 15.8836 72.917 16.694C72.215 17.5041 71.8766 18.903 71.9016 20.8908C71.914 21.8698 71.8805 22.7456 71.8012 23.5181C71.7512 24.2606 71.6569 25.0184 71.5183 25.7917ZM98.5569 39.1157C98.5819 41.1035 97.5561 42.1105 95.4793 42.1366C94.4705 42.1493 93.6663 41.9072 93.0666 41.4103C92.4668 40.9134 92.1608 40.1755 92.1485 39.1964L91.9265 21.5732C91.8749 17.479 92.6688 14.5461 94.3082 12.7748C95.9476 11.0034 98.5326 10.0955 102.063 10.051C105.683 10.0054 108.364 10.8618 110.107 12.6203C111.851 14.3787 112.748 17.2754 112.798 21.3103L113.02 38.9335C113.045 40.9213 112.02 41.9283 109.943 41.9544C108.934 41.9671 108.13 41.725 107.53 41.2282C106.93 40.7313 106.624 39.9933 106.612 39.0142L106.477 28.289C105.919 28.8005 105.302 29.2385 104.624 29.6031C103.976 29.9674 103.207 30.1551 102.317 30.1663C101.011 30.1828 100.035 30.4324 99.3883 30.9154C98.7713 31.3979 98.4704 32.2474 98.4857 33.4638L98.5569 39.1157ZM98.1256 26.0797C98.5944 25.599 99.1534 25.221 99.8027 24.9458C100.482 24.6702 101.296 24.5264 102.245 24.5145C103.373 24.5003 104.232 24.4004 104.823 24.2149C105.444 24.0291 105.87 23.6825 106.101 23.1751C106.332 22.6677 106.441 21.9245 106.429 20.9455C106.401 18.75 106.071 17.2556 105.438 16.4624C104.804 15.6396 103.686 15.2382 102.084 15.2584C100.601 15.2771 99.5827 15.7202 99.0298 16.5877C98.5062 17.4251 98.2587 18.9712 98.2871 21.2261C98.3016 22.3831 98.2991 23.3624 98.2795 24.1638C98.26 24.9652 98.2087 25.6039 98.1256 26.0797ZM122.386 41.7977C120.191 41.8254 119.08 40.8453 119.055 38.8575L118.727 12.8233C118.714 11.7849 118.957 11.0251 119.455 10.5441C119.954 10.063 120.752 9.8156 121.85 9.80177C124.015 9.77449 125.111 10.7547 125.136 12.7425L125.464 38.7768C125.476 39.7855 125.234 40.5452 124.736 41.0559C124.267 41.5366 123.484 41.7839 122.386 41.7977ZM137.975 38.6192C138 40.607 136.974 41.6139 134.897 41.6401C133.889 41.6528 133.084 41.4107 132.485 40.9138C131.885 40.4169 131.579 39.679 131.567 38.6999L131.346 21.2102C131.311 18.4214 131.654 16.1916 132.375 14.5208C133.095 12.8203 134.296 11.5738 135.977 10.7811C137.659 9.98839 139.909 9.5743 142.727 9.5388C146.466 9.49171 149.295 10.3314 151.216 12.058C153.166 13.7545 154.168 16.7092 154.221 20.9221L154.441 38.4118C154.466 40.3996 153.44 41.4065 151.363 41.4327C150.355 41.4454 149.55 41.2033 148.951 40.7064C148.351 40.2095 148.045 39.4715 148.033 38.4925L147.812 21.0028C147.785 18.8074 147.379 17.2546 146.596 16.3446C145.843 15.4045 144.576 14.9457 142.796 14.9682C141.401 14.9857 140.336 15.2069 139.599 15.6316C138.863 16.0563 138.367 16.7153 138.111 17.6087C137.855 18.5022 137.736 19.6758 137.755 21.1295L137.975 38.6192Z" fill="#226CE6"/>
<path d="M24.9429 45.8737L23.2524 44.805L23.2218 44.8533L23.194 44.9034L24.9429 45.8737ZM21.1687 43.0726L23.1686 43.0474L23.1441 41.1009L21.1976 41.0728L21.1687 43.0726ZM17.7381 42.8043L18.0098 40.8228L17.9887 40.8199L17.9674 40.8175L17.7381 42.8043ZM14.926 42.172L15.6719 40.3163L15.6625 40.3125L15.653 40.3088L14.926 42.172ZM13.7557 37.6022L15.1876 38.9985L13.7557 37.6022ZM19.0454 37.046L19.3924 35.0763L19.0454 37.046ZM25.8938 36.5592L26.935 38.2668L26.935 38.2668L25.8938 36.5592ZM26.0969 31.4825L24.7006 32.9144L24.7181 32.9314L24.7359 32.948L26.0969 31.4825ZM22.4709 29.8368L21.9251 31.7609L21.929 31.762L22.4709 29.8368ZM15.2599 26.2778L13.8636 27.7097L13.8709 27.7167L13.8782 27.7237L15.2599 26.2778ZM15.0663 14.4405L13.5684 13.1153L13.5671 13.1168L15.0663 14.4405ZM20.7685 11.2975L21.1618 13.2585L22.7893 12.9321L22.7684 11.2723L20.7685 11.2975ZM25.0831 11.0651L23.0832 11.0903L23.1063 12.9252L24.9364 13.0598L25.0831 11.0651ZM29.4561 11.9448L28.7368 13.8109L28.7522 13.8169L28.7677 13.8226L29.4561 11.9448ZM30.5825 16.5596L32.0144 17.9559L30.5825 16.5596ZM25.7384 17.1548L25.3579 19.1182L25.3906 19.1246L25.4234 19.1298L25.7384 17.1548ZM20.3141 17.6237L21.4615 19.2618L21.4615 19.2618L20.3141 17.6237ZM20.7751 22.4249L22.041 20.8765L22.041 20.8765L20.7751 22.4249ZM25.8771 24.6307L25.3244 26.5529L25.3358 26.5561L25.8771 24.6307ZM31.7496 27.9395L30.1648 29.1595L30.171 29.1676L30.1772 29.1755L31.7496 27.9395ZM31.4052 39.4719L32.9182 40.7799L31.4052 39.4719ZM25.481 42.6622L25.0728 40.7043L23.4605 41.0405L23.4812 42.6874L25.481 42.6622ZM23.4896 43.355C23.5011 44.2627 23.3391 44.6678 23.2524 44.805L26.6334 46.9425C27.3031 45.8832 27.5055 44.5923 27.4893 43.3046L23.4896 43.355ZM23.194 44.9034C23.1736 44.9402 23.1646 44.9475 23.1735 44.9377C23.1835 44.9268 23.207 44.9044 23.2448 44.881C23.283 44.8574 23.3209 44.8422 23.3512 44.8339C23.3802 44.826 23.3897 44.8278 23.3718 44.8281L23.4222 48.8277C24.8667 48.8096 26.0174 48.0593 26.6917 46.8441L23.194 44.9034ZM23.3718 44.8281C23.2198 44.83 23.1795 44.8059 23.2054 44.8166C23.2434 44.8323 23.289 44.8663 23.3158 44.8999C23.3346 44.9235 23.3015 44.8939 23.2623 44.7503C23.2223 44.6037 23.1853 44.3707 23.1809 44.0265L19.1812 44.0769C19.1956 45.2155 19.4229 46.4347 20.1896 47.3953C21.0318 48.4503 22.2341 48.8427 23.4222 48.8277L23.3718 44.8281ZM23.1809 44.0265L23.1686 43.0474L19.1689 43.0978L19.1812 44.0769L23.1809 44.0265ZM21.1976 41.0728C20.1878 41.0583 19.1256 40.9758 18.0098 40.8228L17.4664 44.7857C18.7285 44.9588 19.9535 45.0553 21.1399 45.0724L21.1976 41.0728ZM17.9674 40.8175C16.905 40.6948 16.1607 40.5128 15.6719 40.3163L14.1801 44.0277C15.1229 44.4067 16.2533 44.6462 17.5088 44.7911L17.9674 40.8175ZM15.653 40.3088C15.2762 40.1618 15.1458 40.0226 15.1065 39.9707C15.0801 39.9358 15.0276 39.8581 15.0248 39.6337L11.0251 39.6841C11.0372 40.6464 11.3091 41.581 11.9164 42.3838C12.5108 43.1696 13.3234 43.6936 14.199 44.0352L15.653 40.3088ZM15.0248 39.6337C15.0191 39.1868 15.1342 39.0533 15.1876 38.9985L12.3238 36.206C11.3811 37.1727 11.009 38.4102 11.0251 39.6841L15.0248 39.6337ZM15.1876 38.9985C15.1964 38.9896 15.4072 38.7804 16.263 38.7696L16.2126 34.77C14.8136 34.7876 13.3696 35.1334 12.3238 36.206L15.1876 38.9985ZM16.263 38.7696C16.8678 38.762 17.6714 38.8348 18.6984 39.0157L19.3924 35.0763C18.2186 34.8696 17.1505 34.7581 16.2126 34.77L16.263 38.7696ZM18.6984 39.0157C19.8825 39.2243 20.9775 39.3334 21.9672 39.3209L21.9168 35.3213C21.245 35.3297 20.4089 35.2554 19.3924 35.0763L18.6984 39.0157ZM21.9672 39.3209C23.8775 39.2969 25.6569 39.0461 26.935 38.2668L24.8526 34.8516C24.5405 35.0418 23.6854 35.299 21.9168 35.3213L21.9672 39.3209ZM26.935 38.2668C28.6224 37.2378 29.0807 35.3645 29.0588 33.6261L25.0591 33.6765C25.0661 34.2363 24.9908 34.5603 24.9249 34.7247C24.8944 34.8009 24.8697 34.8337 24.8627 34.8422C24.8572 34.8489 24.856 34.8495 24.8526 34.8516L26.935 38.2668ZM29.0588 33.6261C29.041 32.2184 28.4895 30.9749 27.4579 30.0169L24.7359 32.948C24.9654 33.1611 25.0551 33.3634 25.0591 33.6765L29.0588 33.6261ZM27.4932 30.0505C26.4981 29.0803 24.8434 28.4268 23.0127 27.9116L21.929 31.762C23.7313 32.2692 24.494 32.7129 24.7006 32.9144L27.4932 30.0505ZM23.0166 27.9127C19.8434 27.0126 17.8016 25.9402 16.6417 24.8318L13.8782 27.7237C15.7218 29.4855 18.4873 30.7857 21.9251 31.7609L23.0166 27.9127ZM16.6562 24.8459C15.613 23.8286 15.0313 22.4846 15.0079 20.6282L11.0082 20.6786C11.0432 23.4504 11.9627 25.8561 13.8636 27.7097L16.6562 24.8459ZM15.0079 20.6282C14.9807 18.4669 15.5537 16.9103 16.5655 15.7643L13.5671 13.1168C11.7704 15.1516 10.9712 17.7368 11.0082 20.6786L15.0079 20.6282ZM16.5642 15.7658C17.6753 14.5099 19.1693 13.6581 21.1618 13.2585L20.3752 9.33659C17.632 9.8868 15.3245 11.1304 13.5684 13.1153L16.5642 15.7658ZM22.7684 11.2723L22.7672 11.1833L18.7675 11.2337L18.7687 11.3227L22.7684 11.2723ZM22.7672 11.1833C22.754 10.1357 22.9205 9.68387 22.9974 9.55454C23.0183 9.51953 23.0008 9.56019 22.93 9.59988C22.8632 9.63736 22.8415 9.62176 22.9284 9.62067L22.878 5.62098C21.4929 5.63843 20.2913 6.28066 19.5604 7.50842C18.9254 8.575 18.7508 9.90787 18.7675 11.2337L22.7672 11.1833ZM22.9284 9.62067C23.0093 9.61965 22.9828 9.63463 22.9101 9.59645C22.8332 9.55602 22.8093 9.51127 22.8262 9.53802C22.8515 9.57799 22.9174 9.70437 22.9764 9.9747C23.0349 10.2426 23.0771 10.6083 23.0832 11.0903L27.0829 11.04C27.0666 9.74275 26.8622 8.43533 26.2062 7.39889C25.4503 6.20443 24.2439 5.60378 22.878 5.62098L22.9284 9.62067ZM24.9364 13.0598C26.5269 13.1767 27.7792 13.4418 28.7368 13.8109L30.1754 10.0786C28.7476 9.52824 27.0845 9.20692 25.2297 9.07053L24.9364 13.0598ZM28.7677 13.8226C29.1299 13.9553 29.2451 14.0839 29.2754 14.1239C29.2954 14.1503 29.3542 14.2317 29.3573 14.4831L33.357 14.4327C33.3449 13.4676 33.0792 12.522 32.4655 11.7107C31.862 10.913 31.0344 10.3932 30.1445 10.067L28.7677 13.8226ZM29.3573 14.4831C29.3625 14.8934 29.255 15.0562 29.1506 15.1633L32.0144 17.9559C32.9646 16.9815 33.3735 15.7432 33.357 14.4327L29.3573 14.4831ZM29.1506 15.1633C29.1889 15.1241 29.014 15.3359 28.1192 15.3472L28.1695 19.3468C29.5295 19.3297 30.9801 19.0166 32.0144 17.9559L29.1506 15.1633ZM28.1192 15.3472C27.5092 15.3548 26.8223 15.3023 26.0534 15.1797L25.4234 19.1298C26.379 19.2822 27.2961 19.3578 28.1695 19.3468L28.1192 15.3472ZM26.1189 15.1913C25.1303 14.9997 24.1476 14.9076 23.1732 14.9199L23.2235 18.9195C23.9106 18.9109 24.6212 18.9755 25.3579 19.1182L26.1189 15.1913ZM23.1732 14.9199C21.7211 14.9381 20.289 15.1995 19.1667 15.9855L21.4615 19.2618C21.6334 19.1414 22.1241 18.9334 23.2235 18.9195L23.1732 14.9199ZM19.1667 15.9855C17.813 16.9337 17.3447 18.4173 17.3632 19.8863L21.3629 19.836C21.3589 19.5191 21.4075 19.362 21.4316 19.3053C21.4477 19.2676 21.4528 19.2679 21.4615 19.2618L19.1667 15.9855ZM17.3632 19.8863C17.3845 21.5777 18.2532 22.9465 19.5093 23.9734L22.041 20.8765C21.4382 20.3838 21.3655 20.0434 21.3629 19.836L17.3632 19.8863ZM19.5093 23.9734C20.7772 25.0099 22.8223 25.8334 25.3244 26.5528L26.4297 22.7086C23.9882 22.0066 22.632 21.3596 22.041 20.8765L19.5093 23.9734ZM25.3358 26.5561C27.9965 27.304 29.4637 28.2488 30.1648 29.1595L33.3343 26.7194C31.8634 24.8089 29.4155 23.5478 26.4183 22.7053L25.3358 26.5561ZM30.1772 29.1755C30.9328 30.1367 31.396 31.4539 31.4191 33.2848L35.4188 33.2345C35.3873 30.7337 34.7375 28.5042 33.3219 26.7034L30.1772 29.1755ZM31.4191 33.2848C31.4464 35.457 30.8819 37.0191 29.8922 38.1639L32.9182 40.7799C34.6777 38.7447 35.4557 36.1653 35.4188 33.2345L31.4191 33.2848ZM29.8922 38.1639C28.8702 39.346 27.3279 40.2341 25.0728 40.7043L25.8893 44.6201C28.7839 44.0166 31.191 42.7778 32.9182 40.7799L29.8922 38.1639ZM23.4812 42.6874L23.4896 43.355L27.4893 43.3046L27.4809 42.637L23.4812 42.6874ZM39.2091 41.8217L40.7039 40.4929L39.2091 41.8217ZM38.7189 17.0358L36.7852 16.5248L36.7786 16.5499L36.7726 16.5752L38.7189 17.0358ZM40.2834 14.0339L38.7387 12.7635L38.735 12.7681L40.2834 14.0339ZM43.6365 11.6771L42.8574 9.83511L42.8574 9.83511L43.6365 11.6771ZM56.6048 12.9381L57.921 11.4323L57.921 11.4323L56.6048 12.9381ZM58.6045 23.2837L56.7752 22.4752L56.7656 22.4971L56.7564 22.5191L58.6045 23.2837ZM56.5871 25.6682L55.5611 23.9514L52.2149 25.9511L55.7909 27.5029L56.5871 25.6682ZM59.7365 28.3436L57.9876 29.3139L57.9971 29.3311L58.007 29.3481L59.7365 28.3436ZM58.1021 39.9368L56.7977 38.4207L56.7916 38.426L56.7856 38.4312L58.1021 39.9368ZM44.5167 25.019L42.5465 24.6753L46.0847 26.2606L44.5167 25.019ZM46.3718 23.8829L45.773 21.9747L45.764 21.9775L45.755 21.9804L46.3718 23.8829ZM52.3206 22.6507L50.8887 21.2545L50.8887 21.2545L52.3206 22.6507ZM52.1131 16.778L50.6503 18.1419L50.6827 18.1767L50.7168 18.21L52.1131 16.778ZM45.7486 16.8137L44.4128 15.3252L44.397 15.3394L44.3816 15.3538L45.7486 16.8137ZM44.749 22.2565L42.7505 22.1765L42.7484 22.2291L42.7491 22.2817L44.749 22.2565ZM44.6779 23.6817L42.6946 23.4238L42.6855 23.4939L42.6813 23.5644L44.6779 23.6817ZM44.9824 37.2534L42.9825 37.2786L43.0077 39.2785L45.0076 39.2533L44.9824 37.2534ZM53.3371 36.2135L52.0013 34.725L51.9855 34.7392L51.9701 34.7536L53.3371 36.2135ZM53.2029 29.0936L51.7009 30.4142L51.7143 30.4294L51.728 30.4443L53.2029 29.0936ZM46.696 28.4189L47.5165 30.2428L47.5493 30.2281L47.5816 30.2121L46.696 28.4189ZM45.2921 30.0389L43.394 29.4085L45.2921 30.0389ZM40.6164 40.4714C40.6077 40.4715 40.6132 40.4707 40.6294 40.4739C40.646 40.4773 40.6662 40.4834 40.6867 40.4927C40.707 40.502 40.7199 40.5108 40.7247 40.5144C40.729 40.5176 40.7214 40.5126 40.7039 40.4929L37.7143 43.1505C38.4713 44.002 39.4941 44.4859 40.6668 44.4711L40.6164 40.4714ZM40.7039 40.4929C40.6822 40.4685 40.6127 40.3948 40.6091 40.1126L36.6094 40.163C36.6231 41.2457 36.9534 42.2945 37.7143 43.1505L40.7039 40.4929ZM40.6091 40.1126L40.3568 20.0863L36.3572 20.1367L36.6094 40.163L40.6091 40.1126ZM40.3568 20.0863C40.3468 19.2896 40.4446 18.4281 40.6651 17.4964L36.7726 16.5752C36.486 17.7863 36.3425 18.9753 36.3572 20.1367L40.3568 20.0863ZM40.6525 17.5467C40.8568 16.7735 41.2377 16.0265 41.8318 15.2997L38.735 12.7681C37.8095 13.9001 37.1474 15.1544 36.7852 16.5248L40.6525 17.5467ZM41.8281 15.3043C42.3648 14.6517 43.1901 14.0374 44.4155 13.5192L42.8574 9.83511C41.1902 10.5402 39.7802 11.4971 38.7387 12.7635L41.8281 15.3043ZM44.4155 13.5192C45.5357 13.0454 47.1464 12.7429 49.3468 12.7152L49.2964 8.71549C46.8092 8.74682 44.6298 9.0855 42.8574 9.83511L44.4155 13.5192ZM49.3468 12.7152C52.1429 12.68 54.032 13.3457 55.2885 14.4439L57.921 11.4323C55.6971 9.48838 52.7308 8.67223 49.2964 8.71549L49.3468 12.7152ZM55.2885 14.4439C56.4703 15.4769 57.2393 17.1559 57.2735 19.8732L61.2732 19.8229C61.2297 16.3692 60.2196 13.4415 57.921 11.4323L55.2885 14.4439ZM57.2735 19.8732C57.286 20.8589 57.1106 21.7165 56.7752 22.4752L60.4338 24.0923C61.0217 22.7622 61.2922 21.3294 61.2732 19.8229L57.2735 19.8732ZM56.7564 22.5191C56.4781 23.1919 56.081 23.6407 55.5611 23.9514L57.613 27.385C58.9191 26.6045 59.867 25.4636 60.4526 24.0484L56.7564 22.5191ZM55.7909 27.5029C56.9371 28.0003 57.6061 28.6264 57.9876 29.3139L61.4853 27.3733C60.5916 25.7624 59.161 24.6049 57.3832 23.8335L55.7909 27.5029ZM58.007 29.3481C58.4323 30.0803 58.7526 31.2897 58.7762 33.1628L62.7759 33.1124C62.7479 30.8913 62.3752 28.9046 61.4659 27.3391L58.007 29.3481ZM58.7762 33.1628C58.8081 35.6905 58.0656 37.3298 56.7977 38.4207L59.4065 41.4529C61.7786 39.4119 62.8188 36.5184 62.7759 33.1124L58.7762 33.1628ZM56.7856 38.4312C55.513 39.544 53.2843 40.3119 49.695 40.3571L49.7454 44.3568C53.7512 44.3063 57.1105 43.4607 59.4186 41.4424L56.7856 38.4312ZM49.695 40.3571L40.6164 40.4714L40.6668 44.4711L49.7454 44.3568L49.695 40.3571ZM46.0847 26.2606C46.1291 26.2045 46.3392 25.996 46.9886 25.7854L45.755 21.9804C44.6903 22.3256 43.6637 22.8745 42.9487 23.7775L46.0847 26.2606ZM46.9706 25.7912C47.6284 25.5848 48.464 25.4561 49.5071 25.443L49.4568 21.4433C48.1264 21.4601 46.8886 21.6246 45.773 21.9747L46.9706 25.7912ZM49.5071 25.443C50.9874 25.4244 52.6598 25.1676 53.7525 24.047L50.8887 21.2545C50.9615 21.1797 50.9557 21.2341 50.6997 21.3055C50.4471 21.3761 50.0468 21.4359 49.4568 21.4433L49.5071 25.443ZM53.7525 24.047C54.8357 22.9362 55.1057 21.3633 55.0873 19.9008L51.0876 19.9512C51.094 20.4601 51.0439 20.8044 50.9826 21.0221C50.9231 21.2335 50.868 21.2757 50.8887 21.2545L53.7525 24.047ZM55.0873 19.9008C55.0662 18.2283 54.7094 16.5162 53.5094 15.3461L50.7168 18.21C50.7786 18.2702 51.0713 18.6568 51.0876 19.9512L55.0873 19.9008ZM53.5759 15.4142C52.4614 14.2188 50.9195 13.8137 49.3609 13.8333L49.4113 17.833C50.2855 17.822 50.5616 18.0468 50.6503 18.1419L53.5759 15.4142ZM49.3609 13.8333C47.5095 13.8566 45.6742 14.1931 44.4128 15.3252L47.0845 18.3021C47.2315 18.1702 47.8211 17.853 49.4113 17.833L49.3609 13.8333ZM44.3816 15.3538C43.0985 16.5553 42.7438 18.3271 42.7656 20.056L46.7653 20.0056C46.7489 18.7083 47.0497 18.3353 47.1157 18.2736L44.3816 15.3538ZM42.7656 20.056C42.777 20.9595 42.7711 21.6623 42.7505 22.1765L46.7474 22.3365C46.7719 21.7226 46.7771 20.9416 46.7653 20.0056L42.7656 20.056ZM42.7491 22.2817C42.7549 22.7453 42.7337 23.1228 42.6946 23.4238L46.6612 23.9396C46.7303 23.4084 46.7564 22.8358 46.7488 22.2313L42.7491 22.2817ZM42.6813 23.5644C42.662 23.8933 42.6184 24.2628 42.5465 24.6753L46.4869 25.3628C46.581 24.8236 46.6449 24.3016 46.6744 23.7991L42.6813 23.5644ZM45.0076 39.2533L49.6804 39.1944L49.63 35.1947L44.9572 35.2536L45.0076 39.2533ZM49.6804 39.1944C51.5559 39.1708 53.4511 38.8468 54.7042 37.6734L51.9701 34.7536C51.8741 34.8435 51.3146 35.1735 49.63 35.1947L49.6804 39.1944ZM54.673 37.7019C55.9688 36.539 56.3887 34.873 56.3675 33.1931L52.3678 33.2435C52.381 34.2932 52.1139 34.624 52.0013 34.725L54.673 37.7019ZM56.3675 33.1931C56.3412 31.1022 55.9317 29.112 54.6779 27.7429L51.728 30.4443C51.9786 30.7179 52.3456 31.4776 52.3678 33.2435L56.3675 33.1931ZM54.7049 27.773C53.4214 26.3131 51.4853 25.8688 49.5128 25.8936L49.5632 29.8933C51.0323 29.8748 51.5395 30.2305 51.7009 30.4142L54.7049 27.773ZM49.5128 25.8936C48.159 25.9107 46.8709 26.1019 45.8104 26.6256L47.5816 30.2121C47.8776 30.0659 48.4842 29.9069 49.5632 29.8933L49.5128 25.8936ZM45.8755 26.5949C44.6338 27.1535 43.8086 28.1601 43.394 29.4085L47.1901 30.6693C47.2901 30.3682 47.4009 30.2948 47.5165 30.2428L45.8755 26.5949ZM43.394 29.4085C43.033 30.4957 42.9142 31.8556 42.9332 33.3624L46.9329 33.312C46.916 31.9706 47.0366 31.1316 47.1901 30.6693L43.394 29.4085ZM42.9332 33.3624L42.9825 37.2786L46.9822 37.2282L46.9329 33.312L42.9332 33.3624ZM66.556 41.7443L65.3264 43.3216L65.351 43.3408L65.3763 43.3592L66.556 41.7443ZM68.018 12.9279L69.3624 14.4086L69.3639 14.4072L68.018 12.9279ZM83.8605 12.6838L82.4904 14.1409L82.5037 14.1533L82.5171 14.1655L83.8605 12.6838ZM86.4326 22.5326L88.4301 22.6322L88.4303 22.6285L86.4326 22.5326ZM86.1908 24.5386L84.2719 23.9746L84.2629 24.0055L84.2548 24.0367L86.1908 24.5386ZM83.7902 28.3077L82.596 26.7034L80.5332 28.2389L82.5293 29.8602L83.7902 28.3077ZM80.8871 41.6528L79.6575 43.2301L79.6821 43.2493L79.7073 43.2678L80.8871 41.6528ZM79.0975 30.3253L77.495 31.5219L77.5124 31.5452L77.5305 31.568L79.0975 30.3253ZM72.8238 30.4933L71.3021 29.1953L71.2981 29.2001L72.8238 30.4933ZM71.5183 25.7917L69.5496 25.4388L68.5553 30.985L72.8238 27.3068L71.5183 25.7917ZM73.4612 24.5654L74.0875 26.4649L74.1167 26.4552L74.1457 26.4447L73.4612 24.5654ZM79.2399 23.9585L78.8074 22.0059L78.7989 22.0077L78.7905 22.0097L79.2399 23.9585ZM79.904 16.606L78.312 17.8166L78.3373 17.85L78.364 17.8822L79.904 16.606ZM72.917 16.694L71.4325 15.3538L71.4189 15.3689L71.4056 15.3842L72.917 16.694ZM71.8012 23.5181L69.8116 23.3139L69.8081 23.3488L69.8057 23.3837L71.8012 23.5181ZM68.9424 40.3817C68.2128 40.3909 67.8788 40.2338 67.7358 40.1293L65.3763 43.3592C66.4312 44.1298 67.705 44.3976 68.9928 44.3814L68.9424 40.3817ZM67.7857 40.1669C67.7329 40.1257 67.6449 40.0714 67.6406 39.7277L63.6409 39.778C63.6583 41.155 64.1805 42.4283 65.3264 43.3216L67.7857 40.1669ZM67.6406 39.7277L67.3984 20.5024L63.3987 20.5528L63.6409 39.778L67.6406 39.7277ZM67.3984 20.5024C67.3591 17.3839 68.1519 15.5077 69.3624 14.4086L66.6735 11.4472C64.3048 13.5979 63.3513 16.7882 63.3987 20.5528L67.3984 20.5024ZM69.3639 14.4072C70.6617 13.2265 72.9339 12.4181 76.6014 12.3719L76.551 8.37219C72.4453 8.42391 69.0121 9.31942 66.672 11.4486L69.3639 14.4072ZM76.6014 12.3719C79.4556 12.3359 81.3089 13.0299 82.4904 14.1409L85.2305 11.2268C83.0488 9.17535 80.0459 8.32817 76.551 8.37219L76.6014 12.3719ZM82.5171 14.1655C83.7028 15.2405 84.4507 16.9151 84.4836 19.5305L88.4833 19.4801C88.4407 16.1025 87.4399 13.2294 85.2038 11.2021L82.5171 14.1655ZM84.4836 19.5305C84.4962 20.5309 84.4798 21.4996 84.4349 22.4368L88.4303 22.6285C88.4793 21.6061 88.4968 20.5566 88.4833 19.4801L84.4836 19.5305ZM84.435 22.433C84.3878 23.3802 84.3124 23.837 84.2719 23.9746L88.1096 25.1027C88.2968 24.4659 88.3825 23.5854 88.4301 22.6322L84.435 22.433ZM84.2548 24.0367C83.9262 25.3041 83.3512 26.1412 82.596 26.7034L84.9844 29.912C86.581 28.7235 87.6064 27.0479 88.1268 25.0405L84.2548 24.0367ZM82.5293 29.8602C83.785 30.88 84.2387 31.8891 84.2518 32.9309L88.2515 32.8806C88.2205 30.4215 87.0333 28.3652 85.0511 26.7553L82.5293 29.8602ZM84.2518 32.9309L84.3348 39.5174L88.3344 39.467L88.2515 32.8806L84.2518 32.9309ZM84.3348 39.5174C84.3383 39.7968 84.3008 39.955 84.2741 40.0298C84.2614 40.0657 84.2508 40.0833 84.2468 40.0894C84.2432 40.095 84.2408 40.0976 84.2376 40.1005C84.2365 40.1016 84.0384 40.2806 83.2735 40.2902L83.3239 44.2899C84.606 44.2737 85.9375 43.9735 86.9484 43.0419C87.9994 42.0733 88.3507 40.7535 88.3344 39.467L84.3348 39.5174ZM83.2735 40.2902C82.5438 40.2994 82.2099 40.1423 82.0668 40.0378L79.7073 43.2678C80.7622 44.0384 82.036 44.3061 83.3239 44.2899L83.2735 40.2902ZM82.1167 40.0754C82.0772 40.0446 82.0578 40.0191 82.0388 39.976C82.0151 39.9222 81.9736 39.7941 81.9705 39.5472L77.9708 39.5975C77.9883 40.9832 78.4774 42.3102 79.6575 43.2301L82.1167 40.0754ZM81.9705 39.5472L81.8965 33.6728L77.8969 33.7231L77.9708 39.5975L81.9705 39.5472ZM81.8965 33.6728C81.8753 31.9832 81.6121 30.2773 80.6646 29.0825L77.5305 31.568C77.6082 31.666 77.8778 32.2085 77.8969 33.7231L81.8965 33.6728ZM80.7001 29.1286C79.6072 27.665 77.7358 27.363 76.1228 27.3833L76.1732 31.383C76.7857 31.3753 77.1708 31.44 77.3895 31.5099C77.5948 31.5755 77.5646 31.615 77.495 31.5219L80.7001 29.1286ZM76.1228 27.3833C74.3273 27.406 72.4827 27.8114 71.3021 29.1954L74.3454 31.7913C74.393 31.7355 74.7645 31.4008 76.1732 31.383L76.1228 27.3833ZM71.2981 29.2001C70.2051 30.4895 69.9579 32.4364 69.9821 34.357L73.9817 34.3066C73.9588 32.4888 74.2728 31.8768 74.3494 31.7865L71.2981 29.2001ZM69.9821 34.357L70.0493 39.6973L74.049 39.6469L73.9817 34.3066L69.9821 34.357ZM70.0493 39.6973C70.0525 39.9524 70.0166 40.087 69.9962 40.1414C69.9865 40.1674 69.9795 40.1776 69.9788 40.1786C69.9784 40.1792 69.9782 40.1797 69.975 40.1826C69.9654 40.191 69.7415 40.3716 68.9424 40.3817L68.9928 44.3814C70.2705 44.3653 71.5986 44.0813 72.6162 43.1866C73.6922 42.2405 74.0652 40.9327 74.049 39.6469L70.0493 39.6973ZM72.8238 27.3068C73.4697 26.7502 73.8847 26.5317 74.0875 26.4649L72.835 22.666C71.9149 22.9694 71.0345 23.5684 70.2127 24.2766L72.8238 27.3068ZM74.1457 26.4447C74.4237 26.3434 75.0047 26.2346 76.0192 26.2218L75.9688 22.2221C74.7878 22.237 73.6803 22.3572 72.7768 22.6862L74.1457 26.4447ZM76.0192 26.2218C77.5232 26.2029 78.7868 26.1155 79.6893 25.9074L78.7905 22.0097C78.3319 22.1154 77.4316 22.2037 75.9688 22.2221L76.0192 26.2218ZM79.6724 25.9112C80.7406 25.6746 81.9038 25.0777 82.45 23.7851L78.7655 22.2281C78.7905 22.1689 78.8255 22.1108 78.868 22.0594C78.9099 22.0088 78.9487 21.9773 78.972 21.961C79.0132 21.9323 78.9827 21.967 78.8074 22.0059L79.6724 25.9112ZM82.45 23.7851C82.8188 22.9123 82.9046 21.825 82.8911 20.7523L78.8914 20.8027C78.8969 21.2439 78.8782 21.5848 78.8458 21.839C78.8299 21.9645 78.8118 22.059 78.7953 22.1271C78.7872 22.1606 78.78 22.1854 78.7744 22.2027C78.7717 22.2113 78.7694 22.2176 78.7678 22.2219C78.7663 22.2262 78.7654 22.2282 78.7655 22.2281L82.45 23.7851ZM82.8911 20.7523C82.8649 18.6733 82.5477 16.6618 81.4439 15.3299L78.364 17.8822C78.5257 18.0773 78.8667 18.8468 78.8914 20.8027L82.8911 20.7523ZM81.4959 15.3954C80.3289 13.8607 78.4489 13.4224 76.6149 13.4455L76.6653 17.4452C77.9762 17.4287 78.2721 17.7642 78.312 17.8166L81.4959 15.3954ZM76.6149 13.4455C74.6344 13.4705 72.7112 13.9374 71.4325 15.3538L74.4015 18.0343C74.586 17.8299 75.1449 17.4644 76.6653 17.4452L76.6149 13.4455ZM71.4056 15.3842C70.203 16.7719 69.8752 18.8091 69.9018 20.916L73.9015 20.8656C73.8779 18.9968 74.227 18.2362 74.4284 18.0038L71.4056 15.3842ZM69.9018 20.916C69.9134 21.8372 69.8814 22.6342 69.8116 23.3139L73.7907 23.7223C73.8795 22.857 73.9145 21.9025 73.9015 20.8656L69.9018 20.916ZM69.8057 23.3837C69.7609 24.049 69.676 24.7338 69.5496 25.4388L73.4869 26.1446C73.6377 25.303 73.7415 24.4722 73.7967 23.6525L69.8057 23.3837ZM93.0666 41.4103L94.3426 39.8703L93.0666 41.4103ZM94.3082 12.7748L95.7761 14.1332L94.3082 12.7748ZM107.53 41.2282L108.806 39.6881L108.806 39.6881L107.53 41.2282ZM106.477 28.289L108.477 28.2638L108.42 23.791L105.125 26.8154L106.477 28.289ZM104.624 29.6031L103.677 27.8418L103.66 27.8505L103.644 27.8596L104.624 29.6031ZM99.3883 30.9154L98.1917 29.3128L98.1738 29.3262L98.1563 29.3399L99.3883 30.9154ZM98.1256 26.0797L96.1554 25.7359L95.0441 32.1045L99.5576 27.476L98.1256 26.0797ZM99.8027 24.9458L99.0505 23.0927L99.0363 23.0984L99.0222 23.1044L99.8027 24.9458ZM104.823 24.2149L104.25 22.2989L104.237 22.3027L104.224 22.3067L104.823 24.2149ZM106.101 23.1751L107.921 24.0038L107.921 24.0038L106.101 23.1751ZM105.438 16.4624L103.853 17.6825L103.864 17.6964L103.875 17.7101L105.438 16.4624ZM99.0298 16.5877L97.3432 15.5128L97.3386 15.5201L97.334 15.5274L99.0298 16.5877ZM98.2795 24.1638L100.279 24.2127L98.2795 24.1638ZM96.5571 39.1409C96.5612 39.4694 96.5202 39.6736 96.4818 39.7887C96.4469 39.8931 96.4145 39.9254 96.4053 39.9345C96.3959 39.9437 96.2056 40.1273 95.4541 40.1368L95.5044 44.1365C96.8297 44.1198 98.1908 43.7868 99.2073 42.7891C100.24 41.7754 100.573 40.4155 100.557 39.0905L96.5571 39.1409ZM95.4541 40.1368C94.777 40.1453 94.4802 39.9843 94.3426 39.8703L91.7906 42.9504C92.8524 43.8302 94.164 44.1533 95.5044 44.1365L95.4541 40.1368ZM94.3426 39.8703C94.3069 39.8407 94.1553 39.727 94.1483 39.1712L90.1486 39.2216C90.1663 40.624 90.6268 41.9862 91.7906 42.9504L94.3426 39.8703ZM94.1483 39.1712L93.9263 21.548L89.9267 21.5984L90.1486 39.2216L94.1483 39.1712ZM93.9263 21.548C93.877 17.6339 94.6589 15.3404 95.7761 14.1332L92.8404 11.4163C90.6788 13.7519 89.8728 17.3241 89.9267 21.5984L93.9263 21.548ZM95.7761 14.1332C96.8991 12.9198 98.8508 12.0916 102.088 12.0508L102.038 8.05116C98.2144 8.09932 94.9961 9.08701 92.8404 11.4163L95.7761 14.1332ZM102.088 12.0508C105.417 12.0089 107.472 12.8029 108.687 14.0283L111.528 11.2122C109.256 8.92082 105.948 8.0019 102.038 8.05116L102.088 12.0508ZM108.687 14.0283C109.893 15.2451 110.75 17.509 110.799 21.3355L114.798 21.2851C114.745 17.0418 113.808 13.5124 111.528 11.2122L108.687 14.0283ZM110.799 21.3355L111.021 38.9587L115.02 38.9083L114.798 21.2851L110.799 21.3355ZM111.021 38.9587C111.025 39.2872 110.984 39.4915 110.945 39.6065C110.91 39.7109 110.878 39.7432 110.869 39.7523C110.859 39.7615 110.669 39.9451 109.918 39.9546L109.968 43.9543C111.293 43.9376 112.654 43.6046 113.671 42.6069C114.703 41.5933 115.037 40.2333 115.02 38.9083L111.021 38.9587ZM109.918 39.9546C109.24 39.9631 108.944 39.8021 108.806 39.6881L106.254 42.7682C107.316 43.648 108.627 43.9712 109.968 43.9543L109.918 39.9546ZM108.806 39.6881C108.77 39.6585 108.619 39.5448 108.612 38.989L104.612 39.0394C104.63 40.4418 105.09 41.804 106.254 42.7682L108.806 39.6881ZM108.612 38.989L108.477 28.2638L104.477 28.3142L104.612 39.0394L108.612 38.989ZM105.125 26.8154C104.692 27.2126 104.211 27.5545 103.677 27.8418L105.571 31.3645C106.393 30.9226 107.147 30.3884 107.829 29.7626L105.125 26.8154ZM103.644 27.8596C103.34 28.0304 102.913 28.1587 102.291 28.1665L102.342 32.1662C103.501 32.1516 104.611 31.9044 105.604 31.3467L103.644 27.8596ZM102.291 28.1665C100.803 28.1852 99.3287 28.4638 98.1917 29.3128L100.585 32.5179C100.741 32.4011 101.219 32.1803 102.342 32.1662L102.291 28.1665ZM98.1563 29.3399C96.8245 30.3814 96.4671 32.0001 96.4859 33.489L100.486 33.4386C100.48 32.9891 100.536 32.7217 100.585 32.5821C100.628 32.4607 100.654 32.4642 100.62 32.4908L98.1563 29.3399ZM96.4859 33.489L96.5571 39.1409L100.557 39.0905L100.486 33.4386L96.4859 33.489ZM99.5576 27.476C99.8316 27.195 100.166 26.9641 100.583 26.7872L99.0222 23.1044C98.1409 23.478 97.3572 24.003 96.6937 24.6834L99.5576 27.476ZM100.555 26.799C100.946 26.6403 101.5 26.524 102.271 26.5143L102.22 22.5146C101.092 22.5288 100.018 22.7 99.0505 23.0927L100.555 26.799ZM102.271 26.5143C103.461 26.4993 104.551 26.3963 105.422 26.1232L104.224 22.3067C103.913 22.4045 103.285 22.5012 102.22 22.5146L102.271 26.5143ZM105.397 26.1309C106.471 25.8092 107.411 25.124 107.921 24.0038L104.281 22.3464C104.284 22.3393 104.292 22.3243 104.306 22.3061C104.32 22.2877 104.334 22.2735 104.346 22.2644C104.357 22.2555 104.359 22.2561 104.345 22.2628C104.332 22.2697 104.302 22.2834 104.25 22.2989L105.397 26.1309ZM107.921 24.0038C108.334 23.0971 108.442 22.0035 108.429 20.9203L104.429 20.9707C104.44 21.8456 104.33 22.2384 104.281 22.3464L107.921 24.0038ZM108.429 20.9203C108.414 19.7394 108.318 18.6708 108.113 17.7463C107.913 16.8392 107.58 15.9403 107.001 15.2148L103.875 17.7101C103.929 17.7778 104.078 18.0227 104.207 18.6099C104.333 19.1797 104.416 19.9561 104.429 20.9707L108.429 20.9203ZM107.022 15.2424C105.832 13.6966 103.941 13.2349 102.059 13.2586L102.109 17.2582C103.432 17.2416 103.776 17.5825 103.853 17.6825L107.022 15.2424ZM102.059 13.2586C100.223 13.2817 98.4028 13.8502 97.3432 15.5128L100.716 17.6626C100.763 17.5902 100.979 17.2725 102.109 17.2582L102.059 13.2586ZM97.334 15.5274C96.8717 16.2668 96.6207 17.159 96.4766 18.0591C96.3288 18.9823 96.2721 20.0547 96.2872 21.2513L100.287 21.2009C100.274 20.1426 100.327 19.3145 100.426 18.6916C100.53 18.0456 100.664 17.746 100.726 17.6479L97.334 15.5274ZM96.2872 21.2513C96.3016 22.3934 96.2989 23.3464 96.2801 24.115L100.279 24.2127C100.299 23.3784 100.302 22.3729 100.287 21.2009L96.2872 21.2513ZM96.2801 24.115C96.2616 24.8729 96.214 25.4001 96.1554 25.7359L100.096 26.4235C100.203 25.8077 100.258 25.0576 100.279 24.2127L96.2801 24.115ZM119.455 10.5441L118.066 9.10507L118.066 9.10507L119.455 10.5441ZM124.736 41.0559L126.168 42.4522L124.736 41.0559ZM122.361 39.7979C121.525 39.8084 121.269 39.6181 121.23 39.584C121.23 39.5836 121.063 39.4638 121.055 38.8323L117.056 38.8827C117.073 40.2389 117.473 41.6031 118.583 42.5828C119.655 43.5287 121.052 43.8147 122.411 43.7975L122.361 39.7979ZM121.055 38.8323L120.727 12.7981L116.728 12.8485L117.056 38.8827L121.055 38.8323ZM120.727 12.7981C120.718 12.0364 120.905 11.925 120.844 11.9831L118.066 9.10507C117.009 10.1253 116.711 11.5333 116.728 12.8485L120.727 12.7981ZM120.844 11.9831C120.813 12.0138 121.001 11.8126 121.875 11.8016L121.824 7.80193C120.503 7.81858 119.095 8.11224 118.066 9.10507L120.844 11.9831ZM121.875 11.8016C122.69 11.7913 122.931 11.979 122.962 12.0069C122.977 12.0209 123.01 12.0523 123.045 12.147C123.085 12.2529 123.132 12.4471 123.136 12.7677L127.136 12.7174C127.119 11.369 126.726 10.0079 125.629 9.02612C124.565 8.07375 123.175 7.78492 121.824 7.80193L121.875 11.8016ZM123.136 12.7677L123.464 38.802L127.464 38.7516L127.136 12.7174L123.136 12.7677ZM123.464 38.802C123.468 39.1456 123.427 39.3655 123.386 39.4946C123.348 39.614 123.312 39.6517 123.304 39.6597L126.168 42.4522C127.167 41.4278 127.48 40.0686 127.464 38.7516L123.464 38.802ZM123.304 39.6597C123.346 39.6167 123.341 39.6484 123.195 39.6947C123.041 39.7433 122.775 39.7926 122.361 39.7979L122.411 43.7975C123.718 43.7811 125.153 43.4933 126.168 42.4522L123.304 39.6597ZM132.485 40.9138L133.761 39.3738L132.485 40.9138ZM132.375 14.5208L134.211 15.313L134.216 15.301L132.375 14.5208ZM135.977 10.7811L135.125 8.97204L135.125 8.97204L135.977 10.7811ZM151.216 12.058L149.879 13.5454L149.891 13.5563L149.903 13.5669L151.216 12.058ZM148.951 40.7064L150.227 39.1663L148.951 40.7064ZM146.596 16.3446L145.036 17.5956L145.058 17.6227L145.08 17.649L146.596 16.3446ZM139.599 15.6316L138.6 13.899L139.599 15.6316ZM138.111 17.6087L140.034 18.1593L140.034 18.1593L138.111 17.6087ZM135.975 38.6444C135.979 38.9729 135.938 39.1771 135.9 39.2922C135.865 39.3966 135.833 39.4289 135.823 39.4379C135.814 39.4472 135.624 39.6308 134.872 39.6403L134.923 43.6399C136.248 43.6233 137.609 43.2903 138.625 42.2926C139.658 41.2789 139.992 39.919 139.975 38.594L135.975 38.6444ZM134.872 39.6403C134.195 39.6488 133.898 39.4877 133.761 39.3738L131.209 42.4539C132.271 43.3337 133.582 43.6568 134.923 43.6399L134.872 39.6403ZM133.761 39.3738C133.725 39.3442 133.573 39.2305 133.566 38.6747L129.567 38.7251C129.584 40.1274 130.045 41.4896 131.209 42.4539L133.761 39.3738ZM133.566 38.6747L133.346 21.185L129.346 21.2354L129.567 38.7251L133.566 38.6747ZM133.346 21.185C133.313 18.5422 133.645 16.6255 134.211 15.313L130.538 13.7286C129.663 15.7576 129.309 18.3006 129.346 21.2354L133.346 21.185ZM134.216 15.301C134.744 14.0566 135.591 13.1746 136.83 12.5901L135.125 8.97204C133.002 9.97292 131.447 11.584 130.533 13.7406L134.216 15.301ZM136.83 12.5901C138.154 11.9661 140.086 11.5722 142.753 11.5386L142.702 7.53896C139.731 7.57638 137.164 8.0107 135.125 8.97204L136.83 12.5901ZM142.753 11.5386C146.211 11.4951 148.47 12.2786 149.879 13.5454L152.553 10.5705C150.121 8.3843 146.72 7.48835 142.702 7.53896L142.753 11.5386ZM149.903 13.5669C151.216 14.7091 152.171 16.9553 152.221 20.9473L156.221 20.8969C156.165 16.463 155.116 12.7998 152.529 10.549L149.903 13.5669ZM152.221 20.9473L152.441 38.437L156.441 38.3866L156.221 20.8969L152.221 20.9473ZM152.441 38.437C152.445 38.7655 152.404 38.9697 152.366 39.0848C152.331 39.1892 152.299 39.2215 152.289 39.2305C152.28 39.2398 152.09 39.4234 151.338 39.4329L151.389 43.4325C152.714 43.4158 154.075 43.0829 155.091 42.0852C156.124 41.0715 156.458 39.7116 156.441 38.3866L152.441 38.437ZM151.338 39.4329C150.661 39.4414 150.364 39.2803 150.227 39.1663L147.675 42.2465C148.737 43.1263 150.048 43.4494 151.389 43.4325L151.338 39.4329ZM150.227 39.1663C150.191 39.1368 150.04 39.0231 150.033 38.4673L146.033 38.5177C146.051 39.92 146.511 41.2822 147.675 42.2465L150.227 39.1663ZM150.033 38.4673L149.812 20.9776L145.813 21.028L146.033 38.5177L150.033 38.4673ZM149.812 20.9776C149.783 18.6569 149.37 16.5012 148.113 15.0402L145.08 17.649C145.389 18.008 145.786 18.9578 145.813 21.028L149.812 20.9776ZM148.157 15.0936C146.861 13.4773 144.862 12.942 142.771 12.9683L142.821 16.968C144.29 16.9495 144.824 17.3318 145.036 17.5956L148.157 15.0936ZM142.771 12.9683C141.229 12.9877 139.766 13.2269 138.6 13.899L140.598 17.3641C140.906 17.1868 141.574 16.9837 142.821 16.968L142.771 12.9683ZM138.6 13.899C137.37 14.6082 136.572 15.7167 136.188 17.0582L140.034 18.1593C140.161 17.7139 140.355 17.5043 140.598 17.3641L138.6 13.899ZM136.188 17.0582C135.858 18.2132 135.735 19.6029 135.755 21.1547L139.755 21.1043C139.737 19.7486 139.853 18.7911 140.034 18.1593L136.188 17.0582ZM135.755 21.1547L135.975 38.6444L139.975 38.594L139.755 21.1043L135.755 21.1547Z" fill="white" mask="url(#path-1-outside-1_50_596)"/>
</svg>
