<svg width="339" height="60" viewBox="0 0 339 60" fill="none" xmlns="http://www.w3.org/2000/svg">
<mask id="path-1-outside-1_53_598" maskUnits="userSpaceOnUse" x="10" y="7" width="317" height="41" fill="black">
<rect fill="white" x="10" y="7" width="317" height="41"/>
<path d="M26.4661 45.3989C25.6351 45.3989 24.7876 45.216 23.9234 44.8504C23.0924 44.4516 22.6769 43.82 22.6769 42.9559V19.6227C22.6769 18.5591 22.9429 17.8279 23.4747 17.429C24.0065 17.0301 24.4386 16.7809 24.7709 16.6811H15.1485C14.3508 16.6811 13.7525 16.3321 13.3537 15.6341C12.988 14.9029 12.8052 14.155 12.8052 13.3906C12.8052 12.5596 13.0047 11.8118 13.4035 11.147C13.8024 10.449 14.384 10.1 15.1485 10.1H37.4347C38.1991 10.1 38.7808 10.449 39.1797 11.147C39.5785 11.8118 39.7779 12.5596 39.7779 13.3906C39.7779 14.155 39.5785 14.9029 39.1797 15.6341C38.814 16.3321 38.2324 16.6811 37.4347 16.6811H29.8564V42.9559C29.8564 43.7868 29.5074 44.4017 28.8094 44.8006C28.1446 45.1994 27.3635 45.3989 26.4661 45.3989ZM56.1276 45.3989C53.2359 45.3989 50.7763 44.8338 48.7487 43.7037C46.7212 42.5404 45.1756 40.6458 44.112 38.02C43.0816 35.3942 42.5664 31.8377 42.5664 27.3506C42.5664 22.8634 43.0816 19.3236 44.112 16.731C45.1756 14.1384 46.7212 12.2937 48.7487 11.1969C50.7763 10.1 53.2359 9.55157 56.1276 9.55157C59.0525 9.55157 61.5122 10.1 63.5064 11.1969C65.534 12.2937 67.0629 14.1384 68.0933 16.731C69.1569 19.3236 69.6887 22.8634 69.6887 27.3506C69.6887 31.8377 69.1569 35.3942 68.0933 38.02C67.0629 40.6458 65.534 42.5404 63.5064 43.7037C61.5122 44.8338 59.0525 45.3989 56.1276 45.3989ZM56.1276 38.8177C57.4571 38.8177 58.5872 38.502 59.5179 37.8704C60.4818 37.2389 61.213 36.0922 61.7116 34.4303C62.2434 32.7684 62.5093 30.4085 62.5093 27.3506C62.5093 24.2594 62.2434 21.9161 61.7116 20.3207C61.213 18.692 60.4818 17.5952 59.5179 17.0301C58.5872 16.4319 57.4571 16.1327 56.1276 16.1327C54.8313 16.1327 53.7012 16.4319 52.7373 17.0301C51.7734 17.5952 51.0255 18.692 50.4937 20.3207C49.9952 21.9161 49.7459 24.2594 49.7459 27.3506C49.7459 30.4085 49.9952 32.7684 50.4937 34.4303C51.0255 36.0922 51.7734 37.2389 52.7373 37.8704C53.7012 38.502 54.8313 38.8177 56.1276 38.8177ZM98.3391 45.3989C95.8462 45.3989 94.5998 44.2355 94.5998 41.9089V34.181C94.5998 32.5856 94.2674 31.389 93.6026 30.5913C92.9711 29.7603 91.8743 29.3449 90.3121 29.3449C88.6169 29.3449 87.3539 29.6939 86.5229 30.3919C85.7252 31.0899 85.3263 32.303 85.3263 34.0314V41.51C85.3263 44.1026 84.1298 45.3989 81.7366 45.3989C79.3435 45.3989 78.1469 44.1026 78.1469 41.51V13.4404C78.1469 10.8479 79.3435 9.55157 81.7366 9.55157C84.1298 9.55157 85.3263 10.8479 85.3263 13.4404V25.1569C85.7917 24.6915 86.2736 24.3259 86.7722 24.06C87.2708 23.7941 88.1017 23.495 89.2651 23.1626C90.927 22.6972 92.0737 21.7167 92.7052 20.221C93.3367 18.7253 93.6525 16.3321 93.6525 13.0416C93.6525 11.8118 93.9184 10.931 94.4502 10.3991C94.982 9.83409 95.8296 9.55157 96.9929 9.55157C99.4525 9.55157 100.682 10.798 100.682 13.2909C100.682 16.6147 100.333 19.3236 99.6353 21.4176C98.9373 23.4783 97.8571 25.0738 96.3946 26.2039C99.9511 27.7328 101.729 30.4251 101.729 34.2807V41.9089C101.729 44.2355 100.599 45.3989 98.3391 45.3989ZM112.389 45C111.757 45 111.225 44.7507 110.793 44.2521C110.361 43.7536 110.145 43.122 110.145 42.3576V19.0244C110.145 15.9 111.109 13.6399 113.037 12.2439C114.965 10.8146 118.072 10.1 122.36 10.1H128.592C129.689 10.1 130.537 10.3991 131.135 10.9974C131.766 11.5625 132.082 12.3768 132.082 13.4404C132.082 14.4708 131.766 15.2685 131.135 15.8336C130.537 16.3986 129.689 16.6811 128.592 16.6811H122.011C120.349 16.6811 119.153 17.0135 118.421 17.6783C117.69 18.343 117.325 19.4233 117.325 20.919C117.325 21.4508 117.291 22.1156 117.225 22.9133C117.158 23.6778 117.059 24.5586 116.926 25.5557C117.491 25.0904 118.205 24.7248 119.07 24.4589C119.934 24.1597 120.781 24.0101 121.612 24.0101H126.548C127.479 24.0101 128.193 24.2927 128.692 24.8577C129.224 25.4228 129.49 26.2039 129.49 27.201C129.49 28.1981 129.224 28.9959 128.692 29.5941C128.16 30.1924 127.446 30.4916 126.548 30.4916H121.213C119.684 30.4916 118.654 30.8073 118.122 31.4389C117.59 32.0371 117.325 33.267 117.325 35.1283V38.4189H128.592C129.822 38.4189 130.703 38.6848 131.235 39.2166C131.8 39.7484 132.082 40.6126 132.082 41.8091C132.082 42.9392 131.816 43.7536 131.285 44.2521C130.753 44.7507 129.855 45 128.592 45H112.389ZM146.493 42.0584C146.493 44.2854 145.33 45.3989 143.003 45.3989C141.873 45.3989 140.975 45.1163 140.311 44.5513C139.646 43.9862 139.313 43.1553 139.313 42.0584V22.4646C139.313 19.3402 139.729 16.8473 140.56 14.986C141.391 13.0914 142.754 11.712 144.648 10.8479C146.543 9.98366 149.069 9.55157 152.226 9.55157C156.414 9.55157 159.572 10.5321 161.699 12.4931C163.86 14.421 164.94 17.7448 164.94 22.4646V42.0584C164.94 44.2854 163.777 45.3989 161.45 45.3989C160.32 45.3989 159.423 45.1163 158.758 44.5513C158.093 43.9862 157.761 43.1553 157.761 42.0584V22.4646C157.761 20.005 157.328 18.26 156.464 17.2296C155.633 16.1659 154.221 15.6341 152.226 15.6341C150.664 15.6341 149.468 15.8668 148.637 16.3321C147.806 16.7975 147.241 17.5287 146.942 18.5259C146.642 19.523 146.493 20.8359 146.493 22.4646V42.0584ZM186.749 45.3989C183.858 45.3989 181.398 44.8338 179.371 43.7037C177.343 42.5404 175.797 40.6458 174.734 38.02C173.703 35.3942 173.188 31.8377 173.188 27.3506C173.188 22.8634 173.703 19.3236 174.734 16.731C175.797 14.1384 177.343 12.2937 179.371 11.1969C181.398 10.1 183.858 9.55157 186.749 9.55157C189.674 9.55157 192.134 10.1 194.128 11.1969C196.156 12.2937 197.685 14.1384 198.715 16.731C199.779 19.3236 200.311 22.8634 200.311 27.3506C200.311 31.8377 199.779 35.3942 198.715 38.02C197.685 40.6458 196.156 42.5404 194.128 43.7037C192.134 44.8338 189.674 45.3989 186.749 45.3989ZM186.749 38.8177C188.079 38.8177 189.209 38.502 190.14 37.8704C191.104 37.2389 191.835 36.0922 192.333 34.4303C192.865 32.7684 193.131 30.4085 193.131 27.3506C193.131 24.2594 192.865 21.9161 192.333 20.3207C191.835 18.692 191.104 17.5952 190.14 17.0301C189.209 16.4319 188.079 16.1327 186.749 16.1327C185.453 16.1327 184.323 16.4319 183.359 17.0301C182.395 17.5952 181.647 18.692 181.116 20.3207C180.617 21.9161 180.368 24.2594 180.368 27.3506C180.368 30.4085 180.617 32.7684 181.116 34.4303C181.647 36.0922 182.395 37.2389 183.359 37.8704C184.323 38.502 185.453 38.8177 186.749 38.8177ZM215.699 42.0584C215.699 44.2854 214.536 45.3989 212.209 45.3989C211.079 45.3989 210.181 45.1163 209.517 44.5513C208.852 43.9862 208.519 43.1553 208.519 42.0584V21.4674C208.519 17.5453 209.35 14.5871 211.012 12.5929C212.707 10.5653 215.2 9.55157 218.491 9.55157C220.917 9.55157 222.928 10.0501 224.524 11.0473C226.119 12.0444 227.183 13.4737 227.714 15.335C228.246 13.4737 229.31 12.0444 230.905 11.0473C232.501 10.0501 234.545 9.55157 237.038 9.55157C240.428 9.55157 242.938 10.5321 244.566 12.4931C246.195 14.421 247.009 17.4124 247.009 21.4674V41.5599C247.009 42.9226 246.743 43.9031 246.211 44.5014C245.68 45.0997 244.782 45.3989 243.519 45.3989C242.256 45.3989 241.325 45.0997 240.727 44.5014C240.129 43.8699 239.83 42.8894 239.83 41.5599V21.0686C239.83 17.778 238.417 16.1327 235.592 16.1327C234.163 16.1327 233.099 16.6147 232.401 17.5786C231.703 18.5092 231.354 20.005 231.354 22.0657V41.0613C231.354 42.424 231.088 43.4046 230.556 44.0029C230.025 44.6011 229.127 44.9003 227.864 44.9003C226.601 44.9003 225.67 44.6011 225.072 44.0029C224.474 43.3713 224.175 42.3908 224.175 41.0613V22.0657C224.175 18.1104 222.762 16.1327 219.937 16.1327C217.112 16.1327 215.699 17.778 215.699 21.0686V42.0584ZM260.037 45.3989C257.577 45.3989 256.347 44.2854 256.347 42.0584V12.892C256.347 11.7287 256.63 10.8811 257.195 10.3493C257.76 9.81747 258.657 9.55157 259.887 9.55157C262.313 9.55157 263.527 10.665 263.527 12.892V42.0584C263.527 43.1885 263.244 44.0361 262.679 44.6011C262.147 45.133 261.266 45.3989 260.037 45.3989ZM279.485 27.6996C279.485 31.6549 279.967 34.4968 280.931 36.2251C281.895 37.9203 283.324 38.7679 285.219 38.7679C286.415 38.7679 287.462 38.6848 288.36 38.5186C289.257 38.3191 290.072 38.2194 290.803 38.2194C292.132 38.2194 293.096 38.502 293.695 39.067C294.293 39.5988 294.592 40.2968 294.592 41.161C294.592 42.2911 294.177 43.1553 293.346 43.7536C292.548 44.3519 291.517 44.7673 290.254 45C289.025 45.2327 287.762 45.349 286.465 45.349C282.876 45.349 280.017 44.6842 277.89 43.3547C275.796 42.0252 274.284 40.0641 273.353 37.4716C272.455 34.8458 272.007 31.5884 272.007 27.6996C272.007 23.8107 272.455 20.5201 273.353 17.8279C274.284 15.1023 275.796 13.0416 277.89 11.6456C280.017 10.2496 282.876 9.55157 286.465 9.55157C287.762 9.55157 289.025 9.6679 290.254 9.90057C291.517 10.1332 292.548 10.5487 293.346 11.147C294.177 11.7453 294.592 12.6095 294.592 13.7396C294.592 14.5705 294.293 15.2685 293.695 15.8336C293.096 16.3986 292.132 16.6811 290.803 16.6811C290.072 16.6811 289.257 16.598 288.36 16.4319C287.462 16.2324 286.415 16.1327 285.219 16.1327C282.892 16.1327 281.347 17.08 280.582 18.9746C279.851 20.8359 279.485 23.7442 279.485 27.6996ZM310.556 45.3989C309.293 45.3989 307.964 45.2991 306.568 45.0997C305.172 44.9003 304.042 44.6344 303.178 44.302C301.782 43.737 301.084 42.7897 301.084 41.4601C301.084 40.4962 301.366 39.7318 301.931 39.1667C302.529 38.5684 303.46 38.2693 304.723 38.2693C305.587 38.2693 306.634 38.3856 307.864 38.6183C309.094 38.851 310.174 38.9673 311.105 38.9673C313.166 38.9673 314.645 38.7014 315.542 38.1696C316.44 37.6378 316.888 36.5575 316.888 34.9289C316.888 33.965 316.539 33.1506 315.841 32.4859C315.176 31.8211 313.83 31.1896 311.803 30.5913C308.113 29.4944 305.438 28.1317 303.776 26.503C302.147 24.8743 301.333 22.7637 301.333 20.1711C301.333 17.911 301.831 15.9998 302.829 14.4376C303.859 12.8421 305.272 11.629 307.066 10.798C308.861 9.96705 310.905 9.55157 313.199 9.55157C315.891 9.55157 318.118 9.91719 319.88 10.6484C321.276 11.1802 321.974 12.1275 321.974 13.4903C321.974 14.4542 321.675 15.2353 321.076 15.8336C320.511 16.3986 319.597 16.6811 318.334 16.6811C317.503 16.6811 316.606 16.598 315.642 16.4319C314.678 16.2324 313.731 16.1327 312.8 16.1327C311.371 16.1327 310.29 16.382 309.559 16.8806C308.828 17.3791 308.462 18.2101 308.462 19.3734C308.462 20.437 308.978 21.401 310.008 22.2651C311.038 23.1293 312.933 23.9769 315.692 24.8079C318.849 25.7385 321.026 27.0016 322.223 28.597C323.42 30.1592 324.018 32.1535 324.018 34.5799C324.018 38.1031 322.838 40.7954 320.478 42.6567C318.151 44.4848 314.844 45.3989 310.556 45.3989Z"/>
</mask>
<path d="M26.4661 45.3989C25.6351 45.3989 24.7876 45.216 23.9234 44.8504C23.0924 44.4516 22.6769 43.82 22.6769 42.9559V19.6227C22.6769 18.5591 22.9429 17.8279 23.4747 17.429C24.0065 17.0301 24.4386 16.7809 24.7709 16.6811H15.1485C14.3508 16.6811 13.7525 16.3321 13.3537 15.6341C12.988 14.9029 12.8052 14.155 12.8052 13.3906C12.8052 12.5596 13.0047 11.8118 13.4035 11.147C13.8024 10.449 14.384 10.1 15.1485 10.1H37.4347C38.1991 10.1 38.7808 10.449 39.1797 11.147C39.5785 11.8118 39.7779 12.5596 39.7779 13.3906C39.7779 14.155 39.5785 14.9029 39.1797 15.6341C38.814 16.3321 38.2324 16.6811 37.4347 16.6811H29.8564V42.9559C29.8564 43.7868 29.5074 44.4017 28.8094 44.8006C28.1446 45.1994 27.3635 45.3989 26.4661 45.3989ZM56.1276 45.3989C53.2359 45.3989 50.7763 44.8338 48.7487 43.7037C46.7212 42.5404 45.1756 40.6458 44.112 38.02C43.0816 35.3942 42.5664 31.8377 42.5664 27.3506C42.5664 22.8634 43.0816 19.3236 44.112 16.731C45.1756 14.1384 46.7212 12.2937 48.7487 11.1969C50.7763 10.1 53.2359 9.55157 56.1276 9.55157C59.0525 9.55157 61.5122 10.1 63.5064 11.1969C65.534 12.2937 67.0629 14.1384 68.0933 16.731C69.1569 19.3236 69.6887 22.8634 69.6887 27.3506C69.6887 31.8377 69.1569 35.3942 68.0933 38.02C67.0629 40.6458 65.534 42.5404 63.5064 43.7037C61.5122 44.8338 59.0525 45.3989 56.1276 45.3989ZM56.1276 38.8177C57.4571 38.8177 58.5872 38.502 59.5179 37.8704C60.4818 37.2389 61.213 36.0922 61.7116 34.4303C62.2434 32.7684 62.5093 30.4085 62.5093 27.3506C62.5093 24.2594 62.2434 21.9161 61.7116 20.3207C61.213 18.692 60.4818 17.5952 59.5179 17.0301C58.5872 16.4319 57.4571 16.1327 56.1276 16.1327C54.8313 16.1327 53.7012 16.4319 52.7373 17.0301C51.7734 17.5952 51.0255 18.692 50.4937 20.3207C49.9952 21.9161 49.7459 24.2594 49.7459 27.3506C49.7459 30.4085 49.9952 32.7684 50.4937 34.4303C51.0255 36.0922 51.7734 37.2389 52.7373 37.8704C53.7012 38.502 54.8313 38.8177 56.1276 38.8177ZM98.3391 45.3989C95.8462 45.3989 94.5998 44.2355 94.5998 41.9089V34.181C94.5998 32.5856 94.2674 31.389 93.6026 30.5913C92.9711 29.7603 91.8743 29.3449 90.3121 29.3449C88.6169 29.3449 87.3539 29.6939 86.5229 30.3919C85.7252 31.0899 85.3263 32.303 85.3263 34.0314V41.51C85.3263 44.1026 84.1298 45.3989 81.7366 45.3989C79.3435 45.3989 78.1469 44.1026 78.1469 41.51V13.4404C78.1469 10.8479 79.3435 9.55157 81.7366 9.55157C84.1298 9.55157 85.3263 10.8479 85.3263 13.4404V25.1569C85.7917 24.6915 86.2736 24.3259 86.7722 24.06C87.2708 23.7941 88.1017 23.495 89.2651 23.1626C90.927 22.6972 92.0737 21.7167 92.7052 20.221C93.3367 18.7253 93.6525 16.3321 93.6525 13.0416C93.6525 11.8118 93.9184 10.931 94.4502 10.3991C94.982 9.83409 95.8296 9.55157 96.9929 9.55157C99.4525 9.55157 100.682 10.798 100.682 13.2909C100.682 16.6147 100.333 19.3236 99.6353 21.4176C98.9373 23.4783 97.8571 25.0738 96.3946 26.2039C99.9511 27.7328 101.729 30.4251 101.729 34.2807V41.9089C101.729 44.2355 100.599 45.3989 98.3391 45.3989ZM112.389 45C111.757 45 111.225 44.7507 110.793 44.2521C110.361 43.7536 110.145 43.122 110.145 42.3576V19.0244C110.145 15.9 111.109 13.6399 113.037 12.2439C114.965 10.8146 118.072 10.1 122.36 10.1H128.592C129.689 10.1 130.537 10.3991 131.135 10.9974C131.766 11.5625 132.082 12.3768 132.082 13.4404C132.082 14.4708 131.766 15.2685 131.135 15.8336C130.537 16.3986 129.689 16.6811 128.592 16.6811H122.011C120.349 16.6811 119.153 17.0135 118.421 17.6783C117.69 18.343 117.325 19.4233 117.325 20.919C117.325 21.4508 117.291 22.1156 117.225 22.9133C117.158 23.6778 117.059 24.5586 116.926 25.5557C117.491 25.0904 118.205 24.7248 119.07 24.4589C119.934 24.1597 120.781 24.0101 121.612 24.0101H126.548C127.479 24.0101 128.193 24.2927 128.692 24.8577C129.224 25.4228 129.49 26.2039 129.49 27.201C129.49 28.1981 129.224 28.9959 128.692 29.5941C128.16 30.1924 127.446 30.4916 126.548 30.4916H121.213C119.684 30.4916 118.654 30.8073 118.122 31.4389C117.59 32.0371 117.325 33.267 117.325 35.1283V38.4189H128.592C129.822 38.4189 130.703 38.6848 131.235 39.2166C131.8 39.7484 132.082 40.6126 132.082 41.8091C132.082 42.9392 131.816 43.7536 131.285 44.2521C130.753 44.7507 129.855 45 128.592 45H112.389ZM146.493 42.0584C146.493 44.2854 145.33 45.3989 143.003 45.3989C141.873 45.3989 140.975 45.1163 140.311 44.5513C139.646 43.9862 139.313 43.1553 139.313 42.0584V22.4646C139.313 19.3402 139.729 16.8473 140.56 14.986C141.391 13.0914 142.754 11.712 144.648 10.8479C146.543 9.98366 149.069 9.55157 152.226 9.55157C156.414 9.55157 159.572 10.5321 161.699 12.4931C163.86 14.421 164.94 17.7448 164.94 22.4646V42.0584C164.94 44.2854 163.777 45.3989 161.45 45.3989C160.32 45.3989 159.423 45.1163 158.758 44.5513C158.093 43.9862 157.761 43.1553 157.761 42.0584V22.4646C157.761 20.005 157.328 18.26 156.464 17.2296C155.633 16.1659 154.221 15.6341 152.226 15.6341C150.664 15.6341 149.468 15.8668 148.637 16.3321C147.806 16.7975 147.241 17.5287 146.942 18.5259C146.642 19.523 146.493 20.8359 146.493 22.4646V42.0584ZM186.749 45.3989C183.858 45.3989 181.398 44.8338 179.371 43.7037C177.343 42.5404 175.797 40.6458 174.734 38.02C173.703 35.3942 173.188 31.8377 173.188 27.3506C173.188 22.8634 173.703 19.3236 174.734 16.731C175.797 14.1384 177.343 12.2937 179.371 11.1969C181.398 10.1 183.858 9.55157 186.749 9.55157C189.674 9.55157 192.134 10.1 194.128 11.1969C196.156 12.2937 197.685 14.1384 198.715 16.731C199.779 19.3236 200.311 22.8634 200.311 27.3506C200.311 31.8377 199.779 35.3942 198.715 38.02C197.685 40.6458 196.156 42.5404 194.128 43.7037C192.134 44.8338 189.674 45.3989 186.749 45.3989ZM186.749 38.8177C188.079 38.8177 189.209 38.502 190.14 37.8704C191.104 37.2389 191.835 36.0922 192.333 34.4303C192.865 32.7684 193.131 30.4085 193.131 27.3506C193.131 24.2594 192.865 21.9161 192.333 20.3207C191.835 18.692 191.104 17.5952 190.14 17.0301C189.209 16.4319 188.079 16.1327 186.749 16.1327C185.453 16.1327 184.323 16.4319 183.359 17.0301C182.395 17.5952 181.647 18.692 181.116 20.3207C180.617 21.9161 180.368 24.2594 180.368 27.3506C180.368 30.4085 180.617 32.7684 181.116 34.4303C181.647 36.0922 182.395 37.2389 183.359 37.8704C184.323 38.502 185.453 38.8177 186.749 38.8177ZM215.699 42.0584C215.699 44.2854 214.536 45.3989 212.209 45.3989C211.079 45.3989 210.181 45.1163 209.517 44.5513C208.852 43.9862 208.519 43.1553 208.519 42.0584V21.4674C208.519 17.5453 209.35 14.5871 211.012 12.5929C212.707 10.5653 215.2 9.55157 218.491 9.55157C220.917 9.55157 222.928 10.0501 224.524 11.0473C226.119 12.0444 227.183 13.4737 227.714 15.335C228.246 13.4737 229.31 12.0444 230.905 11.0473C232.501 10.0501 234.545 9.55157 237.038 9.55157C240.428 9.55157 242.938 10.5321 244.566 12.4931C246.195 14.421 247.009 17.4124 247.009 21.4674V41.5599C247.009 42.9226 246.743 43.9031 246.211 44.5014C245.68 45.0997 244.782 45.3989 243.519 45.3989C242.256 45.3989 241.325 45.0997 240.727 44.5014C240.129 43.8699 239.83 42.8894 239.83 41.5599V21.0686C239.83 17.778 238.417 16.1327 235.592 16.1327C234.163 16.1327 233.099 16.6147 232.401 17.5786C231.703 18.5092 231.354 20.005 231.354 22.0657V41.0613C231.354 42.424 231.088 43.4046 230.556 44.0029C230.025 44.6011 229.127 44.9003 227.864 44.9003C226.601 44.9003 225.67 44.6011 225.072 44.0029C224.474 43.3713 224.175 42.3908 224.175 41.0613V22.0657C224.175 18.1104 222.762 16.1327 219.937 16.1327C217.112 16.1327 215.699 17.778 215.699 21.0686V42.0584ZM260.037 45.3989C257.577 45.3989 256.347 44.2854 256.347 42.0584V12.892C256.347 11.7287 256.63 10.8811 257.195 10.3493C257.76 9.81747 258.657 9.55157 259.887 9.55157C262.313 9.55157 263.527 10.665 263.527 12.892V42.0584C263.527 43.1885 263.244 44.0361 262.679 44.6011C262.147 45.133 261.266 45.3989 260.037 45.3989ZM279.485 27.6996C279.485 31.6549 279.967 34.4968 280.931 36.2251C281.895 37.9203 283.324 38.7679 285.219 38.7679C286.415 38.7679 287.462 38.6848 288.36 38.5186C289.257 38.3191 290.072 38.2194 290.803 38.2194C292.132 38.2194 293.096 38.502 293.695 39.067C294.293 39.5988 294.592 40.2968 294.592 41.161C294.592 42.2911 294.177 43.1553 293.346 43.7536C292.548 44.3519 291.517 44.7673 290.254 45C289.025 45.2327 287.762 45.349 286.465 45.349C282.876 45.349 280.017 44.6842 277.89 43.3547C275.796 42.0252 274.284 40.0641 273.353 37.4716C272.455 34.8458 272.007 31.5884 272.007 27.6996C272.007 23.8107 272.455 20.5201 273.353 17.8279C274.284 15.1023 275.796 13.0416 277.89 11.6456C280.017 10.2496 282.876 9.55157 286.465 9.55157C287.762 9.55157 289.025 9.6679 290.254 9.90057C291.517 10.1332 292.548 10.5487 293.346 11.147C294.177 11.7453 294.592 12.6095 294.592 13.7396C294.592 14.5705 294.293 15.2685 293.695 15.8336C293.096 16.3986 292.132 16.6811 290.803 16.6811C290.072 16.6811 289.257 16.598 288.36 16.4319C287.462 16.2324 286.415 16.1327 285.219 16.1327C282.892 16.1327 281.347 17.08 280.582 18.9746C279.851 20.8359 279.485 23.7442 279.485 27.6996ZM310.556 45.3989C309.293 45.3989 307.964 45.2991 306.568 45.0997C305.172 44.9003 304.042 44.6344 303.178 44.302C301.782 43.737 301.084 42.7897 301.084 41.4601C301.084 40.4962 301.366 39.7318 301.931 39.1667C302.529 38.5684 303.46 38.2693 304.723 38.2693C305.587 38.2693 306.634 38.3856 307.864 38.6183C309.094 38.851 310.174 38.9673 311.105 38.9673C313.166 38.9673 314.645 38.7014 315.542 38.1696C316.44 37.6378 316.888 36.5575 316.888 34.9289C316.888 33.965 316.539 33.1506 315.841 32.4859C315.176 31.8211 313.83 31.1896 311.803 30.5913C308.113 29.4944 305.438 28.1317 303.776 26.503C302.147 24.8743 301.333 22.7637 301.333 20.1711C301.333 17.911 301.831 15.9998 302.829 14.4376C303.859 12.8421 305.272 11.629 307.066 10.798C308.861 9.96705 310.905 9.55157 313.199 9.55157C315.891 9.55157 318.118 9.91719 319.88 10.6484C321.276 11.1802 321.974 12.1275 321.974 13.4903C321.974 14.4542 321.675 15.2353 321.076 15.8336C320.511 16.3986 319.597 16.6811 318.334 16.6811C317.503 16.6811 316.606 16.598 315.642 16.4319C314.678 16.2324 313.731 16.1327 312.8 16.1327C311.371 16.1327 310.29 16.382 309.559 16.8806C308.828 17.3791 308.462 18.2101 308.462 19.3734C308.462 20.437 308.978 21.401 310.008 22.2651C311.038 23.1293 312.933 23.9769 315.692 24.8079C318.849 25.7385 321.026 27.0016 322.223 28.597C323.42 30.1592 324.018 32.1535 324.018 34.5799C324.018 38.1031 322.838 40.7954 320.478 42.6567C318.151 44.4848 314.844 45.3989 310.556 45.3989Z" fill="#8C5A52"/>
<path d="M23.9234 44.8504L23.0579 46.6535L23.1005 46.6739L23.1441 46.6924L23.9234 44.8504ZM23.4747 17.429L22.2747 15.829L22.2747 15.829L23.4747 17.429ZM24.7709 16.6811L25.3456 18.5968L24.7709 14.6811V16.6811ZM13.3537 15.6341L11.5648 16.5286L11.5896 16.5782L11.6172 16.6264L13.3537 15.6341ZM13.4035 11.147L15.1185 12.176L15.1295 12.1577L15.14 12.1393L13.4035 11.147ZM39.1797 11.147L37.4432 12.1393L37.4537 12.1577L37.4647 12.176L39.1797 11.147ZM39.1797 15.6341L37.4239 14.6764L37.4158 14.6912L37.408 14.7061L39.1797 15.6341ZM29.8564 16.6811V14.6811H27.8564V16.6811H29.8564ZM28.8094 44.8006L27.8171 43.0641L27.7986 43.0746L27.7804 43.0856L28.8094 44.8006ZM26.4661 43.3989C25.9353 43.3989 25.3521 43.2832 24.7027 43.0085L23.1441 46.6924C24.2231 47.1488 25.3349 47.3989 26.4661 47.3989V43.3989ZM24.7888 43.0474C24.7075 43.0083 24.667 42.9783 24.6524 42.9662C24.6393 42.9554 24.6465 42.9588 24.6594 42.9784C24.6727 42.9987 24.6797 43.0173 24.6819 43.0251C24.6835 43.0309 24.6769 43.0112 24.6769 42.9559H20.6769C20.6769 43.7211 20.8657 44.4898 21.3177 45.1769C21.7647 45.8562 22.3868 46.3314 23.0579 46.6535L24.7888 43.0474ZM24.6769 42.9559V19.6227H20.6769V42.9559H24.6769ZM24.6769 19.6227C24.6769 19.2443 24.726 19.0425 24.756 18.9601C24.7793 18.8959 24.7694 18.9579 24.6747 19.029L22.2747 15.829C20.9973 16.787 20.6769 18.3106 20.6769 19.6227H24.6769ZM24.6747 19.029C24.8961 18.8629 25.0689 18.7492 25.197 18.6753C25.332 18.5974 25.3766 18.5875 25.3456 18.5968L24.1962 14.7655C23.5165 14.9694 22.8549 15.3938 22.2747 15.829L24.6747 19.029ZM24.7709 14.6811H15.1485V18.6811H24.7709V14.6811ZM15.1485 14.6811C15.1217 14.6811 15.1026 14.6797 15.0905 14.6783C15.0784 14.6768 15.0728 14.6755 15.0727 14.6754C15.0727 14.6754 15.0768 14.6765 15.0842 14.6794C15.0915 14.6824 15.1002 14.6865 15.1093 14.6918C15.1292 14.7034 15.1391 14.7135 15.1385 14.7129C15.1368 14.7111 15.1186 14.6916 15.0901 14.6419L11.6172 16.6264C12.3687 17.9415 13.6262 18.6811 15.1485 18.6811V14.6811ZM15.1425 14.7397C14.9059 14.2665 14.8052 13.8232 14.8052 13.3906H10.8052C10.8052 14.4869 11.0702 15.5394 11.5648 16.5286L15.1425 14.7397ZM14.8052 13.3906C14.8052 12.8951 14.9196 12.5075 15.1185 12.176L11.6885 10.118C11.0897 11.116 10.8052 12.2242 10.8052 13.3906H14.8052ZM15.14 12.1393C15.1716 12.084 15.1926 12.0605 15.1967 12.056C15.1988 12.0538 15.1973 12.0557 15.1919 12.0601C15.1864 12.0646 15.1784 12.0705 15.1679 12.0767C15.1574 12.083 15.1464 12.0885 15.1357 12.093C15.125 12.0975 15.1166 12.1001 15.1114 12.1014C15.1004 12.1043 15.1101 12.1 15.1485 12.1V8.1C13.6219 8.1 12.3994 8.87313 11.667 10.1547L15.14 12.1393ZM15.1485 12.1H37.4347V8.1H15.1485V12.1ZM37.4347 12.1C37.4731 12.1 37.4828 12.1043 37.4718 12.1014C37.4666 12.1001 37.4582 12.0975 37.4475 12.093C37.4367 12.0885 37.4258 12.083 37.4153 12.0767C37.4048 12.0705 37.3968 12.0646 37.3913 12.0601C37.3859 12.0557 37.3844 12.0538 37.3864 12.056C37.3906 12.0605 37.4116 12.084 37.4432 12.1393L40.9162 10.1547C40.1838 8.87313 38.9613 8.1 37.4347 8.1V12.1ZM37.4647 12.176C37.6636 12.5075 37.7779 12.8951 37.7779 13.3906H41.7779C41.7779 12.2242 41.4934 11.116 40.8947 10.118L37.4647 12.176ZM37.7779 13.3906C37.7779 13.791 37.6772 14.212 37.4239 14.6764L40.9355 16.5918C41.4798 15.5938 41.7779 14.5191 41.7779 13.3906H37.7779ZM37.408 14.7061C37.386 14.7481 37.3748 14.7582 37.3819 14.7504C37.3853 14.7466 37.3922 14.7395 37.4028 14.7308C37.4135 14.7219 37.4261 14.7129 37.4402 14.7044C37.4543 14.6959 37.4678 14.6894 37.4794 14.6846C37.4911 14.6798 37.499 14.6775 37.5019 14.6768C37.5078 14.6753 37.4884 14.6811 37.4347 14.6811V18.6811C38.1315 18.6811 38.8455 18.526 39.4982 18.1344C40.1522 17.742 40.626 17.1833 40.9513 16.5622L37.408 14.7061ZM37.4347 14.6811H29.8564V18.6811H37.4347V14.6811ZM27.8564 16.6811V42.9559H31.8564V16.6811H27.8564ZM27.8564 42.9559C27.8564 43.0237 27.8493 43.059 27.8468 43.0693C27.8447 43.0781 27.8458 43.0698 27.8553 43.053C27.8595 43.0455 27.8642 43.0386 27.8687 43.0328C27.8708 43.0301 27.8727 43.0279 27.8741 43.0264C27.8747 43.0256 27.8753 43.025 27.8757 43.0247C27.876 43.0243 27.8762 43.0241 27.8762 43.0241C27.8762 43.0241 27.8753 43.025 27.8733 43.0267C27.8713 43.0284 27.8681 43.0309 27.8635 43.0343C27.8544 43.0411 27.8394 43.0513 27.8171 43.0641L29.8017 46.5371C31.1483 45.7676 31.8564 44.4747 31.8564 42.9559H27.8564ZM27.7804 43.0856C27.4727 43.2702 27.0591 43.3989 26.4661 43.3989V47.3989C27.668 47.3989 28.8165 47.1287 29.8384 46.5156L27.7804 43.0856ZM48.7487 43.7037L47.7534 45.4384L47.7642 45.4446L47.775 45.4507L48.7487 43.7037ZM44.112 38.02L42.2502 38.7506L42.2542 38.7607L42.2583 38.7709L44.112 38.02ZM44.112 16.731L42.2617 15.9719L42.2575 15.9821L42.2534 15.9923L44.112 16.731ZM48.7487 11.1969L47.7971 9.43777L47.7971 9.43777L48.7487 11.1969ZM63.5064 11.1969L62.5426 12.9493L62.5548 12.9559L63.5064 11.1969ZM68.0933 16.731L66.2347 17.4697L66.2388 17.4799L66.243 17.4901L68.0933 16.731ZM68.0933 38.02L66.2396 37.2691L66.2355 37.2793L66.2315 37.2894L68.0933 38.02ZM63.5064 43.7037L64.4925 45.4438L64.5018 45.4384L63.5064 43.7037ZM59.5179 37.8704L58.4218 36.1975L58.4083 36.2064L58.3949 36.2155L59.5179 37.8704ZM61.7116 34.4303L59.8067 33.8207L59.8012 33.8381L59.7959 33.8556L61.7116 34.4303ZM61.7116 20.3207L59.7992 20.9061L59.8064 20.9297L59.8142 20.9532L61.7116 20.3207ZM59.5179 17.0301L58.4364 18.7125L58.471 18.7347L58.5064 18.7555L59.5179 17.0301ZM52.7373 17.0301L53.7487 18.7555L53.7705 18.7428L53.792 18.7294L52.7373 17.0301ZM50.4937 20.3207L48.5925 19.6999L48.5886 19.712L48.5848 19.7242L50.4937 20.3207ZM50.4937 34.4303L48.5781 35.005L48.5833 35.0225L48.5889 35.0398L50.4937 34.4303ZM52.7373 37.8704L51.6412 39.5434L51.6412 39.5434L52.7373 37.8704ZM56.1276 43.3989C53.4941 43.3989 51.3876 42.8849 49.7224 41.9568L47.775 45.4507C50.1649 46.7828 52.9777 47.3989 56.1276 47.3989V43.3989ZM49.7441 41.969C48.1817 41.0726 46.898 39.5708 45.9657 37.2691L42.2583 38.7709C43.4532 41.7208 45.2607 44.0082 47.7534 45.4384L49.7441 41.969ZM45.9738 37.2894C45.0726 34.9928 44.5664 31.718 44.5664 27.3506H40.5664C40.5664 31.9574 41.0907 35.7955 42.2502 38.7506L45.9738 37.2894ZM44.5664 27.3506C44.5664 22.9811 45.0732 19.7277 45.9706 17.4697L42.2534 15.9923C41.0901 18.9194 40.5664 22.7457 40.5664 27.3506H44.5664ZM45.9624 17.4901C46.8899 15.2292 48.1611 13.7887 49.7004 12.9559L47.7971 9.43777C45.2813 10.7987 43.4614 13.0476 42.2617 15.9719L45.9624 17.4901ZM49.7004 12.9559C51.3704 12.0525 53.4852 11.5516 56.1276 11.5516V7.55157C52.9866 7.55157 50.1821 8.14753 47.7971 9.43777L49.7004 12.9559ZM56.1276 11.5516C58.8092 11.5516 60.9161 12.0547 62.5426 12.9493L64.4703 9.44442C62.1083 8.14531 59.2959 7.55157 56.1276 7.55157V11.5516ZM62.5548 12.9559C64.0877 13.7852 65.3397 15.2178 66.2347 17.4697L69.9519 15.9923C68.7861 13.0591 66.9803 10.8022 64.4581 9.43777L62.5548 12.9559ZM66.243 17.4901C67.1662 19.7405 67.6887 22.9858 67.6887 27.3506H71.6887C71.6887 22.7411 71.1476 18.9066 69.9436 15.9719L66.243 17.4901ZM67.6887 27.3506C67.6887 31.7133 67.1668 34.9801 66.2396 37.2691L69.947 38.7709C71.147 35.8083 71.6887 31.9621 71.6887 27.3506H67.6887ZM66.2315 37.2894C65.3318 39.5823 64.0671 41.0762 62.5111 41.969L64.5018 45.4384C67.0008 44.0046 68.7941 41.7093 69.9551 38.7506L66.2315 37.2894ZM62.5204 41.9637C60.8989 42.8826 58.8004 43.3989 56.1276 43.3989V47.3989C59.3047 47.3989 62.1255 46.7851 64.4925 45.4438L62.5204 41.9637ZM56.1276 40.8177C57.7831 40.8177 59.3222 40.4202 60.6409 39.5254L58.3949 36.2155C57.8523 36.5837 57.1312 36.8177 56.1276 36.8177V40.8177ZM60.6139 39.5434C62.1285 38.551 63.0592 36.8984 63.6272 35.005L59.7959 33.8556C59.3668 35.286 58.835 35.9268 58.4218 36.1975L60.6139 39.5434ZM63.6164 35.0398C64.2416 33.0863 64.5093 30.4846 64.5093 27.3506H60.5093C60.5093 30.3324 60.2452 32.4505 59.8067 33.8207L63.6164 35.0398ZM64.5093 27.3506C64.5093 24.1929 64.2436 21.5922 63.609 19.6883L59.8142 20.9532C60.2432 22.2401 60.5093 24.326 60.5093 27.3506H64.5093ZM63.624 19.7353C63.0533 17.871 62.1045 16.2281 60.5293 15.3047L58.5064 18.7555C58.8591 18.9622 59.3728 19.5131 59.7992 20.9061L63.624 19.7353ZM60.5994 15.3478C59.2861 14.5035 57.7624 14.1327 56.1276 14.1327V18.1327C57.1518 18.1327 57.8883 18.3602 58.4364 18.7125L60.5994 15.3478ZM56.1276 14.1327C54.5129 14.1327 53.0064 14.5092 51.6826 15.3309L53.792 18.7294C54.396 18.3545 55.1497 18.1327 56.1276 18.1327V14.1327ZM51.7259 15.3047C50.1651 16.2197 49.1981 17.8452 48.5925 19.6999L52.3949 20.9415C52.8529 19.5389 53.3817 18.9707 53.7487 18.7555L51.7259 15.3047ZM48.5848 19.7242C47.9947 21.6123 47.7459 24.198 47.7459 27.3506H51.7459C51.7459 24.3209 51.9956 22.22 52.4027 20.9173L48.5848 19.7242ZM47.7459 27.3506C47.7459 30.479 47.9966 33.0666 48.5781 35.005L52.4094 33.8556C51.9938 32.4702 51.7459 30.338 51.7459 27.3506H47.7459ZM48.5889 35.0398C49.1917 36.9238 50.1402 38.5599 51.6412 39.5434L53.8334 36.1975C53.4066 35.9179 52.8593 35.2606 52.3986 33.8207L48.5889 35.0398ZM51.6412 39.5434C52.9705 40.4142 54.4921 40.8177 56.1276 40.8177V36.8177C55.1705 36.8177 54.4319 36.5897 53.8334 36.1975L51.6412 39.5434ZM93.6026 30.5913L92.0103 31.8015L92.0375 31.8372L92.0662 31.8717L93.6026 30.5913ZM86.5229 30.3919L85.2365 28.8604L85.2211 28.8734L85.2059 28.8867L86.5229 30.3919ZM85.3263 25.1569H83.3263V29.9853L86.7406 26.5711L85.3263 25.1569ZM86.7722 24.06L87.7134 25.8247L87.7134 25.8247L86.7722 24.06ZM89.2651 23.1626L88.7258 21.2366L88.7156 21.2395L89.2651 23.1626ZM92.7052 20.221L94.5477 20.9989L94.5477 20.9989L92.7052 20.221ZM94.4502 10.3991L95.8644 11.8134L95.8858 11.7919L95.9066 11.7699L94.4502 10.3991ZM99.6353 21.4176L101.53 22.0592L101.533 22.05L99.6353 21.4176ZM96.3946 26.2039L95.1717 24.6213L92.4828 26.6991L95.6047 28.0413L96.3946 26.2039ZM98.3391 43.3989C97.3679 43.3989 97.012 43.1695 96.8992 43.0642C96.8125 42.9833 96.5998 42.7272 96.5998 41.9089H92.5998C92.5998 43.4172 93.0103 44.9061 94.17 45.9885C95.3036 47.0466 96.8173 47.3989 98.3391 47.3989V43.3989ZM96.5998 41.9089V34.181H92.5998V41.9089H96.5998ZM96.5998 34.181C96.5998 32.3571 96.2273 30.6168 95.1391 29.3109L92.0662 31.8717C92.3074 32.1612 92.5998 32.8141 92.5998 34.181H96.5998ZM95.195 29.3811C94.0259 27.8429 92.1779 27.3449 90.3121 27.3449V31.3449C91.5706 31.3449 91.9163 31.6778 92.0103 31.8015L95.195 29.3811ZM90.3121 27.3449C88.3972 27.3449 86.582 27.7303 85.2365 28.8604L87.8093 31.9233C88.1258 31.6574 88.8367 31.3449 90.3121 31.3449V27.3449ZM85.2059 28.8867C83.7643 30.1481 83.3263 32.0808 83.3263 34.0314H87.3263C87.3263 32.5253 87.6861 32.0316 87.8399 31.897L85.2059 28.8867ZM83.3263 34.0314V41.51H87.3263V34.0314H83.3263ZM83.3263 41.51C83.3263 42.536 83.0863 42.9326 82.9593 43.0701C82.8603 43.1774 82.582 43.3989 81.7366 43.3989V47.3989C83.2844 47.3989 84.801 46.9722 85.8985 45.7832C86.9682 44.6244 87.3263 43.0766 87.3263 41.51H83.3263ZM81.7366 43.3989C80.8913 43.3989 80.613 43.1774 80.514 43.0701C80.387 42.9326 80.1469 42.536 80.1469 41.51H76.1469C76.1469 43.0766 76.5051 44.6244 77.5747 45.7832C78.6723 46.9722 80.1888 47.3989 81.7366 47.3989V43.3989ZM80.1469 41.51V13.4404H76.1469V41.51H80.1469ZM80.1469 13.4404C80.1469 12.4145 80.387 12.0179 80.514 11.8803C80.613 11.7731 80.8913 11.5516 81.7366 11.5516V7.55157C80.1888 7.55157 78.6723 7.97821 77.5747 9.16722C76.5051 10.326 76.1469 11.8738 76.1469 13.4404H80.1469ZM81.7366 11.5516C82.582 11.5516 82.8603 11.7731 82.9593 11.8803C83.0863 12.0179 83.3263 12.4145 83.3263 13.4404H87.3263C87.3263 11.8738 86.9682 10.326 85.8985 9.16722C84.801 7.97821 83.2844 7.55157 81.7366 7.55157V11.5516ZM83.3263 13.4404V25.1569H87.3263V13.4404H83.3263ZM86.7406 26.5711C87.0888 26.2229 87.4148 25.9839 87.7134 25.8247L85.831 22.2953C85.1325 22.6679 84.4946 23.1602 83.9121 23.7426L86.7406 26.5711ZM87.7134 25.8247C88.0127 25.6651 88.6695 25.4128 89.8145 25.0856L88.7156 21.2395C87.534 21.5771 86.5289 21.9231 85.831 22.2953L87.7134 25.8247ZM89.8043 25.0885C92.0102 24.4708 93.6626 23.0953 94.5477 20.9989L90.8627 19.4431C90.4848 20.3381 89.8437 20.9236 88.7258 21.2366L89.8043 25.0885ZM94.5477 20.9989C95.3434 19.1144 95.6525 16.3814 95.6525 13.0416H91.6525C91.6525 16.2829 91.3301 18.3362 90.8627 19.4431L94.5477 20.9989ZM95.6525 13.0416C95.6525 12.561 95.7056 12.2386 95.7666 12.0366C95.8253 11.8422 95.8783 11.7995 95.8644 11.8134L93.036 8.98493C91.9507 10.0702 91.6525 11.6026 91.6525 13.0416H95.6525ZM95.9066 11.7699C95.9134 11.7626 95.9595 11.7134 96.1172 11.6608C96.2861 11.6045 96.5649 11.5516 96.9929 11.5516V7.55157C95.5528 7.55157 94.0577 7.89803 92.9938 9.02841L95.9066 11.7699ZM96.9929 11.5516C97.9076 11.5516 98.2278 11.7811 98.3363 11.8911C98.4498 12.0061 98.6824 12.346 98.6824 13.2909H102.682C102.682 11.7428 102.3 10.2132 101.184 9.0817C100.062 7.9453 98.5379 7.55157 96.9929 7.55157V11.5516ZM98.6824 13.2909C98.6824 16.4971 98.3429 18.9705 97.738 20.7851L101.533 22.05C102.324 19.6766 102.682 16.7323 102.682 13.2909H98.6824ZM97.7411 20.776C97.1465 22.5313 96.2707 23.7721 95.1717 24.6213L97.6175 27.7864C99.4435 26.3755 100.728 24.4254 101.53 22.0592L97.7411 20.776ZM95.6047 28.0413C97.0971 28.6828 98.0925 29.5116 98.7268 30.472C99.3608 31.4319 99.7293 32.6673 99.7293 34.2807H103.729C103.729 32.0386 103.209 29.9999 102.065 28.2675C100.921 26.5357 99.2486 25.2538 97.1845 24.3665L95.6047 28.0413ZM99.7293 34.2807V41.9089H103.729V34.2807H99.7293ZM99.7293 41.9089C99.7293 42.7782 99.5177 43.0602 99.4472 43.1328C99.3872 43.1946 99.1459 43.3989 98.3391 43.3989V47.3989C99.7924 47.3989 101.246 47.0214 102.316 45.9199C103.376 44.8292 103.729 43.3662 103.729 41.9089H99.7293ZM110.793 44.2521L109.282 45.562L109.282 45.562L110.793 44.2521ZM113.037 12.2439L114.21 13.8637L114.219 13.8572L114.228 13.8505L113.037 12.2439ZM131.135 10.9974L129.721 12.4116L129.76 12.4509L129.801 12.4879L131.135 10.9974ZM131.135 15.8336L129.801 14.3431L129.781 14.361L129.762 14.3795L131.135 15.8336ZM118.421 17.6783L117.076 16.1984L117.076 16.1984L118.421 17.6783ZM117.225 22.9133L119.217 23.0865L119.218 23.0794L117.225 22.9133ZM116.926 25.5557L114.943 25.2914L114.271 30.3328L118.197 27.0996L116.926 25.5557ZM119.07 24.4589L119.658 26.3704L119.691 26.3602L119.724 26.3488L119.07 24.4589ZM128.692 24.8577L127.192 26.181L127.214 26.205L127.236 26.2284L128.692 24.8577ZM128.692 29.5941L130.187 30.9229L130.187 30.9229L128.692 29.5941ZM118.122 31.4389L119.617 32.7676L119.635 32.7476L119.652 32.7271L118.122 31.4389ZM117.325 38.4189H115.325V40.4189H117.325V38.4189ZM131.235 39.2166L129.82 40.6308L129.842 40.6522L129.864 40.673L131.235 39.2166ZM112.389 43C112.376 43 112.366 42.9994 112.361 42.9988C112.355 42.9982 112.353 42.9977 112.353 42.9977C112.353 42.9976 112.354 42.998 112.357 42.9989C112.36 42.9998 112.362 43.0009 112.365 43.0021C112.371 43.0049 112.37 43.0055 112.362 42.9992C112.353 42.9924 112.334 42.9757 112.305 42.9423L109.282 45.562C110.074 46.4765 111.148 47 112.389 47V43ZM112.305 42.9423C112.237 42.8641 112.145 42.7218 112.145 42.3576H108.145C108.145 43.5223 108.485 44.643 109.282 45.562L112.305 42.9423ZM112.145 42.3576V19.0244H108.145V42.3576H112.145ZM112.145 19.0244C112.145 16.3213 112.957 14.7708 114.21 13.8637L111.864 10.624C109.261 12.5089 108.145 15.4788 108.145 19.0244H112.145ZM114.228 13.8505C115.631 12.8101 118.204 12.1 122.36 12.1V8.1C117.941 8.1 114.298 8.81914 111.846 10.6372L114.228 13.8505ZM122.36 12.1H128.592V8.1H122.36V12.1ZM128.592 12.1C129.323 12.1 129.599 12.2904 129.721 12.4116L132.549 9.58321C131.474 8.50793 130.055 8.1 128.592 8.1V12.1ZM129.801 12.4879C129.905 12.5807 130.082 12.7899 130.082 13.4404H134.082C134.082 11.9637 133.628 10.5442 132.469 9.50694L129.801 12.4879ZM130.082 13.4404C130.082 14.0351 129.919 14.2381 129.801 14.3431L132.469 17.3241C133.614 16.2989 134.082 14.9065 134.082 13.4404H130.082ZM129.762 14.3795C129.644 14.4903 129.353 14.6811 128.592 14.6811V18.6811C130.026 18.6811 131.429 18.3069 132.508 17.2876L129.762 14.3795ZM128.592 14.6811H122.011V18.6811H128.592V14.6811ZM122.011 14.6811C120.167 14.6811 118.356 15.0347 117.076 16.1984L119.767 19.1582C119.949 18.9923 120.532 18.6811 122.011 18.6811V14.6811ZM117.076 16.1984C115.753 17.4008 115.325 19.149 115.325 20.919H119.325C119.325 19.6976 119.627 19.2853 119.767 19.1582L117.076 16.1984ZM115.325 20.919C115.325 21.3752 115.296 21.9802 115.232 22.7472L119.218 23.0794C119.287 22.251 119.325 21.5264 119.325 20.919H115.325ZM115.232 22.74C115.169 23.4664 115.073 24.3158 114.943 25.2914L118.908 25.82C119.044 24.8013 119.147 23.8891 119.217 23.0865L115.232 22.74ZM118.197 27.0996C118.519 26.8343 118.986 26.577 119.658 26.3704L118.481 22.5473C117.424 22.8725 116.462 23.3465 115.654 24.0119L118.197 27.0996ZM119.724 26.3488C120.399 26.1152 121.025 26.0101 121.612 26.0101V22.0101C120.537 22.0101 119.469 22.2042 118.415 22.5689L119.724 26.3488ZM121.612 26.0101H126.548V22.0101H121.612V26.0101ZM126.548 26.0101C127.051 26.0101 127.16 26.1447 127.192 26.181L130.192 23.5345C129.226 22.4406 127.907 22.0101 126.548 22.0101V26.0101ZM127.236 26.2284C127.327 26.3257 127.49 26.5627 127.49 27.201H131.49C131.49 25.845 131.12 24.5198 130.148 23.487L127.236 26.2284ZM127.49 27.201C127.49 27.8334 127.329 28.117 127.197 28.2654L130.187 30.9229C131.118 29.8747 131.49 28.5629 131.49 27.201H127.49ZM127.197 28.2654C127.093 28.3823 126.951 28.4916 126.548 28.4916V32.4916C127.94 32.4916 129.227 32.0025 130.187 30.9229L127.197 28.2654ZM126.548 28.4916H121.213V32.4916H126.548V28.4916ZM121.213 28.4916C119.559 28.4916 117.726 28.8042 116.592 30.1506L119.652 32.7271C119.605 32.7834 119.622 32.7196 119.88 32.6406C120.144 32.5596 120.572 32.4916 121.213 32.4916V28.4916ZM116.627 30.1101C116.038 30.7734 115.737 31.6103 115.569 32.3873C115.396 33.19 115.325 34.1163 115.325 35.1283H119.325C119.325 34.279 119.386 33.6597 119.479 33.2326C119.577 32.7797 119.675 32.7026 119.617 32.7676L116.627 30.1101ZM115.325 35.1283V38.4189H119.325V35.1283H115.325ZM117.325 40.4189H128.592V36.4189H117.325V40.4189ZM128.592 40.4189C129.073 40.4189 129.395 40.472 129.597 40.5329C129.792 40.5916 129.834 40.6447 129.82 40.6308L132.649 37.8024C131.564 36.7171 130.031 36.4189 128.592 36.4189V40.4189ZM129.864 40.673C129.867 40.676 129.879 40.6872 129.896 40.7157C129.914 40.7453 129.941 40.7985 129.969 40.885C130.028 41.0645 130.082 41.3592 130.082 41.8091H134.082C134.082 40.356 133.745 38.8332 132.605 37.7602L129.864 40.673ZM130.082 41.8091C130.082 42.686 129.869 42.8377 129.917 42.7931L132.652 45.7112C133.764 44.6695 134.082 43.1925 134.082 41.8091H130.082ZM129.917 42.7931C129.943 42.7686 129.899 42.8244 129.677 42.886C129.452 42.9485 129.102 43 128.592 43V47C130.021 47 131.559 46.7365 132.652 45.7112L129.917 42.7931ZM128.592 43H112.389V47H128.592V43ZM140.311 44.5513L141.606 43.0274L141.606 43.0274L140.311 44.5513ZM140.56 14.986L142.386 15.8013L142.391 15.7893L140.56 14.986ZM144.648 10.8479L143.818 9.02822L143.818 9.02822L144.648 10.8479ZM161.699 12.4931L160.344 13.9636L160.356 13.9746L160.368 13.9854L161.699 12.4931ZM158.758 44.5513L160.053 43.0274L160.053 43.0274L158.758 44.5513ZM156.464 17.2296L154.888 18.4609L154.91 18.4882L154.932 18.5148L156.464 17.2296ZM148.637 16.3321L147.66 14.5871L147.66 14.5871L148.637 16.3321ZM146.942 18.5259L148.857 19.1006L148.857 19.1006L146.942 18.5259ZM144.493 42.0584C144.493 42.8408 144.293 43.0657 144.237 43.1189C144.166 43.1878 143.879 43.3989 143.003 43.3989V47.3989C144.453 47.3989 145.912 47.0532 147.003 46.0086C148.111 44.9483 148.493 43.5031 148.493 42.0584H144.493ZM143.003 43.3989C142.205 43.3989 141.813 43.2038 141.606 43.0274L139.015 46.0752C140.137 47.0289 141.541 47.3989 143.003 47.3989V43.3989ZM141.606 43.0274C141.499 42.9368 141.313 42.7319 141.313 42.0584H137.313C137.313 43.5786 137.792 45.0357 139.015 46.0752L141.606 43.0274ZM141.313 42.0584V22.4646H137.313V42.0584H141.313ZM141.313 22.4646C141.313 19.4862 141.714 17.3063 142.386 15.8013L138.734 14.1707C137.744 16.3883 137.313 19.1942 137.313 22.4646H141.313ZM142.391 15.7893C143.023 14.3484 144.028 13.3291 145.478 12.6675L143.818 9.02822C141.479 10.095 139.758 11.8345 138.728 14.1827L142.391 15.7893ZM145.478 12.6675C147.013 11.9674 149.221 11.5516 152.226 11.5516V7.55157C148.916 7.55157 146.073 7.9999 143.818 9.02822L145.478 12.6675ZM152.226 11.5516C156.135 11.5516 158.722 12.4687 160.344 13.9636L163.055 11.0227C160.422 8.59551 156.694 7.55157 152.226 7.55157V11.5516ZM160.368 13.9854C161.898 15.351 162.94 17.9657 162.94 22.4646H166.94C166.94 17.5238 165.821 13.4909 163.031 11.0009L160.368 13.9854ZM162.94 22.4646V42.0584H166.94V22.4646H162.94ZM162.94 42.0584C162.94 42.8408 162.74 43.0657 162.685 43.1189C162.613 43.1878 162.326 43.3989 161.45 43.3989V47.3989C162.9 47.3989 164.359 47.0532 165.45 46.0086C166.558 44.9483 166.94 43.5031 166.94 42.0584H162.94ZM161.45 43.3989C160.652 43.3989 160.261 43.2038 160.053 43.0274L157.462 46.0752C158.584 47.0289 159.988 47.3989 161.45 47.3989V43.3989ZM160.053 43.0274C159.946 42.9368 159.761 42.7319 159.761 42.0584H155.761C155.761 43.5786 156.24 45.0357 157.462 46.0752L160.053 43.0274ZM159.761 42.0584V22.4646H155.761V42.0584H159.761ZM159.761 22.4646C159.761 19.8797 159.328 17.5317 157.997 15.9443L154.932 18.5148C155.329 18.9882 155.761 20.1302 155.761 22.4646H159.761ZM158.04 15.9983C156.676 14.2517 154.532 13.6341 152.226 13.6341V17.6341C153.909 17.6341 154.591 18.0802 154.888 18.4609L158.04 15.9983ZM152.226 13.6341C150.517 13.6341 148.923 13.8799 147.66 14.5871L149.614 18.0772C150.013 17.8538 150.811 17.6341 152.226 17.6341V13.6341ZM147.66 14.5871C146.332 15.3308 145.459 16.5076 145.026 17.9512L148.857 19.1006C149.022 18.5498 149.28 18.2642 149.614 18.0772L147.66 14.5871ZM145.026 17.9512C144.649 19.2089 144.493 20.7379 144.493 22.4646H148.493C148.493 20.934 148.636 19.8371 148.857 19.1006L145.026 17.9512ZM144.493 22.4646V42.0584H148.493V22.4646H144.493ZM179.371 43.7037L178.375 45.4384L178.386 45.4446L178.397 45.4507L179.371 43.7037ZM174.734 38.02L172.872 38.7506L172.876 38.7607L172.88 38.7709L174.734 38.02ZM174.734 16.731L172.883 15.9719L172.879 15.9821L172.875 15.9923L174.734 16.731ZM179.371 11.1969L178.419 9.43777L178.419 9.43777L179.371 11.1969ZM194.128 11.1969L193.164 12.9493L193.177 12.9559L194.128 11.1969ZM198.715 16.731L196.857 17.4697L196.861 17.4799L196.865 17.4901L198.715 16.731ZM198.715 38.02L196.861 37.2691L196.857 37.2793L196.853 37.2894L198.715 38.02ZM194.128 43.7037L195.114 45.4438L195.124 45.4384L194.128 43.7037ZM190.14 37.8704L189.044 36.1975L189.03 36.2064L189.017 36.2155L190.14 37.8704ZM192.333 34.4303L190.429 33.8207L190.423 33.8381L190.418 33.8556L192.333 34.4303ZM192.333 20.3207L190.421 20.9061L190.428 20.9297L190.436 20.9532L192.333 20.3207ZM190.14 17.0301L189.058 18.7125L189.093 18.7347L189.128 18.7555L190.14 17.0301ZM183.359 17.0301L184.371 18.7555L184.392 18.7428L184.414 18.7294L183.359 17.0301ZM181.116 20.3207L179.214 19.6999L179.21 19.712L179.207 19.7242L181.116 20.3207ZM181.116 34.4303L179.2 35.005L179.205 35.0225L179.211 35.0398L181.116 34.4303ZM183.359 37.8704L182.263 39.5434L182.263 39.5434L183.359 37.8704ZM186.749 43.3989C184.116 43.3989 182.009 42.8849 180.344 41.9568L178.397 45.4507C180.787 46.7828 183.599 47.3989 186.749 47.3989V43.3989ZM180.366 41.969C178.804 41.0726 177.52 39.5708 176.588 37.2691L172.88 38.7709C174.075 41.7208 175.883 44.0082 178.375 45.4384L180.366 41.969ZM176.596 37.2894C175.694 34.9928 175.188 31.718 175.188 27.3506H171.188C171.188 31.9574 171.712 35.7955 172.872 38.7506L176.596 37.2894ZM175.188 27.3506C175.188 22.9811 175.695 19.7277 176.592 17.4697L172.875 15.9923C171.712 18.9194 171.188 22.7457 171.188 27.3506H175.188ZM176.584 17.4901C177.512 15.2292 178.783 13.7887 180.322 12.9559L178.419 9.43777C175.903 10.7987 174.083 13.0476 172.883 15.9719L176.584 17.4901ZM180.322 12.9559C181.992 12.0525 184.107 11.5516 186.749 11.5516V7.55157C183.608 7.55157 180.804 8.14753 178.419 9.43777L180.322 12.9559ZM186.749 11.5516C189.431 11.5516 191.538 12.0547 193.164 12.9493L195.092 9.44442C192.73 8.14531 189.918 7.55157 186.749 7.55157V11.5516ZM193.177 12.9559C194.709 13.7852 195.962 15.2178 196.857 17.4697L200.574 15.9923C199.408 13.0591 197.602 10.8022 195.08 9.43777L193.177 12.9559ZM196.865 17.4901C197.788 19.7405 198.311 22.9858 198.311 27.3506H202.311C202.311 22.7411 201.769 18.9066 200.565 15.9719L196.865 17.4901ZM198.311 27.3506C198.311 31.7133 197.789 34.9801 196.861 37.2691L200.569 38.7709C201.769 35.8083 202.311 31.9621 202.311 27.3506H198.311ZM196.853 37.2894C195.954 39.5823 194.689 41.0762 193.133 41.969L195.124 45.4384C197.623 44.0046 199.416 41.7093 200.577 38.7506L196.853 37.2894ZM193.142 41.9637C191.521 42.8826 189.422 43.3989 186.749 43.3989V47.3989C189.927 47.3989 192.747 46.7851 195.114 45.4438L193.142 41.9637ZM186.749 40.8177C188.405 40.8177 189.944 40.4202 191.263 39.5254L189.017 36.2155C188.474 36.5837 187.753 36.8177 186.749 36.8177V40.8177ZM191.236 39.5434C192.75 38.551 193.681 36.8984 194.249 35.005L190.418 33.8556C189.989 35.286 189.457 35.9268 189.044 36.1975L191.236 39.5434ZM194.238 35.0398C194.863 33.0863 195.131 30.4846 195.131 27.3506H191.131C191.131 30.3324 190.867 32.4505 190.429 33.8207L194.238 35.0398ZM195.131 27.3506C195.131 24.1929 194.865 21.5922 194.231 19.6883L190.436 20.9532C190.865 22.2401 191.131 24.326 191.131 27.3506H195.131ZM194.246 19.7353C193.675 17.871 192.726 16.2281 191.151 15.3047L189.128 18.7555C189.481 18.9622 189.995 19.5131 190.421 20.9061L194.246 19.7353ZM191.221 15.3478C189.908 14.5035 188.384 14.1327 186.749 14.1327V18.1327C187.774 18.1327 188.51 18.3602 189.058 18.7125L191.221 15.3478ZM186.749 14.1327C185.135 14.1327 183.628 14.5092 182.304 15.3309L184.414 18.7294C185.018 18.3545 185.771 18.1327 186.749 18.1327V14.1327ZM182.348 15.3047C180.787 16.2197 179.82 17.8452 179.214 19.6999L183.017 20.9415C183.475 19.5389 184.003 18.9707 184.371 18.7555L182.348 15.3047ZM179.207 19.7242C178.617 21.6123 178.368 24.198 178.368 27.3506H182.368C182.368 24.3209 182.617 22.22 183.025 20.9173L179.207 19.7242ZM178.368 27.3506C178.368 30.479 178.618 33.0666 179.2 35.005L183.031 33.8556C182.616 32.4702 182.368 30.338 182.368 27.3506H178.368ZM179.211 35.0398C179.814 36.9238 180.762 38.5599 182.263 39.5434L184.455 36.1975C184.028 35.9179 183.481 35.2606 183.02 33.8207L179.211 35.0398ZM182.263 39.5434C183.592 40.4142 185.114 40.8177 186.749 40.8177V36.8177C185.792 36.8177 185.054 36.5897 184.455 36.1975L182.263 39.5434ZM209.517 44.5513L210.812 43.0274L210.812 43.0274L209.517 44.5513ZM211.012 12.5929L209.478 11.31L209.476 11.3125L211.012 12.5929ZM224.524 11.0473L225.584 9.35129L225.584 9.35129L224.524 11.0473ZM227.714 15.335L225.791 15.8844L227.714 22.6151L229.638 15.8844L227.714 15.335ZM230.905 11.0473L229.845 9.35129L229.845 9.35129L230.905 11.0473ZM244.566 12.4931L243.028 13.7709L243.033 13.7774L243.038 13.7838L244.566 12.4931ZM246.211 44.5014L244.717 43.1727L244.717 43.1727L246.211 44.5014ZM240.727 44.5014L239.275 45.8769L239.294 45.8965L239.313 45.9156L240.727 44.5014ZM232.401 17.5786L234.001 18.7786L234.011 18.7652L234.021 18.7516L232.401 17.5786ZM230.556 44.0029L229.062 42.6741L229.061 42.6741L230.556 44.0029ZM225.072 44.0029L223.62 45.3783L223.639 45.398L223.658 45.4171L225.072 44.0029ZM213.699 42.0584C213.699 42.8408 213.499 43.0657 213.443 43.1189C213.372 43.1878 213.085 43.3989 212.209 43.3989V47.3989C213.659 47.3989 215.118 47.0532 216.209 46.0086C217.317 44.9483 217.699 43.5031 217.699 42.0584H213.699ZM212.209 43.3989C211.411 43.3989 211.019 43.2038 210.812 43.0274L208.221 46.0752C209.343 47.0289 210.747 47.3989 212.209 47.3989V43.3989ZM210.812 43.0274C210.705 42.9368 210.519 42.7319 210.519 42.0584H206.519C206.519 43.5786 206.998 45.0357 208.221 46.0752L210.812 43.0274ZM210.519 42.0584V21.4674H206.519V42.0584H210.519ZM210.519 21.4674C210.519 17.7837 211.306 15.3643 212.549 13.8732L209.476 11.3125C207.395 13.81 206.519 17.307 206.519 21.4674H210.519ZM212.547 13.8757C213.771 12.4115 215.635 11.5516 218.491 11.5516V7.55157C214.766 7.55157 211.644 8.71917 209.478 11.31L212.547 13.8757ZM218.491 11.5516C220.649 11.5516 222.266 11.9947 223.464 12.7433L225.584 9.35129C223.59 8.10554 221.185 7.55157 218.491 7.55157V11.5516ZM223.464 12.7433C224.626 13.4699 225.391 14.4837 225.791 15.8844L229.638 14.7856C228.974 12.4636 227.612 10.6189 225.584 9.35129L223.464 12.7433ZM229.638 15.8844C230.038 14.4837 230.803 13.4699 231.965 12.7433L229.845 9.35129C227.817 10.6189 226.455 12.4636 225.791 14.7856L229.638 15.8844ZM231.965 12.7433C233.155 11.9996 234.801 11.5516 237.038 11.5516V7.55157C234.289 7.55157 231.846 8.1007 229.845 9.35129L231.965 12.7433ZM237.038 11.5516C240.043 11.5516 241.895 12.4071 243.028 13.7709L246.105 11.2153C243.98 8.6571 240.814 7.55157 237.038 7.55157V11.5516ZM243.038 13.7838C244.225 15.188 245.009 17.6159 245.009 21.4674H249.009C249.009 17.2088 248.165 13.6539 246.094 11.2024L243.038 13.7838ZM245.009 21.4674V41.5599H249.009V21.4674H245.009ZM245.009 41.5599C245.009 42.7497 244.761 43.123 244.717 43.1727L247.706 45.8302C248.726 44.6833 249.009 43.0955 249.009 41.5599H245.009ZM244.717 43.1727C244.716 43.1733 244.708 43.1833 244.681 43.2003C244.652 43.2181 244.598 43.2468 244.507 43.2771C244.318 43.3403 244.003 43.3989 243.519 43.3989V47.3989C245.028 47.3989 246.622 47.0498 247.706 45.8302L244.717 43.1727ZM243.519 43.3989C242.528 43.3989 242.214 43.1603 242.141 43.0872L239.313 45.9156C240.436 47.0391 241.984 47.3989 243.519 47.3989V43.3989ZM242.179 43.1259C242.079 43.0208 241.83 42.6407 241.83 41.5599H237.83C237.83 43.1381 238.178 44.719 239.275 45.8769L242.179 43.1259ZM241.83 41.5599V21.0686H237.83V41.5599H241.83ZM241.83 21.0686C241.83 19.1833 241.432 17.3961 240.288 16.0638C239.094 14.6732 237.399 14.1327 235.592 14.1327V18.1327C236.61 18.1327 237.034 18.4149 237.253 18.6695C237.522 18.9825 237.83 19.6633 237.83 21.0686H241.83ZM235.592 14.1327C233.667 14.1327 231.933 14.8145 230.781 16.4056L234.021 18.7516C234.265 18.4149 234.658 18.1327 235.592 18.1327V14.1327ZM230.801 16.3786C229.709 17.8343 229.354 19.868 229.354 22.0657H233.354C233.354 20.1419 233.697 19.1841 234.001 18.7786L230.801 16.3786ZM229.354 22.0657V41.0613H233.354V22.0657H229.354ZM229.354 41.0613C229.354 42.2512 229.106 42.6245 229.062 42.6741L232.051 45.3316C233.071 44.1847 233.354 42.5969 233.354 41.0613H229.354ZM229.061 42.6741C229.061 42.6747 229.052 42.6847 229.025 42.7017C228.997 42.7196 228.943 42.7482 228.852 42.7786C228.663 42.8417 228.348 42.9003 227.864 42.9003V46.9003C229.373 46.9003 230.967 46.5512 232.051 45.3316L229.061 42.6741ZM227.864 42.9003C226.873 42.9003 226.559 42.6617 226.486 42.5886L223.658 45.4171C224.781 46.5406 226.329 46.9003 227.864 46.9003V42.9003ZM226.524 42.6274C226.424 42.5222 226.175 42.1421 226.175 41.0613H222.175C222.175 42.6395 222.523 44.2204 223.62 45.3783L226.524 42.6274ZM226.175 41.0613V22.0657H222.175V41.0613H226.175ZM226.175 22.0657C226.175 19.9104 225.801 17.9347 224.743 16.4535C223.596 14.8483 221.875 14.1327 219.937 14.1327V18.1327C220.824 18.1327 221.222 18.4059 221.488 18.7784C221.842 19.2749 222.175 20.2657 222.175 22.0657H226.175ZM219.937 14.1327C218.129 14.1327 216.435 14.6732 215.241 16.0638C214.097 17.3961 213.699 19.1833 213.699 21.0686H217.699C217.699 19.6633 218.007 18.9825 218.276 18.6695C218.494 18.4149 218.919 18.1327 219.937 18.1327V14.1327ZM213.699 21.0686V42.0584H217.699V21.0686H213.699ZM257.195 10.3493L255.824 8.89288L255.824 8.89288L257.195 10.3493ZM262.679 44.6011L264.093 46.0154L264.093 46.0154L262.679 44.6011ZM260.037 43.3989C259.069 43.3989 258.716 43.1755 258.612 43.0812C258.546 43.021 258.347 42.8095 258.347 42.0584H254.347C254.347 43.5343 254.764 44.993 255.927 46.0463C257.053 47.0655 258.545 47.3989 260.037 47.3989V43.3989ZM258.347 42.0584V12.892H254.347V42.0584H258.347ZM258.347 12.892C258.347 12.464 258.4 12.1851 258.457 12.0163C258.509 11.8586 258.558 11.8125 258.566 11.8057L255.824 8.89288C254.694 9.95678 254.347 11.4519 254.347 12.892H258.347ZM258.566 11.8057C258.594 11.7789 258.881 11.5516 259.887 11.5516V7.55157C258.433 7.55157 256.926 7.85602 255.824 8.89288L258.566 11.8057ZM259.887 11.5516C260.832 11.5516 261.169 11.7721 261.264 11.8601C261.328 11.9184 261.527 12.133 261.527 12.892H265.527C265.527 11.424 265.119 9.96844 263.969 8.91321C262.852 7.88776 261.368 7.55157 259.887 7.55157V11.5516ZM261.527 12.892V42.0584H265.527V12.892H261.527ZM261.527 42.0584C261.527 42.8802 261.323 43.1292 261.265 43.1869L264.093 46.0154C265.166 44.9429 265.527 43.4968 265.527 42.0584H261.527ZM261.265 43.1869C261.279 43.173 261.236 43.2261 261.042 43.2848C260.84 43.3458 260.517 43.3989 260.037 43.3989V47.3989C261.476 47.3989 263.008 47.1006 264.093 46.0154L261.265 43.1869ZM280.931 36.2251L279.184 37.1993L279.188 37.2065L279.193 37.2137L280.931 36.2251ZM288.36 38.5186L288.724 40.4851L288.759 40.4787L288.794 40.4709L288.36 38.5186ZM293.695 39.067L292.321 40.521L292.343 40.5418L292.366 40.5618L293.695 39.067ZM293.346 43.7536L292.177 42.1305L292.161 42.1419L292.146 42.1536L293.346 43.7536ZM290.254 45L289.892 43.0331L289.883 43.0349L290.254 45ZM277.89 43.3547L276.818 45.0431L276.824 45.0469L276.83 45.0507L277.89 43.3547ZM273.353 37.4716L271.46 38.1184L271.465 38.1329L271.47 38.1473L273.353 37.4716ZM273.353 17.8279L271.46 17.1816L271.458 17.1885L271.455 17.1954L273.353 17.8279ZM277.89 11.6456L276.793 9.97347L276.786 9.97745L276.78 9.98147L277.89 11.6456ZM290.254 9.90057L289.883 11.8657L289.892 11.8675L290.254 9.90057ZM293.346 11.147L292.146 12.747L292.161 12.7587L292.177 12.7701L293.346 11.147ZM293.695 15.8336L292.321 14.3795L292.321 14.3795L293.695 15.8336ZM288.36 16.4319L287.926 18.3842L287.961 18.3919L287.996 18.3984L288.36 16.4319ZM280.582 18.9746L278.727 18.2262L278.724 18.2347L278.721 18.2433L280.582 18.9746ZM277.485 27.6996C277.485 31.7187 277.958 35 279.184 37.1993L282.678 35.251C281.977 33.9935 281.485 31.5911 281.485 27.6996H277.485ZM279.193 37.2137C280.499 39.5114 282.579 40.7679 285.219 40.7679V36.7679C284.069 36.7679 283.291 36.3291 282.67 35.2365L279.193 37.2137ZM285.219 40.7679C286.502 40.7679 287.676 40.6792 288.724 40.4851L287.996 36.552C287.249 36.6903 286.329 36.7679 285.219 36.7679V40.7679ZM288.794 40.4709C289.583 40.2955 290.249 40.2194 290.803 40.2194V36.2194C289.894 36.2194 288.931 36.3428 287.926 36.5662L288.794 40.4709ZM290.803 40.2194C291.92 40.2194 292.266 40.4686 292.321 40.521L295.068 37.613C293.927 36.5353 292.344 36.2194 290.803 36.2194V40.2194ZM292.366 40.5618C292.5 40.6814 292.592 40.8169 292.592 41.161H296.592C296.592 39.7767 296.085 38.5163 295.023 37.5722L292.366 40.5618ZM292.592 41.161C292.592 41.7253 292.426 41.9512 292.177 42.1305L294.514 45.3766C295.927 44.3594 296.592 42.8569 296.592 41.161H292.592ZM292.146 42.1536C291.656 42.521 290.936 42.8408 289.892 43.0331L290.617 46.9669C292.099 46.6939 293.44 46.1827 294.546 45.3536L292.146 42.1536ZM289.883 43.0349C288.78 43.2435 287.641 43.349 286.465 43.349V47.349C287.882 47.349 289.27 47.2218 290.626 46.9651L289.883 43.0349ZM286.465 43.349C283.097 43.349 280.65 42.7215 278.95 41.6587L276.83 45.0507C279.384 46.6469 282.654 47.349 286.465 47.349V43.349ZM278.962 41.6663C277.285 40.6013 276.033 39.0191 275.235 36.7958L271.47 38.1473C272.534 41.1092 274.307 43.449 276.818 45.0431L278.962 41.6663ZM275.245 36.8248C274.441 34.4723 274.007 31.4497 274.007 27.6996H270.007C270.007 31.7271 270.469 35.2193 271.46 38.1184L275.245 36.8248ZM274.007 27.6996C274.007 23.9519 274.441 20.8888 275.25 18.4603L271.455 17.1954C270.47 20.1515 270.007 23.6696 270.007 27.6996H274.007ZM275.246 18.4741C276.056 16.1019 277.323 14.4273 278.999 13.3097L276.78 9.98147C274.269 11.6558 272.511 14.1027 271.46 17.1816L275.246 18.4741ZM278.987 13.3177C280.68 12.2066 283.112 11.5516 286.465 11.5516V7.55157C282.639 7.55157 279.354 8.2925 276.793 9.97347L278.987 13.3177ZM286.465 11.5516C287.641 11.5516 288.78 11.657 289.883 11.8657L290.626 7.93543C289.27 7.67876 287.882 7.55157 286.465 7.55157V11.5516ZM289.892 11.8675C290.936 12.0598 291.656 12.3796 292.146 12.747L294.546 9.547C293.44 8.71785 292.099 8.20671 290.617 7.93366L289.892 11.8675ZM292.177 12.7701C292.426 12.9494 292.592 13.1752 292.592 13.7396H296.592C296.592 12.0437 295.927 10.5412 294.514 9.52393L292.177 12.7701ZM292.592 13.7396C292.592 14.0263 292.515 14.1965 292.321 14.3795L295.068 17.2876C296.071 16.3406 296.592 15.1147 296.592 13.7396H292.592ZM292.321 14.3795C292.266 14.4319 291.92 14.6811 290.803 14.6811V18.6811C292.344 18.6811 293.927 18.3653 295.068 17.2876L292.321 14.3795ZM290.803 14.6811C290.219 14.6811 289.529 14.6145 288.724 14.4653L287.996 18.3984C288.985 18.5816 289.924 18.6811 290.803 18.6811V14.6811ZM288.794 14.4795C287.719 14.2406 286.52 14.1327 285.219 14.1327V18.1327C286.311 18.1327 287.206 18.2243 287.926 18.3842L288.794 14.4795ZM285.219 14.1327C283.79 14.1327 282.434 14.424 281.27 15.138C280.086 15.8636 279.249 16.9343 278.727 18.2262L282.437 19.723C282.68 19.1203 282.998 18.77 283.36 18.5484C283.741 18.315 284.321 18.1327 285.219 18.1327V14.1327ZM278.721 18.2433C277.846 20.4686 277.485 23.69 277.485 27.6996H281.485C281.485 23.7984 281.855 21.2032 282.444 19.7059L278.721 18.2433ZM306.568 45.0997L306.851 43.1198L306.851 43.1198L306.568 45.0997ZM303.178 44.302L302.427 46.1559L302.443 46.1624L302.46 46.1687L303.178 44.302ZM301.931 39.1667L303.345 40.5809L301.931 39.1667ZM307.864 38.6183L308.236 36.6531L308.236 36.6531L307.864 38.6183ZM315.542 38.1696L316.562 39.8902L316.562 39.8902L315.542 38.1696ZM315.841 32.4859L314.427 33.9001L314.444 33.9173L314.462 33.9341L315.841 32.4859ZM311.803 30.5913L311.233 32.5084L311.237 32.5095L311.803 30.5913ZM303.776 26.503L302.362 27.9172L302.369 27.9244L302.376 27.9314L303.776 26.503ZM302.829 14.4376L301.148 13.3525L301.143 13.3615L302.829 14.4376ZM307.066 10.798L306.226 8.98306L306.226 8.98306L307.066 10.798ZM319.88 10.6484L319.113 12.4956L319.14 12.5069L319.168 12.5174L319.88 10.6484ZM321.076 15.8336L322.49 17.2478L322.49 17.2478L321.076 15.8336ZM315.642 16.4319L315.237 18.3904L315.269 18.3971L315.302 18.4028L315.642 16.4319ZM309.559 16.8806L310.686 18.533L310.686 18.533L309.559 16.8806ZM310.008 22.2651L311.293 20.7328L311.293 20.7328L310.008 22.2651ZM315.692 24.8079L315.115 26.7229L315.126 26.7263L315.692 24.8079ZM322.223 28.597L320.623 29.797L320.629 29.8051L320.635 29.8132L322.223 28.597ZM320.478 42.6567L321.714 44.2294L321.717 44.227L320.478 42.6567ZM310.556 43.3989C309.398 43.3989 308.164 43.3074 306.851 43.1198L306.285 47.0796C307.764 47.2909 309.189 47.3989 310.556 47.3989V43.3989ZM306.851 43.1198C305.535 42.9318 304.567 42.6935 303.895 42.4353L302.46 46.1687C303.517 46.5753 304.809 46.8687 306.285 47.0796L306.851 43.1198ZM303.928 42.4481C303.478 42.266 303.293 42.0846 303.217 41.9814C303.154 41.8953 303.084 41.7559 303.084 41.4601H299.084C299.084 42.4939 299.362 43.4929 299.997 44.3541C300.619 45.1981 301.481 45.7729 302.427 46.1559L303.928 42.4481ZM303.084 41.4601C303.084 40.9098 303.231 40.6956 303.345 40.5809L300.517 37.7525C299.501 38.7679 299.084 40.0827 299.084 41.4601H303.084ZM303.345 40.5809C303.418 40.5078 303.732 40.2693 304.723 40.2693V36.2693C303.188 36.2693 301.64 36.629 300.517 37.7525L303.345 40.5809ZM304.723 40.2693C305.421 40.2693 306.336 40.3646 307.492 40.5834L308.236 36.6531C306.933 36.4066 305.754 36.2693 304.723 36.2693V40.2693ZM307.492 40.5834C308.806 40.8319 310.015 40.9673 311.105 40.9673V36.9673C310.333 36.9673 309.382 36.87 308.236 36.6531L307.492 40.5834ZM311.105 40.9673C313.236 40.9673 315.178 40.7104 316.562 39.8902L314.522 36.449C314.112 36.6924 313.095 36.9673 311.105 36.9673V40.9673ZM316.562 39.8902C318.358 38.8255 318.888 36.8422 318.888 34.9289H314.888C314.888 35.576 314.797 35.9717 314.705 36.1933C314.625 36.3854 314.555 36.4297 314.522 36.449L316.562 39.8902ZM318.888 34.9289C318.888 33.4176 318.315 32.0798 317.221 31.0376L314.462 33.9341C314.764 34.2214 314.888 34.5123 314.888 34.9289H318.888ZM317.255 31.0716C316.201 30.0176 314.411 29.2755 312.369 28.6731L311.237 32.5095C313.25 33.1036 314.152 33.6246 314.427 33.9001L317.255 31.0716ZM312.373 28.6742C308.815 27.6165 306.5 26.3723 305.176 25.0746L302.376 27.9314C304.376 29.891 307.412 31.3723 311.233 32.5084L312.373 28.6742ZM305.19 25.0888C303.985 23.8837 303.333 22.306 303.333 20.1711H299.333C299.333 23.2214 300.309 25.865 302.362 27.9172L305.19 25.0888ZM303.333 20.1711C303.333 18.2081 303.763 16.6902 304.514 15.5136L301.143 13.3615C299.899 15.3093 299.333 17.6138 299.333 20.1711H303.333ZM304.509 15.5226C305.325 14.2586 306.44 13.2918 307.907 12.6129L306.226 8.98306C304.103 9.96605 302.393 11.4257 301.148 13.3525L304.509 15.5226ZM307.907 12.6129C309.399 11.9219 311.149 11.5516 313.199 11.5516V7.55157C310.661 7.55157 308.323 8.01222 306.226 8.98306L307.907 12.6129ZM313.199 11.5516C315.728 11.5516 317.672 11.8977 319.113 12.4956L320.646 8.80124C318.564 7.93671 316.054 7.55157 313.199 7.55157V11.5516ZM319.168 12.5174C319.603 12.6832 319.773 12.8529 319.84 12.9441C319.897 13.0217 319.974 13.1658 319.974 13.4903H323.974C323.974 12.452 323.701 11.4411 323.06 10.5713C322.429 9.71528 321.552 9.14542 320.592 8.77945L319.168 12.5174ZM319.974 13.4903C319.974 14.0041 319.832 14.2494 319.662 14.4194L322.49 17.2478C323.517 16.2212 323.974 14.9043 323.974 13.4903H319.974ZM319.662 14.4194C319.64 14.4412 319.365 14.6811 318.334 14.6811V18.6811C319.83 18.6811 321.382 18.356 322.49 17.2478L319.662 14.4194ZM318.334 14.6811C317.635 14.6811 316.852 14.6111 315.982 14.4609L315.302 18.4028C316.359 18.585 317.371 18.6811 318.334 18.6811V14.6811ZM316.047 14.4733C314.957 14.2479 313.874 14.1327 312.8 14.1327V18.1327C313.587 18.1327 314.398 18.2169 315.237 18.3904L316.047 14.4733ZM312.8 14.1327C311.194 14.1327 309.643 14.4027 308.433 15.2281L310.686 18.533C310.938 18.3613 311.547 18.1327 312.8 18.1327V14.1327ZM308.433 15.2281C306.989 16.2127 306.462 17.7794 306.462 19.3734H310.462C310.462 18.9941 310.523 18.7841 310.567 18.6832C310.603 18.6011 310.638 18.5658 310.686 18.533L308.433 15.2281ZM306.462 19.3734C306.462 21.1791 307.369 22.6621 308.723 23.7975L311.293 20.7328C310.586 20.1398 310.462 19.695 310.462 19.3734H306.462ZM308.723 23.7975C310.088 24.9426 312.326 25.8828 315.115 26.7229L316.268 22.8928C313.54 22.071 311.989 21.316 311.293 20.7328L308.723 23.7975ZM315.126 26.7263C318.116 27.6075 319.805 28.7063 320.623 29.797L323.823 27.397C322.248 25.2968 319.582 23.8695 316.257 22.8894L315.126 26.7263ZM320.635 29.8132C321.507 30.9514 322.018 32.4884 322.018 34.5799H326.018C326.018 31.8185 325.332 29.367 323.811 27.3808L320.635 29.8132ZM322.018 34.5799C322.018 37.609 321.033 39.672 319.239 41.0864L321.717 44.227C324.643 41.9187 326.018 38.5972 326.018 34.5799H322.018ZM319.242 41.0841C317.396 42.5351 314.591 43.3989 310.556 43.3989V47.3989C315.097 47.3989 318.907 46.4345 321.714 44.2294L319.242 41.0841Z" fill="black" mask="url(#path-1-outside-1_53_598)"/>
</svg>
